<svg xmlns="http://www.w3.org/2000/svg" viewBox="0 0 782 782"><defs><style>.cls-1{fill:#727358;}.cls-2{fill:#85aad4;}.cls-3{fill:#57534b;}.cls-4{fill:#22262a;}.cls-5{fill:#6e685a;}.cls-6{fill:#729bca;}.cls-7{fill:#191c1e;}.cls-8{fill:#4f5454;}.cls-9{fill:#8690a0;}.cls-10{fill:#3a3620;}.cls-11{fill:#6b7490;}.cls-12{fill:#787960;}.cls-13{fill:#7e6d79;}.cls-14{fill:#606379;}.cls-15{fill:#74613c;}.cls-16{fill:none;stroke:#fff;stroke-linecap:round;stroke-linejoin:round;stroke-width:10px;}.cls-17{fill:#efeeeb;}.cls-18{fill:#6f6660;}.cls-19{fill:#dea087;}.cls-20{fill:#d0cdc8;}.cls-21{fill:#be896a;}.cls-22{fill:#3e3a23;}.cls-23{fill:#6e521b;}.cls-24{fill:#43312f;}.cls-25{fill:#5e5d33;}.cls-26{fill:#657b9a;}.cls-27{fill:#5b5a61;}.cls-28{fill:#3a302b;}.cls-29{fill:#a9aebb;}.cls-30{fill:#3f392d;}.cls-31{fill:#eebfa8;}.cls-32{fill:#c6886a;}.cls-33{fill:#2e1c13;}.cls-34{fill:#6d4a38;}.cls-35{fill:#392c25;}.cls-36{fill:#95664e;}.cls-37{fill:#fcf064;}.cls-38{fill:#f7d151;}.cls-39{fill:#d8aa37;}.cls-40{fill:#d1a532;}.cls-41{fill:#0a0809;}.cls-42{fill:#1a1713;}.cls-43{fill:#a88821;}.cls-44{fill:#604b0f;}.cls-45{fill:#f8d148;}.cls-46{fill:#d84e09;}</style></defs><g id="BKGD"><polygon class="cls-1" points="0 211.84 324 208.94 444.86 220.43 629.59 235.77 782 239.6 782 537.49 0 389 0 211.84"/><path class="cls-2" d="M782,8V235c-43.1-1.14-86.22-1.9-129.29-3.67-12.68-.53-25.24-3.94-37.86-6L612.24,223c-2.21-5.15-3.9-1.68-6-6.88-.31-.77-2.35-4-1.83-4.8,1-1.44-4.54.08-3.36-1.23-2.28-.18,4.12-9.75,1.83-9.93a6.61,6.61,0,0,0-.76-.22c0-2,0-3.9,0-5.84a2.41,2.41,0,0,0,.23-.78l-4.61-8.92-1.55-.15-1.92,6.94c0,2.21,0,4.42,0,6.63v2.44l-.1,4.78c-3.63,1.48-7.17,3.91-10.91,4.28-13.08,1.28-26.22,2.3-39.36,2.6-17,.37-34,.81-50.74-1.34-1.84-.24-1.91-17.32-2-26.59,0-3.79,2.23-7.57,3.33-11.39a5.88,5.88,0,0,0-.31-2.29c-.46.57-1.28,1.11-1.33,1.71-1.2,13-2.14,26-3.62,38.88-.21,1.89-2.94,5-4.46,5-17.52-.33-35.17,0-52.51-2.1-39.63-4.9-78.95-14-118.67-15.95-39.53-2-79.39,2.61-119.1,4.33q-16.33.71-32.69,1.45l-.3,2.3L160,207c-1-1.39-1.91-2.77-2.86-4.15-13.28-1.66-25.89-3.57-21.7-22.55,1.09-4.92-.56-10.44-1-15.69,0-.43.06-.86.08-1.29q-.42-8.76-.83-17.51c-2-2-3.86-4-5.89-5.89-1.15-1.07-3.51-1.86-3.57-2.86-.11-2.24.24-5.06,1.57-6.7,2-2.41,4.93-4,7.47-5.95-3.61-.35-7.62-1.75-10.67-.61-1.71.64-2.46,5.5-2.54,8.49-.24,8.58.09,17.17.2,25.76v2.86l1,12.14-.45,26.83-.91.73-2.93,0L115.68,202v2.09l-.65,3-3.32,0-8.45-6.39-3.45-1.21H86.2l-4.44.18-1.52,0-22.43-1.23H55.22l-3.22.33-3.68,0-4.22-3.93L24,186.34l-2,0L2.75,182.6l-1.8.45L0,182Q0,93,.17,4C.17,2.66,2.67.17,4,.17Q158-.1,312,0c1.63,1.33,3.43,4,4.87,3.77C323.3,3,329.63,1.33,336,0h5c3.67,2.17,7.09,5.32,11.05,6.34C369,10.67,386,15.09,403.2,18.08c14.91,2.59,30.11,3.68,45.24,4.73,16,1.11,32.08,1.56,48.14,2,13.49.34,27.12-1,40.45.57,15.43,1.78,30.52,7.91,45.88,8.42,17.56.58,35.25-3,52.89-4.71,16.34-1.61,32.69-3.11,49-4.82,6.07-.63,12.09-1.91,18.17-2.51,13.18-1.3,26.54-1.48,39.55-3.74C755.87,15.66,768.86,11.41,782,8ZM379.32,179.84l4.6,8.7c2.68-2.81,6.6-5.28,7.54-8.59.46-1.64-4.6-4.82-7.16-7.31Zm272.75,46.31,7.22-3.06c-4.48-1.89-8.84-4.29-13.5-5.41-1.76-.42-4.22,2.12-6.37,3.31Z"/><path class="cls-3" d="M464,782H382l-4.72-7L367,782q-181.5,0-363-.17c-1.33,0-3.83-2.49-3.83-3.83Q-.12,665.5,0,553c2.41,2.64,4.47,7.12,7.28,7.65,44.32,8.43,88.57,17.49,133.19,24,36.59,5.37,73.64,7.63,110.49,11.27l.07.09c1,1.77,1.79,4.9,3.05,5.1,22.45,3.56,44.93,6.94,67.46,10,41.16,5.59,82.32,11.21,123.54,16.32,77.63,9.62,155.3,18.88,233,28.29l2,.24,3,1,0,0c2.82.87,5.62,2.38,8.48,2.52,15.93.78,31.88,1.23,47.83,1.78l6.67.78,1.44,5c.54-1,1.07-2.07,1.6-3.11l2.8.37,1.08,3.5c.38-.93.77-1.85,1.15-2.78l.81-1.21c1.9,1.63,4.64,2.91,5.51,5,1.42,3.34,1.62,7.21,2.34,10.85q1.71-7.21,3.44-14.45L782,667v22h-2.74l2.74,2v7l-4.56-1.55c.2,2.94.41,5.88.61,8.82l4-2.27v10l-7.42.25L782,721v5c-4.44.8-8.91,1.44-13.27,2.54-.73.19-1.59,3.31-1.32,3.5,1.67,1.12,4.07,1.37,5.45,2.71,3.27,3.18,6.12,6.81,9.14,10.25v4c-1.71,1.2-4.93,2.45-4.9,3.6.3,9.81,1.19,19.6,1.9,29.4h-4c.59-1.48,1.54-2.94,1.62-4.45,0-.79-1.44-1.67-2.23-2.5-.46,2.31-.93,4.63-1.39,7H724c-.32-3.14-.66-6.27-.94-9.41-.1-1.16.42-2.66-.13-3.44-2.15-3-4.62-5.77-7-8.63,1.18,3.79,2.69,7.52,3.45,11.39.64,3.27.43,6.72.59,10.09H647c1.19-1.7,2.39-3.4,3.58-5.11-9.55.07-19.11,0-28.65.43-1,0-2,3-2.93,4.68h-5c-.33-2-.65-4-1-6q-1.07-2.07-2.14-4.14L609.62,773l3.36,3-3,6H538l-3.31-5.84L534,782H506c-4.95-1.66-9.82-3.87-14.9-4.66-1.75-.27-4.05,3-6.1,4.66h-3l-4.82-5.15L475,782h-9c-.21-1.68,0-3.57-.76-5-.53-1-2.32-1.31-3.55-1.93Zm240.23-13.73v5.13c.52,0,1.44.12,1.5,0,.51-1.51.88-3.07,1.28-4.61,1.21,1.47,2.43,2.94,3.62,4.43.6.73,1.15,1.49,1.73,2.23.32-.3,1-.71.92-.9-1.58-5-3.21-10-4.93-15-.1-.28-1.55-.4-1.56-.36C705.66,763,704.61,766.88,704.23,768.27ZM451,766.79l-3.75-4.08c.15,4.16.24,8.33.48,12.48a39.16,39.16,0,0,0,.81,4.66C449.26,775.91,450,772,451,766.79Zm8.65,10.37-4.6-9.3c-.6.88-1.91,2-1.68,2.58,1.28,3.15,2.93,6.16,4.46,9.22Zm200-7.92c-.72,2.27-1.46,3.4-1.16,3.87,1.59,2.51,3.44,4.86,5.19,7.27.28-.68,1-1.54.75-2C663.17,775.68,661.69,773.06,659.66,769.24Zm-220.38,8c-2.09-.85-3-1.48-4.06-1.59-.77-.09-1.6.49-2.4.78a20.83,20.83,0,0,0,3.27,2.63C436.44,779.27,437.42,778.35,439.28,777.25Zm238.45,2.33a12.19,12.19,0,0,0-2.87-1.64c-.24-.06-.79,1.15-1.19,1.77.63.4,1.23,1.06,1.89,1.12S676.7,780.21,677.73,779.58Zm49.15-111-1.74-3.49c-.25.48-.79,1-.68,1.42a26.88,26.88,0,0,0,1.42,3.38Zm17.18-2c-.93-.54-1.46-1.09-1.88-1s-.9.7-1.35,1.08c.43.37.84,1,1.29,1S743.1,667.11,744.06,666.54Z"/><path class="cls-4" d="M251,596c-36.85-3.64-73.9-5.9-110.49-11.27-44.62-6.55-88.87-15.61-133.19-24-2.81-.53-4.87-5-7.28-7.65V532l54,3c37.53,3,75.1,5.66,112.6,9,110.12,9.9,220.21,20.11,330.34,30,2,.19,5.17-1.93,6.25-3.85,1.48-2.63,1.48-6.09,2.12-9.19.95,3.7,1,9.91,3,10.64,7.55,2.74,15.73,3.88,23.73,5.24,13.11,2.22,26.29,4,39.39,6.32,1.48.26,2.66,2.24,4,3.42-6,2.06-12,4.56-18.17,6-3.11.73-6.66-.43-10-.74,3.44.75,6.84,1.71,10.32,2.23,27,4,54.13,7,80.64,13,3.93.88,4.84,15.53,7,23.86.76,3,.69,6.2,1.65,9.09.38,1.14,2.55,1.69,3.91,2.52.76-2.6,1.51-5.2,2.28-7.8L660.89,608,684,614.91c0,.34,0,.68.05,1l-5,2.87c2.23,1,4.54,1.92,6.68,3.12,1.69,1,3.74,2,4.57,3.54.72,1.36,0,3.51-.14,5.31a32,32,0,0,0-4.6-2.84c-2.26-.95-4.68-1.51-7-2.24.89,1.5,2.59,3,2.51,4.49-.17,3.51-1.18,7-1.85,10.46-.4-.6-.81-1.18-1.2-1.78q-1.26-2-2.51-3.93c-1.49,1.41-4.48,3.31-4.21,4.15,1.85,5.68,4.39,11.14,6.71,16.67-77.65-9.41-155.32-18.67-232.95-28.29-41.22-5.11-82.38-10.73-123.54-16.32-22.53-3-45-6.43-67.46-10-1.26-.2-2-3.33-3.05-5.1l2.94,1.07c-.08-.41-.12-1.16-.22-1.17C252.82,595.88,251.89,595.94,251,596Zm257.37-9,34.45,4.13c-10.37-2.23-20.73-4.51-31.12-6.62-1.48-.3-3.13.21-4.69.35,0,.62-.06,1.69.2,1.79C508.45,587.1,509.82,587.32,508.33,587Zm135.42,36.6c-.57-1.07-.94-1.75-1.3-2.44-.41.31-1.2.69-1.16.9a5.36,5.36,0,0,0,1,2C642.33,624.18,643.09,623.8,643.75,623.58Z"/><path class="cls-5" d="M54,535,0,532V389l5.1-.14L13,389c16.67,4.71,33.33,9.46,50,14.11,7.6,2.11,15.55,3.3,22.86,6.15,12.28,4.78,24,11,36.37,15.52,2.7,1,7.18-2.92,10.84-4.57l1.78.11c7.68,2.14,16.1,3,22.85,6.77,7.37,4.14,13.15,11.09,19.73,16.68,1.25,1.06,3,1.5,4.58,2.22q3.93,7.83,7.88,15.65c.35-.45,1.09-1.13,1-1.3C188,455.53,185,450.77,182,446q0-7.29,0-14.56c1,2.32,1.77,4.71,2.9,6.95.95,1.89,2.38,3.54,3.37,5.42s1.84,5.38,2.32,5.3c3.56-.54,7.3-1.28,10.41-3,2.34-1.29,5-6.24,5.52-5.95,3.75,2.09,6.75,5.54,10.52,7.59,1.67.91,4.58-.43,6.92-.76h0c-2.67,2-5.32,4.1-8,6.11a5.87,5.87,0,0,1-1.48.59c1.68,2.72,3.31,5.46,5.11,8.1.17.25,1.37-.05,2-.3.89-.35,1.81-1.39,2.53-1.24,1,.22,1.9,1.24,2.84,1.92-.91.46-2.34.7-2.63,1.41-2.45,6-5.06,11.89-6.68,18.07-.32,1.22,3.39,3.5,5.25,5.3-.27-1.81-1.39-4.14-.65-5.31,2.18-3.47,5.09-6.48,7.72-9.66l0,0c.1,3.45.35,6.91.24,10.36a45.78,45.78,0,0,1-1.06,6.3c1.35-1.09,2.56-2.5,4.09-3.21,3.1-1.45,9.08-2.52,9.08-3.75,0-4-2.42-8-3.29-12.15-.24-1.17,1.68-2.78,2.61-4.19,1.62,3.52,3.22,7.05,4.86,10.56,2,4.33,4.07,8.65,6.1,13,2-1.22,4.06-3.57,5.88-3.37a8.54,8.54,0,0,1,5.78,4.26c1.63,3.42,4.08,9,2.62,10.8-2.68,3.39-7.74,5.32-12.16,6.84-9.19,3.15-18.63,5.55-27.89,8.53-1,.33-1.46,2.4-2.16,3.67.4.15.85.52,1.19.43a14,14,0,0,0,4-1.31c.74-.44,1-1.61,1.55-2.45.42,1.24.92,2.46,1.24,3.73,1.41,5.52,2.76,11.06,4.14,16.59,1.54-.66,3.71-.93,4.43-2.1s-.52-3.33-.1-4.83c1.07-3.81,2.59-7.49,3.93-11.23,1.05.65,3.09,1.56,3,1.91-.8,3.1-2.21,6-3,9.14-.42,1.75.09,3.71.18,5.58,1-.28,2-.62,3-.82s2.13-.64,2.77-.25a2.64,2.64,0,0,1,.38,2.58c-1.11,1.61-2.64,4.23-3.93,4.19-16.72-.51-33.48-.91-50.11-2.54-5.19-.51-9.82-5.54-15.09-6.67-2.86-.61-6.41,3.31-9.88,4a49.35,49.35,0,0,1-14.62,1.08c-12.3-1.21-24.52-3.1-36.78-4.72l0,0c-13.27-.85-26.55-2.22-39.83-2.35-7.72-.08-15.48,1.73-23.19,2.93C56.57,532.81,55.32,534.18,54,535Zm91.2-7.51c-.63,1.56-1.49,2.71-1.2,3.24a4.59,4.59,0,0,0,2.59,1.74c.4.14,1.12-.71,1.7-1.12Z"/><path class="cls-6" d="M782,8c-13.14,3.41-26.13,7.66-39.45,10-13,2.26-26.37,2.44-39.55,3.74-6.08.6-12.1,1.88-18.17,2.51-16.34,1.71-32.69,3.21-49,4.82-17.64,1.74-35.33,5.29-52.89,4.71-15.36-.51-30.45-6.64-45.88-8.42-13.33-1.54-27-.23-40.45-.57-16.06-.4-32.13-.85-48.14-2-15.13-1-30.33-2.14-45.24-4.73-17.21-3-34.2-7.41-51.15-11.74-4-1-7.38-4.17-11.05-6.34C485.33,0,637.67-.38,782,0,784.67,0,793.67,3.78,782,8Z"/><path class="cls-7" d="M678,655.75c-2.32-5.53-4.86-11-6.71-16.67-.27-.84,2.72-2.74,4.21-4.15q1.25,2,2.51,3.93c.39.6.8,1.18,1.2,1.78.67-3.49,1.68-6.95,1.85-10.46.08-1.45-1.62-3-2.51-4.49,2.35.73,4.77,1.29,7,2.24a32,32,0,0,1,4.6,2.84c.1-1.8.86-3.95.14-5.31-.83-1.56-2.88-2.58-4.57-3.54-2.14-1.2-4.45-2.09-6.68-3.12l5-2.86,92.06,13.74h1.75L782,631v36l-15.87-1.78-11.29-1.38-.81,1.21-2.23-.72L749,664l-3-1.89-6.67-.78c-12.91-2.56-25.73-5.8-38.75-7.4-6.66-.82-13.68,1.31-20.54,2.1Z"/><path class="cls-8" d="M21.91,232.9c-16.2,11.78-16.32-.51-17.36-11.53,0-.26-1-.42-1.54-.62L3.25,224,0,226V183l.47.13.48-.08,1.8-.45L22,186.31l2,0,14.79,9,1,1.25L52,199.94l1.83.44,4.66,4.81,1.47,10.68L51,214l-3-.82-1.93-1.33L45,210.75l-3.3-.58.4-5.19c-1.65,3.62-3.26,7.26-5,10.84a6.51,6.51,0,0,1-2,2.51c-.32.22-1.33-.68-2.07-.91-2.67-.86-5.36-1.66-8-2.47q-1.24,7-2.48,14.09l.22,3.82A1.16,1.16,0,0,0,21.91,232.9Z"/><path class="cls-9" d="M633,236l-18.19-10.72c12.62,2.08,25.18,5.49,37.86,6C695.78,233.1,738.9,233.86,782,235v10q-69.81-4.87-139.61-9.71c-3.11-.21-6.26.44-9.4.69Z"/><path class="cls-6" d="M336,0c-6.37,1.33-12.7,3-19.13,3.77C315.43,4,313.63,1.33,312,0Z"/><path class="cls-3" d="M782,741l-6.54-2,6.54-9Z"/><path class="cls-10" d="M464,782l-2.31-6.89c1.23.62,3,.94,3.55,1.93.74,1.39.55,3.28.76,5Z"/><path class="cls-10" d="M782,691l-2.74-2H782Z"/><path class="cls-11" d="M1,183.05l-.48.08L0,183v-1Z"/><path class="cls-3" d="M781,782l1-1Z"/><path class="cls-1" d="M592,323c-1.9-1.08-5.56-2.6-5.41-3.16.72-2.84,1.9-6,4-7.93,1.42-1.32,4.57-1.17,6.89-1,2.5.16,4.95,1.11,7.42,1.71-1-3.12-2.41-6.19-3-9.39-.36-1.9.52-4,.84-6.05,1.86,1.25,4.09,2.19,5.53,3.82,6,6.9,11.85,14,17.74,21h0c-4.12-.54-8.23-1.11-12.35-1.59-2.2-.26-4.41-.36-6.62-.54,1.1,1.54,2.24,3.05,3.29,4.62a4,4,0,0,1,.33,1.38c-2.6-.87-5.25-1.62-7.78-2.65-4-1.65-8-3.49-12-5.25l1.13,5Z"/><path class="cls-5" d="M634,365.17c-1.55-12.9-2.2-18.33-2.85-23.76,3.41,11.3,6.84,22.61,10.16,33.94.14.45-.73,1.2-1.14,1.81Z"/><path class="cls-1" d="M626,322l4.56,15.16c-4.34-1.51-8.65-3.15-13-4.49-4.07-1.25-8.24-2.18-12.36-3.25,4.38.3,9.12,1.75,13,.53,3.14-1,5.26-5.19,7.84-8Z"/><path class="cls-1" d="M283.48,311.27c.28.22,3.23,2.52,6.14,4.87a5.09,5.09,0,0,1,.81,1.19c-1.58.2-3.66,1.11-4.61.43-1.14-.82-1-4.11-2-4.35-2.68-.69-5.62-.38-8.47-.46Z"/><path class="cls-5" d="M254,476q-1.44,2.26-2.9,4.53c-.68-1.53-1.88-3-2-4.59-.23-4.94,0-9.9,0-14.86,1.89,3,4.07,5.83,5.42,9,.28.67-2.51,2.64-3.89,4L254,476Z"/><path class="cls-5" d="M224,447l14.44,5.8c-2.71.62-6.05,2.5-8,1.54-2.7-1.34-4.36-4.79-6.46-7.34Z"/><path class="cls-5" d="M246.59,459.27l-4.76-4.2A62.86,62.86,0,0,1,249.4,451c.31-.13,2.83,3.36,2.49,3.82C250.62,456.54,248.59,457.7,246.59,459.27Z"/><path class="cls-5" d="M230,472l-5.83-4.44,3.55-2.48L230,472Z"/><path class="cls-5" d="M267.65,486.49c-1,.13-1.66.44-1.95.22-2.79-2.11-5.51-4.32-8.25-6.5,1.37-.54,3.54-1.89,4-1.48A78,78,0,0,1,267.65,486.49Z"/><path class="cls-5" d="M196.18,435.64l1.67,0a49.63,49.63,0,0,1-3.49,5.57c-.27.35-1.88-.36-2.87-.58Z"/><path class="cls-5" d="M240.5,521.25c-1.72,1.42-3,2.54-4.34,3.49-.25.17-1-.37-1.52-.58,1.18-1.49,2.33-3,3.59-4.43A20,20,0,0,1,240.5,521.25Z"/><path class="cls-5" d="M240,307l-5.47,1.6a19.51,19.51,0,0,1,3.07-1.67,7,7,0,0,1,2.43.1Z"/><path class="cls-5" d="M570,270.05l-5.71-2c.17-.23.44-.67.5-.65,1.77.82,3.53,1.68,5.29,2.54Z"/><path class="cls-1" d="M592,323c.91,1,1.82,1.94,2.68,3,0,0-.57.56-.87.85L592,323Z"/><path class="cls-5" d="M121,532l-2.09,1.51-.49-.72L121,532Z"/><path class="cls-5" d="M233.5,302.61a3.06,3.06,0,0,1-.28-.72c0-.07.29-.27.36-.24a4.11,4.11,0,0,1,.62.48C234,302.29,233.75,302.45,233.5,302.61Z"/><path class="cls-1" d="M292.46,307.36c0,.14-.06.37-.09.37a8.09,8.09,0,0,1-.83-.09c0-.12.06-.36.09-.36A5.69,5.69,0,0,1,292.46,307.36Z"/><path class="cls-5" d="M265.88,506.3c-.05-.13-.17-.3-.13-.39s.25-.11.38-.16c.05.13.17.3.13.39S266,506.25,265.88,506.3Z"/><path class="cls-5" d="M254,476l0,0Z"/><path class="cls-5" d="M571,270c0,.36,0,.72,0,1.09-.32-.35-.65-.69-1-1l.08-.1C570.36,270,570.68,270,571,270Z"/><path class="cls-9" d="M364.84,217.67h-3.67c-2.22-.56-4.41-1.49-6.66-1.64q-96.33-6.28-192.66-12.43,16.35-.72,32.69-1.45c39.71-1.72,79.57-6.31,119.1-4.33,39.72,2,79,11.05,118.67,15.95,17.34,2.14,35,1.77,52.51,2.1,1.52,0,4.25-3.11,4.46-5,1.48-12.93,2.42-25.92,3.62-38.88.05-.6.87-1.14,1.33-1.71a5.88,5.88,0,0,1,.31,2.29c-1.1,3.82-3.35,7.6-3.33,11.39.06,9.27.13,26.35,2,26.59,16.7,2.15,33.78,1.71,50.74,1.34,13.14-.3,26.28-1.32,39.36-2.6,3.74-.37,7.28-2.8,10.91-4.28,2.9-1.63,1.82.69,4.73-.93,2.28.18-.13,5.8,2.15,6-1.18,1.31,3.8-1.41,2.81,0-.52.76-.31,3.57,0,4.34,2.08,5.21,6.15,3.39,8.36,8.54-19.68-2-39.45-6.18-59-5.43C516,219,478.91,223,441.82,226.6c-4.86.46-9.38,4.35-14.09,6.57-.38.18-1.13-.14-1.57-.43-5.39-3.58-10.75-7.19-16.13-10.8l-19-3-19.06-2Z"/><path class="cls-9" d="M317,218c-58.05.83-116.1,1.61-174.13,3.11-.82,0-1.68,9.08-2,13.95-.13,2.13,1.1,4.35,1.72,6.53-2.6-2.56-7.22-5-7.42-7.71-.76-10.16-28.59-20.57-28.59-30.77,0-4.52,15-6.42,11.83-7.17,1.66-8,10.79-10.93,12.45-18.92.13-3.75.25-7.51.38-11.26l3.24-1.13c.39,5.25,2,10.77,1,15.69-4.19,19,8.42,20.89,21.7,22.55-4.67,0-9.34-.09-14,.25-1.23.09-2.36,1.63-3.54,2.5L160,207l1.56-1.13c9.55.48,19.11.93,28.67,1.44,16.6.89,33.24,1.38,49.8,2.84C265.7,212.42,291.33,215.35,317,218Z"/><path class="cls-9" d="M22.49,229,25,215c2.68.81,5.37,1.61,8,2.47.74.23,1.75,1.13,2.07.91a6.51,6.51,0,0,0,2-2.51c1.74-3.58,3.35-7.22,5-10.84-.13,1.73-.27,3.46-.4,5.19l3.3.58,1.11,1.08L39.19,218a19.85,19.85,0,0,0,2.42,1.9c2.24-2.15,4.33-4.46,6.45-6.73l3,.82,9.82,4.16-.92-2.27q-.73-5.34-1.48-10.68L111.7,207l3.32,0,0,0,4,1c.17-.14.34-.29.5-.45q.85,5.87,1.72,11.72c-4.61.41-9.22,1-13.85,1.2-7.17.35-14.36.49-21.54.73.51,1.55,1,3.11,1.54,4.66l-.9.8-25.73,1.42-6-1.92c-.94-1.36-1.62-3.14-2.91-3.91-.72-.42-2.4,1.08-3.72,1.3-5.2.85-10.41,2-15.65,2.12-2.88.1-5.82-1.5-8.74-2.33Z"/><path class="cls-12" d="M317,218c-25.65-2.65-51.28-5.58-77-7.83-16.56-1.46-33.2-1.95-49.8-2.84-9.56-.51-19.12-1-28.67-1.44l.3-2.3q96.33,6.19,192.66,12.43c2.25.15,4.44,1.08,6.66,1.64-13-.3-26.07-.65-39.11-.84C320.37,216.79,318.67,217.59,317,218Z"/><path class="cls-11" d="M120.3,158.07c-.11-8.59-.44-17.18-.2-25.76.08-3,.83-7.85,2.54-8.49,3-1.14,7.06.26,10.67.61-2.54,1.94-5.51,3.54-7.47,5.95-1.33,1.64-1.68,4.46-1.57,6.7.06,1,2.42,1.79,3.57,2.86,2,1.89,3.93,3.92,5.89,5.89l-2.85,1.23q-2.87,4.92-5.74,9.85Z"/><path class="cls-13" d="M111.7,207l-53.24-1.79-4.65-4.81,1.41-2h2.59l22.43,1.23,1.52,0,4.44-.18,1.6,0h12l3.45,1.21Z"/><path class="cls-14" d="M130.86,177l-5,23.95h-4.77c-.1-.37-.21-.73-.31-1.09l.45-26.83,4.51-1Z"/><path class="cls-9" d="M379.32,179.84l5-7.2c2.56,2.49,7.62,5.67,7.16,7.31-.94,3.31-4.86,5.78-7.54,8.59Z"/><path class="cls-6" d="M652.07,226.15,639.42,221c2.15-1.19,4.61-3.73,6.37-3.31,4.66,1.12,9,3.52,13.5,5.41Z"/><path class="cls-13" d="M160,207l-20.39-1.4c1.18-.87,2.31-2.41,3.54-2.5,4.65-.34,9.32-.2,14-.25C158.08,204.25,159,205.63,160,207Z"/><path class="cls-14" d="M120.3,158.07l4.84-1.16,5.59-.5q1.92,3.47,3.83,6.93c0,.43-.05.86-.08,1.29l-3.24,1.13-5.48.17q-2.74-2.49-5.47-5Z"/><path class="cls-11" d="M52,199.94,39.8,196.56l-1-1.25-14.79-9,20.14,8.47,4.22,3.93,3.68,0C52,199.12,52,199.53,52,199.94Z"/><path class="cls-11" d="M594.29,197.78c0-2.21,0-4.42,0-6.63l1.92-6.94,1.56.15,4.6,8.92a2.41,2.41,0,0,1-.23.78Z"/><path class="cls-11" d="M22,186.31,2.75,182.6Z"/><path class="cls-11" d="M602.9,200.12,594.19,205c0-1.6.07-3.19.1-4.78l7.85-.32A6.61,6.61,0,0,1,602.9,200.12Z"/><path class="cls-9" d="M134.56,163.34q-1.91-3.47-3.83-6.93l.15-9.35,2.85-1.23Q134.14,154.59,134.56,163.34Z"/><path class="cls-9" d="M80.24,199.6l-22.43-1.23Z"/><path class="cls-11" d="M120.29,160.93q2.73,2.5,5.47,5v6.14l-4.51,1Z"/><path class="cls-9" d="M602.14,199.9l-7.85.32v-2.44l7.86-3.72C602.14,196,602.14,198,602.14,199.9Z"/><path class="cls-9" d="M602.38,193.28l-4.6-8.92Z"/><path class="cls-9" d="M596.22,184.21l-1.92,6.94Z"/><path class="cls-9" d="M115.67,204.05l3.84,3.5c-.16.16-.33.31-.5.45l-4-1,0,0C115.24,206,115.46,205,115.67,204.05Z"/><path class="cls-9" d="M48.32,198.74l-4.22-3.93Z"/><path class="cls-9" d="M92.2,199.37h0Z"/><path class="cls-9" d="M86.2,199.39l-4.44.18Z"/><path class="cls-9" d="M103.25,200.59l-3.45-1.21Z"/><path class="cls-9" d="M98.21,199.38h0Z"/><path class="cls-9" d="M52,199.94c0-.41,0-.82,0-1.23l3.22-.33-1.41,2Z"/><path class="cls-9" d="M117,200.67,115.68,202Z"/><path class="cls-9" d="M120.8,199.9c.1.36.21.72.31,1.09l-1.22-.36Z"/><path class="cls-4" d="M680,656c6.86-.79,13.88-2.92,20.54-2.1,13,1.6,25.84,4.84,38.75,7.4-15.95-.55-31.9-1-47.83-1.78-2.86-.14-5.66-1.65-8.48-2.52l.15-.14L683,657Z"/><path class="cls-4" d="M726.88,668.54l-1,1.31a26.88,26.88,0,0,1-1.42-3.38c-.11-.38.43-.94.68-1.42Z"/><path class="cls-12" d="M391,218.92l19,3Z"/><path class="cls-12" d="M364.84,217.67l7.13-.75Z"/><path class="cls-9" d="M633,236l-5.61,1.26c.73-.51,1.41-1.34,2.21-1.47A13.56,13.56,0,0,1,633,236Z"/><path class="cls-3" d="M251,596c.93,0,1.86-.08,2.79,0,.1,0,.14.76.22,1.17L251,596.05Z"/><path class="cls-13" d="M48.06,213.16c-2.12,2.27-4.21,4.58-6.45,6.73a19.85,19.85,0,0,1-2.42-1.9l6.94-6.16Z"/><path class="cls-9" d="M38.75,195.31l1,1.25Z"/><path class="cls-5" d="M45,210.75l-3.3-.58Z"/><path class="cls-15" d="M596.85,495.15l-3.78,9.65c-2.23-1.36-5.1-2.26-6.47-4.21-1.15-1.63-1.61-5.4-.54-6.66,5.87-6.88,12.29-13.29,18.6-19.78.21-.22,1.76.28,1.84.64,1.29,5.45,3.12,10.92,3.23,16.41,0,1.79-4.49,3.67-6.94,5.5a15.81,15.81,0,0,0,1.4-3.91c0-.35-2.14-1.55-2.54-1.27C598.52,493.71,595.58,496.16,596.85,495.15Z"/><path class="cls-2" d="M125.76,172.07v-6.14l5.48-.17c-.13,3.75-.25,7.51-.38,11.26Z"/><path class="cls-2" d="M115,207l4,1Z"/><path class="cls-2" d="M130.88,147.06l-.15,9.35-5.59.5Q128,152,130.88,147.06Z"/><polygon class="cls-3" points="683.02 657.02 683.13 656.85 682.98 656.99 683.02 657.02"/><polygon class="cls-5" points="-4.8 381.59 810.47 541.83 799.01 637.9 -4.8 532.51 -4.8 381.59"/><polygon class="cls-3" points="-13.96 548.95 802.07 669.86 796.73 786.04 -13.96 789.86 -13.96 548.95"/></g><g id="WHITE_STROKE" data-name="WHITE STROKE"><path class="cls-16" d="M524.09,299l.94,0-.48-4.13C524.4,296.27,524.24,297.64,524.09,299Z"/><path class="cls-16" d="M483,168c0-.29,0-.58.07-.87l-1.17.33Z"/><path class="cls-16" d="M651.26,448.2q1.5-1.95,3-3.91c3.38-5.25,8.66-9.82,6.13-17.18q-1.11-3.63-2.23-7.26a2.45,2.45,0,0,0-.18-.9c-.28-.7-.57-1.39-.84-2.08A2.59,2.59,0,0,0,657,416q-1.87-4.6-3.76-9.19a1.92,1.92,0,0,0-.25-.81c-.25-.39-.51-.78-.77-1.17-.4-.95-.8-1.9-1.19-2.85l-.83-1.14-.36-1.79-1.64-3.21-.36-1.78-2.07-2.9,2.07,2.9c-.41-1.55-.87-3.09-1.23-4.65q-2.34-10.16-4.64-20.32l-.66-4c-.12-1.32-.24-2.64-.37-4l-.72-2.06c-.08-1-.16-2-.25-3l-1-.05c-4-14.54-7.53-29.21-12.08-43.56-2.88-9.12-7.25-17.76-11-26.62h2.93c.66-2.24,1.31-4.48,2-6.72-.86-3-1.73-6-2.59-9.08-.15-.63-.31-1.27-.46-1.9s-.4-1.4-.61-2.09c0-3,0-6,0-8.95l.84-3,2.07,1.79h2l1.45.64,2.47,1.58,1.39.79,1.59,1.44,9.06.09,4.9-.49,2.09-.59,1.84-.57c.28-.85.55-1.7.82-2.55-7-3.92-13.59-8.6-21.78-9.82l-4.14-2.71-4.89-3.54-.06-2-2.29-2.68,0,.26,0-.26-1.71-3.33-2.81-2h0l-2.55-5.59-4.62-6.37c-.29-.68-.59-1.35-.88-2l-.38-1.92c.08-.68.17-1.36.26-2l-.68-2.07c-.14-.62-.28-1.24-.43-1.85l-.85-.13h0l.21-2a.55.55,0,0,1-.56.2c-.17-.72-.35-1.45-.52-2.17.06-.67.13-1.35.2-2l-.69-.88c.1-.68.2-1.36.31-2l-.48-2.1q-.21-7-.44-13.94c1.07-1.29,2.87-2.46,3.09-3.88,1.23-7.78,2.6-15.6,2.93-23.45.72-17-7.63-29.63-21.32-38.67-5.71-3.78-12.48-5.94-18.74-8.92a17.28,17.28,0,0,1-2.8-2.09H546c0,.91,0,1.81,0,2.71l.85.29-.85-.28-3.12.66-1.66,0-2.18.41-16.58,7.39L519,120l-2.2,2.05c-.54.8-1.09,1.59-1.64,2.38-.46.54-.92,1.08-1.39,1.61-.53.8-1.07,1.59-1.61,2.39-2.81,2.67-5.87,5.19-5.48,9.67l-4.73,5.14h0l-3.78.55c-1.75,0-3.63-.33-5.24.19-10.29,3.31-15,11.69-18.54,21-.24.62.58,1.63.91,2.46l.29.31,3.46.33,2.85-.61,1.17-.33,4.95-1,2.89-1.61,2.25.29.11.15c.11,1.41.22,2.83.34,4.24-.15,1.64-.29,3.27-.43,4.91l-1.23,1,.35,1.08c-4.94,10.39-5.62,21.17-2.94,32.25.53,2.22,1,4.45,1.52,6.68l.54,1.87c.17.7.34,1.41.52,2.12q.68,2.46,1.37,4.9c.19.7.37,1.4.56,2.11l.67.85c.2.7.39,1.41.59,2.11l-.16,2a.53.53,0,0,1,.57-.21c-.15.72-.29,1.45-.44,2.17l.94,0-.21,3c.28.61.55,1.22.83,1.84L497,240l.39,1.9.7,2.08c1,6.31,5.63,8.88,11,10.61l2.35,1.37-.53,1.05,1.1,1,6.41,16.89.9,2.73c.25,1.11.51,2.22.77,3.33l.77,2.09a.44.44,0,0,1,.51-.21l-.24,1.84,1.77,2.36-.06,2a.46.46,0,0,1,.52-.21L524,291l.51,3.87L525,299l.05,5c-.18,1-.37,2.08-.56,3.12l-.76,2.84c.2,1.34.41,2.68.61,4l-1.16,2.08-.48,2.89-.45,2.12c-.14.63-.27,1.26-.41,1.9s-.39,1.4-.59,2.1c-.76,2.3-1.53,4.6-2.29,6.91q-3,6.5-6,13c.67,1.29,1.33,2.58,2,3.86-.68-1.28-1.34-2.57-2-3.86q-1,3.51-2.06,7l-6.08,16c0,1,0,2,0,3.06l0,4.94-.09,2c-1.65,9.19-3.12,18.43-5,27.57-.73,3.47-1.3,6.48,2,8.86h0c3,5.92.1,11.25-2,16.48-.47,1.16-3.6,2.39-4.81,1.89-3.52-1.46-6.69-3.77-10-5.75l-4.35-2.93a1,1,0,0,0,.35-.87L479,422.14l-1.88,0c0,.35,0,.69,0,1L475,421l-20.84-18.08-2.09-2-7.19-6.9-4.54-7.46A.54.54,0,0,0,440,386l-2.63-4.44A.51.51,0,0,0,437,381l-5.19-14.93-.51-3.1-.6-7.82a5.27,5.27,0,0,0-.9-.13c.11-1.69.23-3.38.34-5.07a.36.36,0,0,1-.5.21l-.78-6.14.78,6.14q.06-3,.11-6a8.65,8.65,0,0,0-.89-.1c.12-.68.24-1.36.35-2l-.62-.87c-.57-3.35-1.13-6.71-1.69-10.06-.32,0-.64,0-1,0l.24-2.08a.36.36,0,0,1-.5.22l-.86-7.06c-.32,0-.63-.06-.94-.07.07-.69.14-1.37.22-2.06a.38.38,0,0,1-.5.21l-.81-3.11c-.11-.64-.23-1.29-.34-1.93l.21-4-.33-3.14c-1.62-.8-4.51-2.48-4.65-2.27-1.95,2.85-7.13,4.27-4.6,9.28l.41,3.9.72,6.07c.87,1.77,2.56,3.78-1.23,4.18l4.13,2.46L413,329.16a.76.76,0,0,0-.64-.37h0l-.44-1.4-1.9-.24-1.62-1.38-7.4-8.62-2-3.11c-1.95-2.88-3.88-5.76-5.85-8.62-.62-.91-1.23-2.28-2.09-2.5-3.18-.83-9.35,5.32-8.73,8.72.44,2.38.26,3.82-2.58,4.15-4.07.46-5.77,3.59-5.63,7,.1,2.65-.78,3.52-2.73,4.86-3.59,2.46-5.11,8.56-2.55,11.57C372,343,371.8,346.74,371,350.9s.78,8.11,4.29,9.86c5.93,2.94,9.54,7.66,12.45,13.13,2.4,4.51,4.59,8.86,10.72,8.93,1,0,2.31,1.33,3.07,2.35,6,8.08,12.21,16,17.73,24.43,3.36,5.11,5.46,11,8.42,16.42,2.85,5.19,6.07,10.18,9.13,15.27.35.6.71,1.2,1.06,1.81h0c4.36,7.58,7.58,16.2,13.31,22.55,12.92,14.3,27.21,27.36,40.66,41.19,4.1,4.21,8.52,7.45,14.17,8.78,2.81.66,3.66,2,3.68,4.86,0,7.12.44,14.23.7,21.35h0c.07,1,.14,2.07.22,3.11q-.86,8.5-1.72,17c-.12.78-.24,1.55-.37,2.33h0c-.22.74-.73,1.52-.63,2.22a35.7,35.7,0,0,1-7.13,27.35l-1.21,1.5-2.57.74c-2.2,1-5,1.39-6.5,3a223.65,223.65,0,0,0-28.79,36.24c-9.51,15.16-19.7,29.9-29.56,44.86a10.93,10.93,0,0,0-1.31,3.13c-1,3.55-2,7.11-2.86,10.68a7.67,7.67,0,0,0-.5,3.35c1.07,4.69,1.72,9.63,3.68,13.94,7,15.3,15.36,29.72,26.72,42.36,4.92,5.47,8.63,12,12.95,18a38.55,38.55,0,0,0,2.88,3.12c2.11,2.36,4.2,4.75,6.3,7.12H613c-.13-1.26-.11-3.59-.4-3.63-3.6-.48-2.46-3.17-2.7-5.24-.16-1.4-.44-2.8-.68-4.2l.09-1.62c.44-1.52.88-3,1.31-4.56,0-.57.1-1.14.14-1.7.13-1.7.25-3.4.38-5.1l.09-1.74q.42-4.12.86-8.26l.09-7.77,1.08-5.24c0-.89,0-1.78,0-2.67,1.27-2,2.53-4,3.8-6l3.63-1.56,3.24-1.78,1.41-2.51c.43-1.67.87-3.33,1.31-5,.64-1.7,1.27-3.41,1.9-5.11a.47.47,0,0,0,.64.33q1.32-3.86,2.62-7.7c-.18-.29-.37-.57-.56-.85l.84-1.08c.19-1,.39-2.08.59-3.13l.43-4.85c.16-.7.32-1.4.49-2.1s.31-1.28.46-1.91l.68-2.07.49-1.89h0c.91-2.69,1.81-5.39,2.72-8.08l3.9-12.36h0l.1-.06c6.57-3.67,9.23-8.89,9.94-19.53.67-3,2-6.05,1.91-9-.47-15.59-1.29-31.18-2-46.77,0-.66-.26-1.3-.33-2-1.2-12.87-2.73-25.71-3.48-38.6-.81-13.77-.57-27.6-1.35-41.37-.89-15.71-2.41-31.39-3.65-47.08l6.91-8.21Z"/><polygon class="cls-16" points="623.9 720.87 623.89 720.88 623.89 720.88 623.9 720.87"/><path class="cls-16" d="M599.82,204.1l-.9,0c.17.72.35,1.45.52,2.17C599.57,205.53,599.69,204.81,599.82,204.1Z"/></g><g id="ALLISON"><path class="cls-17" d="M561,106.08a17.28,17.28,0,0,0,2.8,2.09c6.26,3,13,5.14,18.74,8.92,13.69,9,22,21.64,21.32,38.67-.33,7.85-1.7,15.67-2.93,23.45-.22,1.42-2,2.59-3.09,3.88l-11.84-15c-1.07-1.42-2.21-2.78-3.17-4.26-2.37-3.63-4.89-4.39-7.83-.64l-6.52,2.59L562,168.1l-9.17.31-3.76.57c-4.14-1.34-8.67-2-12.34-4.17-6.6-3.87-12.69-8.63-19-13l-7.33-5-8.59-3a.37.37,0,0,1,.12-.6l4.73-5.14a34,34,0,0,0,4.63-.16c2.92-.47,5.8-1.16,8.7-1.76l15.89,1.78c1.93,1,3.81,2.06,5.8,2.87,5.7,2.31,5.71,2.26,7.39-3.58a6.82,6.82,0,0,1,.65-1.33c1.76-3.23.77-5.31-2.86-5.75-1.47-.18-3-.11-4.47-.15,2.64-2.87,5.1-5.82,4.15-10.16-.12-1.89-.25-3.79-.38-5.68a1.94,1.94,0,0,0,.86.13c.73.36,1.7.53,2.14,1.11,2.39,3.2,4.33.24,6.37-.45a3.07,3.07,0,0,0,1.17-1.72c-1.51-1.41-3-3.06-4.8-3.88-1.39-.63-3.26-.17-4.91-.19l-1.06-.35,0-2.71Zm18.86,29c-.5-.79-.74-1.23-1-1.62-2.55-3.5-5-7.06-7.75-10.42a3.73,3.73,0,0,0-3.17-.81,47.82,47.82,0,0,0-8.89,3c-2.63,1.25-3,3.53,0,4.62,6.15,2.23,12.46,4,18.73,5.92C578.3,135.91,579,135.37,579.84,135.1Z"/><path class="cls-18" d="M480,781.91c-2.1-2.37-4.19-4.76-6.3-7.12a38.55,38.55,0,0,1-2.88-3.12c-4.32-6-8-12.56-12.95-18-11.36-12.64-19.74-27.06-26.72-42.36-2-4.31-2.61-9.25-3.68-13.94A7.67,7.67,0,0,1,428,694c.91-3.57,1.85-7.13,2.86-10.68a10.93,10.93,0,0,1,1.31-3.13c9.86-15,20-29.7,29.56-44.86a223.65,223.65,0,0,1,28.79-36.24c1.54-1.6,4.3-2,6.5-3v1.69c-1.59.75-3.64,1.1-4.7,2.31-7.34,8.33-15.06,16.41-21.51,25.4-8.2,11.44-15.34,23.64-22.89,35.55-5.93,9.33-13.79,17.55-16.05,29-.79,4-2.2,7.29-1.34,12,2.37,13,9.31,23.39,16.15,33.88,4.94,7.58,11,14.53,17.1,21.24s8.81,16.22,16.89,21.36c1.55,1,3.25,2.31,4.93,2.38,6.47.26,13,.08,19.44.06l5.06,0,8.05-.1,5.33-2c3.6.74,7.18,2,10.79,2.11,10.94.28,21.89.1,32.83.1l6-.07,8-.11,16-.15.87,1.26Z"/><path class="cls-19" d="M598,781.91l-.87-1.26c-1.13-5.38,4.33-11.14-.89-16.36-.18-.18.46-1.7,1-2,4.19-2.42,2.91-5.68,2-9.28-.6-2.43-2.28-5.54,2.08-7.18,2.13-.8,2.11-3,0-4.76s-4.29-3.87-6.43-5.81c3.21-2,8.11.33,10.33-4.12,1.75-.75,4-1.06,5.15-2.34,3.27-3.66,2.21.4,2.86,1.41,0,.89,0,1.78,0,2.67l-1.08,5.24-.09,7.77q-.43,4.14-.86,8.26l-.09,1.74c-.13,1.7-.25,3.4-.38,5.1,0,.56-.09,1.13-.14,1.7-.43,1.52-.87,3-1.31,4.56l-.09,1.62q-.66,2.53-1.33,5.07l-1.89,8Z"/><path class="cls-20" d="M607.84,773.91q.67-2.53,1.33-5.07c.24,1.4.52,2.8.68,4.2.24,2.07-.9,4.76,2.7,5.24.29,0,.27,2.37.4,3.63h-6C607.25,779.24,607.54,776.57,607.84,773.91Z"/><path class="cls-21" d="M607.84,773.91c-.3,2.66-.59,5.33-.89,8h-1Z"/><path class="cls-22" d="M408.41,325.77l1.62,1.38,2.34,1.64a.76.76,0,0,1,.64.37l4.13,2.46c.27-.71.95-1.57.75-2.1-1.36-3.57-2.89-7.08-4.37-10.61-.14-1.3-.27-2.6-.41-3.9a9,9,0,0,1,1.05-2.11c1.34-1.56,2.81-3,4.23-4.51.89,1.64,1.75,3.31,2.69,4.93a17.51,17.51,0,0,0,1.4,1.84l.34,1.93.81,3.11a.38.38,0,0,0,.5-.21l-.22,2.06,1.8,7.13a.36.36,0,0,0,.5-.22L426,331q1.32,5.06,2.65,10.1l.62.87-.35,2,.78,6.14a.36.36,0,0,0,.5-.21c-.11,1.69-.23,3.38-.34,5.07-.23,2.56-1.31,5.41-.54,7.62,2.17,6.26,5.1,12.26,7.74,18.36a.51.51,0,0,1,.33.57L440,386a.54.54,0,0,1,.33.59l4.54,7.45,7.19,6.91,2.09,2L475,421,477,423.2l3.52.92,4.35,2.93c3.3,2,6.47,4.29,10,5.75,1.21.5,4.34-.73,4.81-1.89,2.13-5.23,5-10.56,2-16.48.17-3.82,2.56-6.67,4.05-10,2.75-6.08,4.19-12.74,6.48-19.06a4.39,4.39,0,0,1,3.42-2.23c9.22.33,18.44.88,27.65,1.51,3.26.22,6.5.82,9.75,1.25l9.91,3.89,7.12,2,8.78,5,1,.32a.82.82,0,0,0,.67.26l7.36,2.72,0,0,1.19.83a.85.85,0,0,0,.49.36l1.17,1.13,1,1.53-3.92,1.5c-2.62-.94-5.29-1.76-7.85-2.85-4.08-1.74-8.07-3.66-12.1-5.5l-4-.6-2.93-.25-6-1.29c-4.43-1.72-8.78-1.79-10.67,3.25-2.55,6.81-4.25,13.94-6.39,20.92-1.38,4.52-2.14,9.46-4.57,13.35-2.08,3.33-6.42,5.15-9.22,8.16s-6.2,6.28-6.83,9.89c-1.8,10.38-2.14,21-3.44,31.49-.51,4.05-2.15,7.95-3.09,12-.21.93.48,2,.55,3.08.36,6.05,6.26,11.22,2.88,17.91-.21.4.21,1.25.52,1.78,2.21,3.63,1.38,11.93-1.59,15.44.38-3.57.35-7.26,1.27-10.68,1-3.58-.8-3.59-3.23-3.46l-.26-2c.51-.41,1.21-.71,1.5-1.24,2.08-3.8-.12-9.09-3.77-12.54a30.07,30.07,0,0,1-7.33-10.4c-1.63-4.14-1.48-8.95-2.45-13.39a5.75,5.75,0,0,0-2.67-3.61c-1-.49-3.42-.05-3.92.76-2.18,3.61-9.61,3.35-7.5,10.06a.47.47,0,0,1-.2.42c-4.81,1.23-1.66,3.82-1.1,6A29.77,29.77,0,0,1,484,496c-11.09-10.95-22.26-21.82-33.2-32.92-2-2.05-3-5.08-4.61-7.57-2.7-4.18-5.52-8.3-8.29-12.44-.35-.61-.71-1.21-1.06-1.81-2.34-4.9-4.58-9.83-7-14.67C422.86,412.85,417,398.35,406,387.14c-2.7-2.72-5.9-5.5-9.4-6.69-2.87-1-4.18-2.38-5.76-4.63-3.66-5.22-7.18-10.87-12-14.83-3.36-2.76-6.62-4.88-5.66-9.3.68-3.09-3.26-8.06,3.12-9.3.06,0,.14-1.31-.17-1.58-1-.87-2.23-1.43-3.19-2.31-1.28-1.16-3.57-2.79-3.35-3.73.65-2.7,1.32-6.18,5.5-5.84s4-1.2,2.19-4.2a6.33,6.33,0,0,1-.22-4.93c.37-.93,2.41-1.71,3.69-1.69,3.75.08,5-1.28,4.06-5.13-.11-.49-.59-1.05-.45-1.4.65-1.56,1.11-3.56,2.33-4.42.93-.66,3.24-.32,4.32.44,1.55,1.09,2.42,3.09,3.8,4.5C399.26,316.71,403.85,321.22,408.41,325.77Z"/><path class="cls-23" d="M513.18,532.16c3-3.51,3.8-11.81,1.59-15.44-.31-.53-.73-1.38-.52-1.78,3.38-6.69-2.52-11.86-2.88-17.91-.07-1-.76-2.15-.55-3.08.94-4,2.58-7.91,3.09-12,1.3-10.48,1.64-21.11,3.44-31.49.63-3.61,4.1-6.95,6.83-9.89s7.14-4.83,9.22-8.16c2.43-3.89,3.19-8.83,4.57-13.35,2.14-7,3.84-14.11,6.39-20.92,1.89-5,6.24-5,10.67-3.25-1.62,1.3-4.06,2.3-4.68,4a70.91,70.91,0,0,0-4.22,15.23c-1.8,13.56-7,24.64-17.85,33.78-5.54,4.69-10.44,11.75-9.19,20.32a38.57,38.57,0,0,0,3.5,12.28c1.9,3.59.52,5.73-1.08,8.52-1.48,2.56-3.07,5.4-3.33,8.24-.39,4.15.3,8.42.64,12.64.44,5.52,1,5.79,5.8,2.65a26.2,26.2,0,0,0,3.52-3.32c3.69-3.24,8-6,10.9-9.82,4-5.25,6.71-11.39,10.26-17,2.4-3.78,5.27-7.25,7.94-10.86l.5,1.09,1.94,5.61.39,1.63q1,8,2.12,16l.31,2.87,2.58,27.1,3.34,4.11c-.17,3.33-.33,6.65-.49,10-1.3.89-3.8,2-3.69,2.66.49,3.16-2.69,7.28,2.09,9.44,0,1.26,0,2.51,0,3.77a17.2,17.2,0,0,0-3.87-.47c-.75.07-2.05,1-2,1.46.09,4.29.51,8.57.64,12.86a14.09,14.09,0,0,1-.64,5.43c-2.39,6.08-.71,11.14,3.37,15.75L564,595q.39,14.91.77,29.82l-7.91-6.72c4.37-1.6,6.6-6.71,4.52-10.72a2.13,2.13,0,0,0-4,.94c-.32,3.24-.38,6.5-.53,9.75L551,618c-3-.48-7-2.92-7.93,2.33s-6.32.58-7.79,3.88c-.44,1-.19,2.28-.32,3.43-.41,3.6-.09,7.51-1.43,10.73-3.27,7.86,4.37,16.5,11.26,17.6,2.69.43,5.32,1.22,8,1.85.12-2.63.12-5.26.42-7.87.1-.86,1-1.63,1.49-2.44.71.6,1.67,1.07,2.06,1.83a7.1,7.1,0,0,1,1,3.64c-.65,7,.43,8.59,7.24,10,.4,3.58.8,7.17,1.21,10.75l-3.54,1.77-5.61-.45c-1.63-1.3-3.07-3.12-4.93-3.82-6.16-2.31-12.56-4-18.69-6.38-2.78-1.07-3.41.38-4.31,2.16l-4.2-2a23.74,23.74,0,0,0-2.92-3.83c-3-2.66-6.56-4.77-9.17-7.74-5-5.75-6-13-5.94-20.34.37-3.36.73-6.71,1.1-10.07q.56-3.47,1.13-6.93c.64-1.49,1.92-3,1.81-4.46-.39-4.88-1.26-9.73-1.94-14.59-.53-2.54,1.69-6.28-3.06-7,0-.59-.27-1.31,0-1.76,4.16-7.65,4.48-15.7,2.65-24,.13-.78.25-1.55.37-2.33q1.5-8.44,3-16.89l-.07-5.15a2.36,2.36,0,0,1,.08-.65L512,539l1-3C513.05,534.71,513.12,533.44,513.18,532.16Zm39.8,66.4h-.08a24.81,24.81,0,0,0-.09-5c-.19-.91-1.33-1.61-2-2.41-.59.8-1.51,1.53-1.71,2.42-.5,2.24-1.16,4.62-.84,6.81.26,1.81,1.83,3.44,2.81,5.15.65-1.51,1.4-3,1.91-4.54A8.47,8.47,0,0,0,553,598.56Z"/><path class="cls-24" d="M510.41,146.77l7.32,5c-1.13.69-2.2,1.85-3.39,2-5.19.58-4.19,5.66-5.63,8.45-1.67,3.22,5.21,7.33,9.27,5.16,5.65-3,10.61-1.92,15.86.8,3.74,1.94,7.77,3.3,11.67,4.91l1.74,3.63-.27,2.33-2,0-2-1-4.42.23c.39,1,.69,2,1.17,2.9.88,1.66,3,4.23,2.61,4.71-1.51,1.78-3.8,3-5.9,4.18a10.06,10.06,0,0,1-2.75.65,19.53,19.53,0,0,1,1.92,1.71c.84,1,2,1.92,2.27,3.07,3,11,.77,21.39-4.1,31.41-4.72.16-10,4.07-13.8-2,1.13-.62,2.24-1.3,3.4-1.86a53.53,53.53,0,0,0,5.62-2.65c.81-.51,1.76-2.4,1.51-2.69a8.11,8.11,0,0,0-3.51-2.35c-.42-.14-1.27,1.37-2.06,1.94a31.72,31.72,0,0,1-3,1.68c-1.08-1-2-2.62-3.26-2.84-5.17-.92-10.41-1.41-15.63-2.06a19.9,19.9,0,0,0-2.77-2.81c-.17-.12-2,1.24-1.94,1.72a40.87,40.87,0,0,0,2.1,8.28c1,2.44,2.94,2.49,5.68,2.13,3.2-.41,6.62.94,9.95,1.52q1.05,6.12,2.11,12.23c-.42,3.47-1.59,7.05-1.06,10.37.58,3.65,10.9,8.15,15.45,6.89,3.49-1,6.68-3.94,9.9.37.14.2,1.24-.19,1.82-.46,3-1.39,5.33-2.09,4,2.89-.71,2.77,1.24,3.11,3.31,2.3a20.12,20.12,0,0,0,3.35-2.1l5.09-3.8,2.68-1.27c1.76,2.6,3,5-.51,7.48-.66.49.45,3.41.74,5.22a5.41,5.41,0,0,0,0,.9l0,.07-2.92,2-4,4.06L554.92,275,555,275l-1,0a72.4,72.4,0,0,1-6.47,5.71c-9,6.24-14.67,14.86-18.78,24.77-1.22,2.94-2.87,5.7-4.32,8.55l-.61-4c.26-.95.51-1.89.76-2.84s.38-2.08.56-3.12c0-1.67,0-3.35-.05-5l-.48-4.13L524,291l-.6-2.17a.46.46,0,0,0-.52.21l.06-2-1.53-4.2a.44.44,0,0,0-.51.21l-.77-2.09c-.26-1.11-.52-2.22-.77-3.33l-.9-2.73q-3.21-8.44-6.41-16.89l-.57-2-2.35-1.37c-5.41-1.73-10-4.3-11-10.61l-.7-2.08L497,240l-.39-2.13c-.28-.62-.55-1.23-.83-1.84l.21-3-.5-2.19a.53.53,0,0,0-.57.21c.05-.68.11-1.36.16-2l-.59-2.11-.67-.85c-.19-.71-.37-1.41-.56-2.11q-.69-2.44-1.37-4.9l-.52-2.12-.54-1.87c-.51-2.23-1-4.46-1.52-6.68-2.68-11.08-2-21.86,2.94-32.25l.88-2c.14-1.64.28-3.27.43-4.91-.12-1.41-.23-2.83-.34-4.24l-.11-.15-2.25-.29L488,166.12l-4.95,1-1.17.33-2.85.61-3.46-.33-.29-.31c12-3.68,15-16,22.87-23.68l3.78-.55a.37.37,0,0,0-.12.6Zm-1.34,36.35c-3.18,1.51-6.55,9.95-5.13,13.27,1.36,3.15,1.43,9,7.38,3.85.78-.69,2.55-.25,3.86-.33,4,.41,5-1.38,3.77-5a18.49,18.49,0,0,1-.45-3.75l3.14-2.39-4.2-1.88c-.69-2.37-.28-5.67-4.37-5.15l-1.62-1.28c-.51.77-1,1.55-1.52,2.33A4.38,4.38,0,0,1,509.07,183.12Zm-.69-10.44a50.55,50.55,0,0,0-5.88-4.36c-.29-.15-2.51,2.13-2.33,2.46a9.17,9.17,0,0,0,3.41,3.79C504.34,175,505.94,173.7,508.38,172.68Z"/><path class="cls-25" d="M524.37,314c1.45-2.85,3.1-5.61,4.32-8.55,4.11-9.91,9.81-18.53,18.78-24.77a72.4,72.4,0,0,0,6.47-5.71c.18.42.36.84.55,1.26L555,275l-.06.06a11.37,11.37,0,0,1,1.73,2.61,54.86,54.86,0,0,1,1.24,5.4l-.09,5.83c-.59,1.21-1.62,2.39-1.7,3.64q-.72,11.4-1,22.83c-.16,5.76,0,11.52,0,17.29q0,10.49,0,21a6.49,6.49,0,0,1-.31,1.34,3.37,3.37,0,0,1-.63-.62c-.48-.84-.91-1.71-1.37-2.57-.22,1.25-.51,2.49-.63,3.74a20.34,20.34,0,0,0,0,3.49,14.58,14.58,0,0,0,.54,2.31,9.68,9.68,0,0,1,1.73-1.82c1.5-.93,3.11-1.69,4.68-2.52.33,1.37.66,2.74,1,4.11-.29.35-.59.69-.88,1l-2.3,3.78-1.69.39-1,1.82-.35,1.79-2.76,3.2L550,376c-.06,1-.13,2-.19,3l3.31,6.94c-3.25-.43-6.49-1-9.75-1.25-9.21-.63-18.43-1.18-27.65-1.51a4.39,4.39,0,0,0-3.42,2.23c-2.29,6.32-3.73,13-6.48,19.06-1.49,3.29-3.88,6.14-4.05,10-3.27-2.38-2.7-5.39-2-8.86,1.92-9.14,3.39-18.38,5-27.57l.09-2c0-1.65,0-3.29,0-4.94,0-1,0-2,0-3.06L511,352c1,1.11,2.9,2.32,2.79,3.3-.49,4.39-1.6,8.71-2.41,13.07a41.19,41.19,0,0,0-1.08,7.75c0,1.91,1,3.8,1.59,5.7,1-2.09,2.48-4.07,3.06-6.27,1.8-6.78,3.62-13.59,4.75-20.49.69-4.26.21-8.72.1-13.09,0-.51-1.1-1-1.68-1.5-.36.65-1,1.29-1,2-.16,2.14,0,4.31-.15,6.46,0,.5-.61,1-.93,1.45-.31-.49-.65-1-.93-1.48-.68-1.28-1.34-2.57-2-3.86q3-6.5,6-13c.76-2.31,1.53-4.61,2.29-6.91.2-.7.39-1.4.59-2.1s.27-1.27.41-1.9l.45-2.12.48-2.89Z"/><path class="cls-18" d="M408.41,325.77c-4.56-4.55-9.15-9.06-13.65-13.67-1.38-1.41-2.25-3.41-3.8-4.5-1.08-.76-3.39-1.1-4.32-.44-1.22.86-1.68,2.86-2.33,4.42-.14.35.34.91.45,1.4.92,3.85-.31,5.21-4.06,5.13-1.28,0-3.32.76-3.69,1.69a6.33,6.33,0,0,0,.22,4.93c1.78,3,2,4.54-2.19,4.2s-4.85,3.14-5.5,5.84c-.22.94,2.07,2.57,3.35,3.73,1,.88,2.22,1.44,3.19,2.31.31.27.23,1.57.17,1.58-6.38,1.24-2.44,6.21-3.12,9.3-1,4.42,2.3,6.54,5.66,9.3,4.82,4,8.34,9.61,12,14.83,1.58,2.25,2.89,3.66,5.76,4.63,3.5,1.19,6.7,4,9.4,6.69,11.09,11.21,16.91,25.71,23.86,39.48,2.45,4.84,4.69,9.77,7,14.67-3.06-5.09-6.28-10.08-9.13-15.27-3-5.4-5.06-11.31-8.42-16.42-5.52-8.4-11.73-16.35-17.73-24.43-.76-1-2-2.34-3.07-2.35-6.13-.07-8.32-4.42-10.72-8.93-2.91-5.47-6.52-10.19-12.45-13.13-3.51-1.75-5.08-5.62-4.29-9.86s1-7.93-2.14-11.65c-2.56-3-1-9.11,2.55-11.57,1.95-1.34,2.83-2.21,2.73-4.86-.14-3.44,1.56-6.57,5.63-7,2.84-.33,3-1.77,2.58-4.15-.62-3.4,5.55-9.55,8.73-8.72.86.22,1.47,1.59,2.09,2.5,2,2.86,3.9,5.74,5.85,8.62l2,3.11Z"/><path class="cls-26" d="M546.17,114.14l.39,5.68-9.28-1.64c-3-.58-6.39,3-9.16-.81-.12-.16-1.49.31-2,.78-3.18,2.76-2.53,4.94,2,7q.92,2.17,1.84,4.35c.48,1.12,1,2.23,1.47,3.35-1.2.41-2.38.87-3.59,1.21-2.61.72-5.23,1.38-7.84,2.06-2.9.6-5.78,1.29-8.7,1.76a34,34,0,0,1-4.63.16c-.39-4.48,2.67-7,5.48-9.67.54-.8,1.08-1.59,1.61-2.39.47-.53.93-1.07,1.39-1.61.55-.79,1.1-1.58,1.64-2.38L519,120l3.41-2.68L539,109.89l2.18-.41,1.66,0Z"/><path class="cls-27" d="M511.92,539.26a2.36,2.36,0,0,0-.08.65l-1.42,1.92c-.26-7.12-.67-14.23-.7-21.35,0-2.83-.87-4.2-3.68-4.86-5.65-1.33-10.07-4.57-14.17-8.78C478.42,493,464.13,480,451.21,465.65c-5.73-6.35-8.95-15-13.31-22.55,2.77,4.14,5.59,8.26,8.29,12.44,1.6,2.49,2.59,5.52,4.61,7.57,10.94,11.1,22.11,22,33.2,32.92,1.85,1.94,3.2,5.31,6.71,3.48s3.58,0,4.24,2.68c.58,2.35,1.68,5.16,3.49,6.51,3.85,2.87,8.31,4.92,12.52,7.31.08.67.17,1.34.25,2Q511.57,528.64,511.92,539.26Z"/><path class="cls-27" d="M509.12,616q-.57,3.47-1.13,6.93c-6.54-7.14-11.19-15.11-11-25.19v-1.69l2.57-.74c.56,3,1.09,6.1,1.73,9.13.12.54.75,1,1.14,1.45a2.91,2.91,0,0,0,.55-.56c1.08-1.84-.55-10.22-2.21-11.52a35.7,35.7,0,0,0,7.13-27.35c-.1-.7.41-1.48.63-2.22,1.83,8.29,1.51,16.34-2.65,24-.24.45,0,1.17,0,1.76.07,2.31.13,4.62.2,6.92Q507.62,606.51,509.12,616Z"/><path class="cls-27" d="M498.16,143.75c-7.82,7.7-10.88,20-22.87,23.68-.33-.83-1.15-1.84-.91-2.46,3.51-9.34,8.25-17.72,18.54-21C494.53,143.42,496.41,143.79,498.16,143.75Z"/><path class="cls-18" d="M437,381c-2.64-6.1-5.57-12.1-7.74-18.36-.77-2.21.31-5.06.54-7.62a5.27,5.27,0,0,1,.9.13l.6,7.82.51,3.1Z"/><path class="cls-18" d="M422.48,315.16a17.51,17.51,0,0,1-1.4-1.84c-.94-1.62-1.8-3.29-2.69-4.93-1.42,1.49-2.89,2.95-4.23,4.51a9,9,0,0,0-1.05,2.11c-2.53-5,2.65-6.43,4.6-9.28.14-.21,3,1.47,4.65,2.27l.33,3.14Z"/><path class="cls-27" d="M511.91,545.06q-1.5,8.45-3,16.89.85-8.51,1.72-17Z"/><path class="cls-28" d="M500.79,593.85c1.66,1.3,3.29,9.68,2.21,11.52a2.91,2.91,0,0,1-.55.56c-.39-.48-1-.91-1.14-1.45-.64-3-1.17-6.08-1.73-9.13Z"/><path class="cls-18" d="M413.52,318.91c1.48,3.53,3,7,4.37,10.61.2.53-.48,1.39-.75,2.1L413,329.16c3.79-.4,2.1-2.41,1.23-4.18Z"/><path class="cls-18" d="M428.62,341.14q-1.33-5.06-2.65-10.1c.32,0,.64,0,1,0C427.49,334.43,428.05,337.79,428.62,341.14Z"/><path class="cls-18" d="M444.86,394.07l-4.54-7.45Z"/><path class="cls-29" d="M546.17,114.14l-3.35-4.68,3.12-.66,1,.34c0,1.71,0,3.42,0,5.13A1.94,1.94,0,0,1,546.17,114.14Z"/><path class="cls-18" d="M425.71,329.18l-1.8-7.13c.31,0,.62,0,.94.07C425.13,324.47,425.42,326.83,425.71,329.18Z"/><path class="cls-18" d="M429.67,350.18l-.78-6.14a8.65,8.65,0,0,1,.89.1Z"/><path class="cls-27" d="M493.26,165c.11,1.41.22,2.83.34,4.24C493.48,167.78,493.37,166.36,493.26,165Z"/><path class="cls-25" d="M511.91,545.06l-1.27-.12c-.08-1-.15-2.08-.22-3.11l1.42-1.92C511.86,541.62,511.89,543.34,511.91,545.06Z"/><path class="cls-18" d="M440,386l-2.63-4.44Z"/><path class="cls-18" d="M525,299l-.94,0c.15-1.37.31-2.74.46-4.11Z"/><path class="cls-27" d="M475.58,167.74l3.46.33Z"/><path class="cls-18" d="M423.63,320.2l-.81-3.11Z"/><path class="cls-18" d="M480.56,424.12,477,423.2l0-1,1.88,0,1.94,1.11A1,1,0,0,1,480.56,424.12Z"/><path class="cls-18" d="M523,287.06l-1.77-2.36.24-1.84Z"/><path class="cls-18" d="M511.52,256l.57,2-1.1-1Z"/><path class="cls-27" d="M490.9,164.51l2.25.29Z"/><path class="cls-27" d="M492.29,176.14c-.12-.36-.24-.72-.35-1.08l1.23-1Z"/><path class="cls-18" d="M497.43,241.94l.7,2.08Z"/><path class="cls-18" d="M496.65,237.91,497,240Z"/><path class="cls-18" d="M454.14,402.94l-2.09-2Z"/><path class="cls-18" d="M496,233.05l-.94,0c.15-.72.29-1.45.44-2.17C495.7,231.59,495.86,232.32,496,233.05Z"/><path class="cls-18" d="M411.93,327.39l.44,1.4L410,327.15Z"/><path class="cls-29" d="M541.16,109.48l-2.18.41Z"/><path class="cls-18" d="M523.44,288.86,524,291Z"/><path class="cls-18" d="M518.5,274.92l.9,2.73Z"/><path class="cls-27" d="M483.06,167.13c0,.29-.05.58-.07.87l-1.1-.54Z"/><path class="cls-30" d="M633.07,691c-.15,1.62-.29,3.24-.43,4.85a.88.88,0,0,0-.87.07l-2.42,1.1,2,1,.68,1-.84,1.08a.54.54,0,0,0-.37.39.33.33,0,0,1-.19.48c-2.22.37-5.72-1.17-5.78,2.63,0,1.55,2.36,3.14,3.64,4.72-.63,1.7-1.26,3.41-1.9,5.11-4.5-1.76-5.06,2-6.5,4.61a45.72,45.72,0,0,0-.07-5.74,6,6,0,0,0-1.51-3.25,18.55,18.55,0,0,0-4.12-2.93c-2.47-1.41-5-3.56-7.55-3.71-2.24-.14-2.51-.53-3.1-2.37-1.83-5.72-4.12-11.09-8.16-15.9-2.1-2.48-6.25-5-4.67-9.62l39.37-8.08,3.66,4.24c-4,.51-1.69,2.47-1.29,4.39.25,1.19-1,2.69-1.53,4-.35.84-.74,1.67-1.11,2.5l2.4-.3,2.44-.34c.1.7.21,1.4.32,2.1-.17.63-.33,1.26-.49,1.89s-.45,1.38-.68,2.07-.31,1.27-.46,1.91S633.23,690.28,633.07,691Z"/><path class="cls-28" d="M612.75,232.11l1.71,3.33c.2,1.5.39,3,.59,4.51-.67,1.6-1.94,3.23-1.86,4.8.11,2.42,1.14,4.8,1.79,7.19-3.51,3.34-2.43,7.66-2.13,11.6.35,4.75-1.27,8.69-4.73,9.52l-1.2-1c-1.46-2.13-2.62-4.57-4.45-6.31-3-2.88-6.51-5.32-9.79-7.95,1.35-6.5,2.63-13,4.09-19.5,1.39-6.2,1.38-6.22-5.09-5.4-1.26.16-2.59-.43-3.87-.35a5.58,5.58,0,0,0-2.73,1c-2,1.42-3.88,3-5.81,4.51q.83-6.53,1.64-13.06c.21-.68.41-1.37.61-2.05.15-1.64.3-3.29.46-4.93,1.26-1.43,2.28-3.3,3.85-4.2,5.58-3.21,8.51-7.74,8.26-14.23l1.85-.69,2.49,2.24.69.88-.2,2c.17.72.35,1.45.52,2.17a.55.55,0,0,0,.56-.2l-.21,2c.57,2,1.13,4.06,1.7,6.09.12.64.25,1.28.38,1.92l.88,2,4.62,6.37,2.55,5.59h0Z"/><path class="cls-19" d="M651,401.93c.39.95.79,1.9,1.19,2.85.26.39.52.78.77,1.17a1.92,1.92,0,0,1,.25.81q1.88,4.59,3.76,9.19a2.59,2.59,0,0,1,.17.92c.27.69.56,1.38.84,2.08a2.45,2.45,0,0,1,.18.9q1.13,3.63,2.23,7.26c2.53,7.36-2.75,11.93-6.13,17.18-.57-1.49-.15-4.67-3.23-1.92-.63.56-1.23,1.15-1.84,1.73-.71-.87-2.08-1.81-2-2.61.19-2,1.45-3.91,1.53-5.89.11-2.71,5.08-2.85,2.79-7-3.6-6.58-6.28-13.66-9.35-20.52q-.06-11.07-.11-22.12l5.77,8.07.36,1.78,1.64,3.21.36,1.79Zm-6.9-7.37c-.44.65-1,1.14-.91,1.41,1.56,4.54,3.14,9.08,4.91,13.54.19.48,1.57.48,2.4.71,0-.79.36-1.7.08-2.33-1.82-4.1-3.77-8.14-5.69-12.19A10.12,10.12,0,0,0,644.08,394.56Z"/><path class="cls-27" d="M598.43,201.17l-2.49-2.23c.38-3.27,1.18-6.55,1-9.8-.18-4.22-4-6.76-7-5.51-3.28,1.33-6.69,2.35-10,3.51-.28-.93-.64-1.85-.83-2.8-.48-2.4-.59-4.93-1.44-7.18-.35-.93-2.21-1.29-3.38-1.91-.21,1.1-.47,2.19-.62,3.29-.24,1.87-.4,3.74-.59,5.61h-1.2l-1-2.1-.1-1.88-2.31-14.4,6.53-2.59c0,.82,0,1.63,0,2.45.2,4.4.32,4.48,3.64,3a1.45,1.45,0,0,1,1.32.14c2.46,3.38,4.18.8,6.05-.69l11.84,15q.23,7,.44,13.94l.48,2.1Z"/><path class="cls-31" d="M642.94,458.16c1.24,15.69,2.76,31.37,3.65,47.08.78,13.77.54,27.6,1.35,41.37.75,12.89,2.28,25.73,3.48,38.6.07.66.3,1.3.33,2,.72,15.59,1.54,31.18,2,46.77.09,3-1.24,6-1.91,9l-1,0c0-.7,0-1.4,0-2.1l.14-1.72,1-1.22.06-3.95-.21-2.06,0-1.82c-.34-7.29-.59-14.58-1-21.86-.52-8.77-1.05-17.54-1.88-26.29-.81-8.56-2.54-17.07-2.91-25.65-.74-17.1-.56-34.25-1.27-51.35-.46-11.25-1.89-22.45-2.73-33.68-.33-4.38-.24-8.79-.34-13.19Z"/><path class="cls-32" d="M642.94,458.16l-1.21-.11q.21-25,.4-50c3.07,6.86,5.75,13.94,9.35,20.52,2.29,4.17-2.68,4.31-2.79,7-.08,2-1.34,3.9-1.53,5.89-.07.8,1.3,1.74,2,2.61.61-.58,1.21-1.17,1.84-1.73,3.08-2.75,2.66.43,3.23,1.92q-1.49,2-3,3.91L649.85,450Z"/><path class="cls-20" d="M613.22,730.18c-.65-1,.41-5.07-2.86-1.41-1.15,1.28-3.4,1.59-5.15,2.34-.09-.43-.19-.85-.28-1.28-.76-.94-1.33-2.24-2.31-2.74-1.43-.72-3.19-.73-4.73-1.28-10.48-3.74-18.2-11.15-25.41-19.23.2-1.41.4-2.82.59-4.24l9.86,8.54L584,712l2,1.8c4.62,2.15,9.15,4.54,13.88,6.4,5.19,2.05,10.56,3.84,16.19,1.29l.92,2.78C615.75,726.21,614.49,728.2,613.22,730.18Z"/><path class="cls-33" d="M615,251.94c-.65-2.39-1.68-4.77-1.79-7.19-.08-1.57,1.19-3.2,1.86-4.8l1.76.15,4.89,3.54,4.14,2.71c4,2.27,8.09,4.49,12.08,6.83a8.57,8.57,0,0,1,1.76,2,5.37,5.37,0,0,1-1.48,1c-3.61.95-7.25,1.81-10.88,2.7l-1.39-.79-2.47-1.58-1.45-.64L618,253Z"/><path class="cls-18" d="M615,251.94l3,1,0,1.08-.84,3c0,3,0,6,0,8.95.21.69.41,1.39.61,2.09s.31,1.27.46,1.9c.86,3,1.73,6.05,2.59,9.08-.66,2.24-1.31,4.48-2,6.72h-2.93l-7.79-12.75c3.46-.83,5.08-4.77,4.73-9.52C612.55,259.6,611.47,255.28,615,251.94Z"/><path class="cls-27" d="M627.32,258.84c3.63-.89,7.27-1.75,10.88-2.7a5.37,5.37,0,0,0,1.48-1,8.57,8.57,0,0,0-1.76-2c-4-2.34-8-4.56-12.08-6.83,8.19,1.22,14.81,5.9,21.79,9.82-.28.85-.55,1.7-.83,2.55l-1.84.57-2.09.59-4.9.49-9.06-.09Z"/><path class="cls-25" d="M634.87,680.91l-2.44.34-2.4.3c.37-.83.76-1.66,1.11-2.5.57-1.35,1.78-2.85,1.53-4-.4-1.92-2.67-3.88,1.29-4.39l-3.65-4.24,9.84-5.26,1.66,1.45-3.9,12.36C636.9,676.92,635.88,678.91,634.87,680.91Z"/><path class="cls-31" d="M638.94,356l1,.05c.09,1,.17,2,.25,3l.72,2.06c.13,1.32.25,2.64.37,4l.66,4q2.31,10.15,4.64,20.32c.36,1.56.82,3.1,1.23,4.65L642,385.94Q640.48,371,638.94,356Z"/><path class="cls-19" d="M650.88,642.94l1,0c-.71,10.64-3.37,15.86-9.94,19.53.09-.9.17-1.8.26-2.69,5.54-3.45,7.13-8.73,6.88-14.86a3.15,3.15,0,0,0,0-1v0Z"/><path class="cls-27" d="M617,724.22c-.31-.93-.62-1.85-.92-2.78,1.75-.67,4.63,0,4-3.46,1.44-2.56,2-6.37,6.5-4.61-.44,1.67-.88,3.33-1.31,5l-1.41,2.51h0l-3.25,1.79Z"/><path class="cls-25" d="M628.51,708.26c-1.28-1.58-3.66-3.17-3.64-4.72.06-3.8,3.56-2.26,5.78-2.63l-1.5,7.68A.47.47,0,0,1,628.51,708.26Z"/><path class="cls-20" d="M611.18,754.12q.42-4.12.86-8.26Q611.61,750,611.18,754.12Z"/><path class="cls-31" d="M657,416q-1.87-4.6-3.76-9.19Q655.07,411.35,657,416Z"/><path class="cls-20" d="M634.87,680.91c1-2,2-4,3-6-.91,2.69-1.81,5.39-2.72,8.08C635.08,682.31,635,681.61,634.87,680.91Z"/><path class="cls-20" d="M629.15,708.59l1.5-7.68a.33.33,0,0,0,.19-.48l.93.46Q630.46,704.73,629.15,708.59Z"/><path class="cls-27" d="M601.49,214.16c-.57-2-1.13-4.06-1.7-6.09l.85.13c.15.61.29,1.23.43,1.85s.46,1.38.68,2.07C601.66,212.8,601.57,213.48,601.49,214.16Z"/><path class="cls-31" d="M660.37,427.11q-1.11-3.63-2.23-7.26Q659.27,423.48,660.37,427.11Z"/><path class="cls-20" d="M612.13,738.09l1.08-5.24Z"/><path class="cls-20" d="M610.71,761c.13-1.7.25-3.4.38-5.1C611,757.56,610.84,759.26,610.71,761Z"/><path class="cls-27" d="M609.92,230.07l-2.55-5.59Z"/><path class="cls-27" d="M616.75,238.12l.06,2-1.76-.15c-.2-1.5-.39-3-.59-4.51Z"/><path class="cls-27" d="M618,254.05l0-1.08,4,2.86h-2Z"/><path class="cls-20" d="M609.26,767.22c.44-1.52.88-3,1.31-4.56C610.14,764.18,609.7,765.7,609.26,767.22Z"/><path class="cls-20" d="M631.77,695.9a.88.88,0,0,1,.87-.07c-.2,1-.4,2.09-.59,3.13l-.68-1C631.5,697.3,631.64,696.6,631.77,695.9Z"/><path class="cls-31" d="M649.79,399l-1.64-3.21C648.7,396.86,649.25,397.93,649.79,399Z"/><path class="cls-20" d="M620.65,722.66l3.25-1.79Z"/><path class="cls-27" d="M612.75,232.11l-2.81-2Z"/><path class="cls-27" d="M623.46,256.47l2.47,1.58Z"/><path class="cls-20" d="M633.07,691c.16-.7.32-1.4.49-2.1C633.39,689.58,633.23,690.28,633.07,691Z"/><path class="cls-20" d="M634,687c.23-.69.45-1.38.68-2.07C634.47,685.59,634.25,686.28,634,687Z"/><path class="cls-20" d="M623.89,720.88l1.41-2.51Z"/><path class="cls-27" d="M602.75,218.11l-.88-2Z"/><path class="cls-27" d="M598.92,204.07l.9,0c-.13.71-.25,1.43-.38,2.14C599.27,205.52,599.09,204.79,598.92,204.07Z"/><path class="cls-25" d="M642.17,659.82c-.09.89-.17,1.79-.26,2.69l-.1.06-1.65-1.45Z"/><path class="cls-29" d="M649.85,450l1.41-1.75Z"/><path class="cls-31" d="M658,419c-.28-.7-.57-1.39-.84-2.08Z"/><path class="cls-31" d="M652.94,406c-.25-.39-.51-.78-.77-1.17C652.43,405.17,652.69,405.56,652.94,406Z"/><path class="cls-31" d="M651,401.93l-.83-1.14Z"/><path class="cls-25" d="M631.77,700.89l-.93-.46a.54.54,0,0,1,.37-.39C631.4,700.32,631.59,700.6,631.77,700.89Z"/><path class="cls-34" d="M545.5,173.1c-3.89-1.61-7.92-3-11.66-4.91-5.25-2.72-10.21-3.82-15.86-.8-4.06,2.17-10.94-1.94-9.27-5.16,1.44-2.79.44-7.87,5.63-8.45,1.19-.13,2.26-1.29,3.39-2,6.31,4.38,12.4,9.14,19,13,3.67,2.15,8.2,2.83,12.34,4.17l.48,1.12Z"/><path class="cls-31" d="M570.76,180.16c0,.63.07,1.26.1,1.89-3.19,1.43-7.71.88-8,6.38-.21,4.58-3.91,7.29-8.38,6.53-.92-.16-2.43-1.58-2.34-2.24.43-3.06.8-6.32,2.15-9,2.07-4.17.8-7-2.29-9.69l-.21-2.93,1-2.66,9.17-.31c.78,2.94,1.52,5.9,2.4,8.81.13.44.86.76,1.38,1C567.42,178.7,569.1,179.42,570.76,180.16Z"/><path class="cls-29" d="M537.28,118.18l9.28,1.64c.94,4.34-1.52,7.29-4.16,10.16-5.49.87-7.39,3.18-6.51,7.94L520,136.14c2.61-.68,5.23-1.34,7.84-2.06,1.21-.34,2.39-.8,3.59-1.21-.49-1.12-1-2.23-1.47-3.35q-.93-2.18-1.84-4.35l2.76-.41,7.42.92c-.43-1.54-.86-3.08-1.28-4.62C537.11,120.1,537.19,119.14,537.28,118.18Z"/><path class="cls-20" d="M579.84,135.1c-.8.27-1.54.81-2.07.65-6.27-1.89-12.58-3.69-18.73-5.92-3-1.09-2.67-3.37,0-4.62a47.82,47.82,0,0,1,8.89-3,3.73,3.73,0,0,1,3.17.81c2.73,3.36,5.2,6.92,7.75,10.42C579.1,133.87,579.34,134.31,579.84,135.1Z"/><path class="cls-20" d="M535.89,137.92c-.88-4.76,1-7.07,6.51-7.94,1.49,0,3,0,4.47.15,3.63.44,4.62,2.52,2.86,5.75a6.82,6.82,0,0,0-.65,1.33c-1.68,5.84-1.69,5.89-7.39,3.58C539.7,140,537.82,138.89,535.89,137.92Z"/><path class="cls-18" d="M586,168.07c-1.87,1.49-3.59,4.07-6.05.69a1.45,1.45,0,0,0-1.32-.14c-3.32,1.48-3.44,1.4-3.64-3,0-.82,0-1.63,0-2.45,2.94-3.75,5.46-3,7.83.64C583.77,165.29,584.91,166.65,586,168.07Z"/><path class="cls-19" d="M570.76,180.16c-1.66-.74-3.34-1.46-5-2.24-.52-.25-1.25-.57-1.38-1-.88-2.91-1.62-5.87-2.4-8.81l6.46-2.34Q569.6,173,570.76,180.16Z"/><path class="cls-20" d="M547,114.27c0-1.71,0-3.42,0-5.13,1.66,0,3.53-.44,4.92.19,1.82.82,3.29,2.47,4.8,3.88a3.07,3.07,0,0,1-1.17,1.72c-2,.69-4,3.65-6.37.45C548.73,114.8,547.76,114.63,547,114.27Z"/><path class="cls-18" d="M510.41,146.77l-8.59-3Z"/><path class="cls-19" d="M552.83,168.41l-1,2.66-2.29-1-.48-1.12Z"/><path class="cls-35" d="M497,597.78c-.21,10.08,4.44,18.05,11,25.19-.37,3.36-.73,6.71-1.1,10.07-.66.6-1.65,1.08-1.93,1.82-3.64,10-7.26,20-3.22,30.77a3.62,3.62,0,0,1,.18,2.43c-2.06,4.77.85,7.4,4.09,9.93l.12,5.25q.36,2.93.71,5.83c-.45,1.25-1.35,2.53-1.26,3.74a36.45,36.45,0,0,0,1.49,6.06l-.06.06c-8.42.35-16.83.65-25.24,1.12a6.22,6.22,0,0,0-2.95,1.61c-8.8,6.81-11.48,16.71-12.54,27-.32,3.06,1.61,7.07,3.77,9.55,6,6.91,12.94,13,19,19.9,4.23,4.81,7.67,10.32,11.38,15.58,1.65,2.35,3.08,4.85,4.62,7.27-6.49,0-13,.2-19.45-.06-1.68-.07-3.38-1.39-4.93-2.38-8.08-5.14-10.74-14.61-16.89-21.36s-12.16-13.66-17.1-21.24C439.83,725.4,432.89,715,430.52,702c-.86-4.69.55-8,1.34-12,2.26-11.44,10.12-19.66,16.05-29,7.55-11.91,14.69-24.11,22.89-35.55,6.45-9,14.17-17.07,21.51-25.4C493.37,598.88,495.42,598.53,497,597.78ZM460,716.75c-2.08,2.65-3.53,3.69-3.82,5-1.33,6,1.71,10.91,4.42,15.82.37.68,1.93.91,2.94.9.4,0,1.15-1.22,1.13-1.87a125.47,125.47,0,0,0-.76-13.72C463.64,721.19,461.91,719.71,460,716.75Zm21.63-18.6.2-1.25c4.08,0,8.16.11,12.24-.08.88,0,1.77-1.08,2.52-1.8.12-.12-.49-1.47-.85-1.51-5.11-.55-10.23-1.17-15.35-1.25-.91,0-1.85,2.35-2.78,3.62Z"/><path class="cls-35" d="M567.1,781c-11,0-21.9.18-32.84-.1-3.61-.09-7.19-1.37-10.79-2.11q-3.09-9.42-6.17-18.83l-7.29-27-1.26-11c-.12-2.3-.24-4.59-.35-6.89,2.14-1.17,2.1-2.22-.18-3.15q-.84-3.86-1.7-7.7c.17-.77.34-1.54.52-2.31l0-2.93.05-.06c6.37,2.11,12.64,4.59,19.13,6.22,9.77,2.45,19.77,4.08,27.59,11.28a32.35,32.35,0,0,0,4,2.71l5,3.82,6.22,3.79L580,734v2.91l-6.88.17c-4.44-.89-7.27.62-7,5.44C566.72,755.3,564.56,768.2,567.1,781Z"/><path class="cls-21" d="M517.3,759.94q3.09,9.4,6.17,18.83l-5.33,2.05c-1.59-3-2.81-6.29-4.83-9q-10.24-13.65-21-26.9c-1.09-1.34-3.34-1.69-5-2.63-1.09-.63-2.78-1.36-2.93-2.26-.45-2.68-.21-5.47-.35-8.22-.11-2.14-.39-4.27-.59-6.41-1.14,1.55-2,3.46-3.5,4.57-2,1.52-4.53,2.43-6.82,3.6-.36-1.68-1.44-3.63-.93-5,1.42-3.75,3.83-7.12,5.26-10.87,2.4-6.3,8.22-8.2,13.32-11.06.38-.21,1.45.79,2.19,1.23-.25,1.17-.51,2.34-.77,3.51l2.8-2.36,1.2,3.37-.06,1.46,0-.07,2.41.93c1.47,1.23,2.85,2.57,4.42,3.65,1.87,1.29,3.9,2.35,5.86,3.5l1.26,11c-1.37-.37-2.77-1.11-4.12-1a71.59,71.59,0,0,0-7.64,1.27c1.59,1.27,3.22,2.5,4.75,3.84a8.23,8.23,0,0,1,1.95,2.34c3,6,5.92,12.07,9.07,18C514.62,758.48,516.18,759.09,517.3,759.94Z"/><path class="cls-21" d="M594.88,735.23c2.14,1.94,4.19,4,6.43,5.81s2.15,4,0,4.76c-4.36,1.64-2.68,4.75-2.08,7.18.9,3.6,2.18,6.86-2,9.28-.58.33-1.22,1.85-1,2,5.22,5.22-.24,11,.89,16.36l-16,.15c0-1-.35-2.18.08-2.94,3.8-6.72,1.12-14.2,2.56-21.23.87-4.22,0-8.81-.13-13.23-.07-2.12-.33-4.24-.51-6.36l3.7-1.86Z"/><path class="cls-36" d="M492.93,707.92c-.74-.44-1.81-1.44-2.19-1.23-5.1,2.86-10.92,4.76-13.32,11.06-1.43,3.75-3.84,7.12-5.26,10.87-.51,1.35.57,3.3.93,5,2.29-1.17,4.78-2.08,6.82-3.6,1.48-1.11,2.36-3,3.5-4.57.2,2.14.48,4.27.59,6.41.14,2.75-.1,5.54.35,8.22.15.9,1.84,1.63,2.93,2.26,1.64.94,3.89,1.29,5,2.63q10.77,13.26,21,26.9c2,2.68,3.24,6,4.83,9l-8.05.09c-1.16-2.67-1.79-5.79-3.59-7.94-9.08-10.85-18.43-21.47-27.78-32.09a10.92,10.92,0,0,0-4-2.81c-6-2.41-8.14-6.35-6-12.45a60.58,60.58,0,0,1,5.36-12,17.9,17.9,0,0,1,7.14-6.71c4.65-2.1,9.81-3.13,14.82-4.37.48-.12,1.38,1.45,2.09,2.24l-.78,1.41c-.61.61-1.23,1.21-1.85,1.81Z"/><path class="cls-34" d="M498.14,704.8c-.71-.79-1.61-2.36-2.09-2.24-5,1.24-10.17,2.27-14.82,4.37a17.9,17.9,0,0,0-7.14,6.71,60.58,60.58,0,0,0-5.36,12c-2.17,6.1-.05,10,6,12.45a10.92,10.92,0,0,1,4,2.81c9.35,10.62,18.7,21.24,27.78,32.09,1.8,2.15,2.43,5.27,3.59,7.94l-5.06,0c-1.53-2.42-3-4.92-4.61-7.27-3.71-5.26-7.15-10.77-11.38-15.58-6.05-6.87-13-13-19-19.9-2.16-2.48-4.09-6.49-3.77-9.55,1.06-10.26,3.74-20.16,12.54-27a6.22,6.22,0,0,1,2.95-1.61c8.41-.47,16.82-.77,25.24-1.12l0,2.93-6,2.72-1.77.46Z"/><path class="cls-36" d="M583.12,737c.18,2.12.44,4.24.51,6.36.16,4.42,1,9,.13,13.23-1.44,7,1.24,14.51-2.56,21.23-.43.76-.08,1.95-.08,2.94l-8,.11c-.64-3.33-1.35-6.65-1.87-10-.17-1.08-.26-2.56.32-3.32,4.36-5.77,5.61-12,3.05-18.8-.14-.4-.11-1.25,0-1.31,3.26-1.17,1.29-2.81.55-4.5-.84-1.92-1.42-4-2.11-6l6.88-.17Z"/><path class="cls-34" d="M573.06,737c.69,2,1.27,4,2.11,6,.74,1.69,2.71,3.33-.55,4.5-.16.06-.19.91,0,1.31,2.56,6.85,1.31,13-3.05,18.8-.58.76-.49,2.24-.32,3.32.52,3.35,1.23,6.67,1.87,10l-6,.07c-2.53-12.78-.37-25.68-1.05-38.51C565.79,737.65,568.62,736.14,573.06,737Z"/><path class="cls-17" d="M594.88,735.23l-8.06-.05L580,734l-10.86-7.26c-.77-4,1.82-3.29,4.14-3l3.38,1.45a.9.9,0,0,0,.3.87l2.5,1.41c8.24,3.63,16.72,4.78,25.52,2.38.09.43.19.85.28,1.28C603,735.56,598.09,733.25,594.88,735.23Z"/><path class="cls-37" d="M638.94,356q1.54,15,3.08,29.95,0,11.06.11,22.12-.2,25-.4,50c.1,4.4,0,8.81.34,13.19.84,11.23,2.27,22.43,2.73,33.68.71,17.1.53,34.25,1.27,51.35.37,8.58,2.1,17.09,2.91,25.65.83,8.75,1.36,17.52,1.88,26.29.44,7.28.69,14.57,1,21.86-5.28-.6-5-.55-4.17-4.81.29-1.41-.74-3.3-1.61-4.7-1.56-2.5-3.47-4.77-5.18-7.18-3.39-4.76-6.73-9.56-10.1-14.33a7.43,7.43,0,0,0-.82-.87,2.67,2.67,0,0,1,1-.18c3.33.73,6.8,1.12,9.89,2.43,1.17.5,1.42,3.12,2.13,4.76a8.39,8.39,0,0,0,.75,1.15c.34-.27,1-.67,1-.79-1.82-4.8-2.45-11.92-5.89-13.77-4.65-2.5-7.83-4.57-9.07-9.65-.28-1.13-1.74-1.92-2.42-3-2.19-3.47-4.38-7-6.35-10.56-1.16-2.11-1.52-4.7-2.89-6.61-2.17-3-3.11-5.35,0-8.5,1.81-1.81,1.3-4.33-1.72-5.43a24.19,24.19,0,0,1-3-1.56c1.14-.49,2.26-1.05,3.43-1.45s2.32-.36,3.27-.91a11.1,11.1,0,0,0,2.27-2.36A23.38,23.38,0,0,1,620,540.1c-1.81-1.58-3.61-3.17-5.31-4.87-2.07-2.08-.58-2.23,1.28-2.27,4.43-.08,8.86-.41,13.28-.33,5.25.09,4.71-4.47,5.74-7.34.5-1.39-1.12-3.57-1.9-5.35a1.42,1.42,0,0,0-1.27-.42c-.24.05-.58.86-.46,1.16,2.91,7.16-.55,4.52-3.69,2.41-.12-.08-.36,0-.48-.08-1.81-1.34-4-2.41-5.31-4.11-1.67-2.1-2.71-4.65,1.25-6,.49-.17.7-2.15.47-3.16-1.61-6.86-3.4-13.68-5-20.54-.07-.33,1.31-1.43,1.49-1.32,3.33,2.09,3-.63,2.69-2.26-.57-2.73-1.75-5.33-2.46-8a4.69,4.69,0,0,1,.59-2.69,1.89,1.89,0,0,1,1.6.07,14.25,14.25,0,0,1,1.79,2.33,24.73,24.73,0,0,0,.59-3.78c.06-6.41-.08-12.82.05-19.22.13-5.78.38-11.57.85-17.34.33-4,1.12-7.92,1.71-11.87.41-2.7,1.39-5.46,1.1-8.09-.35-3.22-1.68-6.35-2.71-9.48-.71-2.14-1.29-3.45,1.57-5.08,4.37-2.5,3.92-5.12-.37-7.64-1.08-.64-2.58-1.28-3-2.27-1.24-3.32.15-7.91-4.79-9.36,1.59-4.56-2.54-9.42,1-14.06,1.57-2.06,2-5,2.84-7.59a6.6,6.6,0,0,0,.08-1.84c-.6.42-1.21.8-1.77,1.26s-1.12,1.06-1.67,1.6a15.93,15.93,0,0,1-.88-2.6,4.25,4.25,0,0,1,.1-2.46c4.74-9.12,2.3-18.95,2.81-28.47a31.46,31.46,0,0,0-.7-6.37c-.08-.53-.64-1-1-1.48a10.58,10.58,0,0,0-.24,1.46c-.09,7.41-.15,14.82-.27,22.22a6.36,6.36,0,0,1-.53,1.69,6.5,6.5,0,0,1-1.21-1.19,20.2,20.2,0,0,1-1-2.27c0-8.85.57-17.74-.18-26.52-.48-5.65-2.88-11.15-4.49-16.69-.15-.49-.88-.82-1.34-1.22-.25.51-.79,1.07-.71,1.54,1.38,8.63,2.84,17.24,4.24,25.86.35,2.13.54,4.28.8,6.42-1-1.7-2-3.43-3.12-5.11a18.63,18.63,0,0,0-1.38-1.7,8.3,8.3,0,0,0-.37,2.16c.49,5.1,1,10.18,1.59,15.27l0,4.07q-1.5,9.45-3,18.91l-6.15,17.9q-3.51,9-7,18l-3.56,2.53a.51.51,0,0,0-.5-.53l-1-1.54-1.17-1.12a.85.85,0,0,1-.49-.36l-1.19-.83,0,0-1-2-1.43-5.4c1.22.92,2.35,2.42,3.68,2.61,1.68.24,3.52-.59,5.29-1a37.38,37.38,0,0,1-2.19-3.56c-.47-1-1.21-2.69-.82-3.08,5.57-5.59-.42-14,5.19-20,1.58-1.69-.37-6.59-.49-10-.07-2.12.33-4.25.37-6.37a18.18,18.18,0,0,0-.29-4.73c-.58-2.34-1.64-4.56-2.24-6.89a60.4,60.4,0,0,1-1-6c0,1.78,0,3.55-.06,5.33,0,.65-.14,1.3-.22,1.95-.24-.12-.62-.19-.7-.38-1-2.6-3.09-5.51-2.55-7.77.9-3.77,1.13-6.47-2.14-9.11-.74-.59-.2-2.76-.25-4.21,1.38,0,3-.57,4.07,0,1.4.81,2.34,2.45,3.4,3.8a8,8,0,0,1,.79,1.79,9,9,0,0,0,1-2c.2-.92-.15-2,.21-2.84a32.57,32.57,0,0,1,2.54-4c.33,1.25.66,2.51,1,3.75.24.87.51,1.72.77,2.58.65-.61,1.78-1.16,1.86-1.84.56-4.3,5.94-8.12,1.37-12.95a1,1,0,0,1,.06-.95c3.29-3.62.72-7.2-.14-10.74a15,15,0,0,0-1.94-3.56,24.2,24.2,0,0,0-2,4.21c-.23.84.41,1.9.54,2.87.44,3.26.94,6.53,1.16,9.81,0,.68-1,1.44-1.61,2.16a10.13,10.13,0,0,1-1.19-2.34c-.41-1.92-.4-3.95-1-5.79-.28-.84-1.59-1.34-2.43-2-.34.95-.68,1.9-1,2.85-.28.77-.54,1.55-.81,2.32-.6-.69-1.56-1.31-1.74-2.1-1-4.33-2-8.69-2.6-13.09-.12-.89,1.92-2.93,2-2.89,3.94,2.53,4.88-2.2,7.38-3a18.14,18.14,0,0,1,3.11-1c3.42-.41,4.36-2.64,3.63-6.23-.38-1.91.89-4.17,1.41-6.26l1.2,1,7.79,12.75c3.7,8.86,8.07,17.5,11,26.62C631.41,326.78,635,341.45,638.94,356Zm-14.39,1.31a1.36,1.36,0,0,0,.13-.42c0-.05-.23-.09-.35-.14a1.24,1.24,0,0,0-.13.43C624.2,357.22,624.42,357.26,624.55,357.3Z"/><path class="cls-38" d="M606.92,272.05c-.52,2.09-1.79,4.35-1.41,6.26.73,3.59-.21,5.82-3.63,6.23a18.14,18.14,0,0,0-3.11,1c-2.5.78-3.44,5.51-7.38,3,0,0-2.09,2-2,2.89.62,4.4,1.58,8.76,2.6,13.09.18.79,1.14,1.41,1.74,2.1.27-.77.53-1.55.81-2.32.33-.95.67-1.9,1-2.85.84.65,2.15,1.15,2.43,2,.59,1.84.58,3.87,1,5.79a10.13,10.13,0,0,0,1.19,2.34c.57-.72,1.65-1.48,1.61-2.16-.22-3.28-.72-6.55-1.16-9.81-.13-1-.77-2-.54-2.87a24.2,24.2,0,0,1,2-4.21,15,15,0,0,1,1.94,3.56c.86,3.54,3.43,7.12.14,10.74a1,1,0,0,0-.06.95c4.57,4.83-.81,8.65-1.37,12.95-.08.68-1.21,1.23-1.86,1.84-.26-.86-.53-1.71-.77-2.58-.34-1.24-.67-2.5-1-3.75a32.57,32.57,0,0,0-2.54,4c-.36.81,0,1.92-.21,2.84a9,9,0,0,1-1,2,8,8,0,0,0-.79-1.79c-1.06-1.35-2-3-3.4-3.8-1-.59-2.69-.05-4.07,0,0,1.45-.49,3.62.25,4.21,3.27,2.64,3,5.34,2.14,9.11-.54,2.26,1.59,5.17,2.55,7.77.08.19.46.26.7.38.08-.65.2-1.3.22-1.95,0-1.78,0-3.55.06-5.33a60.4,60.4,0,0,0,1,6c.6,2.33,1.66,4.55,2.24,6.89a18.18,18.18,0,0,1,.29,4.73c0,2.12-.44,4.25-.37,6.37.12,3.44,2.07,8.34.49,10-5.61,6,.38,14.42-5.19,20-.39.39.35,2.1.82,3.08a37.38,37.38,0,0,0,2.19,3.56c-1.77.37-3.61,1.2-5.29,1-1.33-.19-2.46-1.69-3.68-2.61q.71,2.7,1.43,5.4l-6.37-.71a.82.82,0,0,1-.67-.26l-1-1.21c1.14-5.07-4.69-5.83-5.85-9.48-1.81,2.5-4.69-4.41-6.2.71L563.82,384a27.72,27.72,0,0,0,1.82-3.5c.29-.82-.16-1.95.22-2.68,1.4-2.7,3.32-5.17,4.39-8,.46-1.22-.66-3-1.06-4.58-1.72.63-3.67.93-5.11,2s-2.51,2.85-3.74,4.31L558,366.06c.37-1.32.75-2.64,1.12-4,.29-.34.59-.68.88-1,.62-.21,1.66-.27,1.79-.65,1.55-4.33,3.39-8.63,4.23-13.12.5-2.66-.85-5.61-1-8.45q-.67-12.16-1-24.33a125.92,125.92,0,0,1,.11-15.3c.22-2.3,2-4.44,3.1-6.65l.88,1.15c.28-.31.79-.62.8-.93.13-3.9.18-7.81.25-11.71l-.48-6.2-.18-4.62q1.37-3.51,2.72-7l2.63-1.37c1-.34,2.51-.39,2.89-1.08,2.84-5.08,5.28-6.22,11.19-4.83l3,.82,1.72,1c3.28,2.63,6.75,5.07,9.79,7.95C604.3,267.48,605.46,269.92,606.92,272.05Zm-20.17-5.93-.57-2.31c-1.11-.22-2.54-1-3.29-.58a41.63,41.63,0,0,0-7.2,5.09c-1.09,1-1.5,2.69-2.21,4.07,1.36-.21,2.72-.4,4.08-.64s2.79-.18,3.78-.87A57.75,57.75,0,0,0,586.75,266.12Z"/><path class="cls-32" d="M557.24,471.6c-2.67,3.61-5.54,7.08-7.94,10.86-3.55,5.58-6.3,11.72-10.26,17-2.9,3.83-7.21,6.58-10.9,9.82-.65-.51-1.3-1-2-1.52-7.65-5.39-7.81-6.06-2.26-13.49,1.49-2,4.7-3.64,4.79-5.55.21-4.48-1.13-9-1.59-13.53-.41-4-1-8-.51-11.87.37-2.78,2.19-5.52,3.84-7.94s3.68-6,6.21-6.73c3.82-1.13,5.56-3.39,6.73-6.52,2.33-6.27,3.94-12.85,6.74-18.89,3.48-7.49,1.28-17.32,9.53-22.88,1-.63.93-2.7,1.36-4.11l2.93.25,4,.6c4,1.84,8,3.76,12.1,5.5,2.56,1.09,5.23,1.91,7.85,2.84l.84.74c.1,1.24.2,2.48.29,3.72L587.07,412l-2,1.8-2.24,3.24-1,6.21c-4.54-.68-3.64,3.52-5,5.64-.62,2-1.25,4.08-1.87,6.12-4.45.38-4.22,4.1-5,7.07-.36,1.66-.73,3.32-1.09,5-1.26,1.63-2.52,3.27-3.79,4.9l-5.91,11Z"/><path class="cls-36" d="M561,396.22c-.43,1.41-.41,3.48-1.36,4.11-8.25,5.56-6,15.39-9.53,22.88-2.8,6-4.41,12.62-6.74,18.89-1.17,3.13-2.91,5.39-6.73,6.52-2.53.75-4.47,4.18-6.21,6.73s-3.47,5.16-3.84,7.94c-.52,3.86.1,7.92.51,11.87.46,4.53,1.8,9,1.59,13.53-.09,1.91-3.3,3.56-4.79,5.55-5.55,7.43-5.39,8.1,2.26,13.49.67.48,1.32,1,2,1.52a26.2,26.2,0,0,1-3.52,3.32c-4.79,3.14-5.36,2.87-5.8-2.65-.34-4.22-1-8.49-.64-12.64.26-2.84,1.85-5.68,3.33-8.24,1.6-2.79,3-4.93,1.08-8.52a38.57,38.57,0,0,1-3.5-12.28c-1.25-8.57,3.65-15.63,9.19-20.32,10.81-9.14,16.05-20.22,17.85-33.78a70.91,70.91,0,0,1,4.22-15.23c.62-1.68,3.06-2.68,4.68-4Z"/><path class="cls-33" d="M511,516c-4.21-2.39-8.67-4.44-12.52-7.31-1.81-1.35-2.91-4.16-3.49-6.51-.66-2.66-.78-4.48-4.24-2.68S485.85,498,484,496a29.77,29.77,0,0,0-.48-3.92c-.56-2.22-3.71-4.81,1.1-6a.47.47,0,0,0,.2-.42c-2.11-6.71,5.32-6.45,7.5-10.06.5-.81,2.92-1.25,3.92-.76a5.75,5.75,0,0,1,2.67,3.61c1,4.44.82,9.25,2.45,13.39a30.07,30.07,0,0,0,7.33,10.4c3.65,3.45,5.85,8.74,3.77,12.54C512.17,515.3,511.47,515.6,511,516Z"/><path class="cls-37" d="M566.88,387.13c1.51-5.12,4.39,1.79,6.2-.71,1.16,3.65,7,4.41,5.85,9.49a2.17,2.17,0,0,0,0,.88l-8.78-5Z"/><path class="cls-39" d="M553.09,385.94c-1.1-2.32-2.21-4.63-3.31-6.94,3.68.28,6.93,1.13,8.8,4.91.49,1,2.22,1.39,3.38,2.06l1,3.86Z"/><path class="cls-35" d="M511.92,539.26q-.35-10.62-.71-21.24c2.44-.13,4.2-.12,3.24,3.46-.92,3.42-.89,7.11-1.27,10.68-.06,1.28-.13,2.55-.19,3.83l-1,3Z"/><path class="cls-40" d="M563,389.83,562,386c0-.66.07-1.32.11-2h1.75l3.06,3.12,3.24,4.71Z"/><path class="cls-40" d="M580.55,397.37l6.37.71,1,2Z"/><path class="cls-36" d="M588.7,406.15l-.84-.74,3.92-1.49a.51.51,0,0,1,.5.53Z"/><path class="cls-36" d="M567.91,397.07l-4-.6Z"/><path class="cls-40" d="M589.57,401.26l1.17,1.12Z"/><path class="cls-40" d="M587.89,400.07l1.19.83Z"/><path class="cls-40" d="M578.9,396.79a2.17,2.17,0,0,1,0-.88l1,1.2Z"/><path class="cls-41" d="M576.61,725.17l-3.38-1.45-8-6.12L558,712.43c-6.72-5.57-14.18-9.64-22.84-11.2-4.87-.87-9.81-1.43-14.65-2.42-5.94-1.21-11.72-2.87-13.71-9.74q-.34-2.91-.71-5.82c11,2.34,20.45-4.35,23-16.28.9-1.78,1.53-3.23,4.31-2.16,6.13,2.38,12.53,4.07,18.69,6.38,1.86.7,3.3,2.52,4.93,3.82.82,2.34,1.63,4.67,2.44,7a20.37,20.37,0,0,0,1.21,4.18c3.55,6.62,7.22,13.17,10.85,19.74-1.59,3.4,1.21,12.74,4.47,15.87C576.68,722.45,576.44,724,576.61,725.17Z"/><path class="cls-42" d="M620.11,718c.62,3.42-2.26,2.79-4,3.46-5.63,2.55-11,.76-16.19-1.29-4.73-1.86-9.26-4.25-13.88-6.4l-2-1.8-1.1-1.07a21.67,21.67,0,0,0-1.07-2.16c-4.89-7.65-10-15.21-14.65-23-1.92-3.18-3.05-6.84-4.55-10.28l3.54-1.77,20.76,1,4-.28c-1.58,4.66,2.57,7.14,4.67,9.62,4,4.81,6.33,10.18,8.16,15.9.59,1.84.86,2.23,3.1,2.37,2.58.15,5.08,2.3,7.55,3.71a18.55,18.55,0,0,1,4.12,2.93,6,6,0,0,1,1.51,3.25A45.72,45.72,0,0,1,620.11,718Z"/><path class="cls-43" d="M564,595l-.24-4.08L567,576c1.83-1.62,3.49-2.25,5,.48,1.2,2.23,2.59,4.36,3.89,6.54l.06,1c.26,4.54.46,9.09.85,13.62.08,1,.86,1.87,1.32,2.81.17-1,.38-2,.5-3.06a15.63,15.63,0,0,0,0-1.81c.38.19.94.29,1.11.6,2,3.72,3.75,7.6,6,11.19,2.5,4,5.44,7.77,8.18,11.64a8.42,8.42,0,0,0,.08,1c-1,5.44-4.79,1.23-7.11,2.07l-.83-.21L583.9,620c-3.18-.56-3.85,1.41-2.44,3.38a24,24,0,0,0,6.74,6.43c6.6,4.07,13.52,7.63,20.2,11.59,1,.62,1.46,2.29,2.16,3.47-1.32,0-2.85.45-3.93-.06-6.06-2.85-11.86-6.31-18-8.84-8.3-3.4-14.07-9.55-19.54-16.2-2.83-2.37-3.28-5.41-3.06-9a137.63,137.63,0,0,0-.12-14.07C565.84,596.16,564.67,595.58,564,595ZM579,610l-2-2c-.89-1.21-1.79-2.41-2.69-3.62l-.86.84,3.58,2.75,2,2,3,3,2.74,2.8,1.06-1.43c-1.1-.45-2.21-.91-3.32-1.35a1.34,1.34,0,0,0-.49,0Zm-9.41-.09c-.2.14-1,.39-1.12.8a2.32,2.32,0,0,0,.69,1.66c2.28,2.53,4.59,5,7,7.45a1.85,1.85,0,0,0,1.61-.13C578.53,617.25,572.68,609.94,569.54,609.88ZM589,617.76l-.71-1.38c-.34.2-1,.39-1,.59a1.73,1.73,0,0,0,.56,1.13C588.05,618.22,588.56,617.91,589,617.76Z"/><path class="cls-44" d="M565,662.94c-6.81-1.4-7.89-3-7.24-10a7.1,7.1,0,0,0-1-3.64c-.39-.76-1.35-1.23-2.06-1.83-.51.81-1.39,1.58-1.49,2.44-.3,2.61-.3,5.24-.42,7.87-2.66-.63-5.29-1.42-8-1.85-6.89-1.1-14.53-9.74-11.26-17.6,1.34-3.22,1-7.13,1.43-10.73.13-1.15-.12-2.44.32-3.43,1.47-3.3,6.81,1.41,7.79-3.88S548,617.49,551,618l3.3,6.75a39.38,39.38,0,0,0-1.28,6c-.19,3.05-1,4-3.87,2.11-1-.7-2.57-.69-3.87-1,.59,1.24.84,2.93,1.82,3.66,6.12,4.63,12.39,9,18.62,13.52q.12,3,.23,6l-2.5,1.21,2.48.78Z"/><path class="cls-40" d="M565,662.94l1-6c0-.66,0-1.33,0-2q-.11-3-.23-6c.1-.34.19-.68.29-1l1.85-.37L566,645.94v-3h2c1,1.66,2,3.33,3,5h0a13.71,13.71,0,0,0-1.1,2.18c3,2.2,6.18,4.27,9.31,6.36.31-.72,1.09-1.81.86-2.09-3.95-4.87-8-9.64-12.06-14.44h-2.06c0-.64-.07-1.28-.11-1.92q1.08-2,2.14-4c1.72,1.43,3.39,2.91,5.16,4.27,1.14.88,2.42,1.58,3.64,2.35.42-1.11.84-2.23,1.24-3.35.15-.44.27-.88.41-1.32.33.34.93.67,1,1,.18,5.14,4.54,6.83,7.61,9.72,1.9,1.78,2.94,4.48,4.37,6.77-2.68-.39-5.36-.85-8.05-1.11-.51-.05-1.61.76-1.57,1.07.88,7.25,4.43,10.06,11.84,9.58A37.21,37.21,0,0,1,598,663c.42,0,.82.39,1.23.6-.35.44-.61,1.06-1.06,1.28a10.36,10.36,0,0,1-2.82.92c-7.34,1.26-7.34,1.24-8.43,8.9l-20.76-1C565.79,670.11,565.39,666.52,565,662.94Z"/><path class="cls-41" d="M506,678c-3.24-2.53-6.15-5.16-4.09-9.93a3.62,3.62,0,0,0-.18-2.43c-4-10.8-.42-20.8,3.22-30.77.28-.74,1.27-1.22,1.93-1.82,0,7.38.92,14.59,5.94,20.34,2.61,3,6.18,5.08,9.17,7.74a23.74,23.74,0,0,1,2.92,3.83c-1.47,2.33-2.68,4.89-4.46,7C516.71,676.26,512.85,680.79,506,678Z"/><path class="cls-39" d="M575.89,583c-1.3-2.18-2.69-4.31-3.89-6.54-1.48-2.73-3.14-2.1-5-.48q-.36-10.05-.71-20.09c0-1.26,0-2.51,0-3.77l1.57-2.22c.65,3,1.25,6,2,9,.13.54.67,1,1,1.49a13.94,13.94,0,0,0,1-1.38c4.21-7.18,4.57-15.08,4.23-23.1,1.78,3.39,3.87,6.67,5.21,10.22.92,2.44,1.41,4.9-1.35,7.54-1.31,1.25-.78,7,.8,8.16,3.2,2.41,4.33,5.37,5.37,8.71.51,1.62.8,3.3,1.18,5a25,25,0,0,1-4.32-1.88c-2.68-1.82-3.87-1.41-4.48,1.93C578.1,578.07,576.81,580.49,575.89,583Z"/><path class="cls-44" d="M566.32,555.87q.34,10.05.71,20.09l-3.24,14.94c-4.09-4.61-5.77-9.67-3.38-15.75a14.09,14.09,0,0,0,.64-5.43c-.13-4.29-.55-8.57-.64-12.86,0-.5,1.29-1.39,2-1.46A17.2,17.2,0,0,1,566.32,555.87Z"/><path class="cls-27" d="M506,678c6.84,2.8,10.7-1.73,14.45-6.08,1.78-2.07,3-4.63,4.46-7l4.2,2c-2.54,11.93-12,18.62-23,16.28Z"/><path class="cls-37" d="M557.24,471.6c.6-2.88,1.21-5.76,1.81-8.64.44.2,1.17.32,1.28.64,3.08,9.26,7.77,18.14,6.7,28.38l-3.83-1.09q-1.56-5.49-3.13-11l-.39-1.63-1.94-5.61Z"/><path class="cls-26" d="M562.66,675.46c1.5,3.44,2.63,7.1,4.55,10.28,4.69,7.77,9.76,15.33,14.65,23a21.67,21.67,0,0,1,1.07,2.16l-9.86-8.53c-2.11-4.58-4.19-9.18-6.35-13.73-.83-1.74-2-3.33-2.71-5.09a29.52,29.52,0,0,1-1.16-4.44L559.49,682q-1.22-3.5-2.44-7Z"/><path class="cls-45" d="M563.2,490.89,567,492a36.32,36.32,0,0,1,.88,5.61c0,6.12-.16,12.23-.26,18.34l-.12,3.89a51.92,51.92,0,0,1-1.51-5.09c-1-5.33,1.29-11.41-3.52-15.92-.11-.95-.21-1.91-.31-2.87C562.52,494.26,562.86,492.57,563.2,490.89Z"/><path class="cls-39" d="M564,595c.64.6,1.81,1.18,1.84,1.8a137.63,137.63,0,0,1,.12,14.07c-.22,3.55.23,6.59,3.06,9-.2,1.68-1,3.53-.51,5,1.36,4.33-.79,4-3.6,3.11l-.14-3.11Q564.41,609.89,564,595Z"/><path class="cls-40" d="M562.5,498.81c4.81,4.51,2.48,10.59,3.52,15.92a48.47,48.47,0,0,0,1.52,5.08c-.22,2-.43,4-.65,6l-.08.1h-1.73Z"/><path class="cls-43" d="M564.8,624.8c0,1,.09,2.07.14,3.11s0,2.06,0,3.09l-10-6.2a1.89,1.89,0,0,0-.58-.08L551,618l5.84.08,0,0Z"/><path class="cls-35" d="M509.12,616q-1.5-9.54-3-19.09l2.86,0c.68,4.86,1.55,9.71,1.94,14.59C511,613,509.76,614.55,509.12,616Z"/><path class="cls-44" d="M553,598.56a8.47,8.47,0,0,1,0,2.47c-.51,1.56-1.26,3-1.91,4.54-1-1.71-2.55-3.34-2.81-5.15-.32-2.19.34-4.57.84-6.81.2-.89,1.12-1.62,1.71-2.42.71.8,1.85,1.5,2,2.41a24.81,24.81,0,0,1,.09,5Z"/><path class="cls-44" d="M556.86,618.05c.15-3.25.21-6.51.53-9.75a2.13,2.13,0,0,1,4-.94c2.08,4-.15,9.12-4.52,10.72Z"/><path class="cls-44" d="M567.9,549.88l-1.57,2.22c-4.78-2.16-1.6-6.28-2.09-9.44-.11-.68,2.39-1.77,3.69-2.66l.26-.16C568.09,543.18,568,546.53,567.9,549.88Z"/><path class="cls-40" d="M563.2,490.89c-.34,1.68-.68,3.37-1,5.05q-1.07-8-2.12-16Q561.63,485.41,563.2,490.89Z"/><path class="cls-40" d="M567.93,540l.48-10c.28-.36.55-.72.83-1.07l1.73,1c-.33,3.45,1.19,7.43-2.78,9.85Z"/><path class="cls-43" d="M569.24,529c-.28.35-.55.71-.83,1.07l-3.33-4.11h1.73l.57.46-.49-.56c.22-2,.43-4,.65-6,0-1.29.07-2.58.11-3.87l1.47-.16c.11,2.66.23,5.31.34,8C569.39,525.48,569.31,527.21,569.24,529Z"/><path class="cls-25" d="M509,597l-2.86,0c-.07-2.3-.13-4.61-.2-6.92C510.68,590.71,508.46,594.45,509,597Z"/><path class="cls-40" d="M557.74,472.69l1.94,5.61Z"/><path class="cls-22" d="M512,539l1-3Z"/><path class="cls-32" d="M549.55,170.1l2.29,1,.21,2.93c.86,3.25,1.86,6.45-1.36,9.18-.6.5-.43,1.86-.7,2.8-.82,2.79-1.62,5.58-2.55,8.33-1.11,3.29-2.64,6.11,1.13,9.31,1.8,1.52,1.8,5.39,2.19,8.25.21,1.56-.67,3.24-.7,4.86,0,1,.66,2,1,3.05a10.6,10.6,0,0,1,2.56-1.06,7.49,7.49,0,0,1,2.66.31c-.3,5.34,6.06,10.44.4,16.17-1.08,1.09-.15,4.31.21,6.49,0,.25,2.48.28,3.76.07a9.1,9.1,0,0,0,2.51-1.33c0,1.24,0,2.49-.07,3.73l-1,2.88q-1,3.28-2.12,6.59l-5.09,3.8c.18-1.8.45-3.6.52-5.4a28,28,0,0,0-.32-3.64c-1.09.12-2.4-.09-3.23.44-2.22,1.44-3,.8-2.92-1.59.08-3.4-1.34-3.35-4-2.17-4.87,2.14-9.8,4.71-15,5.45-2.57.38-6-2.52-8.27-4.76-.61-.62,1.64-4.27,2.78-6.42,1.33-2.52,2.88-4.92,4.34-7.37a4,4,0,0,0,.19-.85l2-2,2.78-1.28c1.1,1.48,2.14,3,3.34,4.42a20.28,20.28,0,0,0,2.6,2.18c1.64-3.24,5.5-8,4.52-9.44-3.71-5.38-2.2-10.93-2.2-16.33a49.78,49.78,0,0,1,2.15-15.64c1.08-3.17,4.74-5.39,2.82-9.61-.21-.46.92-1.89,1.72-2.41,3.13-2,2.22-3.19-.68-4.12l-.9-.21-1.74-3.63Z"/><path class="cls-36" d="M548.15,176.94c2.9.93,3.81,2.1.68,4.12-.8.52-1.93,1.95-1.72,2.41,1.92,4.22-1.74,6.44-2.82,9.61a49.78,49.78,0,0,0-2.15,15.64c0,5.4-1.51,10.95,2.2,16.33,1,1.43-2.88,6.2-4.52,9.44a20.28,20.28,0,0,1-2.6-2.18c-1.2-1.39-2.24-2.94-3.34-4.42a3.35,3.35,0,0,0-.11-1c4.87-10,7.08-20.39,4.1-31.4-.31-1.15-1.43-2.1-2.27-3.07a19.53,19.53,0,0,0-1.92-1.71,10.06,10.06,0,0,0,2.75-.65c2.1-1.23,4.39-2.4,5.9-4.18.41-.48-1.73-3-2.61-4.71-.48-.92-.78-1.93-1.17-2.9l4.42-.23c.25.84.51,1.68.76,2.52L545,179l2,0Z"/><path class="cls-36" d="M528.87,232c-1.46,2.45-3,4.85-4.34,7.37-1.14,2.15-3.39,5.8-2.78,6.42,2.23,2.24,5.7,5.14,8.27,4.76,5.15-.74,10.08-3.31,15-5.45,2.68-1.18,4.1-1.23,4,2.17-.06,2.39.7,3,2.92,1.59.83-.53,2.14-.32,3.23-.44a28,28,0,0,1,.32,3.64c-.07,1.8-.34,3.6-.52,5.4a20.12,20.12,0,0,1-3.35,2.1c-2.07.81-4,.47-3.31-2.3,1.3-5-1-4.28-4-2.89-.58.27-1.68.66-1.82.46-3.22-4.31-6.41-1.34-9.9-.37-4.55,1.26-14.87-3.24-15.45-6.89-.53-3.32.64-6.9,1.06-10.37Z"/><path class="cls-25" d="M568.49,270.25l.18,4.62c-2.72,1.39-5.19,1.66-7.76-.66-1.24-1.12-3.23-1.42-4.88-2.09l4-4.06,2.16,1.53.76-3.56,0-.06,1.33-.43-1.32-.48c-.29-1.81-1.4-4.73-.74-5.22,3.48-2.52,2.27-4.88.51-7.48.45-1,.9-2.05,1.35-3.09l2.75-1.07a36.65,36.65,0,0,0,1.6,4c1.75,3.28,3.61,6.49,5.43,9.73l-2.63,1.37C566.78,264.21,567.07,267,568.49,270.25Z"/><path class="cls-33" d="M521.9,219a31.72,31.72,0,0,0,3-1.68c.79-.57,1.64-2.08,2.06-1.94a8.11,8.11,0,0,1,3.51,2.35c.25.29-.7,2.18-1.51,2.69a53.53,53.53,0,0,1-5.62,2.65c-1.16.56-2.27,1.24-3.4,1.86H516c-3.33-.58-6.75-1.93-9.95-1.52-2.74.36-4.69.31-5.68-2.13a40.87,40.87,0,0,1-2.1-8.28c-.08-.48,1.77-1.84,1.94-1.72A19.9,19.9,0,0,1,503,214.1c-2.36,4.33.8,5.66,3.84,5.76C511.85,220,516.88,219.33,521.9,219Z"/><path class="cls-21" d="M518.5,191.19a18.49,18.49,0,0,0,.45,3.75c1.18,3.59.22,5.38-3.77,5-1.44-.82-3.12-2.58-4.29-2.29-3.57.88-4.29-1-4-3.56.46-3.68,1.41-7.3,2.15-10.94a4.38,4.38,0,0,0,.86-.3l3.14-1c4.09-.52,3.68,2.78,4.37,5.15C517.79,188.35,518.15,189.77,518.5,191.19Z"/><path class="cls-34" d="M516,224.94H520c3.83,6,9.08,2.14,13.8,2a3.24,3.24,0,0,1,.11,1l-2.78,1.28-2,2a4,4,0,0,1-.19.85l-10.73,5.2Q517.07,231.05,516,224.94Z"/><path class="cls-43" d="M556,272.12c1.65.67,3.64,1,4.88,2.09,2.57,2.32,5,2.05,7.76.66l.48,6.2-11.26,2a54.86,54.86,0,0,0-1.24-5.4,11.37,11.37,0,0,0-1.73-2.61Z"/><path class="cls-34" d="M521.9,219c-5,.33-10,1-15,.86-3-.1-6.2-1.43-3.84-5.76,5.22.65,10.46,1.14,15.63,2.06C519.86,216.38,520.82,218,521.9,219Z"/><path class="cls-34" d="M509.07,183.12c-.74,3.64-1.69,7.26-2.15,10.94-.32,2.6.4,4.44,4,3.56,1.17-.29,2.85,1.47,4.29,2.29-1.31.08-3.08-.36-3.86.33-5.95,5.19-6-.7-7.38-3.85C502.52,193.07,505.89,184.63,509.07,183.12Z"/><path class="cls-33" d="M508.38,172.68c-2.44,1-4,2.28-4.8,1.89a9.17,9.17,0,0,1-3.41-3.79c-.18-.33,2-2.61,2.33-2.46A50.55,50.55,0,0,1,508.38,172.68Z"/><path class="cls-19" d="M564.06,249.28l-1.35,3.08L560,253.63q1.07-3.3,2.12-6.59C562.79,247.78,563.42,248.53,564.06,249.28Z"/><path class="cls-34" d="M518.5,191.19c-.35-1.42-.71-2.84-1.06-4.27l4.2,1.88Z"/><path class="cls-23" d="M562.9,266l-.76,3.56L560,268.06Z"/><path class="cls-34" d="M513.07,181.77l-3.14,1c.51-.78,1-1.56,1.52-2.33Z"/><path class="cls-32" d="M545,179l-1.29,1.54c-.25-.84-.51-1.68-.76-2.52Z"/><path class="cls-34" d="M548.15,176.94,547,179.06l.27-2.33Z"/><path class="cls-23" d="M562.94,265.06l1.32.48-1.33.43A5.52,5.52,0,0,1,562.94,265.06Z"/><path class="cls-43" d="M555,275l-.49,1.28c-.19-.42-.37-.84-.55-1.26Z"/><path class="cls-40" d="M557.89,283.05l11.26-2c-.07,3.9-.12,7.81-.25,11.71,0,.31-.52.62-.8.93l-.88-1.15c-1.08,2.21-2.88,4.35-3.1,6.65a125.92,125.92,0,0,0-.11,15.3q.35,12.17,1,24.33c.15,2.84,1.5,5.79,1,8.45-.84,4.49-2.68,8.79-4.23,13.12-.13.38-1.17.44-1.79.65-.34-1.37-.67-2.74-1-4.11.31-22.7.94-45.41-1.21-68.07Z"/><path class="cls-43" d="M557.8,288.88C560,311.54,559.32,334.25,559,357c-1.57.83-3.18,1.59-4.68,2.52a9.68,9.68,0,0,0-1.73,1.82,14.58,14.58,0,0,1-.54-2.31,20.34,20.34,0,0,1,0-3.49c.12-1.25.41-2.49.63-3.74.46.86.89,1.73,1.37,2.57a3.37,3.37,0,0,0,.63.62,6.49,6.49,0,0,0,.31-1.34q0-10.47,0-21c0-5.77-.12-11.53,0-17.29q.32-11.43,1-22.83C556.18,291.27,557.21,290.09,557.8,288.88Z"/><path class="cls-22" d="M511,352q1-3.5,2.06-7c.67,1.29,1.33,2.58,2,3.86.28.51.62,1,.93,1.48.32-.48.9-.95.93-1.45.12-2.15,0-4.32.15-6.46,0-.67.68-1.31,1-2,.58.5,1.66,1,1.68,1.5.11,4.37.59,8.83-.1,13.09-1.13,6.9-2.95,13.71-4.75,20.49-.58,2.2-2,4.18-3.06,6.27-.57-1.9-1.56-3.79-1.59-5.7a41.19,41.19,0,0,1,1.08-7.75c.81-4.36,1.92-8.68,2.41-13.07C513.88,354.34,512,353.13,511,352Z"/><path class="cls-39" d="M563.82,384h-1.75a4.7,4.7,0,0,1-.15-.9l.08-2a15.7,15.7,0,0,0,.32-1.57c-4.1-1.23-8.23-2.39-12.35-3.55.36-1,.73-2,1.09-2.95l2.76-3.2c.12-.6.23-1.19.35-1.79l1-1.82,1.69-.39,1.18.19q1.17,2.74,2.33,5.49c1.23-1.46,2.24-3.23,3.74-4.31s3.39-1.33,5.11-2c.4,1.55,1.52,3.36,1.06,4.58-1.07,2.8-3,5.27-4.39,8-.38.73.07,1.86-.22,2.68A27.72,27.72,0,0,1,563.82,384Z"/><path class="cls-43" d="M561.92,383.1a4.7,4.7,0,0,0,.15.9c0,.65-.07,1.31-.11,2-1.16-.67-2.89-1.06-3.38-2.06-1.87-3.78-5.12-4.63-8.8-4.91.06-1,.13-2,.19-3,4.12,1.16,8.25,2.32,12.35,3.55a15.7,15.7,0,0,1-.32,1.57l-1.61.63Z"/><path class="cls-43" d="M553.82,369.87l-2.76,3.2Z"/><path class="cls-43" d="M558,366.06l-1.18-.19,2.3-3.78C558.76,363.42,558.38,364.74,558,366.06Z"/><path class="cls-43" d="M555.14,366.26l-1,1.82Z"/><path class="cls-27" d="M530.88,124.76l-2.76.41c-4.56-2.08-5.21-4.26-2-7,.54-.47,1.91-.94,2-.78,2.77,3.86,6.16.23,9.16.81-.09,1-.17,1.92-.26,2.88Z"/><path class="cls-45" d="M564.9,631c0-1,0-2.07,0-3.1,2.81.85,5,1.22,3.6-3.11-.46-1.46.31-3.31.51-5,5.47,6.65,11.24,12.8,19.54,16.2,6.18,2.53,12,6,18,8.84,1.08.51,2.61.06,3.93.06-.7-1.18-1.12-2.85-2.16-3.47-6.68-4-13.6-7.52-20.2-11.59a24,24,0,0,1-6.74-6.43c-1.41-2-.74-3.94,2.44-3.38l2.17,1.79.83.21c2.85,1.73,6.2,3,8.45,5.27,7.13,7.33,18.24,5.42,25.79,11.6a6.13,6.13,0,0,0,4.09,1.52c2.45-.36,4.79-1.45,7.18-2.24-1.32-1.31-2.46-2.89-4-3.86-1.32-.82-3.12-.84-4.65-1.41s-2.64-1.37-4-1.91c-5-2-7.91-7.53-13.74-8.08l-3-2c.86-.8,0-3.87-1.34-4.83-.53-.39-1-.91-1.45-1.35-3.64-3.25-7.32-6.43-10.87-9.76a10.64,10.64,0,0,1-2.31-3.54c-.19-.47.55-1.34.86-2a17.84,17.84,0,0,0,3.29,2.4,17.38,17.38,0,0,0,3.95.76c-.44-1.07-.61-2.41-1.36-3.16-2.32-2.32-5.78-4-7.12-6.71-2.36-4.81-6.36-6.8-10.72-8.72l-.06-1c.92-2.49,2.21-4.91,2.68-7.48.61-3.34,1.8-3.75,4.48-1.93a25,25,0,0,0,4.32,1.88c-.38-1.66-.67-3.34-1.18-5-1-3.34-2.17-6.3-5.37-8.71-1.58-1.19-2.11-6.91-.8-8.16,2.76-2.64,2.27-5.1,1.35-7.54-1.34-3.55-3.43-6.83-5.21-10.22l-1.3-3.79c2.07-4.07,4.07-3.61,6.06.08a7.4,7.4,0,0,0,1.16,1.29c.23-.53.69-1.08.64-1.59-.52-5.81-.69-11.7-1.81-17.4-1.66-8.51-3.79-16.94-6.2-25.26-.6-2.08-3-3.63-4.58-5.42-.36-2.9-.73-5.79-1.09-8.68l0,0,5.72,8.06,2.49,5.3c-.12-1.81-.23-3.63-.35-5.44-1.3-6.08-2.41-12.2-4-18.19-.42-1.57-2.31-2.74-3.52-4.09l-.65-13.62c.36-1.66.73-3.32,1.09-5l3,7,7.71,15.34c.71,1.43,1.41,2.87,2.11,4.3.1-1.29.2-2.58.32-3.86a3.26,3.26,0,0,1,.27-.89c4.63,1.13,1.88-2.63,2.68-4h0c1,.43,2.24.6,2.84,1.34,4.68,5.69,9.37,11.39,13.74,17.32,2.26,3.06,3.83,6.63,5.78,9.94,2.2,3.71,1.83,9.31,8.42,10.71.42.12,0-.08-.33-.29-.1.29-.36.72-.26.84a3.89,3.89,0,0,0,1,.65c.11-.25.22-.51-.42-1.2-.57-6-5.81-10.54-4.15-16.58.16-.58-1-1.59-1.69-2.32-2.34-2.58-4.91-5-7-7.71-5.43-6.95-10.64-14.06-16.05-21-.48-.62-1.83-.56-2.77-.81L583.9,446c-1.87-4.31-2.14-10-8.85-10.08a4.49,4.49,0,0,0-.18-.9c.62-2,1.25-4.08,1.87-6.12,1.46,1.37,3.2,2.54,4.3,4.16,2.68,3.92,4.91,8.16,7.62,12.07,3.69,5.33,7.63,10.49,11.51,15.69a5.28,5.28,0,0,0,1.53.94c.2-.65.78-1.5.56-1.92A126.71,126.71,0,0,0,596,448.63c-3.1-4.72-6.57-9.2-9.89-13.78,2.94,2.22,5.82,4.5,8.84,6.6a13.06,13.06,0,0,0,3.39,1.18c0-1.22.46-2.58.06-3.63-.9-2.42-2.2-4.68-3.33-7l-1-5.92c3.75,6.92,7.43,13.88,11.29,20.73a45.58,45.58,0,0,0,4.81,6.82c.58.7,2,.75,3,1.1a12.68,12.68,0,0,0-.41-3.11c-1-2.58-2.21-5.07-3.25-7.63-3.93-9.65-6.52-20.21-17.25-25.19L587.39,413c.07-.12.22-.29.18-.35a4.43,4.43,0,0,0-.49-.58c.63-.72,1.27-1.43,1.91-2.15,2.36,1.95,4.7,3.93,7.12,5.8a1.72,1.72,0,0,0,1.55-.28c1.44-4.44,2.92-1.45,4.11.05,1.52,1.91,2.78,4,4.19,6.05a4.9,4.9,0,0,0,1.07.8c.23-.38.69-.77.67-1.13-.07-1.62.12-3.41-.52-4.8a72.55,72.55,0,0,0-4.33-7.35c4.83,2,9.42.68,13.92-1.15.75-.3,1.2-1.32,1.8-2-.71-.59-1.33-1.47-2.13-1.71-2.84-.84-5.78-1.33-8.6-2.23-.93-.29-1.61-1.4-2.4-2.14.72-.62,1.42-1.26,2.16-1.86s1.27-.94,1.91-1.4a15.26,15.26,0,0,0-2-1.75c-1.8-1.12-3.67-2.13-5.51-3.18l4.28-1.22c-.38-.77-1.25-2.07-1.06-2.24a41.18,41.18,0,0,1,4.17-3.21c-1.53-.3-3.05-.63-4.58-.89a16.48,16.48,0,0,0-2-.11L609,366c3.22,1.55,5,.25,5.74-3s1.59-6.42,2-9.68c.48-3.5-.27-6.42-4.79-6.26,0-1.36,0-2.72,0-4.07h5a20.2,20.2,0,0,0,1,2.27,6.5,6.5,0,0,0,1.21,1.19,6.36,6.36,0,0,0,.53-1.69c.12-7.4.18-14.81.27-22.22a10.58,10.58,0,0,1,.24-1.46c.35.49.91.95,1,1.48a31.46,31.46,0,0,1,.7,6.37c-.51,9.52,1.93,19.35-2.81,28.47a4.25,4.25,0,0,0-.1,2.46,15.93,15.93,0,0,0,.88,2.6c.55-.54,1.08-1.1,1.67-1.6s1.17-.84,1.77-1.26a6.6,6.6,0,0,1-.08,1.84c-.86,2.58-1.27,5.53-2.84,7.59-3.55,4.64.58,9.5-1,14.06,4.94,1.45,3.55,6,4.79,9.36.37,1,1.87,1.63,3,2.27,4.29,2.52,4.74,5.14.37,7.64-2.86,1.63-2.28,2.94-1.57,5.08,1,3.13,2.36,6.26,2.71,9.48.29,2.63-.69,5.39-1.1,8.09-.59,3.95-1.38,7.89-1.71,11.87-.47,5.77-.72,11.56-.85,17.34-.13,6.4,0,12.81-.05,19.22a24.73,24.73,0,0,1-.59,3.78,14.25,14.25,0,0,0-1.79-2.33,1.89,1.89,0,0,0-1.6-.07,4.69,4.69,0,0,0-.59,2.69c.71,2.71,1.89,5.31,2.46,8,.34,1.63.64,4.35-2.69,2.26-.18-.11-1.56,1-1.49,1.32,1.61,6.86,3.4,13.68,5,20.54.23,1,0,3-.47,3.16-4,1.39-2.92,3.94-1.25,6,1.36,1.7,3.5,2.77,5.31,4.11.12.08.36,0,.48.08,3.14,2.11,6.6,4.75,3.69-2.41-.12-.3.22-1.11.46-1.16a1.42,1.42,0,0,1,1.27.42c.78,1.78,2.4,4,1.9,5.35-1,2.87-.49,7.43-5.74,7.34-4.42-.08-8.85.25-13.28.33-1.86,0-3.35.19-1.28,2.27,1.7,1.7,3.5,3.29,5.31,4.87a23.38,23.38,0,0,0,2.39,1.63,11.1,11.1,0,0,1-2.27,2.36c-.95.55-2.2.54-3.27.91s-2.29,1-3.43,1.45a24.19,24.19,0,0,0,3,1.56c3,1.1,3.53,3.62,1.72,5.43-3.16,3.15-2.22,5.47,0,8.5,1.37,1.91,1.73,4.5,2.89,6.61,2,3.6,4.16,7.09,6.35,10.56.68,1.1,2.14,1.89,2.42,3,1.24,5.08,4.42,7.15,9.07,9.65,3.44,1.85,4.07,9,5.89,13.77,0,.12-.63.52-1,.79a8.39,8.39,0,0,1-.75-1.15c-.71-1.64-1-4.26-2.13-4.76-3.09-1.31-6.56-1.7-9.89-2.43a2.67,2.67,0,0,0-1,.18,7.43,7.43,0,0,1,.82.87c3.37,4.77,6.71,9.57,10.1,14.33,1.71,2.41,3.62,4.68,5.18,7.18.87,1.4,1.9,3.29,1.61,4.7-.88,4.26-1.11,4.21,4.17,4.81l0,1.82c-4.25,1.94.53,5-.85,7.23,0,.57-.1,1.14-.14,1.72-.63,1-1.26,2.11-1.88,3.17v0c0,.32,0,.64,0,1,.25,6.13-1.34,11.41-6.88,14.86l-2,1.3-9.85,5.26-39.38,8.08-4,.28c1.09-7.66,1.09-7.64,8.43-8.9a10.36,10.36,0,0,0,2.82-.92c.45-.22.71-.84,1.06-1.28-.41-.21-.81-.58-1.23-.6a37.21,37.21,0,0,0-4.48-.07c-7.41.48-11-2.33-11.84-9.58,0-.31,1.06-1.12,1.57-1.07,2.69.26,5.37.72,8.05,1.11-1.43-2.29-2.47-5-4.37-6.77-3.07-2.89-7.43-4.58-7.61-9.72,0-.35-.62-.68-1-1-.14.44-.26.88-.41,1.32-.4,1.12-.82,2.24-1.24,3.35-1.22-.77-2.5-1.47-3.64-2.35-1.77-1.36-3.44-2.84-5.16-4.27l-2.32-1.82ZM609,507.18c-.33-1.18-.39-1.51-.5-1.81L601,485.72c-.22-.59-.42-1.2-.63-1.79-.17.61-.38,1.22-.52,1.84-1.31,5.94.68,11.22,3.23,16.42.52,1.07.28,2.48.65,3.66.24.77.91,1.94,1.47,2A14.45,14.45,0,0,0,609,507.18Zm-9.76,40.14c-.6-1.47-.72-2.79-1.39-3.21-3.71-2.35-7.54-4.5-11.38-6.61-.15-.08-1.26.89-1.27,1.39-.06,4.54,7.13,10.81,11.48,10A9,9,0,0,0,599.24,547.32Zm3.47-23.41,5-2.19c-.93-1-1.82-1.94-2.78-2.85a18.24,18.24,0,0,0-3.24-2.75,14.25,14.25,0,0,0-3.52-.94c-.15,1.13-.84,2.63-.36,3.32A51.13,51.13,0,0,0,602.71,523.91Zm-4.26,12.7c.74-1.22,1.21-1.76,1.12-1.87-.67-.84-1.44-1.6-2.18-2.38-.34.39-1,1-.95,1.14A31.83,31.83,0,0,0,598.45,536.61ZM592,526a8.81,8.81,0,0,0-.82,2.41c0,.41.93,1.27,1,1.21A16.75,16.75,0,0,0,594.4,528Zm31.17-129.3c.12-.29.39-.62.31-.83s-.51-.26-.79-.38c-.12.28-.4.62-.32.83S622.91,396.54,623.19,396.66Zm-4.31-31.11-.39-.78c-.15.24-.41.47-.42.72s.22.51.34.77Zm3.78,34.06a1.13,1.13,0,0,0,.42.13s.09-.22.13-.34a1.13,1.13,0,0,0-.42-.13S622.7,399.49,622.66,399.61Z"/><path class="cls-25" d="M631.77,695.9c-.13.7-.27,1.4-.4,2.1l-2-1Z"/><path class="cls-19" d="M563.12,244.16l.06-3.73a9.1,9.1,0,0,1-2.51,1.33c-1.28.21-3.72.18-3.76-.07-.36-2.18-1.29-5.4-.21-6.49,5.66-5.73-.7-10.83-.4-16.17a7.49,7.49,0,0,0-2.66-.31,10.6,10.6,0,0,0-2.56,1.06c-.36-1-1-2-1-3.05,0-1.62.91-3.3.7-4.86-.39-2.86-.39-6.73-2.19-8.25-3.77-3.2-2.24-6-1.13-9.31.93-2.75,1.73-5.54,2.55-8.33.27-.94.1-2.3.7-2.8,3.22-2.73,2.22-5.93,1.36-9.18,3.09,2.68,4.36,5.52,2.29,9.69-1.35,2.71-1.72,6-2.15,9-.09.66,1.42,2.08,2.34,2.24,4.47.76,8.17-2,8.38-6.53.24-5.5,4.76-5,8-6.38.34.69.67,1.39,1,2.09l1.76,4.22,1.28,1.17,2-.52,2.83-.28,5.05.52c-.65,1.77-1.27,3.55-2,5.29s-1.1,3.56-3.61,2.93q-1.17,6.32-2.36,12.61c-.3,1.33-.61,2.66-.91,4h0c-1.7.7-3.35-4.74-5.19,0-1,2.62-.8,4.09,2.33,4.16-.62,3.49-1.25,7-1.85,10.47a6.61,6.61,0,0,0,0,1.4,8,8,0,0,0,1.62-.58c4.32-2.73,4.37-7,4-11.4l5-.09c-.16,1.64-.31,3.29-.46,4.93-.2.68-.4,1.37-.61,2.05q-.81,6.54-1.64,13.06.06,2.94.13,5.87l-4.35,2.87c.32-1.66.67-3.32,1-5,.14-.74.22-1.5.32-2.25l-3.26.54c-1.58-2.86-.36-4.91,1.87-6.75.36-.3.29-1.11.42-1.69-.57.08-1.4,0-1.68.28-2.65,3.22-5.18,6.54-7.83,9.76A22.68,22.68,0,0,1,563.12,244.16Zm1.41-13.2,1.93,2.9c.7-.56,1.94-1,2-1.67.36-3.05.42-6.13.58-9.2,0-.46,0-.92,0-1.37-.38.23-.95.37-1.09.7C566.81,225.05,565.76,227.81,564.53,231Z"/><path class="cls-33" d="M579.4,244q-.07-2.93-.13-5.87c1.93-1.51,3.81-3.09,5.81-4.51a5.58,5.58,0,0,1,2.73-1c1.28-.08,2.61.51,3.87.35,6.47-.82,6.48-.8,5.09,5.4-1.46,6.48-2.74,13-4.09,19.5l-1.72-1-3-1.72Z"/><path class="cls-36" d="M576.87,210.08q1.18-6.3,2.36-12.61c2.51.63,3-1.32,3.61-2.93s1.33-3.52,2-5.29l-5.05-.52c.05-.53.1-1.06.16-1.59,3.34-1.16,6.75-2.18,10-3.51,3.06-1.25,6.84,1.29,7,5.51.14,3.25-.66,6.53-1,9.8l-1.85.68c-1,.8-2.45,1.39-2.89,2.42-1.48,3.49-3,6.31-7.58,4.2-.64-.29-1.94.65-2.84,1.19C579.43,208.24,578.17,209.19,576.87,210.08Z"/><path class="cls-32" d="M576.87,210.08c1.3-.89,2.56-1.84,3.91-2.65.9-.54,2.2-1.48,2.84-1.19,4.61,2.11,6.1-.71,7.58-4.2.44-1,1.9-1.62,2.89-2.42.25,6.49-2.68,11-8.26,14.23-1.57.9-2.59,2.77-3.85,4.2l-5,.08-3.85.12c-3.13-.07-3.34-1.54-2.33-4.16,1.84-4.78,3.49.66,5.19,0l1.27.37-1.28-.36C576.26,212.74,576.57,211.41,576.87,210.08Z"/><path class="cls-32" d="M580.91,225c.21-.68.41-1.37.61-2.05C581.32,223.66,581.12,224.35,580.91,225Z"/><path class="cls-31" d="M644.08,394.56a10.12,10.12,0,0,1,.79,1.14c1.92,4.05,3.87,8.09,5.69,12.19.28.63,0,1.54-.08,2.33-.83-.23-2.21-.23-2.4-.71-1.77-4.46-3.35-9-4.91-13.54C643.08,395.7,643.64,395.21,644.08,394.56Z"/><path class="cls-30" d="M579.93,187.14c-.06.53-.11,1.06-.16,1.59l-2.83.28L575,188l-.95-1.05-1-2.77c.19-1.87.35-3.74.59-5.61.15-1.1.41-2.19.62-3.29,1.17.62,3,1,3.38,1.91.85,2.25,1,4.78,1.44,7.18C579.29,185.29,579.65,186.21,579.93,187.14Z"/><path class="cls-36" d="M573.07,184.15l1,2.77c-.15.48-.29,1-.44,1.44l-1.76-4.22Z"/><path class="cls-37" d="M651,639.12c1.38-2.28-3.4-5.29.85-7.23.07.68.14,1.37.2,2.06,0,1.32,0,2.63,0,3.95Z"/><path class="cls-37" d="M649,644c.62-1.06,1.25-2.12,1.88-3.17,0,.7,0,1.4,0,2.1Z"/><path class="cls-19" d="M652,637.9c0-1.32,0-2.63,0-3.95C652.05,635.27,652,636.58,652,637.9Z"/><path class="cls-28" d="M576.61,725.17c-.17-1.14.07-2.72-.59-3.36-3.26-3.13-6.06-12.47-4.47-15.87l.93.64c7.21,8.08,14.93,15.49,25.41,19.23,1.54.55,3.3.56,4.73,1.28,1,.5,1.55,1.8,2.31,2.74-8.8,2.4-17.28,1.25-25.52-2.38l-2.5-1.41A.9.9,0,0,1,576.61,725.17Z"/><path class="cls-29" d="M572.48,706.58l-.93-.64c-3.63-6.57-7.3-13.12-10.85-19.74a20.37,20.37,0,0,1-1.21-4.18l3.36-2.93a29.52,29.52,0,0,0,1.16,4.44c.74,1.76,1.88,3.35,2.71,5.09,2.16,4.55,4.24,9.15,6.35,13.73C572.88,703.76,572.68,705.17,572.48,706.58Z"/><path class="cls-26" d="M584,712l2,1.8Z"/><path class="cls-37" d="M649.05,645c0-.33,0-.65,0-1A3.15,3.15,0,0,1,649.05,645Z"/><path class="cls-26" d="M530.88,124.76l6.14-3.7c.42,1.54.85,3.08,1.28,4.62Z"/><path class="cls-27" d="M506.84,689.07c2,6.87,7.77,8.53,13.71,9.74,4.84,1,9.78,1.55,14.65,2.42,8.66,1.56,16.12,5.63,22.84,11.2-.07,2.22-.14,4.43-.22,6.65a32.35,32.35,0,0,1-4-2.71c-7.82-7.2-17.82-8.83-27.59-11.28-6.49-1.63-12.76-4.11-19.13-6.22a37.43,37.43,0,0,1-1.48-6.06C505.49,691.6,506.39,690.32,506.84,689.07Z"/><path class="cls-33" d="M460,716.75c2,3,3.69,4.44,3.91,6.12a125.47,125.47,0,0,1,.76,13.72c0,.65-.73,1.87-1.13,1.87-1,0-2.57-.22-2.94-.9-2.71-4.91-5.75-9.84-4.42-15.82C456.42,720.44,457.87,719.4,460,716.75Z"/><path class="cls-33" d="M481.58,698.15l-4-2.27c.93-1.27,1.87-3.63,2.78-3.62,5.12.08,10.24.7,15.35,1.25.36,0,1,1.39.85,1.51-.75.72-1.64,1.76-2.52,1.8-4.08.19-8.16.08-12.24.08Z"/><path class="cls-32" d="M517.3,759.94c-1.12-.85-2.68-1.46-3.28-2.59-3.15-5.94-6-12-9.07-18A8.23,8.23,0,0,0,503,737c-1.53-1.34-3.16-2.57-4.75-3.84a71.59,71.59,0,0,1,7.64-1.27c1.35-.08,2.75.66,4.12,1Z"/><path class="cls-29" d="M565.22,717.6l8,6.12c-2.32-.32-4.91-1-4.14,3l-6.22-3.79C563.65,721.14,564.44,719.37,565.22,717.6Z"/><path class="cls-26" d="M565.22,717.6c-.78,1.77-1.57,3.54-2.35,5.3l-5-3.82c.08-2.22.15-4.43.22-6.65Z"/><path class="cls-18" d="M580,734l6.87,1.23-3.7,1.86-3.18-.18C580,735.89,580,734.92,580,734Z"/><path class="cls-21" d="M506.52,704.17l-5.51.41,6-2.72C506.86,702.63,506.69,703.4,506.52,704.17Z"/><path class="cls-27" d="M508.4,715l-.18-3.15C510.5,712.8,510.54,713.85,508.4,715Z"/><path class="cls-18" d="M495.51,708l-.55,1-2.8,2.37c.26-1.17.52-2.34.77-3.51Z"/><path class="cls-18" d="M496.06,713.83l2.41.93Z"/><path class="cls-18" d="M496.16,712.44l-.06,1.46Z"/><path class="cls-18" d="M499.24,705l-1.88,1.17.78-1.41Z"/><path class="cls-29" d="M576.91,726l2.5,1.41Z"/><path class="cls-39" d="M602.87,383.91a16.48,16.48,0,0,1,2,.11c1.53.26,3,.59,4.58.89a41.18,41.18,0,0,0-4.17,3.21c-.19.17.68,1.47,1.06,2.24l-4.28,1.22c1.84,1.05,3.71,2.06,5.51,3.18a15.26,15.26,0,0,1,2,1.75c-.64.46-1.3.91-1.91,1.4s-1.44,1.24-2.16,1.86c.79.74,1.47,1.85,2.4,2.14,2.82.9,5.76,1.39,8.6,2.23.8.24,1.42,1.12,2.13,1.71-.6.69-1.05,1.71-1.8,2-4.5,1.83-9.09,3.17-13.92,1.15l-7-7.09Q599.37,392.92,602.87,383.91Z"/><path class="cls-38" d="M616.92,343h-5c-.54-5.09-1.1-10.17-1.59-15.27a8.3,8.3,0,0,1,.37-2.16,18.63,18.63,0,0,1,1.38,1.7c1.07,1.68,2.08,3.41,3.12,5.11-.26-2.14-.45-4.29-.8-6.42-1.4-8.62-2.86-17.23-4.24-25.86-.08-.47.46-1,.71-1.54.46.4,1.19.73,1.34,1.22,1.61,5.54,4,11,4.49,16.69C617.49,325.28,616.93,334.17,616.92,343Z"/><path class="cls-43" d="M595.84,401.92l7,7.09a72.55,72.55,0,0,1,4.33,7.35c.64,1.39.45,3.18.52,4.8,0,.36-.44.75-.67,1.13a4.9,4.9,0,0,1-1.07-.8c-1.41-2-2.67-4.14-4.19-6.05-1.19-1.5-2.67-4.49-4.11-.05a1.72,1.72,0,0,1-1.55.28c-2.42-1.87-4.76-3.85-7.12-5.8-.09-1.24-.19-2.48-.29-3.72l3.58-1.7Z"/><path class="cls-40" d="M612,347.1c4.52-.16,5.27,2.76,4.79,6.26-.45,3.26-1.31,6.46-2,9.68s-2.52,4.52-5.74,3Q610.52,356.54,612,347.1Z"/><path class="cls-45" d="M624.55,357.3c-.13,0-.35-.08-.35-.13a1.24,1.24,0,0,1,.13-.43c.12.05.35.09.35.14A1.36,1.36,0,0,1,624.55,357.3Z"/><path class="cls-21" d="M579.4,244,588,255.07c0,.3,0,.6,0,.9-5.91-1.39-8.35-.25-11.19,4.83-.38.69-1.9.74-2.89,1.08-1.82-3.24-3.68-6.45-5.43-9.73a36.65,36.65,0,0,1-1.6-4l6.27-8.06,3.26-.54c-.1.75-.18,1.51-.32,2.25-.3,1.66-.65,3.32-1,5Z"/><path class="cls-39" d="M586.75,266.12a57.75,57.75,0,0,1-5.41,4.76c-1,.69-2.5.63-3.78.87s-2.72.43-4.08.64c.71-1.38,1.12-3.1,2.21-4.07a41.63,41.63,0,0,1,7.2-5.09c.75-.43,2.18.36,3.29.58Z"/><path class="cls-43" d="M568.49,270.25c-1.42-3.24-1.71-6,2.72-7Q569.86,266.75,568.49,270.25Z"/><path class="cls-28" d="M587.92,256c0-.3,0-.6,0-.9l3,1.72Z"/><path class="cls-37" d="M586.09,434.85c3.32,4.58,6.79,9.06,9.89,13.78a126.71,126.71,0,0,1,6.28,11.22c.22.42-.36,1.27-.56,1.92a5.28,5.28,0,0,1-1.53-.94c-3.88-5.2-7.82-10.36-11.51-15.69-2.71-3.91-4.94-8.15-7.62-12.07-1.1-1.62-2.84-2.79-4.3-4.16,1.41-2.12.51-6.32,5-5.64Q584,429.06,586.09,434.85Z"/><path class="cls-40" d="M569,475.09c.36,2.89.73,5.78,1.09,8.68l-.15,4.29a19,19,0,0,0-.93,4.12c0,7.87,0,15.74.07,23.6l-1.47.16c.1-6.12.28-12.23.26-18.35A36.32,36.32,0,0,0,567,492c1.07-10.24-3.62-19.12-6.7-28.38-.11-.32-.84-.44-1.28-.64L565,452c.32,6.78.52,13.57,1.1,20.33C566.14,473.31,568,474.17,569,475.09Z"/><path class="cls-40" d="M586.09,434.85q-2.15-5.79-4.3-11.58l1-6.21c-.55,3.61.85,6.21,3.83,8.29s5.61,4.41,8.41,6.64c1.13,2.33,2.43,4.59,3.33,7,.4,1.05,0,2.41-.06,3.63a13.06,13.06,0,0,1-3.39-1.18C591.91,439.35,589,437.07,586.09,434.85Z"/><path class="cls-43" d="M595.05,432c-2.8-2.23-5.49-4.6-8.41-6.64s-4.38-4.68-3.83-8.29l2.24-3.24,2.34-.87,4.84,5.84c.61,2.43,1.23,4.85,1.85,7.28C594.4,428,594.72,430,595.05,432Z"/><path class="cls-43" d="M569,475.09c-1-.92-2.9-1.78-3-2.78-.58-6.76-.78-13.55-1.1-20.33,1.27-1.63,2.53-3.27,3.79-4.9q.33,6.81.65,13.62-.18,7.19-.34,14.36Z"/><path class="cls-43" d="M572.88,449.12l-3-7c.81-3,.58-6.69,5-7.07a4.49,4.49,0,0,1,.18.9c0,3.12.17,6.27-.15,9.36C574.76,446.62,573.59,447.84,572.88,449.12Z"/><path class="cls-40" d="M587.39,413l-2.34.87,2-1.8a3.85,3.85,0,0,1,.5.58C587.61,412.66,587.46,412.83,587.39,413Z"/><path class="cls-39" d="M576,584c4.36,1.92,8.36,3.91,10.72,8.72,1.34,2.74,4.8,4.39,7.12,6.71.75.75.92,2.09,1.36,3.16a17.38,17.38,0,0,1-3.95-.76,17.84,17.84,0,0,1-3.29-2.4c-.31.69-1,1.56-.86,2a10.64,10.64,0,0,0,2.31,3.54c3.55,3.33,7.23,6.51,10.87,9.76.49.44.92,1,1.45,1.35,1.32,1,2.2,4,1.34,4.83a28.92,28.92,0,0,0-5.18-2.55c-1.16-.31-2.6.37-3.91.6-2.74-3.87-5.68-7.62-8.18-11.64-2.23-3.59-4-7.47-6-11.19-.17-.31-.73-.41-1.11-.6a15.63,15.63,0,0,1,0,1.81c-.12,1-.33,2-.5,3.06-.46-.94-1.24-1.84-1.32-2.81C576.41,593.07,576.21,588.52,576,584Z"/><path class="cls-39" d="M606,622.93c5.83.55,8.72,6.12,13.74,8.08,1.38.54,2.64,1.4,4,1.91s3.33.59,4.65,1.41c1.54,1,2.68,2.55,4,3.86-2.39.79-4.73,1.88-7.18,2.24a6.13,6.13,0,0,1-4.09-1.52c-7.55-6.18-18.66-4.27-25.79-11.6-2.25-2.31-5.6-3.54-8.45-5.27,2.32-.84,6.12,3.37,7.1-2.07a47.26,47.26,0,0,1,5.34,3.26C601.76,625.16,603.9,625.73,606,622.93Z"/><path class="cls-40" d="M606,622.93c-2.1,2.8-4.24,2.23-6.66.3A47.26,47.26,0,0,0,594,620c0-.33-.06-.67-.07-1,1.31-.23,2.75-.91,3.91-.6a28.92,28.92,0,0,1,5.18,2.55Z"/><path class="cls-45" d="M569.54,609.88c3.14.06,9,7.37,8.16,9.78a1.85,1.85,0,0,1-1.61.13c-2.39-2.42-4.7-4.92-7-7.45a2.32,2.32,0,0,1-.69-1.66C568.51,610.27,569.34,610,569.54,609.88Z"/><path class="cls-40" d="M582,613a1.34,1.34,0,0,1,.49,0c1.11.44,2.22.9,3.32,1.35l-1.06,1.43L582,613Z"/><path class="cls-40" d="M577,607.94l-3.58-2.75.86-.84c.9,1.21,1.8,2.41,2.69,3.62Z"/><path class="cls-40" d="M579,610l3,3h0l-3-3Z"/><path class="cls-40" d="M589,617.76c-.47.15-1,.46-1.11.34a1.73,1.73,0,0,1-.56-1.13c0-.2.62-.39,1-.59Z"/><path class="cls-40" d="M579,609.94l-2-2,0,0,2,2Z"/><path class="cls-39" d="M586.07,621.83,583.9,620Z"/><path class="cls-23" d="M554.32,624.72a1.89,1.89,0,0,1,.58.08c.94,3.46,2.29,6.86,2.71,10.37.73,6.18,2.26,7.51,8,5.75.13.68.25,1.35.37,2v3l.06,2c-.1.34-.19.68-.29,1-6.23-4.48-12.5-8.89-18.62-13.52-1-.73-1.23-2.42-1.82-3.66,1.3.31,2.82.3,3.87,1,2.88,1.91,3.68.94,3.87-2.11A39.38,39.38,0,0,1,554.32,624.72Z"/><path class="cls-23" d="M566,655c0,.66,0,1.33,0,2l-2.48-.78Z"/><path class="cls-44" d="M565.6,640.92c-5.73,1.76-7.26.43-8-5.75-.42-3.51-1.77-6.91-2.71-10.37l10,6.2.74,1.15.18,5.87c0,.64.08,1.28.11,1.92Z"/><path class="cls-45" d="M568,640c4,4.8,8.11,9.57,12.06,14.44.23.28-.55,1.37-.86,2.09-3.13-2.09-6.27-4.16-9.31-6.36a13.71,13.71,0,0,1,1.1-2.18l.42.23L571,648c-1-1.67-2-3.34-3-5C568,642,568,641,568,640Z"/><path class="cls-39" d="M565.82,638l-.18-5.87L568,634Q566.9,636,565.82,638Z"/><path class="cls-39" d="M568,640c0,1,0,2,0,3h-2c-.12-.68-.24-1.35-.37-2l.33-1Z"/><path class="cls-39" d="M566,648l-.06-2,1.91,1.64Z"/><path class="cls-43" d="M574.86,532.07l1.3,3.79c.34,8,0,15.92-4.23,23.1a13.94,13.94,0,0,1-1,1.38c-.35-.5-.89-1-1-1.49-.71-3-1.31-6-2-9,.1-3.35.19-6.7.29-10,4-2.43,2.45-6.41,2.78-9.86Z"/><path class="cls-39" d="M574.86,532.07,571,530l-1.73-1c.07-1.74.15-3.47.21-5.21.83-1.22,2.32-2.4,2.38-3.66a142,142,0,0,0,0-16c-.33-5.36-1.24-10.7-1.9-16l.15-4.29c1.58,1.79,4,3.34,4.58,5.42,2.41,8.32,4.54,16.75,6.2,25.26,1.12,5.7,1.29,11.59,1.81,17.4,0,.51-.41,1.06-.64,1.59a7.4,7.4,0,0,1-1.16-1.29C578.93,528.46,576.93,528,574.86,532.07Z"/><path class="cls-45" d="M570,488.06c.66,5.34,1.57,10.68,1.9,16a142,142,0,0,1,0,16c-.06,1.26-1.55,2.44-2.38,3.66-.1-2.65-.22-5.3-.33-8,0-7.86-.12-15.73-.07-23.6A19,19,0,0,1,570,488.06Z"/><path class="cls-23" d="M566.89,525.8l.49.56-.57-.46Z"/><path class="cls-31" d="M573.08,240.14l-6.27,8.06-2.75,1.07L562.15,247l1-2.88a22,22,0,0,0,2.75-2.42c2.65-3.22,5.18-6.54,7.83-9.76.28-.33,1.11-.2,1.68-.28-.13.58-.06,1.39-.42,1.69C572.72,235.23,571.5,237.28,573.08,240.14Z"/><path class="cls-36" d="M529.06,231.12l2-2Z"/><path class="cls-40" d="M561.92,383.1l-1.53-1.33,1.61-.63C562,381.8,562,382.45,561.92,383.1Z"/><path class="cls-39" d="M572.88,449.12c.71-1.28,1.88-2.5,2-3.83.32-3.09.13-6.24.15-9.36,6.71.06,7,5.77,8.85,10.08-5.17-1.29-5.49-1-4.4,4.13.2.95.26,1.94.46,2.9.31,1.5.67,3,1,4.49a48.5,48.5,0,0,0,3.16-3.87,10.73,10.73,0,0,0,.9-2.79c.94.25,2.29.19,2.77.81,5.41,7,10.62,14.07,16.05,21,2.13,2.73,4.7,5.13,7,7.71.66.73,1.85,1.74,1.69,2.32-1.66,6,3.58,10.58,3.36,16.25-5.8-1.07-5.43-6.67-7.63-10.38-2-3.31-3.52-6.88-5.78-9.94-4.37-5.93-9.06-11.63-13.74-17.32-.6-.74-1.88-.91-2.84-1.34l-.41-.24.42.23c-.8,1.39,1.95,5.15-2.68,4a3.26,3.26,0,0,0-.27.89c-.12,1.28-.22,2.57-.32,3.86-.7-1.43-1.4-2.87-2.11-4.3Z"/><path class="cls-40" d="M594.08,426.07c-.62-2.43-1.24-4.85-1.85-7.28,10.73,5,13.32,15.54,17.25,25.19,1,2.56,2.26,5,3.25,7.63a12.68,12.68,0,0,1,.41,3.11c-1-.35-2.38-.4-3-1.1a45.58,45.58,0,0,1-4.81-6.82C601.51,440,597.83,433,594.08,426.07Z"/><path class="cls-40" d="M569.06,475.06q.16-7.19.34-14.36c1.21,1.35,3.1,2.52,3.52,4.09,1.59,6,2.7,12.11,4,18.19l-2.14.14Z"/><path class="cls-37" d="M609,507.18a14.45,14.45,0,0,1-3.77.66c-.56,0-1.23-1.22-1.47-2-.37-1.18-.13-2.59-.65-3.66-2.55-5.2-4.54-10.48-3.23-16.42.14-.62.35-1.23.52-1.84.21.59.41,1.2.63,1.79l7.47,19.65C608.61,505.67,608.67,506,609,507.18Z"/><path class="cls-37" d="M599.24,547.32a9,9,0,0,1-2.56,1.55c-4.35.83-11.54-5.44-11.48-10,0-.5,1.12-1.47,1.27-1.39,3.84,2.11,7.67,4.26,11.38,6.61C598.52,544.53,598.64,545.85,599.24,547.32Z"/><path class="cls-37" d="M602.71,523.91a51.13,51.13,0,0,1-4.89-5.41c-.48-.69.21-2.19.36-3.32a14.25,14.25,0,0,1,3.52.94,18.24,18.24,0,0,1,3.24,2.75c1,.91,1.85,1.9,2.78,2.85Z"/><path class="cls-40" d="M585,450.87a10.73,10.73,0,0,1-.9,2.79,48.5,48.5,0,0,1-3.16,3.87c-.35-1.49-.71-3-1-4.49-.2-1-.26-2-.46-2.9-1.09-5.11-.77-5.42,4.4-4.13Z"/><path class="cls-39" d="M574.78,483.12l2.14-.14c.12,1.81.23,3.63.35,5.44Z"/><path class="cls-38" d="M598.45,536.61a31.83,31.83,0,0,1-2-3.11c-.09-.18.61-.75.95-1.14.74.78,1.51,1.54,2.18,2.38C599.66,534.85,599.19,535.39,598.45,536.61Z"/><path class="cls-38" d="M592,526l2.38,2a16.75,16.75,0,0,1-2.16,1.63c-.11.06-1.06-.8-1-1.21A8.81,8.81,0,0,1,592,526Z"/><path class="cls-37" d="M623.19,396.66c-.28-.12-.73-.18-.8-.38s.2-.55.32-.83c.28.12.72.18.79.38S623.31,396.37,623.19,396.66Z"/><path class="cls-39" d="M617.53,499.63l-.37.88a3.89,3.89,0,0,1-1-.65c-.1-.12.16-.55.26-.84Z"/><path class="cls-37" d="M618.88,365.55l-.47.71c-.12-.26-.35-.52-.34-.77s.27-.48.42-.72Z"/><path class="cls-37" d="M622.66,399.61c0-.12.09-.34.13-.34a1.13,1.13,0,0,1,.42.13c0,.12-.08.34-.13.34A1.13,1.13,0,0,1,622.66,399.61Z"/><path class="cls-31" d="M573.11,218.25l3.85-.12c.34,4.41.29,8.68-4,11.41a8,8,0,0,1-1.62.58,6.61,6.61,0,0,1,0-1.4C571.86,225.22,572.49,221.74,573.11,218.25Z"/><path class="cls-31" d="M564.53,231c1.23-3.15,2.28-5.91,3.41-8.64.14-.33.71-.47,1.09-.7,0,.45.05.91,0,1.37-.16,3.07-.22,6.15-.58,9.2-.08.63-1.32,1.11-2,1.67Z"/><path class="cls-36" d="M575,188l1.92,1c-.68.17-1.35.35-2,.51C575,189,575,188.49,575,188Z"/><path class="cls-27" d="M575,188c0,.52-.07,1-.11,1.55l-1.28-1.16c.15-.48.29-1,.44-1.44Z"/><path class="cls-19" d="M576,214.06l1.28.36-1.27-.37Z"/><path class="cls-40" d="M571,648l.44.22-.42-.23Z"/><path class="cls-45" d="M586,460l-.42-.23.41.24Z"/></g><g id="GG_RED" data-name="GG RED"><path class="cls-46" d="M317,218c-25.65-2.65-51.28-5.58-77-7.83-16.56-1.46-33.2-1.95-49.8-2.84-9.56-.51-19.12-1-28.67-1.44l.3-2.3q96.33,6.19,192.66,12.43c2.25.15,4.44,1.08,6.66,1.64-13-.3-26.07-.65-39.11-.84C320.37,216.79,318.67,217.59,317,218Z"/><path class="cls-46" d="M120.3,158.07c-.11-8.59-.44-17.18-.2-25.76.08-3,.83-7.85,2.54-8.49,3-1.14,7.06.26,10.67.61-2.54,1.94-5.51,3.54-7.47,5.95-1.33,1.64-1.68,4.46-1.57,6.7.06,1,2.42,1.79,3.57,2.86,2,1.89,3.93,3.92,5.89,5.89l-2.85,1.23q-2.87,4.92-5.74,9.85Z"/><path class="cls-46" d="M111.7,207l-53.24-1.79-4.65-4.81,1.41-2h2.59l22.43,1.23,1.52,0,4.44-.18,1.6,0h12l3.45,1.21Z"/><path class="cls-46" d="M130.86,177l-5,23.95h-4.77c-.1-.37-.21-.73-.31-1.09l.45-26.83,4.51-1Z"/><path class="cls-46" d="M160,207l-20.39-1.4c1.18-.87,2.31-2.41,3.54-2.5,4.65-.34,9.32-.2,14-.25C158.08,204.25,159,205.63,160,207Z"/><path class="cls-46" d="M134.84,203.25c0-.9-5.84-1.52-9-2.27l5-24c.13-3.75.25-7.51.38-11.26l3.24-1.13c.39,5.25,2,10.77,1,15.69-4.19,19,8.42,20.89,21.7,22.55-4.67,0-9.34-.09-14,.25-1.23.09-3.54,2.5-3.54,2.5A28.15,28.15,0,0,0,134.84,203.25Z"/><path class="cls-46" d="M134.56,163.34q-1.91-3.47-3.83-6.93l.15-9.35,2.85-1.23Q134.14,154.59,134.56,163.34Z"/><path class="cls-46" d="M120.3,158.07l4.84-1.16,5.59-.5q1.92,3.47,3.83,6.93c0,.43-.05.86-.08,1.29l-3.24,1.13-5.48.17q-2.74-2.49-5.47-5Z"/><path class="cls-46" d="M120.29,160.93q2.73,2.5,5.47,5v6.14l-4.51,1Z"/></g></svg>