<svg xmlns="http://www.w3.org/2000/svg" viewBox="0 0 727 727"><defs><style>.cls-1{fill:#727358;}.cls-2{fill:#85aad4;}.cls-3{fill:#57534b;}.cls-4{fill:#22262a;}.cls-5{fill:#6e685a;}.cls-6{fill:#191c1e;}.cls-7{fill:#4f5454;}.cls-8{fill:#8690a0;}.cls-9{fill:#3a3620;}.cls-10{fill:#787960;}.cls-11{fill:#6b7490;}.cls-12{fill:#7e6d79;}.cls-13{fill:#606379;}.cls-14{fill:#729bca;}.cls-15{fill:#74613c;}.cls-16{fill:none;stroke:#fff;stroke-linecap:round;stroke-linejoin:round;stroke-width:10px;}.cls-17{fill:#6e521b;}.cls-18{fill:#efeeeb;}.cls-19{fill:#6f6660;}.cls-20{fill:#dea087;stroke:#dea087;}.cls-20,.cls-24,.cls-31,.cls-32,.cls-34,.cls-36,.cls-43{stroke-miterlimit:10;}.cls-21{fill:#d0cdc8;}.cls-22{fill:#be896a;}.cls-23{fill:#3e3a23;}.cls-24{fill:#43312f;stroke:#43312f;}.cls-25{fill:#657b9a;}.cls-26{fill:#5b5a61;}.cls-27{fill:#3a302b;}.cls-28{fill:#a9aebb;}.cls-29{fill:#5e5d33;}.cls-30{fill:#3f392d;}.cls-31{fill:#eebfa8;stroke:#eebfa8;}.cls-32{fill:#c6886a;stroke:#c6886a;}.cls-33{fill:#2e1c13;}.cls-34{fill:#6d4a38;stroke:#6d4a38;}.cls-35{fill:#392c25;}.cls-36{fill:#95664e;stroke:#95664e;}.cls-37{fill:#d1a532;}.cls-38{fill:#0a0809;}.cls-39{fill:#1a1713;}.cls-40{fill:#a88821;}.cls-41{fill:#fcf064;}.cls-42{fill:#c4a347;}.cls-43{fill:#f7d151;stroke:#f7d151;}.cls-44{fill:#d84e09;}</style></defs><g id="BKGD"><polygon class="cls-1" points="-21.93 157.21 302.07 154.31 422.93 165.8 607.66 181.14 760.07 184.98 760.07 482.86 -21.93 334.37 -21.93 157.21"/><path class="cls-2" d="M760.07-46.63v227c-43.1-1.14-86.22-1.9-129.3-3.67-12.67-.53-25.23-3.93-37.85-6l-2.61-2.35c-2.21-5.15-3.9-1.68-6-6.88-.31-.77-2.35-4-1.83-4.8,1-1.44-4.54.08-3.36-1.23-2.29-.18,4.12-9.75,1.83-9.93a6.61,6.61,0,0,0-.76-.22c0-2,0-3.89,0-5.84a2.41,2.41,0,0,0,.23-.78l-4.61-8.92-1.55-.15-1.92,6.94q0,3.31,0,6.64c0,.81,0,1.62,0,2.43l-.1,4.78c-3.63,1.48-7.17,3.91-10.91,4.28-13.08,1.29-26.23,2.31-39.36,2.6-17,.38-34,.81-50.74-1.34-1.84-.24-1.92-17.32-2-26.59,0-3.79,2.23-7.57,3.33-11.39a5.91,5.91,0,0,0-.31-2.29c-.47.57-1.28,1.11-1.34,1.71-1.19,13-2.13,26-3.61,38.88-.22,1.89-2.94,5-4.46,5-17.52-.33-35.17,0-52.51-2.1-39.63-4.9-78.95-14-118.67-15.95-39.53-2-79.39,2.61-119.1,4.33q-16.35.7-32.69,1.45l-.3,2.3-1.56,1.13-2.87-4.15c-13.27-1.66-25.89-3.57-21.69-22.55,1.09-4.92-.56-10.44-1-15.69,0-.43,0-.86.08-1.29l-.84-17.51c-2-2-3.85-4-5.88-5.89-1.15-1.07-3.51-1.85-3.57-2.86-.12-2.24.24-5.06,1.57-6.7,2-2.41,4.93-4,7.47-6-3.61-.34-7.62-1.75-10.68-.61-1.7.64-2.45,5.5-2.53,8.49-.24,8.58.09,17.17.19,25.76v2.86l1,12.14q-.22,13.41-.46,26.83L98,146l-2.94.05-1.28,1.28v2.09l-.65,3-3.32,0L81.32,146l-3.45-1.21h-12l-1.6,0-4.44.17-1.52,0-22.43-1.23H33.29l-3.22.33-3.69,0-4.21-3.93L2,131.71l-2,0L-19.19,128l-1.8.45-.94-1q0-89,.17-178c0-1.33,2.49-3.83,3.83-3.83q154-.27,308-.17c1.63,1.33,3.43,4,4.87,3.77,6.43-.82,12.76-2.44,19.13-3.77h5c3.67,2.17,7.09,5.33,11.05,6.34,16.95,4.33,33.94,8.75,51.15,11.74,14.91,2.59,30.11,3.69,45.24,4.73,16,1.11,32.08,1.56,48.14,2,13.49.34,27.12-1,40.45.57,15.43,1.78,30.52,7.92,45.88,8.42,17.56.58,35.25-3,52.89-4.71,16.34-1.61,32.69-3.11,49-4.82C669-31,675-32.31,681.07-32.91c13.18-1.3,26.54-1.48,39.54-3.74C733.94-39,746.93-43.22,760.07-46.63ZM630.14,171.52l7.22-3.06c-4.48-1.89-8.84-4.29-13.5-5.41-1.76-.42-4.22,2.12-6.37,3.31Z"/><path class="cls-3" d="M442.07,727.37h-82l-4.73-7-10.27,7q-181.5,0-363-.16c-1.34,0-3.83-2.5-3.83-3.84q-.28-112.5-.17-225c2.41,2.64,4.47,7.12,7.28,7.65,44.32,8.43,88.57,17.49,133.19,24,36.59,5.37,73.64,7.63,110.49,11.27l.07.09c1,1.77,1.79,4.9,3.05,5.1,22.45,3.56,44.93,6.94,67.46,10,41.16,5.59,82.32,11.22,123.54,16.32,77.63,9.62,155.3,18.88,233,28.29l2,.24,3,1,0,0c2.82.87,5.62,2.38,8.48,2.52,15.93.78,31.88,1.23,47.83,1.79l6.67.77,1.44,5c.54-1,1.07-2.07,1.6-3.11l2.8.37,1.07,3.5c.39-.92.77-1.85,1.16-2.78l.81-1.21c1.9,1.63,4.64,2.91,5.51,5,1.42,3.34,1.62,7.21,2.33,10.86q1.72-7.23,3.44-14.46l15.88,1.78v22h-2.74l2.74,2v7l-4.56-1.55q.3,4.41.61,8.82l4-2.27v10l-7.42.25q3.71,3.89,7.42,7.75v5c-4.44.8-8.91,1.44-13.27,2.54-.74.19-1.59,3.31-1.32,3.5,1.67,1.13,4.06,1.37,5.44,2.71,3.28,3.18,6.13,6.81,9.15,10.25v4c-1.71,1.2-4.93,2.45-4.9,3.6.3,9.81,1.19,19.6,1.9,29.4h-4c.59-1.48,1.54-2.94,1.62-4.44,0-.8-1.44-1.67-2.23-2.51-.46,2.31-.93,4.63-1.39,7h-49c-.32-3.14-.66-6.27-.94-9.41-.1-1.16.42-2.66-.14-3.44-2.14-3-4.61-5.77-7-8.62,1.18,3.78,2.69,7.51,3.45,11.38.64,3.27.42,6.72.59,10.09h-73c1.19-1.7,2.39-3.4,3.58-5.11-9.55.07-19.11,0-28.65.43-1,0-2,3-2.93,4.68h-5c-.33-2-.65-4-1-6-.71-1.38-1.42-2.77-2.14-4.15l-1.26,1.17,3.36,3-3,6h-72q-1.67-2.91-3.31-5.84l-.69,5.84h-28c-4.95-1.65-9.82-3.87-14.9-4.66-1.75-.27-4.05,3-6.1,4.66h-3l-4.82-5.14c-.73,1.71-1.46,3.43-2.18,5.14h-9c-.21-1.67,0-3.57-.76-5-.53-1-2.32-1.32-3.55-1.94ZM682.3,713.64v5.13c.52,0,1.44.12,1.5,0,.51-1.51.87-3.07,1.28-4.61,1.21,1.48,2.43,2.94,3.62,4.43.59.73,1.15,1.49,1.72,2.23.33-.3,1-.71.93-.9-1.58-5-3.21-10-4.93-15-.1-.28-1.55-.4-1.56-.36C683.73,708.37,682.68,712.26,682.3,713.64Zm-253.25-1.47-3.75-4.08c.14,4.16.23,8.32.48,12.47a39.16,39.16,0,0,0,.81,4.66C427.33,721.28,428.07,717.35,429.05,712.17Zm8.65,10.36-4.6-9.3c-.6.88-1.91,2-1.69,2.58,1.29,3.16,2.94,6.16,4.46,9.22Zm200-7.92c-.72,2.27-1.46,3.4-1.16,3.87,1.59,2.51,3.44,4.86,5.19,7.27.27-.67,1-1.54.75-2C641.24,721.05,639.76,718.43,637.73,714.61Zm-220.38,8c-2.09-.86-3.05-1.49-4.07-1.6-.76-.09-1.59.49-2.4.78a21.79,21.79,0,0,0,3.27,2.63C414.51,724.64,415.48,723.72,417.35,722.63ZM655.79,725a12.72,12.72,0,0,0-2.86-1.64c-.24,0-.79,1.15-1.19,1.77.63.4,1.23,1.06,1.89,1.12S654.77,725.58,655.79,725Zm49.16-111c-.66-1.31-1.2-2.4-1.74-3.49-.25.48-.79,1.05-.69,1.42a29.3,29.3,0,0,0,1.42,3.39Zm17.18-2c-.93-.54-1.46-1.09-1.88-1s-.9.7-1.35,1.08c.43.37.84,1,1.29,1S721.17,612.48,722.13,611.91Z"/><path class="cls-4" d="M229,541.33c-36.85-3.64-73.9-5.9-110.49-11.27-44.62-6.55-88.87-15.61-133.19-24-2.81-.53-4.87-5-7.28-7.65v-21l54,3c37.54,3,75.1,5.66,112.6,9,110.13,9.91,220.22,20.11,330.35,30,2,.18,5.17-1.94,6.25-3.86,1.48-2.62,1.48-6.09,2.12-9.19.95,3.7,1,9.91,3,10.64,7.55,2.74,15.72,3.88,23.73,5.24,13.11,2.22,26.28,4.06,39.39,6.32,1.47.26,2.66,2.24,4,3.42-6.05,2.06-12,4.56-18.17,6-3.11.73-6.66-.43-10-.74,3.44.75,6.84,1.71,10.32,2.23,27,4,54.12,7,80.64,13,3.92.88,4.84,15.53,7,23.86.76,3,.68,6.2,1.65,9.09.38,1.14,2.55,1.7,3.91,2.52.76-2.6,1.51-5.2,2.28-7.8L639,553.4l23.14,6.88c0,.35,0,.69,0,1l-5,2.86c2.23,1,4.54,1.92,6.68,3.13,1.69,1,3.74,2,4.57,3.53.72,1.36,0,3.51-.15,5.31a31.41,31.41,0,0,0-4.59-2.84c-2.26-.95-4.68-1.51-7-2.24.89,1.5,2.59,3,2.51,4.5-.17,3.5-1.18,7-1.85,10.45-.4-.59-.81-1.18-1.2-1.78-.85-1.31-1.68-2.62-2.51-3.93-1.49,1.41-4.48,3.31-4.21,4.15,1.85,5.68,4.39,11.14,6.71,16.67-77.65-9.41-155.32-18.67-233-28.29-41.22-5.1-82.38-10.73-123.54-16.32-22.53-3-45-6.43-67.46-10-1.26-.2-2-3.33-3.05-5.1l2.94,1.07c-.08-.41-.12-1.16-.23-1.17C230.89,541.25,230,541.31,229,541.33Zm257.37-9,34.45,4.13c-10.37-2.23-20.73-4.51-31.13-6.62-1.47-.3-3.12.21-4.68.35,0,.62-.06,1.69.2,1.79C486.51,532.47,487.89,532.7,486.4,532.35ZM621.82,569c-.57-1.07-.94-1.75-1.31-2.43-.4.3-1.19.68-1.15.89a5.21,5.21,0,0,0,.95,2C620.4,569.55,621.16,569.17,621.82,569Z"/><path class="cls-5" d="M32.05,480.39l-54-3v-143l5.1-.14,7.88.14c16.67,4.71,33.32,9.47,50,14.11,7.61,2.11,15.56,3.3,22.87,6.15,12.28,4.78,24,11,36.36,15.52,2.71,1,7.18-2.92,10.84-4.57l1.79.12c7.68,2.13,16.1,3,22.85,6.76,7.37,4.15,13.15,11.09,19.73,16.68,1.25,1.06,3,1.5,4.57,2.23L168,407c.35-.45,1.09-1.13,1-1.3-2.91-4.81-5.91-9.57-8.89-14.33q0-7.29.05-14.56c.95,2.32,1.77,4.71,2.9,6.95,1,1.89,2.38,3.54,3.37,5.42s1.83,5.38,2.31,5.31c3.57-.55,7.31-1.29,10.42-3,2.34-1.29,5-6.24,5.51-5.95,3.76,2.09,6.76,5.54,10.53,7.59,1.67.91,4.58-.43,6.92-.76h0c-2.67,2-5.32,4.1-8,6.11a6,6,0,0,1-1.48.59c1.68,2.72,3.31,5.46,5.11,8.1.17.25,1.37-.05,2-.3.89-.35,1.81-1.39,2.53-1.24,1,.22,1.9,1.24,2.84,1.92-.91.46-2.34.7-2.63,1.41-2.45,6-5.06,11.89-6.68,18.07-.32,1.22,3.39,3.51,5.25,5.3-.27-1.81-1.39-4.14-.65-5.31,2.18-3.47,5.09-6.48,7.71-9.66l0,0c.1,3.45.36,6.91.25,10.36a45.78,45.78,0,0,1-1.06,6.3c1.35-1.09,2.56-2.5,4.09-3.21,3.1-1.45,9.08-2.52,9.08-3.75,0-4-2.43-8-3.29-12.15-.24-1.17,1.68-2.78,2.61-4.19,1.62,3.52,3.22,7.05,4.86,10.56q3,6.49,6.1,13c2-1.22,4.06-3.57,5.88-3.37a8.57,8.57,0,0,1,5.78,4.26c1.63,3.42,4.08,9,2.62,10.8-2.68,3.39-7.74,5.32-12.16,6.84-9.19,3.15-18.63,5.55-27.89,8.53-1,.33-1.46,2.4-2.17,3.67.41.16.86.52,1.2.43a13.81,13.81,0,0,0,4-1.31c.75-.44,1-1.61,1.56-2.45.42,1.24.92,2.46,1.24,3.73,1.4,5.52,2.76,11.06,4.13,16.59,1.54-.66,3.72-.93,4.44-2.09s-.52-3.34-.1-4.84c1.07-3.81,2.59-7.49,3.93-11.23,1.05.65,3.08,1.56,3,1.91-.8,3.1-2.21,6-3,9.14-.42,1.75.09,3.71.18,5.58,1-.28,2-.61,3-.82s2.13-.63,2.77-.24a2.64,2.64,0,0,1,.38,2.57c-1.11,1.61-2.64,4.23-3.93,4.19-16.72-.51-33.48-.91-50.12-2.54-5.18-.5-9.81-5.54-15.08-6.67-2.86-.61-6.41,3.31-9.88,4a49.35,49.35,0,0,1-14.62,1.08c-12.3-1.21-24.53-3.1-36.78-4.72l0,0c-13.28-.85-26.55-2.22-39.83-2.35-7.73-.08-15.48,1.73-23.19,2.93C34.63,478.18,33.39,479.55,32.05,480.39Zm91.21-7.51c-.63,1.57-1.49,2.71-1.2,3.24a4.62,4.62,0,0,0,2.59,1.75c.4.13,1.12-.72,1.7-1.13C125.7,475.94,125.06,475.13,123.26,472.88Z"/><path class="cls-6" d="M656.1,601.12c-2.32-5.53-4.86-11-6.71-16.67-.27-.84,2.72-2.74,4.21-4.15.83,1.31,1.66,2.62,2.51,3.93.39.6.8,1.19,1.2,1.78.67-3.48,1.68-7,1.85-10.45.08-1.46-1.62-3-2.51-4.5,2.35.73,4.77,1.29,7,2.24a31.41,31.41,0,0,1,4.59,2.84c.11-1.8.87-3.95.15-5.31-.83-1.56-2.88-2.58-4.57-3.53-2.14-1.21-4.45-2.1-6.68-3.13l5-2.86,92.06,13.75H756l4.11,1.32v36l-15.88-1.78-11.28-1.38-.81,1.21-2.23-.72-2.8-.37-3-1.89-6.67-.78c-12.91-2.56-25.73-5.8-38.76-7.4-6.65-.81-13.67,1.31-20.53,2.1Z"/><path class="cls-7" d="M0,178.27c-16.2,11.78-16.32-.51-17.36-11.53,0-.26-1-.42-1.55-.62.09,1.09.17,2.18.25,3.27l-3.25,2v-43l.47.14.47-.09,1.8-.45L.05,131.68l2,0,14.79,9,1.05,1.25,12.18,3.38,1.83.44,4.65,4.81L38,161.24l-8.9-1.89-3-.82L24.2,157.2l-1.11-1.08-3.31-.58.41-5.18c-1.65,3.61-3.26,7.25-5,10.83a6.61,6.61,0,0,1-2,2.51c-.32.22-1.33-.67-2.08-.91-2.66-.86-5.35-1.65-8-2.47q-1.25,7-2.48,14.09l.21,3.82A1.13,1.13,0,0,0,0,178.27Z"/><path class="cls-8" d="M611.1,181.41l-18.18-10.73c12.62,2.09,25.18,5.49,37.85,6,43.08,1.77,86.2,2.53,129.3,3.67v10q-69.81-4.87-139.62-9.7c-3.1-.22-6.26.43-9.39.68Z"/><path class="cls-9" d="M442.07,727.37l-2.31-6.89c1.23.62,3,.94,3.55,1.94.74,1.38.55,3.28.76,5Z"/><path class="cls-1" d="M570.08,268.36c-1.9-1.08-5.56-2.6-5.42-3.16.73-2.84,1.91-6,4-7.93,1.42-1.32,4.56-1.17,6.89-1,2.5.17,5,1.11,7.42,1.71-1-3.12-2.41-6.18-3-9.39-.36-1.9.52-4,.84-6,1.86,1.26,4.09,2.19,5.52,3.82,6.05,6.9,11.86,14,17.75,21h0c-4.11-.54-8.22-1.11-12.34-1.59-2.2-.26-4.41-.36-6.62-.54,1.1,1.54,2.24,3.05,3.29,4.62a4.3,4.3,0,0,1,.33,1.38c-2.6-.87-5.25-1.62-7.79-2.65-4-1.65-8-3.49-12-5.25l1.13,5Z"/><path class="cls-5" d="M612.09,310.54c-1.55-12.9-2.2-18.33-2.86-23.76,3.42,11.31,6.85,22.61,10.17,33.94.13.45-.74,1.2-1.14,1.81C614.94,316.09,611.63,309.64,612.09,310.54Z"/><path class="cls-1" d="M604.06,267.38l4.56,15.16c-4.34-1.51-8.65-3.15-13-4.49-4.07-1.25-8.24-2.18-12.37-3.25,4.39.3,9.13,1.75,13,.53,3.14-1,5.26-5.19,7.83-8Z"/><path class="cls-1" d="M261.55,256.65c.28.21,3.23,2.52,6.14,4.86a5.09,5.09,0,0,1,.81,1.19c-1.58.2-3.66,1.11-4.61.43-1.14-.82-1-4.11-2-4.35-2.68-.69-5.63-.37-8.47-.46Z"/><path class="cls-5" d="M232.05,421.36l-2.9,4.53c-.68-1.53-1.88-3-2-4.59-.23-4.94,0-9.9,0-14.86,1.89,3,4.07,5.83,5.42,9,.28.67-2.51,2.64-3.89,4l3.34,1.91Z"/><path class="cls-5" d="M202.07,392.37l14.44,5.8c-2.71.62-6,2.5-8,1.54-2.7-1.34-4.36-4.79-6.46-7.34Z"/><path class="cls-5" d="M224.66,404.64l-4.76-4.2a62.73,62.73,0,0,1,7.56-4.07c.32-.13,2.84,3.36,2.5,3.82C228.69,401.91,226.66,403.07,224.66,404.64Z"/><path class="cls-5" d="M208.08,417.36l-5.82-4.44,3.55-2.48q1.13,3.46,2.24,6.95Z"/><path class="cls-5" d="M245.72,431.86c-1,.13-1.66.44-1.95.22-2.79-2.11-5.51-4.32-8.25-6.5,1.37-.53,3.54-1.89,4-1.47A78.08,78.08,0,0,1,245.72,431.86Z"/><path class="cls-5" d="M174.25,381l1.66,0a48.16,48.16,0,0,1-3.48,5.57c-.27.35-1.88-.36-2.87-.58Z"/><path class="cls-5" d="M218.57,466.62c-1.72,1.42-3,2.54-4.34,3.49-.26.17-1-.37-1.52-.58,1.18-1.49,2.33-3,3.59-4.43A21,21,0,0,1,218.57,466.62Z"/><path class="cls-5" d="M218.06,252.36,212.59,254a18,18,0,0,1,3.07-1.67,6.7,6.7,0,0,1,2.43.09Z"/><path class="cls-5" d="M548,215.42l-5.71-2c.17-.23.44-.67.5-.65,1.77.82,3.53,1.69,5.29,2.54Z"/><path class="cls-1" d="M570.06,268.38c.91,1,1.82,1.94,2.68,3,0,0-.57.56-.87.85-.6-1.27-1.19-2.55-1.79-3.83Z"/><path class="cls-5" d="M99.06,477.36,97,478.87l-.49-.72,2.6-.77Z"/><path class="cls-5" d="M211.57,248a2.68,2.68,0,0,1-.28-.72c0-.07.29-.27.36-.24a4.11,4.11,0,0,1,.62.48C212.05,247.66,211.82,247.82,211.57,248Z"/><path class="cls-1" d="M270.53,252.73c0,.14-.06.37-.09.37a7.8,7.8,0,0,1-.83-.09c0-.12.06-.36.09-.36A5.83,5.83,0,0,1,270.53,252.73Z"/><path class="cls-5" d="M244,451.67c0-.13-.17-.3-.13-.39s.25-.11.38-.16c.05.13.17.3.13.39S244.08,451.62,244,451.67Z"/><path class="cls-5" d="M232.08,421.39l0,0Z"/><path class="cls-5" d="M549.06,215.36c0,.36,0,.73,0,1.09-.33-.34-.65-.69-1-1l.08-.1C548.43,215.32,548.74,215.34,549.06,215.36Z"/><path class="cls-8" d="M342.91,163h-3.67c-2.22-.56-4.42-1.49-6.66-1.64Q236.25,155.1,139.92,149q16.35-.72,32.69-1.45c39.71-1.72,79.57-6.31,119.1-4.33,39.72,2,79,11,118.67,15.95,17.34,2.14,35,1.77,52.51,2.1,1.52,0,4.24-3.11,4.46-5,1.48-12.93,2.42-25.92,3.61-38.88.06-.6.87-1.14,1.34-1.71a5.91,5.91,0,0,1,.31,2.29c-1.1,3.82-3.36,7.6-3.33,11.39.05,9.27.13,26.35,2,26.59,16.7,2.15,33.78,1.72,50.74,1.34,13.13-.29,26.28-1.31,39.36-2.6,3.74-.37,7.28-2.8,10.91-4.28,2.9-1.63,1.82.7,4.73-.93,2.28.18-.14,5.8,2.15,6-1.18,1.31,3.8-1.41,2.81,0-.52.75-.31,3.56,0,4.33,2.08,5.21,6.15,3.39,8.36,8.54-19.68-2-39.45-6.18-59-5.42-37.2,1.43-74.31,5.5-111.39,9.06-4.86.46-9.38,4.35-14.1,6.57-.37.18-1.12-.14-1.56-.43q-8.09-5.37-16.13-10.8l-19-3-19.06-2Z"/><path class="cls-8" d="M295.05,163.37C237,164.21,179,165,120.92,166.48c-.82,0-1.68,9.08-2,14-.13,2.13,1.1,4.35,1.72,6.53-2.6-2.56-7.22-5-7.42-7.71-.76-10.15-28.59-20.56-28.59-30.77,0-4.51,14.95-6.42,11.83-7.17,1.66-8,10.79-10.93,12.45-18.91q.19-5.64.37-11.27l3.25-1.13c.39,5.25,2,10.77,1,15.69-4.2,19,8.42,20.89,21.69,22.55-4.66,0-9.34-.09-14,.25-1.23.09-2.36,1.63-3.54,2.51l20.39,1.39,1.56-1.13c9.55.48,19.11.93,28.66,1.44,16.61.9,33.25,1.38,49.81,2.84C243.77,157.8,269.4,160.73,295.05,163.37Z"/><path class="cls-8" d="M.56,174.41,3,160.32c2.68.82,5.37,1.61,8,2.47.75.24,1.76,1.13,2.08.91a6.61,6.61,0,0,0,2-2.51c1.74-3.58,3.35-7.22,5-10.83-.13,1.72-.27,3.45-.4,5.18l3.3.58,1.11,1.09-6.94,6.15a19.08,19.08,0,0,0,2.42,1.9c2.24-2.15,4.33-4.46,6.45-6.73l3,.82,9.81,4.16L38,161.24q-.73-5.34-1.48-10.68l53.24,1.79,3.32,0,0,0,4,1c.17-.14.34-.29.5-.45q.86,5.87,1.72,11.73c-4.62.4-9.22,1-13.85,1.19-7.17.36-14.36.49-21.54.73.51,1.55,1,3.11,1.54,4.66l-.91.8-25.72,1.42-6-1.92c-.93-1.36-1.62-3.14-2.9-3.9-.72-.43-2.4,1.07-3.72,1.29-5.2.85-10.41,2-15.65,2.12-2.88.1-5.82-1.5-8.74-2.33Z"/><path class="cls-10" d="M295.05,163.37c-25.65-2.64-51.28-5.57-77-7.83-16.56-1.46-33.2-1.94-49.81-2.84-9.55-.51-19.11-1-28.66-1.44l.3-2.3q96.33,6.19,192.66,12.43c2.24.15,4.44,1.08,6.66,1.64-13-.3-26.07-.65-39.11-.84C298.44,162.16,296.74,163,295.05,163.37Z"/><path class="cls-11" d="M98.36,103.44c-.1-8.59-.43-17.18-.19-25.76.08-3,.83-7.85,2.53-8.49,3.06-1.14,7.07.27,10.68.61-2.54,1.94-5.51,3.54-7.47,6-1.33,1.64-1.69,4.46-1.57,6.7.06,1,2.42,1.79,3.57,2.86,2,1.89,3.93,3.92,5.89,5.89L109,92.43q-2.86,4.92-5.74,9.85Z"/><path class="cls-12" d="M89.77,152.35l-53.24-1.79-4.65-4.81,1.41-2h2.59L58.31,145l1.52,0,4.44-.17,1.6,0h12L81.32,146Z"/><path class="cls-13" d="M108.93,122.4l-5,23.95H99.18c-.1-.36-.21-.73-.32-1.09q.24-13.41.46-26.83l4.5-1Z"/><path class="cls-14" d="M630.14,171.52l-12.65-5.16c2.15-1.19,4.61-3.73,6.37-3.31,4.66,1.12,9,3.52,13.5,5.41Z"/><path class="cls-12" d="M138.06,152.39,117.67,151c1.18-.88,2.31-2.42,3.54-2.51,4.64-.34,9.32-.2,14-.25Z"/><path class="cls-13" d="M98.36,103.44l4.85-1.16,5.59-.5,3.83,6.93c0,.43,0,.86-.08,1.29l-3.25,1.13-5.48.17-5.46-5Z"/><path class="cls-11" d="M30.05,145.31l-12.18-3.38-1.05-1.25L2,131.71l20.14,8.47,4.21,3.93,3.69,0C30.06,144.49,30.05,144.9,30.05,145.31Z"/><path class="cls-11" d="M572.36,143.15c0-2.21,0-4.42,0-6.63l1.92-6.94,1.55.15,4.61,8.92a2.41,2.41,0,0,1-.23.78Z"/><path class="cls-11" d="M.05,131.68-19.19,128Z"/><path class="cls-11" d="M581,145.49l-8.71,4.88c0-1.6.06-3.19.1-4.78l7.85-.32A6.61,6.61,0,0,1,581,145.49Z"/><path class="cls-8" d="M112.63,108.71l-3.83-6.93.15-9.35,2.85-1.23Q112.2,100,112.63,108.71Z"/><path class="cls-8" d="M58.31,145l-22.43-1.23Z"/><path class="cls-11" d="M98.36,106.3l5.46,5v6.14l-4.5,1Z"/><path class="cls-8" d="M580.21,145.27l-7.85.32c0-.81,0-1.62,0-2.43l7.87-3.73C580.21,141.38,580.21,143.32,580.21,145.27Z"/><path class="cls-8" d="M580.45,138.65l-4.61-8.92Z"/><path class="cls-8" d="M574.29,129.58l-1.92,6.94Z"/><path class="cls-8" d="M93.74,149.42l3.83,3.5a5.23,5.23,0,0,1-.49.45l-4-1,0,0C93.3,151.4,93.52,150.41,93.74,149.42Z"/><path class="cls-8" d="M26.38,144.11l-4.21-3.93Z"/><path class="cls-8" d="M70.27,144.75h0Z"/><path class="cls-8" d="M64.27,144.77l-4.44.17Z"/><path class="cls-8" d="M81.32,146l-3.45-1.21Z"/><path class="cls-8" d="M76.28,144.75h0Z"/><path class="cls-8" d="M30.05,145.31c0-.41,0-.82,0-1.23l3.22-.33-1.41,2Z"/><path class="cls-8" d="M95,146.05l-1.28,1.28Z"/><path class="cls-8" d="M98.86,145.27c.11.36.22.73.32,1.09L98,146Z"/><path class="cls-4" d="M658.07,601.36c6.86-.79,13.88-2.91,20.53-2.1,13,1.6,25.85,4.84,38.76,7.4-16-.55-31.9-1-47.83-1.78-2.86-.14-5.66-1.65-8.48-2.52l.15-.14-.11.18Z"/><path class="cls-4" d="M705,613.91l-1,1.32a29.3,29.3,0,0,1-1.42-3.39c-.1-.37.44-.94.69-1.42C703.75,611.51,704.29,612.6,705,613.91Z"/><path class="cls-10" d="M369.1,164.29l19,3Z"/><path class="cls-10" d="M342.91,163l7.13-.75Z"/><path class="cls-8" d="M611.06,181.35l-5.61,1.27c.73-.52,1.41-1.35,2.21-1.48a13.06,13.06,0,0,1,3.44.27Z"/><path class="cls-3" d="M229,541.33c.93,0,1.86-.08,2.78,0,.11,0,.15.76.23,1.17l-2.94-1.07Z"/><path class="cls-12" d="M26.13,158.53c-2.12,2.27-4.21,4.58-6.45,6.73a19.08,19.08,0,0,1-2.42-1.9l6.94-6.15Z"/><path class="cls-8" d="M16.82,140.68l1.05,1.25Z"/><path class="cls-5" d="M23.09,156.12l-3.3-.58Z"/><path class="cls-15" d="M574.92,440.52l-3.78,9.65c-2.23-1.36-5.1-2.26-6.47-4.21-1.15-1.63-1.61-5.4-.54-6.66,5.87-6.88,12.29-13.29,18.6-19.78.2-.21,1.76.28,1.84.64,1.29,5.45,3.12,10.92,3.23,16.42,0,1.78-4.5,3.66-6.94,5.49a15.81,15.81,0,0,0,1.4-3.91c0-.35-2.14-1.55-2.54-1.27C576.59,439.08,573.65,441.53,574.92,440.52Z"/><path class="cls-2" d="M103.82,117.44V111.3l5.48-.17q-.18,5.63-.37,11.27Z"/><path class="cls-2" d="M93.05,152.35l4,1Z"/><path class="cls-2" d="M109,92.43l-.15,9.35-5.59.5Q106.09,97.36,109,92.43Z"/><polygon class="cls-3" points="661.09 602.4 661.2 602.22 661.05 602.36 661.09 602.4"/><polygon class="cls-5" points="-26.73 326.96 788.53 487.2 777.08 583.27 -26.73 477.88 -26.73 326.96"/><polygon class="cls-3" points="-35.89 494.32 780.14 615.23 774.79 731.41 -35.89 735.23 -35.89 494.32"/></g><g id="WHITE_STROKE" data-name="WHITE STROKE"><path class="cls-16" d="M502.16,244.38l.94,0-.48-4.13C502.46,241.64,502.31,243,502.16,244.38Z"/><path class="cls-16" d="M461.06,113.37c0-.29,0-.58.07-.87l-1.17.33Z"/><path class="cls-16" d="M629.33,393.57c1-1.3,2-2.6,3-3.91,3.38-5.25,8.66-9.82,6.13-17.18-.74-2.42-1.49-4.84-2.23-7.26a2.34,2.34,0,0,0-.19-.9l-.84-2.08a2.41,2.41,0,0,0-.16-.92q-1.87-4.6-3.76-9.19a1.92,1.92,0,0,0-.25-.81l-.77-1.16L629,347.3l-.83-1.14c-.11-.6-.23-1.19-.35-1.79-.55-1.07-1.1-2.14-1.64-3.21l-.36-1.78-2.07-2.9,2.07,2.9c-.42-1.55-.87-3.09-1.23-4.65-1.57-6.77-3.1-13.55-4.64-20.32l-.66-4c-.12-1.32-.25-2.64-.37-4l-.72-2.06c-.08-1-.16-2-.25-3l-1-.05c-4-14.53-7.53-29.2-12.08-43.56-2.88-9.12-7.25-17.76-10.95-26.62h2.93c.66-2.24,1.31-4.48,2-6.72-.87-3-1.73-6.05-2.59-9.08-.16-.63-.31-1.27-.46-1.9s-.4-1.4-.61-2.09c0-3,0-6,0-8.95l.84-3,2.06,1.79h2l1.45.65,2.47,1.57,1.39.79,1.59,1.45,9.06.08,4.9-.49,2.09-.58,1.84-.58c.28-.85.55-1.7.82-2.55-7-3.91-13.6-8.6-21.78-9.82L599.77,189l-4.89-3.54-.06-2-2.29-2.68,0,.26,0-.26-1.71-3.33-2.82-2h0l-2.55-5.59-4.62-6.37c-.29-.68-.59-1.35-.88-2l-.39-1.92.27-2-.68-2.07c-.14-.62-.29-1.24-.43-1.85-.28,0-.56-.09-.85-.12h0l.21-2a.55.55,0,0,1-.56.2c-.18-.72-.35-1.45-.52-2.17.06-.67.13-1.35.2-2l-.69-.88.3-2c-.15-.7-.31-1.4-.47-2.1q-.23-7-.44-13.94c1.07-1.29,2.87-2.46,3.09-3.88,1.23-7.78,2.59-15.6,2.93-23.44.71-17-7.64-29.64-21.32-38.68-5.71-3.78-12.48-5.94-18.74-8.91A18.61,18.61,0,0,1,539,51.46h-15c0,.9,0,1.8,0,2.7l.85.29-.85-.28-3.12.66-1.66,0-2.18.4-16.59,7.39-3.41,2.69-2.19,2-1.64,2.38-1.39,1.6-1.61,2.39c-2.81,2.67-5.87,5.19-5.49,9.68L480,88.57h0l-3.78.55c-1.75,0-3.64-.32-5.24.19-10.29,3.31-15,11.69-18.55,21-.23.62.59,1.63.92,2.47l.29.3,3.46.33,2.85-.61,1.17-.33,4.95-1,2.88-1.61,2.26.29.11.15c.11,1.41.22,2.83.34,4.24-.15,1.64-.29,3.28-.43,4.91l-1.23,1,.34,1.09c-4.93,10.38-5.61,21.16-2.94,32.25.54,2.21,1,4.44,1.53,6.67l.54,1.87.51,2.12,1.38,4.9c.18.7.37,1.41.56,2.11l.67.85c.2.71.39,1.41.59,2.11l-.16,2a.53.53,0,0,1,.57-.21c-.15.73-.3,1.45-.44,2.17l.93,0-.2,3c.28.61.55,1.23.82,1.84s.27,1.42.4,2.13l.39,1.9c.23.69.46,1.39.7,2.08,1,6.31,5.63,8.88,11,10.61l2.35,1.37-.53,1,1.09,1,6.41,16.89.9,2.73.78,3.33c.25.7.51,1.39.77,2.09a.44.44,0,0,1,.51-.21l-.24,1.84,1.77,2.36-.06,2a.46.46,0,0,1,.52-.21l.6,2.17.51,3.87.48,4.13,0,5c-.19,1-.37,2.07-.56,3.11l-.76,2.84c.2,1.34.41,2.68.61,4l-1.16,2.08-.48,2.9-.45,2.11c-.14.63-.27,1.26-.41,1.9s-.39,1.4-.59,2.1c-.76,2.3-1.53,4.6-2.29,6.91q-3,6.5-5.95,13c.67,1.29,1.33,2.58,2,3.86-.68-1.28-1.34-2.57-2-3.86-.69,2.34-1.38,4.67-2.06,7l-6.08,16c0,1,0,2,0,3.05l-.05,4.94c0,.67,0,1.35-.08,2-1.65,9.2-3.13,18.43-5,27.57-.73,3.47-1.3,6.48,2,8.86h0c3,5.91.09,11.24-2,16.47-.47,1.16-3.6,2.39-4.81,1.89-3.52-1.46-6.69-3.77-10-5.75l-4.35-2.93a1,1,0,0,0,.35-.87L457,367.51l-1.88,0c0,.34,0,.69-.05,1l-2.06-2.18-20.84-18.08-2.09-1.95-7.19-6.91c-1.51-2.49-3-5-4.54-7.45a.55.55,0,0,0-.33-.6L415.43,327a.51.51,0,0,0-.33-.57l-5.19-14.93-.51-3.1-.6-7.82a5.58,5.58,0,0,0-.9-.13c.11-1.69.22-3.38.34-5.07a.35.35,0,0,1-.5.21l-.78-6.14.78,6.14c0-2,.07-4,.11-6a6.56,6.56,0,0,0-.89-.11c.12-.68.24-1.35.35-2l-.63-.87L405,276.45c-.32,0-.64,0-1,0l.24-2.08a.36.36,0,0,1-.5.22l-.87-7.06c-.31,0-.62-.06-.93-.07l.21-2.06a.36.36,0,0,1-.49.21l-.81-3.11c-.12-.64-.23-1.29-.34-1.93l.21-4c-.11-1-.22-2.09-.34-3.14-1.61-.8-4.5-2.48-4.64-2.27-2,2.85-7.13,4.27-4.6,9.28l.41,3.9.72,6.07c.87,1.77,2.56,3.78-1.23,4.18l4.13,2.46-4.13-2.46a.76.76,0,0,0-.64-.37h0l-.44-1.4-1.9-.24-1.62-1.38-7.41-8.62-2-3.11c-1.94-2.87-3.87-5.76-5.84-8.62-.62-.91-1.23-2.28-2.09-2.5-3.18-.82-9.35,5.32-8.73,8.72.44,2.38.26,3.82-2.58,4.15-4.07.47-5.77,3.6-5.63,7,.1,2.65-.78,3.52-2.74,4.86-3.58,2.46-5.1,8.56-2.54,11.57,3.15,3.72,2.91,7.49,2.14,11.65s.78,8.11,4.29,9.86c5.93,2.94,9.54,7.67,12.45,13.13,2.4,4.51,4.59,8.86,10.71,8.93,1.05,0,2.32,1.33,3.07,2.35,6,8.08,12.21,16,17.74,24.43,3.36,5.11,5.46,11,8.41,16.42,2.85,5.2,6.08,10.19,9.14,15.27l1.06,1.81h0c4.36,7.59,7.58,16.2,13.31,22.55,12.92,14.3,27.21,27.36,40.66,41.19,4.1,4.21,8.51,7.45,14.17,8.78,2.81.66,3.66,2,3.68,4.86,0,7.12.44,14.23.7,21.35h0c.07,1,.14,2.07.22,3.11q-.87,8.51-1.72,17c-.12.78-.25,1.55-.37,2.33h0c-.22.74-.73,1.53-.63,2.22a35.7,35.7,0,0,1-7.13,27.35l-1.21,1.5-2.57.74c-2.2,1-5,1.39-6.5,3a224.09,224.09,0,0,0-28.79,36.24c-9.51,15.17-19.7,29.91-29.56,44.86a10.93,10.93,0,0,0-1.31,3.13c-1,3.55-1.95,7.11-2.86,10.68a7.67,7.67,0,0,0-.5,3.35c1.07,4.69,1.71,9.63,3.68,13.94,7,15.3,15.36,29.72,26.72,42.36,4.92,5.47,8.63,12,13,18a40.17,40.17,0,0,0,2.88,3.11c2.11,2.37,4.2,4.75,6.3,7.12H591c-.13-1.26-.11-3.59-.4-3.62-3.6-.48-2.46-3.17-2.7-5.24-.16-1.41-.45-2.81-.68-4.2l.09-1.63c.44-1.52.88-3,1.31-4.56.05-.57.09-1.13.14-1.7.13-1.7.25-3.4.37-5.1,0-.58.07-1.16.1-1.74.28-2.75.57-5.5.85-8.25,0-2.6.07-5.19.1-7.78.35-1.75.71-3.49,1.07-5.24,0-.89,0-1.78,0-2.67,1.27-2,2.53-4,3.8-6l3.62-1.56,3.25-1.78,1.41-2.51c.43-1.67.87-3.33,1.31-5l1.9-5.11a.47.47,0,0,0,.64.33c.87-2.57,1.75-5.13,2.62-7.7l-.56-.85.84-1.07c.19-1.05.39-2.09.59-3.13l.42-4.86c.17-.7.33-1.4.5-2.1s.31-1.28.46-1.91l.68-2.07.49-1.89h0c.9-2.69,1.81-5.39,2.72-8.08l3.9-12.36h0l.11-.06c6.57-3.66,9.23-8.89,9.94-19.53.67-3,2-6.05,1.91-9-.47-15.59-1.29-31.18-2-46.77,0-.66-.27-1.3-.33-2-1.2-12.86-2.73-25.71-3.48-38.6-.81-13.77-.57-27.6-1.35-41.37-.89-15.71-2.41-31.39-3.65-47.08l6.91-8.21Z"/><polygon class="cls-16" points="601.97 666.25 601.96 666.25 601.96 666.25 601.97 666.25"/><path class="cls-16" d="M577.89,149.47l-.9,0c.17.72.34,1.45.52,2.17C577.64,150.9,577.76,150.18,577.89,149.47Z"/></g><g id="ALLISON"><path class="cls-17" d="M533.42,339.58c-.43,1.4-.41,3.47-1.36,4.1-8.25,5.56-5.25,18.32-8.72,25.81-2.8,6-5.22,9.69-7.55,16-1.16,3.14-2.91,5.39-6.73,6.52-2.53.75-4.47,4.19-6.21,6.73s-3.47,5.16-3.84,7.94c-.52,3.87.1,7.92.51,11.87.46,4.53,1.8,9.06,1.59,13.53-.09,1.92-.36,6.66-1.85,8.65-2.22,3.09-3.12,4.45-.68,10.4.31.76,1.32,1,2,1.51-1.17,1.12-.86,5.52-2.44,5.67-6.82.69-6.45.52-6.89-5-.33-4.22-3.27-8.42-2.88-12.58.26-2.84-3.23-3.31-1.75-5.87-2.37-1.07.53-2.9-.89-7.14-1.63-4.87-1.77-10.06.58-13.77,4.65-7.3,7.42-21.77,13-26.46,10.81-9.14,14.45-16.73,19.28-30,1.79-4.91,2.39-10.3,4.22-15.23.63-1.68,3.07-2.67,4.68-4Z"/><path class="cls-18" d="M539,51.46a18.61,18.61,0,0,0,2.81,2.09c6.26,3,13,5.13,18.74,8.91,13.68,9,22,21.64,21.32,38.68-.34,7.84-1.7,15.66-2.93,23.44-.22,1.42-2,2.59-3.09,3.88q-5.92-7.52-11.84-15c-1.07-1.42-2.21-2.78-3.17-4.26-2.37-3.63-4.89-4.39-7.83-.64l-6.53,2.6-6.45,2.33-9.18.31-3.75.57c-4.14-1.34-8.67-2-12.34-4.17-6.6-3.87-12.69-8.63-19-13q-3.66-2.52-7.33-5l-8.59-3a.39.39,0,0,1,.13-.61l4.72-5.13a35.73,35.73,0,0,0,4.64-.17c2.92-.47,5.8-1.16,8.7-1.75L514,83.29c1.93,1,3.81,2.06,5.8,2.87,5.7,2.31,5.71,2.26,7.39-3.58a6.54,6.54,0,0,1,.65-1.33c1.76-3.23.77-5.31-2.86-5.75-1.47-.18-3-.11-4.47-.15,2.64-2.87,5.1-5.81,4.15-10.16-.12-1.89-.25-3.79-.38-5.68a1.94,1.94,0,0,0,.86.13c.72.36,1.7.53,2.14,1.11,2.39,3.2,4.33.24,6.37-.45a3.07,3.07,0,0,0,1.17-1.72c-1.51-1.4-3-3.06-4.8-3.88-1.39-.63-3.26-.16-4.92-.19l-1-.35,0-2.7Zm18.87,29c-.5-.79-.74-1.23-1-1.62-2.55-3.5-5-7.06-7.75-10.42a3.74,3.74,0,0,0-3.17-.81,47.82,47.82,0,0,0-8.89,3c-2.63,1.25-3,3.53,0,4.62,6.15,2.24,12.46,4,18.73,5.92C556.37,81.28,557.11,80.74,557.91,80.47Z"/><path class="cls-19" d="M458.09,727.28c-2.1-2.37-4.19-4.75-6.3-7.12a40.17,40.17,0,0,1-2.88-3.11c-4.32-6-8-12.57-13-18-11.36-12.64-19.74-27.06-26.72-42.36-2-4.31-2.61-9.25-3.68-13.94a7.67,7.67,0,0,1,.5-3.35c.91-3.57,1.85-7.13,2.86-10.68a10.93,10.93,0,0,1,1.31-3.13c9.86-14.95,20-29.69,29.56-44.86a224.09,224.09,0,0,1,28.79-36.24c1.54-1.6,4.3-2,6.5-3v1.69c-1.59.75-3.64,1.1-4.7,2.31-7.34,8.33-15.06,16.42-21.51,25.4-8.2,11.44-15.34,23.64-22.89,35.55-5.93,9.33-13.79,17.56-16.05,29-.79,4-2.21,7.29-1.35,12,2.38,12.94,9.32,23.38,16.16,33.87,4.94,7.58,11,14.53,17.1,21.25s8.81,16.21,16.89,21.36c1.54,1,3.25,2.3,4.93,2.37,6.47.26,13,.08,19.44.06l5.06,0,8-.09,5.33-2.05c3.6.74,7.18,2,10.79,2.11,10.94.28,21.89.1,32.83.1l6-.07,8.05-.11,16-.15.86,1.26Z"/><path class="cls-20" d="M576,727.28l-.86-1.26c-1.14-5.38,4.33-11.14-.89-16.36-.18-.18.46-1.7,1-2,4.19-2.42,2.91-5.68,2-9.28-.6-2.42-2.28-5.54,2.08-7.18,2.13-.8,2.11-3,0-4.76s-4.29-3.86-6.43-5.81c3.2-2,8.11.33,10.33-4.12,1.75-.75,4-1.05,5.14-2.34,3.28-3.66,2.22.4,2.87,1.41,0,.89,0,1.78,0,2.67-.36,1.75-.72,3.49-1.07,5.24,0,2.59-.07,5.18-.1,7.78-.28,2.75-.57,5.5-.85,8.25,0,.58-.06,1.16-.1,1.74-.12,1.7-.24,3.4-.37,5.1,0,.57-.09,1.13-.14,1.7-.43,1.52-.87,3-1.31,4.56l-.09,1.63c-.44,1.68-.89,3.37-1.33,5.06l-1.89,8Z"/><path class="cls-21" d="M585.91,719.28c.44-1.69.89-3.38,1.33-5.06.23,1.39.52,2.79.68,4.2.24,2.07-.9,4.76,2.7,5.24.29,0,.27,2.36.4,3.62h-6C585.32,724.61,585.61,721.94,585.91,719.28Z"/><path class="cls-22" d="M585.91,719.28c-.3,2.66-.59,5.33-.89,8h-1Z"/><path class="cls-23" d="M386.48,271.14l1.62,1.38,2.34,1.64a.76.76,0,0,1,.64.37l4.13,2.46c.27-.71.94-1.57.74-2.1-1.35-3.57-2.89-7.08-4.36-10.61-.14-1.3-.27-2.6-.41-3.9a9.64,9.64,0,0,1,1-2.11c1.35-1.56,2.82-3,4.24-4.51.89,1.64,1.75,3.31,2.69,4.93a17.51,17.51,0,0,0,1.4,1.84l.34,1.93.81,3.11a.36.36,0,0,0,.49-.21l-.21,2.06,1.8,7.13a.36.36,0,0,0,.5-.22l-.24,2.08,2.64,10.1.63.87-.35,2,.78,6.14a.35.35,0,0,0,.5-.21c-.12,1.69-.23,3.38-.34,5.07-.23,2.56-1.31,5.41-.55,7.62,2.18,6.26,5.11,12.26,7.75,18.36a.51.51,0,0,1,.33.57l2.63,4.44a.55.55,0,0,1,.33.6c1.51,2.48,3,5,4.54,7.45l7.19,6.91,2.09,1.95,20.84,18.08,2.06,2.18,3.52.92,4.35,2.93c3.3,2,6.47,4.29,10,5.75,1.21.5,4.34-.73,4.81-1.89,2.12-5.23,5-10.56,2-16.47.17-3.83,2.56-6.68,4.05-10,2.75-6.08,4.19-12.74,6.47-19a4.44,4.44,0,0,1,3.43-2.24c9.22.33,18.44.88,27.65,1.51,3.26.22,6.5.82,9.75,1.25l9.91,3.89,7.12,2,8.78,5,1,.33a.89.89,0,0,0,.67.26l7.36,2.71,0,0,1.19.83a.85.85,0,0,0,.49.36l1.17,1.13,1,1.54-3.92,1.49c-2.62-.94-5.29-1.76-7.85-2.85-4.08-1.74-8.08-3.66-12.11-5.5l-4-.6-2.93-.24-6-1.3c-4.42-1.72-8.77-1.79-10.66,3.25-2.55,6.81-4.25,13.95-6.39,20.92-1.38,4.52-2.14,9.46-4.57,13.35-2.08,3.33-6.43,5.15-9.22,8.16s-6.2,6.28-6.83,9.89c-1.8,10.38-2.14,21-3.44,31.49-.51,4.05-2.16,7.95-3.09,12-.22.93.48,2,.55,3.08.36,6.05,6.26,11.22,2.88,17.91-.21.4.2,1.25.52,1.78,2.21,3.64,1.37,11.93-1.59,15.44.38-3.57.35-7.25,1.27-10.68,1-3.58-.8-3.59-3.24-3.46l-.26-2c.52-.41,1.22-.71,1.51-1.24-3.88,1.17-16.43-4.14-28.46-18.74-8.71-6.58-22.27-21.82-33.21-32.92-2-2.05-3-5.08-4.6-7.57-2.7-4.18-5.52-8.3-8.29-12.44l-1.06-1.81c-2.34-4.89-4.59-9.83-7-14.67-6.95-13.77-12.77-28.26-23.87-39.48-2.69-2.72-5.89-5.5-9.39-6.68-2.87-1-4.18-2.38-5.76-4.64-3.66-5.22-7.18-10.87-12-14.83-3.36-2.76-6.62-4.88-5.66-9.3.67-3.09-3.26-8.06,3.12-9.29.06,0,.14-1.32-.17-1.59-1-.87-2.23-1.43-3.19-2.31-1.28-1.16-3.57-2.79-3.35-3.72.65-2.71,1.32-6.19,5.5-5.85s4-1.2,2.19-4.2a6.35,6.35,0,0,1-.23-4.92c.38-.94,2.42-1.72,3.7-1.7,3.74.08,5-1.27,4.06-5.13-.11-.49-.59-1.05-.45-1.4.65-1.56,1.11-3.56,2.33-4.42.92-.66,3.23-.32,4.32.44,1.55,1.09,2.42,3.09,3.8,4.5C377.32,262.08,381.92,266.59,386.48,271.14Z"/><path class="cls-24" d="M488.47,92.14q3.67,2.51,7.33,5c-1.13.69-2.2,1.85-3.39,2-5.19.58-4.19,5.67-5.63,8.45-1.67,3.22,5.21,7.33,9.27,5.16,5.65-3,10.61-1.92,15.86.8,3.73,1.94,7.76,3.3,11.66,4.91q.88,1.82,1.74,3.63c-.09.78-.17,1.56-.26,2.33l-2,0-2.05-1-4.42.23c.39,1,.69,2,1.17,2.9.88,1.66,3,4.23,2.61,4.71-1.52,1.79-3.81,3-5.9,4.18a9.71,9.71,0,0,1-2.75.65,19.53,19.53,0,0,1,1.92,1.71c.84,1,2,1.92,2.27,3.07,3,11,.77,21.39-4.1,31.41-4.72.16-10,4.07-13.81-2,1.14-.62,2.25-1.3,3.41-1.86a53.53,53.53,0,0,0,5.62-2.65c.81-.51,1.76-2.4,1.51-2.69a8.17,8.17,0,0,0-3.51-2.35c-.42-.14-1.28,1.37-2.07,1.94a28.49,28.49,0,0,1-3,1.68c-1.08-1-2-2.62-3.26-2.84-5.17-.91-10.41-1.41-15.63-2.06a20.46,20.46,0,0,0-2.77-2.81c-.17-.12-2,1.24-1.94,1.72a39.59,39.59,0,0,0,2.1,8.28c1,2.44,2.94,2.49,5.68,2.13,3.2-.41,6.62.94,9.94,1.53q1.07,6.1,2.12,12.22c-.42,3.47-1.59,7.06-1.06,10.38.58,3.64,10.9,8.15,15.45,6.88,3.49-1,6.68-3.94,9.89.37.15.2,1.25-.19,1.83-.46,3-1.39,5.33-2.09,4,2.89-.72,2.77,1.24,3.11,3.31,2.3a20,20,0,0,0,3.34-2.1l5.1-3.8,2.68-1.27c1.76,2.61,3,5-.51,7.48-.67.49.45,3.42.74,5.22a5.52,5.52,0,0,0,0,.91l0,.06-2.92,2-4,4.06-1.1,2.92.06-.06-1,0a72.4,72.4,0,0,1-6.47,5.71c-9,6.24-14.67,14.86-18.78,24.77-1.22,2.94-2.87,5.71-4.32,8.55l-.61-4c.25-.94.51-1.89.76-2.84s.37-2.08.56-3.11c0-1.68,0-3.36,0-5l-.48-4.13-.51-3.87-.6-2.17a.46.46,0,0,0-.52.21l.06-2-1.53-4.2a.44.44,0,0,0-.51.21l-.77-2.09-.78-3.33-.9-2.73q-3.19-8.44-6.41-16.89c-.18-.68-.37-1.36-.56-2L487.24,200c-5.41-1.73-10-4.3-11-10.61-.24-.69-.47-1.39-.7-2.08l-.39-1.9c-.13-.71-.26-1.42-.4-2.13s-.54-1.23-.82-1.84l.2-3-.49-2.19a.53.53,0,0,0-.57.21c.05-.68.11-1.36.16-2l-.59-2.11-.67-.85c-.19-.7-.38-1.41-.56-2.11l-1.38-4.9-.51-2.12-.54-1.87c-.51-2.23-1-4.46-1.53-6.67-2.67-11.09-2-21.87,2.94-32.25l.89-2c.14-1.63.28-3.27.43-4.91-.12-1.41-.23-2.83-.34-4.24l-.11-.15-2.25-.29-2.89,1.61-4.95,1-1.17.33-2.85.61-3.46-.33-.29-.3c12-3.69,15-16,22.87-23.69l3.78-.55a.39.39,0,0,0-.13.61Zm-1.33,36.35c-3.18,1.51-6.55,9.95-5.13,13.27,1.36,3.15,1.43,9,7.38,3.85.78-.69,2.55-.25,3.86-.33,4,.41,4.95-1.38,3.77-5a17.73,17.73,0,0,1-.45-3.75c1.05-.79.34-3.64-1.06-4.27-.69-2.37-.28-5.67-4.37-5.15l-1.62-1.28L488,128.19A4.29,4.29,0,0,1,487.14,128.49Zm-.69-10.44a48.29,48.29,0,0,0-5.89-4.35c-.28-.16-2.5,2.12-2.32,2.45a9.09,9.09,0,0,0,3.4,3.79C482.41,120.33,484,119.07,486.45,118.05Z"/><path class="cls-19" d="M386.48,271.14c-4.56-4.55-9.16-9.06-13.65-13.67-1.38-1.41-2.25-3.41-3.8-4.5-1.09-.76-3.4-1.1-4.32-.44-1.22.86-1.68,2.86-2.33,4.42-.14.35.34.91.45,1.4.92,3.86-.32,5.21-4.06,5.13-1.28,0-3.32.76-3.7,1.7a6.35,6.35,0,0,0,.23,4.92c1.78,3,2,4.55-2.19,4.2s-4.85,3.14-5.5,5.85c-.22.93,2.07,2.56,3.35,3.72,1,.88,2.21,1.44,3.19,2.31.31.27.23,1.57.17,1.59-6.38,1.23-2.45,6.2-3.12,9.29-1,4.42,2.3,6.54,5.66,9.3,4.82,4,8.34,9.61,12,14.83,1.58,2.26,2.89,3.66,5.76,4.64,3.5,1.18,6.7,4,9.39,6.68,11.1,11.22,16.92,25.71,23.87,39.48,2.44,4.84,4.69,9.78,7,14.67-3.06-5.08-6.29-10.07-9.14-15.27-2.95-5.39-5-11.31-8.41-16.42-5.53-8.4-11.73-16.35-17.74-24.43-.75-1-2-2.34-3.07-2.35-6.12-.07-8.31-4.42-10.71-8.93-2.91-5.46-6.52-10.19-12.45-13.13-3.51-1.75-5.08-5.62-4.29-9.86s1-7.93-2.14-11.65c-2.56-3-1-9.11,2.54-11.57,2-1.34,2.84-2.21,2.74-4.86-.14-3.43,1.56-6.56,5.63-7,2.84-.33,3-1.77,2.58-4.15-.62-3.4,5.55-9.54,8.73-8.72.86.22,1.47,1.59,2.09,2.5,2,2.86,3.9,5.75,5.84,8.62l2,3.11Z"/><path class="cls-25" d="M524.24,59.51l.39,5.68-9.28-1.63c-3-.59-6.39,3-9.16-.82-.12-.16-1.49.31-2,.78-3.18,2.76-2.53,4.94,2,7q.92,2.17,1.84,4.35c.48,1.12,1,2.23,1.47,3.35-1.2.41-2.38.87-3.59,1.21-2.61.73-5.23,1.38-7.84,2.07-2.9.59-5.78,1.28-8.7,1.75a35.73,35.73,0,0,1-4.64.17c-.38-4.49,2.68-7,5.49-9.68l1.61-2.39,1.39-1.6,1.64-2.38,2.19-2,3.41-2.69,16.59-7.39,2.18-.4,1.66,0Z"/><path class="cls-26" d="M490,484.63a2.36,2.36,0,0,0-.08.65l-1.42,1.92c-.26-7.12-.67-14.23-.7-21.35,0-2.83-.87-4.2-3.68-4.86-5.66-1.33-10.07-4.57-14.17-8.78-13.45-13.83-27.74-26.89-40.66-41.19-5.73-6.35-8.95-15-13.31-22.55,2.77,4.14,5.59,8.26,8.29,12.44,1.6,2.49,2.59,5.52,4.6,7.57,10.94,11.1,22.12,22,33.21,32.92,1.85,1.94,3.2,5.31,6.71,3.48s3.58,0,4.24,2.68c.58,2.35,1.68,5.16,3.48,6.51,3.85,2.87,8.31,4.92,12.52,7.31.09.67.18,1.34.26,2Q489.64,474,490,484.63Z"/><path class="cls-26" d="M487.18,561.41q-.56,3.47-1.13,6.93c-6.53-7.14-11.18-15.11-11-25.19v-1.69l2.57-.74c.56,3,1.08,6.11,1.73,9.14.11.53.75,1,1.14,1.44a2.91,2.91,0,0,0,.55-.56c1.08-1.84-.55-10.22-2.21-11.52A35.7,35.7,0,0,0,486,511.87c-.1-.69.41-1.48.63-2.22,1.83,8.3,1.51,16.35-2.65,24-.25.45,0,1.17,0,1.76.07,2.31.13,4.62.2,6.93Q485.69,551.87,487.18,561.41Z"/><path class="cls-26" d="M476.23,89.12c-7.83,7.7-10.88,20-22.87,23.69-.33-.84-1.15-1.85-.92-2.47C456,101,460.7,92.62,471,89.31,472.59,88.8,474.48,89.16,476.23,89.12Z"/><path class="cls-19" d="M415.1,326.39c-2.64-6.1-5.57-12.1-7.75-18.36-.76-2.21.32-5.06.55-7.62a5.58,5.58,0,0,1,.9.13l.6,7.82.51,3.1Z"/><path class="cls-19" d="M400.55,260.53a17.51,17.51,0,0,1-1.4-1.84c-.94-1.62-1.8-3.29-2.69-4.93-1.42,1.49-2.89,2.95-4.24,4.51a9.64,9.64,0,0,0-1,2.11c-2.53-5,2.64-6.43,4.6-9.28.14-.21,3,1.47,4.64,2.27.12,1,.23,2.09.34,3.14Z"/><path class="cls-26" d="M490,490.43q-1.49,8.44-3,16.89.86-8.51,1.72-17Z"/><path class="cls-27" d="M478.86,539.22c1.66,1.3,3.29,9.68,2.21,11.52a2.91,2.91,0,0,1-.55.56c-.39-.48-1-.91-1.14-1.44-.65-3-1.17-6.09-1.73-9.14Z"/><path class="cls-19" d="M391.59,264.28c1.47,3.53,3,7,4.36,10.61.2.53-.47,1.39-.74,2.1l-4.13-2.46c3.79-.4,2.1-2.41,1.23-4.18Z"/><path class="cls-19" d="M406.68,286.51,404,276.41c.32,0,.64,0,1,0Z"/><path class="cls-19" d="M422.93,339.45c-1.51-2.49-3-5-4.54-7.45C419.9,334.48,421.42,337,422.93,339.45Z"/><path class="cls-28" d="M524.24,59.51l-3.35-4.68,3.12-.66,1,.34c0,1.71,0,3.42,0,5.13A1.94,1.94,0,0,1,524.24,59.51Z"/><path class="cls-19" d="M403.78,274.55l-1.8-7.13c.31,0,.62,0,.93.07Z"/><path class="cls-19" d="M407.74,295.55l-.78-6.14a6.56,6.56,0,0,1,.89.11Z"/><path class="cls-26" d="M471.33,110.32c.11,1.41.22,2.83.34,4.24C471.55,113.15,471.44,111.73,471.33,110.32Z"/><path class="cls-29" d="M490,490.43l-1.26-.12c-.08-1-.15-2.08-.22-3.11l1.42-1.92Z"/><path class="cls-19" d="M418.06,331.4,415.43,327Z"/><path class="cls-19" d="M503.1,244.4l-.94,0c.15-1.37.3-2.74.46-4.11Z"/><path class="cls-26" d="M453.65,113.11l3.46.33Z"/><path class="cls-19" d="M401.7,265.57l-.81-3.11Z"/><path class="cls-19" d="M458.63,369.49l-3.52-.92.05-1,1.88,0,1.94,1.11A1,1,0,0,1,458.63,369.49Z"/><path class="cls-19" d="M501.05,232.43l-1.77-2.36.24-1.84Z"/><path class="cls-19" d="M489.59,201.37c.19.67.38,1.35.56,2l-1.09-1Z"/><path class="cls-26" d="M469,109.88l2.25.29Z"/><path class="cls-26" d="M470.35,121.52c-.11-.37-.23-.73-.34-1.09l1.23-1Z"/><path class="cls-19" d="M475.5,187.31c.23.69.46,1.39.7,2.08C476,188.7,475.73,188,475.5,187.31Z"/><path class="cls-19" d="M474.71,183.28l.4,2.13Z"/><path class="cls-19" d="M432.21,348.31l-2.09-1.95Z"/><path class="cls-19" d="M474.09,178.42l-.93,0c.14-.72.29-1.44.44-2.17C473.77,177,473.93,177.69,474.09,178.42Z"/><path class="cls-19" d="M390,272.76c.15.47.29.94.44,1.4l-2.34-1.64Z"/><path class="cls-28" d="M519.23,54.86l-2.18.4Z"/><path class="cls-19" d="M501.51,234.23l.6,2.17Z"/><path class="cls-19" d="M496.56,220.29l.9,2.73Z"/><path class="cls-26" d="M461.13,112.5c0,.29-.05.58-.07.87l-1.1-.54Z"/><path class="cls-30" d="M611.13,636.35l-.42,4.86a.85.85,0,0,0-.87.06l-2.42,1.1,2,1,.68,1-.84,1.07a.57.57,0,0,0-.38.39.33.33,0,0,1-.18.48c-2.22.38-5.72-1.17-5.78,2.63,0,1.55,2.36,3.14,3.64,4.72l-1.9,5.11c-4.5-1.76-5.06,2-6.5,4.61a43.89,43.89,0,0,0-.08-5.74,5.9,5.9,0,0,0-1.5-3.25,18.88,18.88,0,0,0-4.12-2.93c-2.47-1.41-5-3.56-7.55-3.71-2.25-.14-2.51-.53-3.1-2.37-1.83-5.72-4.12-11.09-8.17-15.9-2.09-2.48-6.24-5-4.66-9.62l39.37-8.08L612,616c-4,.51-1.7,2.47-1.29,4.39.25,1.19-1,2.69-1.53,4-.36.83-.74,1.66-1.11,2.5l2.4-.31,2.44-.34c.1.7.21,1.4.32,2.1-.17.63-.33,1.26-.49,1.89s-.45,1.38-.68,2.07-.31,1.27-.46,1.91S611.3,635.65,611.13,636.35Z"/><path class="cls-27" d="M590.82,177.48l1.71,3.33c.19,1.5.39,3,.59,4.51-.67,1.6-1.94,3.23-1.86,4.8.11,2.42,1.14,4.8,1.79,7.19-3.51,3.34-2.43,7.66-2.13,11.6.35,4.75-1.27,8.69-4.73,9.52l-1.2-1c-1.46-2.13-2.62-4.57-4.45-6.31-3-2.88-6.51-5.32-9.79-8,1.35-6.5,2.63-13,4.09-19.5,1.38-6.2,1.38-6.22-5.09-5.4-1.26.16-2.6-.43-3.88-.35a5.59,5.59,0,0,0-2.72,1c-2,1.42-3.89,3-5.81,4.51q.81-6.53,1.64-13.05c.21-.69.41-1.37.61-2.06l.45-4.93c1.27-1.43,2.29-3.3,3.86-4.2,5.58-3.2,8.51-7.74,8.25-14.23l1.86-.68,2.49,2.23.69.88-.2,2c.17.72.34,1.45.52,2.17a.55.55,0,0,0,.56-.2l-.21,2q.85,3,1.69,6.08l.39,1.92.88,2,4.62,6.37,2.55,5.59h0Z"/><path class="cls-20" d="M629,347.3l1.2,2.86.77,1.16a1.92,1.92,0,0,1,.25.81q1.88,4.59,3.76,9.19a2.41,2.41,0,0,1,.16.92l.84,2.08a2.34,2.34,0,0,1,.19.9c.74,2.42,1.49,4.84,2.23,7.26,2.53,7.36-2.75,11.93-6.13,17.18-.57-1.49-.15-4.67-3.23-1.92-.63.56-1.23,1.15-1.84,1.73-.71-.87-2.08-1.81-2-2.61.19-2,1.44-3.91,1.53-5.89.11-2.71,5.08-2.85,2.79-7-3.6-6.58-6.28-13.66-9.36-20.52q0-11.07-.1-22.12l5.77,8.07.36,1.78c.54,1.07,1.09,2.14,1.64,3.21.12.6.24,1.19.35,1.79Zm-6.89-7.37c-.44.66-1,1.15-.91,1.41,1.56,4.54,3.14,9.08,4.91,13.54.19.48,1.57.48,2.4.71,0-.79.36-1.69.08-2.33-1.82-4.1-3.77-8.14-5.69-12.19A11.12,11.12,0,0,0,622.15,339.93Z"/><path class="cls-26" d="M576.5,146.54,574,144.31c.38-3.27,1.18-6.55,1-9.79-.18-4.23-4-6.77-7-5.52-3.27,1.33-6.68,2.35-10,3.51-.28-.93-.63-1.85-.82-2.8-.48-2.4-.6-4.92-1.44-7.18-.35-.93-2.21-1.29-3.38-1.91-.21,1.1-.48,2.19-.62,3.29-.24,1.87-.4,3.74-.59,5.61h-1.2l-1-2.09-.1-1.88-2.31-14.41,6.53-2.59c0,.82,0,1.63,0,2.45.2,4.4.31,4.48,3.63,3a1.47,1.47,0,0,1,1.33.15c2.46,3.37,4.18.8,6-.7q5.91,7.52,11.84,15,.23,7,.44,13.94c.16.7.32,1.4.47,2.1Z"/><path class="cls-31" d="M621,403.53c1.24,15.69,2.76,31.37,3.65,47.08.78,13.77.54,27.6,1.35,41.37.75,12.89,2.28,25.74,3.48,38.6.06.66.3,1.3.33,2,.72,15.59,1.54,31.18,2,46.77.09,3-1.24,6-1.91,9l-1,0c0-.7,0-1.4,0-2.1l.15-1.72,1-1.22c0-1.31,0-2.63,0-3.95-.06-.69-.13-1.37-.2-2.06s0-1.21,0-1.82c-.33-7.29-.58-14.58-1-21.86-.52-8.77-1-17.54-1.88-26.29-.81-8.56-2.54-17.07-2.91-25.65-.74-17.1-.56-34.25-1.27-51.35-.46-11.25-1.89-22.45-2.73-33.68-.33-4.38-.24-8.79-.34-13.19Z"/><path class="cls-32" d="M621,403.53l-1.21-.11q.19-25,.4-50c3.07,6.86,5.75,13.94,9.35,20.52,2.29,4.17-2.68,4.31-2.79,7-.09,2-1.34,3.9-1.53,5.89-.07.8,1.3,1.74,2,2.61.61-.58,1.21-1.17,1.84-1.73,3.08-2.75,2.66.43,3.23,1.92-1,1.31-2,2.61-3,3.91l-1.41,1.75Z"/><path class="cls-21" d="M591.29,675.55c-.65-1,.41-5.07-2.87-1.41-1.15,1.29-3.39,1.59-5.14,2.34-.1-.43-.19-.85-.28-1.28-.76-.94-1.33-2.24-2.31-2.74-1.43-.72-3.19-.73-4.73-1.28-10.48-3.74-18.2-11.15-25.41-19.23.2-1.41.39-2.82.59-4.23l9.86,8.53,1.1,1.07,2,1.8c4.62,2.16,9.15,4.54,13.88,6.4,5.19,2.05,10.56,3.84,16.18,1.29l.93,2.78C593.82,671.58,592.56,673.57,591.29,675.55Z"/><path class="cls-33" d="M593.05,197.31c-.65-2.39-1.68-4.77-1.79-7.19-.08-1.57,1.19-3.2,1.86-4.8l1.76.15,4.89,3.54,4.14,2.71c4,2.27,8.09,4.5,12.08,6.83a8.79,8.79,0,0,1,1.76,2,5.37,5.37,0,0,1-1.48,1c-3.61,1-7.25,1.81-10.88,2.7l-1.39-.79-2.47-1.57-1.45-.65-4-2.85Z"/><path class="cls-19" d="M593.05,197.31l3,1,0,1.07-.84,3c0,3,0,6,0,8.95.21.69.41,1.39.61,2.09s.3,1.27.46,1.9c.86,3,1.72,6.05,2.59,9.08-.66,2.24-1.31,4.48-2,6.72H594q-3.9-6.37-7.79-12.75c3.46-.83,5.08-4.77,4.73-9.52C590.62,205,589.54,200.65,593.05,197.31Z"/><path class="cls-26" d="M605.39,204.21c3.63-.89,7.27-1.75,10.88-2.7a5.37,5.37,0,0,0,1.48-1,8.79,8.79,0,0,0-1.76-2c-4-2.33-8-4.56-12.08-6.83,8.18,1.22,14.81,5.91,21.78,9.82-.27.85-.54,1.7-.82,2.55l-1.84.58-2.09.58-4.9.49-9.06-.08Z"/><path class="cls-29" d="M612.94,626.28l-2.44.34-2.4.31c.37-.84.75-1.67,1.11-2.5.57-1.36,1.78-2.86,1.53-4-.41-1.92-2.67-3.88,1.29-4.39l-3.66-4.24,9.85-5.26,1.66,1.45L616,620.3C615,622.29,614,624.28,612.94,626.28Z"/><path class="cls-31" d="M617,301.36l1,.05c.09,1,.17,2,.25,3l.72,2.06c.12,1.32.25,2.64.37,4l.66,4c1.54,6.77,3.07,13.55,4.64,20.32.36,1.56.81,3.1,1.23,4.65l-5.77-8.07Q618.54,316.34,617,301.36Z"/><path class="cls-20" d="M629,588.31l1,0c-.71,10.64-3.37,15.87-9.94,19.53.08-.9.17-1.8.26-2.69,5.54-3.45,7.13-8.73,6.88-14.86a3.5,3.5,0,0,0,0-1v0Z"/><path class="cls-26" d="M595.09,669.59l-.93-2.78c1.76-.67,4.64,0,4-3.46,1.44-2.56,2-6.37,6.5-4.61-.44,1.67-.88,3.33-1.31,5L602,666.26v0L598.71,668Z"/><path class="cls-29" d="M606.58,653.63c-1.28-1.58-3.66-3.17-3.64-4.72.06-3.8,3.56-2.25,5.78-2.63l-1.5,7.68A.47.47,0,0,1,606.58,653.63Z"/><path class="cls-21" d="M589.25,699.49c.28-2.75.57-5.5.85-8.25C589.82,694,589.53,696.74,589.25,699.49Z"/><path class="cls-31" d="M635,361.32q-1.87-4.6-3.76-9.19Q633.14,356.72,635,361.32Z"/><path class="cls-21" d="M612.94,626.28c1-2,2-4,3-6-.91,2.69-1.82,5.39-2.72,8.08C613.15,627.68,613,627,612.94,626.28Z"/><path class="cls-21" d="M607.22,654l1.5-7.68a.32.32,0,0,0,.18-.47l.94.45C609,648.83,608.09,651.39,607.22,654Z"/><path class="cls-26" d="M579.55,159.53q-.84-3-1.69-6.08c.29,0,.57.07.85.12.14.61.29,1.23.43,1.85s.45,1.38.68,2.07Z"/><path class="cls-31" d="M638.44,372.48c-.74-2.42-1.49-4.84-2.23-7.26Q637.34,368.85,638.44,372.48Z"/><path class="cls-21" d="M590.2,683.46c.35-1.75.71-3.49,1.07-5.24C590.92,680,590.56,681.71,590.2,683.46Z"/><path class="cls-21" d="M588.78,706.33c.13-1.7.25-3.4.37-5.1C589,702.93,588.91,704.63,588.78,706.33Z"/><path class="cls-26" d="M588,175.44l-2.55-5.59Z"/><path class="cls-26" d="M594.82,183.49l.06,2-1.76-.15c-.2-1.5-.4-3-.59-4.51Z"/><path class="cls-26" d="M596,199.42l0-1.07,4,2.85h-2Z"/><path class="cls-21" d="M587.33,712.59c.44-1.52.88-3,1.31-4.56C588.2,709.55,587.77,711.07,587.33,712.59Z"/><path class="cls-21" d="M609.84,641.27a.85.85,0,0,1,.87-.06c-.2,1-.4,2.08-.59,3.13l-.68-1C609.57,642.67,609.71,642,609.84,641.27Z"/><path class="cls-31" d="M627.86,344.37c-.55-1.07-1.1-2.14-1.64-3.21Z"/><path class="cls-21" d="M598.71,668l3.26-1.79Z"/><path class="cls-26" d="M590.82,177.48l-2.82-2Z"/><path class="cls-26" d="M601.53,201.85l2.47,1.57Z"/><path class="cls-21" d="M611.13,636.35c.17-.7.33-1.4.5-2.1C611.46,635,611.3,635.65,611.13,636.35Z"/><path class="cls-21" d="M612.09,632.34c.23-.69.45-1.38.68-2.07C612.54,631,612.32,631.65,612.09,632.34Z"/><path class="cls-21" d="M602,666.26l1.41-2.52C602.89,664.58,602.43,665.42,602,666.26Z"/><path class="cls-26" d="M580.82,163.48l-.88-2Z"/><path class="cls-26" d="M577,149.44l.9,0c-.13.71-.25,1.43-.38,2.14C577.33,150.89,577.16,150.16,577,149.44Z"/><path class="cls-29" d="M620.24,605.19c-.09.89-.18,1.79-.26,2.69l-.11.06-1.64-1.45Z"/><path class="cls-28" d="M627.92,395.32l1.41-1.75Z"/><path class="cls-31" d="M636,364.32l-.84-2.08C635.47,362.93,635.74,363.63,636,364.32Z"/><path class="cls-31" d="M631,351.32l-.77-1.16C630.5,350.54,630.76,350.93,631,351.32Z"/><path class="cls-31" d="M629,347.3l-.83-1.14Z"/><path class="cls-29" d="M609.84,646.26l-.94-.45a.57.57,0,0,1,.38-.4Z"/><path class="cls-34" d="M523.57,118.47c-3.9-1.61-7.93-3-11.66-4.91-5.25-2.72-10.21-3.82-15.86-.8-4.06,2.17-10.94-1.94-9.27-5.16,1.44-2.78.44-7.87,5.63-8.45,1.19-.13,2.26-1.29,3.39-2,6.31,4.38,12.4,9.14,19,13,3.67,2.15,8.2,2.83,12.34,4.17l.48,1.12Z"/><path class="cls-31" d="M548.83,125.54c0,.62.07,1.25.1,1.88-3.19,1.43-7.71.88-8,6.38-.2,4.58-3.9,7.29-8.37,6.53-.92-.16-2.43-1.58-2.34-2.24.42-3.06.8-6.32,2.15-9,2.07-4.17.8-7-2.29-9.69l-.21-2.93,1-2.66,9.18-.31c.78,2.94,1.52,5.9,2.4,8.81.13.44.86.76,1.38,1C545.49,124.07,547.17,124.79,548.83,125.54Z"/><path class="cls-28" d="M515.35,63.56l9.28,1.63c.94,4.35-1.52,7.29-4.16,10.17-5.49.86-7.39,3.17-6.51,7.93l-15.89-1.77c2.61-.69,5.23-1.34,7.84-2.07,1.21-.34,2.39-.8,3.59-1.21-.49-1.12-1-2.23-1.47-3.35l-1.85-4.35,2.77-.4,7.42.91-1.29-4.61Z"/><path class="cls-21" d="M557.91,80.47c-.8.27-1.54.81-2.07.65-6.27-1.88-12.58-3.68-18.73-5.92-3-1.09-2.67-3.37,0-4.62a47.82,47.82,0,0,1,8.89-3,3.74,3.74,0,0,1,3.17.81c2.72,3.36,5.2,6.92,7.75,10.42C557.17,79.24,557.41,79.68,557.91,80.47Z"/><path class="cls-21" d="M514,83.29c-.88-4.76,1-7.07,6.51-7.93a44.31,44.31,0,0,1,4.47.14c3.63.44,4.62,2.52,2.86,5.75a6.54,6.54,0,0,0-.65,1.33c-1.68,5.84-1.69,5.89-7.39,3.58C517.77,85.35,515.89,84.26,514,83.29Z"/><path class="cls-19" d="M564.05,113.44c-1.87,1.5-3.59,4.07-6,.7a1.47,1.47,0,0,0-1.33-.15c-3.32,1.48-3.43,1.4-3.63-3,0-.82,0-1.63,0-2.45,2.94-3.75,5.46-3,7.83.64C561.84,110.66,563,112,564.05,113.44Z"/><path class="cls-20" d="M548.83,125.54c-1.66-.75-3.34-1.47-5-2.25-.52-.25-1.25-.57-1.38-1-.88-2.91-1.62-5.87-2.4-8.81l6.45-2.33Z"/><path class="cls-21" d="M525.1,59.64c0-1.71,0-3.42,0-5.13,1.66,0,3.53-.44,4.92.19,1.82.82,3.29,2.48,4.8,3.88a3.07,3.07,0,0,1-1.17,1.72c-2,.69-4,3.65-6.37.45C526.8,60.17,525.82,60,525.1,59.64Z"/><path class="cls-19" d="M488.47,92.14l-8.59-3Z"/><path class="cls-20" d="M530.89,113.78c-.32.89-.65,1.78-1,2.66l-2.29-1-.48-1.12Z"/><path class="cls-35" d="M475.08,543.15c-.21,10.08,4.44,18.05,11,25.19-.36,3.36-.72,6.71-1.09,10.07-.66.6-1.65,1.08-1.93,1.83-3.65,10-7.26,20-3.22,30.76a3.71,3.71,0,0,1,.18,2.44c-2.06,4.76.85,7.39,4.09,9.92l.12,5.26q.36,2.91.71,5.82c-.45,1.25-1.36,2.54-1.26,3.74a36.18,36.18,0,0,0,1.48,6.06l-.06.06c-8.41.35-16.82.65-25.23,1.13a6.16,6.16,0,0,0-2.95,1.6c-8.8,6.82-11.48,16.71-12.54,27-.32,3.07,1.61,7.07,3.76,9.55,6,6.92,12.94,13,19,19.91,4.23,4.8,7.67,10.31,11.37,15.57,1.66,2.35,3.09,4.85,4.62,7.28-6.48,0-13,.19-19.44-.07-1.68-.07-3.39-1.39-4.93-2.37-8.08-5.15-10.74-14.61-16.89-21.36s-12.16-13.67-17.1-21.25c-6.84-10.49-13.78-20.93-16.16-33.87-.86-4.7.56-8,1.35-12,2.26-11.43,10.12-19.66,16.05-29,7.55-11.91,14.69-24.11,22.89-35.55,6.45-9,14.17-17.07,21.51-25.4C471.44,544.25,473.49,543.9,475.08,543.15ZM438,662.12c-2.07,2.65-3.52,3.69-3.81,5-1.34,6,1.71,10.92,4.42,15.83.37.67,1.93.9,2.94.89.4,0,1.15-1.22,1.13-1.87a125.47,125.47,0,0,0-.76-13.72C441.71,666.56,440,665.08,438,662.12Zm21.64-18.6.2-1.25c4.08,0,8.16.11,12.23-.08.89,0,1.78-1.07,2.53-1.8.12-.12-.5-1.47-.85-1.51-5.11-.55-10.23-1.17-15.35-1.25-.91,0-1.85,2.36-2.78,3.62Z"/><path class="cls-35" d="M545.16,726.35c-10.94,0-21.89.18-32.83-.1-3.61-.09-7.19-1.37-10.79-2.11l-6.17-18.83-7.29-27q-.63-5.5-1.27-11c-.11-2.29-.23-4.59-.34-6.89,2.14-1.17,2.1-2.22-.18-3.15q-.84-3.86-1.7-7.7l.51-2.31,0-2.93.06,0c6.37,2.1,12.64,4.59,19.13,6.21,9.77,2.45,19.77,4.08,27.59,11.28a31.29,31.29,0,0,0,4,2.71l5.05,3.82,6.22,3.79L558,679.32v2.91l-6.88.17c-4.44-.89-7.27.62-7,5.44C544.79,700.67,542.63,713.57,545.16,726.35Z"/><path class="cls-22" d="M495.37,705.31l6.17,18.83-5.33,2.05c-1.59-3-2.81-6.29-4.83-9q-10.26-13.65-21.05-26.9c-1.09-1.34-3.34-1.69-5-2.63-1.09-.63-2.79-1.36-2.93-2.26-.45-2.68-.21-5.47-.35-8.22-.11-2.14-.39-4.27-.59-6.41-1.15,1.55-2,3.46-3.5,4.57-2,1.52-4.53,2.43-6.82,3.6-.36-1.67-1.45-3.63-.93-5,1.42-3.75,3.83-7.12,5.26-10.87,2.4-6.29,8.22-8.2,13.32-11,.38-.22,1.44.78,2.19,1.22-.26,1.17-.51,2.34-.77,3.51l2.8-2.36,1.2,3.37-.06,1.46-.05-.07,2.42.93c1.47,1.23,2.85,2.58,4.42,3.66,1.87,1.28,3.9,2.34,5.85,3.5q.65,5.49,1.27,11c-1.38-.37-2.78-1.11-4.12-1a69.12,69.12,0,0,0-7.64,1.26c1.59,1.27,3.22,2.5,4.75,3.85a8.36,8.36,0,0,1,1.95,2.33c3,6,5.92,12.08,9.07,18C492.68,703.85,494.25,704.46,495.37,705.31Z"/><path class="cls-22" d="M573,680.6c2.14,1.95,4.19,4,6.43,5.81s2.15,4,0,4.76c-4.36,1.64-2.68,4.76-2.08,7.18.9,3.6,2.18,6.86-2,9.28-.58.33-1.22,1.85-1,2,5.22,5.22-.25,11,.89,16.36l-16,.15c0-1-.34-2.18.09-2.94,3.79-6.72,1.11-14.2,2.56-21.23.87-4.22,0-8.81-.13-13.23-.07-2.12-.33-4.24-.51-6.36l3.7-1.86Z"/><path class="cls-36" d="M471,653.29c-.75-.44-1.81-1.44-2.19-1.22-5.1,2.85-10.92,4.76-13.32,11-1.43,3.75-3.84,7.12-5.26,10.87-.52,1.35.57,3.31.93,5,2.29-1.17,4.78-2.08,6.82-3.6,1.48-1.11,2.35-3,3.5-4.57.2,2.14.48,4.27.59,6.41.14,2.75-.1,5.54.35,8.22.14.9,1.84,1.63,2.93,2.26,1.64.94,3.89,1.29,5,2.63q10.77,13.26,21.05,26.9c2,2.68,3.24,6,4.83,9l-8,.09c-1.17-2.67-1.79-5.79-3.59-7.94-9.08-10.85-18.43-21.47-27.78-32.09a11,11,0,0,0-4-2.81c-6-2.41-8.14-6.35-6-12.45a60,60,0,0,1,5.36-12,18,18,0,0,1,7.13-6.71c4.66-2.1,9.82-3.13,14.83-4.37.48-.12,1.38,1.46,2.09,2.24l-.78,1.42-1.85,1.8Z"/><path class="cls-34" d="M476.21,650.17c-.71-.78-1.61-2.36-2.09-2.24-5,1.24-10.17,2.27-14.83,4.37a18,18,0,0,0-7.13,6.71,60,60,0,0,0-5.36,12c-2.17,6.1-.05,10,6,12.45a11,11,0,0,1,4,2.81c9.35,10.62,18.7,21.24,27.78,32.09,1.8,2.15,2.42,5.27,3.59,7.94l-5.06,0c-1.53-2.42-3-4.92-4.62-7.27-3.7-5.26-7.14-10.77-11.37-15.57-6.06-6.88-13-13-19-19.91-2.15-2.48-4.08-6.48-3.76-9.55,1.06-10.26,3.74-20.15,12.54-27a6.16,6.16,0,0,1,2.95-1.6c8.41-.48,16.82-.78,25.23-1.13l0,2.93-6,2.72-1.77.46Z"/><path class="cls-36" d="M561.19,682.41c.18,2.12.44,4.24.51,6.36.15,4.42,1,9,.13,13.23-1.45,7,1.23,14.51-2.56,21.23-.43.76-.08,1.95-.09,2.94l-8,.11c-.64-3.33-1.35-6.65-1.88-10-.17-1.08-.25-2.56.32-3.32,4.37-5.77,5.62-11.94,3.06-18.8-.14-.4-.11-1.25.05-1.31,3.26-1.16,1.29-2.81.55-4.5-.84-1.92-1.42-4-2.11-6l6.88-.17Z"/><path class="cls-34" d="M551.13,682.4c.69,2,1.27,4,2.11,6,.74,1.69,2.71,3.34-.55,4.5-.16.06-.19.91-.05,1.31,2.56,6.86,1.31,13-3.06,18.8-.57.76-.49,2.24-.32,3.32.53,3.35,1.24,6.67,1.88,10l-6,.07c-2.53-12.78-.37-25.68-1-38.51C543.86,683,546.69,681.51,551.13,682.4Z"/><path class="cls-18" d="M573,680.6l-8.06-.05L558,679.32l-10.86-7.26c-.77-4,1.82-3.29,4.14-3l3.38,1.45a.9.9,0,0,0,.3.87l2.5,1.41c8.24,3.63,16.72,4.78,25.52,2.38.09.43.18.85.28,1.28C581.06,680.93,576.15,678.62,573,680.6Z"/><path class="cls-32" d="M535.31,417c-2.67,3.61-5.54,7.08-7.94,10.86-3.55,5.58-6.3,11.73-10.26,17-2.9,3.83-7.21,6.59-10.9,9.82-.66-.51-1.3-1-2-1.51-7.65-5.4-7.81-6.07-2.26-13.5,1.49-2,4.7-3.64,4.79-5.55.21-4.47-1.13-9-1.59-13.53-.41-3.95-1-8-.51-11.87.37-2.78,2.19-5.52,3.84-7.94s3.67-6,6.2-6.73c3.83-1.13,5.57-3.39,6.74-6.52,2.33-6.27,3.94-12.85,6.74-18.89,3.47-7.49,1.28-17.32,9.53-22.88.95-.63.93-2.7,1.36-4.1l2.93.24,4,.6c4,1.84,8,3.76,12.11,5.5,2.56,1.09,5.23,1.91,7.85,2.84l.84.74c.1,1.24.19,2.48.29,3.72l-1.92,2.15-2,1.8-2.24,3.24-1,6.21c-4.54-.68-3.64,3.52-5.05,5.64q-.94,3.06-1.87,6.12c-4.45.38-4.22,4.1-5,7.07q-.55,2.49-1.09,5l-3.79,4.9-5.91,11Z"/><path class="cls-36" d="M539.08,341.6c-.43,1.4-.41,3.47-1.36,4.1-8.25,5.56-6.06,15.39-9.53,22.88-2.8,6-4.41,12.62-6.74,18.89-1.17,3.13-2.91,5.39-6.74,6.52-2.53.75-4.46,4.18-6.2,6.73s-3.47,5.16-3.84,7.94c-.52,3.86.1,7.92.51,11.87.46,4.53,1.8,9.06,1.59,13.53-.09,1.91-3.3,3.56-4.79,5.55-5.55,7.43-5.39,8.1,2.26,13.5.67.47,1.31,1,2,1.51a26.2,26.2,0,0,1-3.52,3.32c-4.79,3.14-5.36,2.87-5.8-2.65-.34-4.22-1-8.48-.64-12.64.26-2.84,1.85-5.68,3.32-8.24,1.61-2.79,3-4.93,1.09-8.52a38.57,38.57,0,0,1-3.5-12.28c-1.25-8.57,3.65-15.63,9.19-20.32,10.81-9.14,16-20.22,17.84-33.78a71.52,71.52,0,0,1,4.23-15.23c.62-1.68,3.06-2.67,4.67-4Z"/><path class="cls-35" d="M490,484.63q-.36-10.62-.71-21.24c2.44-.13,4.2-.12,3.24,3.46-.92,3.43-.89,7.11-1.27,10.68-.07,1.28-.13,2.55-.19,3.83l-1,3Z"/><path class="cls-36" d="M566.77,351.52l-.84-.74,3.92-1.48a.5.5,0,0,1,.5.52Z"/><path class="cls-36" d="M546,342.44l-4-.6Z"/><path class="cls-37" d="M567.64,346.63l1.17,1.13Z"/><path class="cls-37" d="M566,345.44l1.18.83Z"/><path class="cls-37" d="M557,342.16a2.17,2.17,0,0,1,0-.88c.32.4.64.8,1,1.21Z"/><path class="cls-38" d="M554.68,670.54l-3.38-1.45-8-6.12-7.18-5.17c-6.72-5.57-14.18-9.64-22.85-11.19-4.87-.88-9.8-1.44-14.64-2.42-5.95-1.21-11.72-2.88-13.71-9.75q-.35-2.91-.71-5.82c11,2.34,20.45-4.35,23-16.28.9-1.78,1.53-3.23,4.3-2.16,6.14,2.38,12.54,4.07,18.7,6.38,1.86.7,3.3,2.52,4.93,3.82.81,2.34,1.63,4.67,2.44,7a20.37,20.37,0,0,0,1.21,4.18c3.54,6.62,7.22,13.17,10.85,19.74-1.59,3.41,1.21,12.75,4.47,15.88C554.75,667.82,554.51,669.4,554.68,670.54Z"/><path class="cls-39" d="M598.18,663.35c.62,3.42-2.26,2.79-4,3.46-5.62,2.55-11,.76-16.18-1.29-4.73-1.86-9.26-4.24-13.88-6.4l-2-1.8-1.1-1.07a20.49,20.49,0,0,0-1.07-2.15c-4.89-7.66-10-15.22-14.65-23-1.92-3.18-3-6.84-4.55-10.28l3.53-1.77L565,620.11l4-.28c-1.58,4.66,2.57,7.14,4.66,9.62,4.05,4.81,6.34,10.18,8.17,15.9.59,1.84.85,2.23,3.1,2.37,2.58.15,5.08,2.3,7.55,3.71a18.88,18.88,0,0,1,4.12,2.93,5.9,5.9,0,0,1,1.5,3.25A43.89,43.89,0,0,1,598.18,663.35Z"/><path class="cls-38" d="M484.08,623.36c-3.24-2.53-6.15-5.16-4.09-9.92a3.71,3.71,0,0,0-.18-2.44c-4-10.8-.43-20.79,3.22-30.76.28-.75,1.27-1.23,1.93-1.83,0,7.38.91,14.59,5.94,20.34,2.61,3,6.18,5.08,9.17,7.74a23.74,23.74,0,0,1,2.92,3.83c-1.47,2.33-2.68,4.89-4.46,7C494.78,621.63,490.92,626.16,484.08,623.36Z"/><path class="cls-26" d="M484.08,623.36c6.84,2.8,10.7-1.73,14.45-6.08,1.78-2.07,3-4.63,4.46-7l4.2,2c-2.54,11.93-12,18.62-23,16.28Z"/><path class="cls-25" d="M540.73,620.83c1.5,3.44,2.63,7.1,4.55,10.28,4.69,7.77,9.76,15.33,14.65,23a20.49,20.49,0,0,1,1.07,2.15l-9.86-8.53c-2.11-4.58-4.19-9.17-6.35-13.73-.83-1.74-2-3.33-2.72-5.09a31,31,0,0,1-1.15-4.43l-3.36,2.92c-.81-2.34-1.63-4.67-2.44-7Z"/><path class="cls-35" d="M487.18,561.41q-1.49-9.54-3-19.08l2.86,0c.69,4.86,1.56,9.71,1.94,14.59C489.11,558.38,487.83,559.92,487.18,561.41Z"/><path class="cls-29" d="M487.05,542.36l-2.86,0q-.09-3.47-.19-6.93C488.75,536.09,486.53,539.83,487.05,542.36Z"/><path class="cls-23" d="M490.1,484.36l1-3Z"/><path class="cls-32" d="M527.62,115.47l2.29,1,.21,2.93c.85,3.25,1.86,6.45-1.37,9.18-.59.5-.42,1.86-.69,2.8-.82,2.79-1.62,5.59-2.55,8.34-1.11,3.28-2.64,6.1,1.13,9.3,1.8,1.52,1.8,5.39,2.19,8.26.21,1.55-.68,3.23-.7,4.86,0,1,.66,2,1,3a10.6,10.6,0,0,1,2.56-1.06,7.78,7.78,0,0,1,2.66.31c-.3,5.34,6.06,10.44.4,16.17-1.08,1.1-.15,4.32.21,6.5,0,.24,2.48.27,3.76.06a9,9,0,0,0,2.51-1.33c0,1.24,0,2.49-.07,3.73l-1,2.88q-1.05,3.28-2.12,6.59l-5.1,3.8c.19-1.8.46-3.59.53-5.4a28,28,0,0,0-.32-3.64c-1.09.13-2.4-.09-3.23.44-2.22,1.44-3,.8-2.92-1.59.08-3.4-1.34-3.34-4-2.17-4.87,2.14-9.8,4.71-14.95,5.46-2.57.37-6-2.52-8.27-4.77-.62-.62,1.64-4.27,2.78-6.42,1.33-2.51,2.88-4.91,4.34-7.37a4.77,4.77,0,0,0,.19-.85l2-1.94,2.78-1.29c1.1,1.48,2.13,3,3.34,4.42a19.62,19.62,0,0,0,2.6,2.18c1.64-3.24,5.5-8,4.52-9.43-3.71-5.39-2.2-10.94-2.2-16.34a49.49,49.49,0,0,1,2.15-15.64c1.08-3.17,4.74-5.39,2.82-9.6-.21-.47.92-1.9,1.72-2.42,3.13-2,2.22-3.19-.68-4.12l-.9-.21c-.58-1.21-1.16-2.42-1.75-3.63Z"/><path class="cls-36" d="M526.22,122.31c2.9.93,3.81,2.1.68,4.12-.8.52-1.93,1.95-1.72,2.42,1.92,4.21-1.74,6.43-2.82,9.6a49.49,49.49,0,0,0-2.15,15.64c0,5.4-1.51,10.95,2.2,16.34,1,1.43-2.88,6.19-4.52,9.43a19.62,19.62,0,0,1-2.6-2.18c-1.21-1.39-2.24-2.94-3.34-4.42a3.6,3.6,0,0,0-.11-1c4.87-10,7.07-20.4,4.1-31.41-.31-1.15-1.43-2.1-2.27-3.07a19.53,19.53,0,0,0-1.92-1.71,9.71,9.71,0,0,0,2.75-.65c2.09-1.23,4.38-2.39,5.9-4.18.4-.48-1.73-3-2.61-4.71-.48-.92-.78-1.93-1.17-2.9l4.42-.23c.25.84.5,1.68.76,2.53l1.29-1.55,2,0Z"/><path class="cls-36" d="M506.94,177.34c-1.46,2.46-3,4.86-4.34,7.37-1.14,2.15-3.4,5.8-2.78,6.42,2.23,2.25,5.7,5.14,8.27,4.77,5.15-.75,10.08-3.32,14.95-5.46,2.68-1.17,4.1-1.23,4,2.17-.06,2.39.7,3,2.92,1.59.83-.53,2.14-.31,3.23-.44a28,28,0,0,1,.32,3.64c-.07,1.81-.34,3.6-.53,5.4a20,20,0,0,1-3.34,2.1c-2.07.81-4,.47-3.31-2.3,1.3-5-1-4.28-4-2.89-.58.27-1.68.66-1.83.46-3.21-4.31-6.4-1.34-9.89-.37-4.55,1.27-14.87-3.24-15.45-6.88-.53-3.32.64-6.91,1.06-10.38Z"/><path class="cls-33" d="M500,164.37a28.49,28.49,0,0,0,3-1.68c.79-.57,1.65-2.08,2.07-1.94a8.17,8.17,0,0,1,3.51,2.35c.25.29-.7,2.18-1.51,2.69a53.53,53.53,0,0,1-5.62,2.65c-1.16.56-2.27,1.24-3.41,1.87h-3.94c-3.32-.59-6.74-1.94-9.94-1.53-2.74.36-4.69.31-5.68-2.13a39.59,39.59,0,0,1-2.1-8.28c-.08-.48,1.77-1.84,1.94-1.72a20.46,20.46,0,0,1,2.77,2.81c-2.37,4.33.8,5.66,3.84,5.76C489.92,165.4,495,164.7,500,164.37Z"/><path class="cls-22" d="M496.57,136.56a17.73,17.73,0,0,0,.45,3.75c1.18,3.59.22,5.38-3.77,5-1.44-.82-3.12-2.58-4.29-2.29-3.57.89-4.29-1-4-3.56.46-3.68,1.41-7.29,2.15-10.94a4.62,4.62,0,0,0,.86-.3l3.14-1c4.09-.52,3.68,2.78,4.37,5.15C495.86,133.72,496.21,135.14,496.57,136.56Z"/><path class="cls-34" d="M494.09,170.32H498c3.84,6,9.09,2.13,13.81,2a3.6,3.6,0,0,1,.11,1l-2.78,1.28-2,2a4.77,4.77,0,0,1-.19.85l-10.73,5.2Q495.15,176.42,494.09,170.32Z"/><path class="cls-34" d="M500,164.37c-5,.33-10.05,1-15.05.86-3-.1-6.21-1.43-3.84-5.76,5.22.65,10.46,1.15,15.63,2.06C497.93,161.75,498.89,163.38,500,164.37Z"/><path class="cls-34" d="M487.14,128.49c-.74,3.65-1.69,7.26-2.15,10.94-.32,2.6.4,4.45,4,3.56,1.17-.29,2.85,1.47,4.29,2.29-1.31.08-3.08-.36-3.86.33-5.95,5.19-6-.7-7.38-3.85C480.59,138.44,484,130,487.14,128.49Z"/><path class="cls-33" d="M486.45,118.05c-2.44,1-4,2.28-4.81,1.89a9.09,9.09,0,0,1-3.4-3.79c-.18-.33,2-2.61,2.32-2.45A48.29,48.29,0,0,1,486.45,118.05Z"/><path class="cls-20" d="M542.13,194.65l-1.35,3.08L538.1,199q1.06-3.3,2.12-6.59C540.86,193.15,541.49,193.9,542.13,194.65Z"/><path class="cls-17" d="M541,211.4l-.76,3.56-2.16-1.53Z"/><path class="cls-34" d="M491.14,127.14l-3.14,1c.5-.78,1-1.56,1.52-2.33Z"/><path class="cls-32" d="M523.09,124.4,521.8,126c-.26-.85-.51-1.69-.76-2.53Z"/><path class="cls-34" d="M526.22,122.31l-1.17,2.12c.09-.77.17-1.55.26-2.33C525.62,122.16,525.92,122.23,526.22,122.31Z"/><path class="cls-17" d="M541,210.43l1.32.48-1.33.43A5.52,5.52,0,0,1,541,210.43Z"/><path class="cls-40" d="M533.05,220.35l-.49,1.29c-.19-.42-.37-.84-.55-1.26Z"/><path class="cls-23" d="M489.05,297.4c.68-2.34,1.37-4.67,2.06-7,.67,1.29,7.33,5.8,6.64,10.06-1.14,6.9-2.95,13.71-4.75,20.49-.58,2.21-2,4.18-3.06,6.27-.57-1.9-1.56-3.79-1.59-5.7a41.19,41.19,0,0,1,1.08-7.75c.81-4.36,1.92-8.68,2.41-13.07C492,299.71,490,298.5,489.05,297.4Z"/><path class="cls-40" d="M531.89,315.24l-2.76,3.2Z"/><path class="cls-26" d="M509,70.14l-2.77.4c-4.55-2.08-5.2-4.26-2-7,.54-.47,1.91-.94,2-.78,2.77,3.86,6.16.23,9.16.82l-.27,2.88Z"/><path class="cls-29" d="M609.84,641.27c-.13.7-.27,1.4-.4,2.1l-2-1Z"/><path class="cls-20" d="M541.18,189.53l.07-3.73a9,9,0,0,1-2.51,1.33c-1.28.21-3.72.18-3.76-.06-.36-2.18-1.29-5.4-.21-6.5,5.66-5.73-.7-10.83-.4-16.17a7.78,7.78,0,0,0-2.66-.31,10.6,10.6,0,0,0-2.56,1.06c-.36-1-1-2-1-3,0-1.63.91-3.31.7-4.86-.39-2.87-.39-6.74-2.19-8.26-3.77-3.2-2.24-6-1.13-9.3.93-2.75,1.73-5.55,2.55-8.34.27-.94.1-2.3.69-2.8,3.23-2.73,2.22-5.93,1.37-9.18,3.09,2.68,4.36,5.52,2.29,9.69-1.35,2.71-1.73,6-2.15,9-.09.66,1.42,2.08,2.34,2.24,4.47.76,8.17-2,8.37-6.53.25-5.5,4.77-5,8-6.38l1,2.09c.58,1.41,1.17,2.81,1.76,4.22L553,134.9l2-.52,2.83-.28,5,.52c-.66,1.77-1.27,3.55-2,5.29s-1.11,3.56-3.61,2.94q-1.17,6.3-2.36,12.61c-.3,1.32-.61,2.65-.91,4v0c-1.71.71-3.36-4.74-5.19,0-1,2.62-.8,4.09,2.33,4.16-.62,3.49-1.25,7-1.85,10.47a6.61,6.61,0,0,0,0,1.4,8,8,0,0,0,1.62-.58c4.32-2.73,4.37-7,4-11.4l5-.09-.45,4.93c-.2.69-.4,1.37-.61,2.06q-.83,6.53-1.64,13.05.06,2.94.13,5.88l-4.36,2.86c.33-1.66.67-3.32,1-5,.14-.74.22-1.5.32-2.24l-3.26.53c-1.58-2.86-.36-4.91,1.87-6.75.36-.3.29-1.11.42-1.69-.57.09-1.4,0-1.68.29-2.66,3.21-5.18,6.53-7.83,9.75A22,22,0,0,1,541.18,189.53Zm1.42-13.2,1.93,2.9c.7-.55,1.94-1,2-1.67.37-3.05.43-6.13.59-9.2,0-.46,0-.91,0-1.37-.37.23-.94.38-1.08.71C544.88,170.42,543.83,173.18,542.6,176.33Z"/><path class="cls-33" d="M557.47,189.34q-.08-2.94-.13-5.88c1.92-1.51,3.81-3.09,5.81-4.51a5.59,5.59,0,0,1,2.72-1c1.28-.08,2.62.51,3.88.35,6.47-.82,6.47-.8,5.09,5.4-1.46,6.48-2.74,13-4.09,19.5l-1.72-1-3-1.72Z"/><path class="cls-36" d="M554.94,155.46q1.18-6.32,2.36-12.61c2.5.62,3-1.33,3.61-2.94s1.32-3.52,2-5.29l-5-.51.15-1.6c3.35-1.16,6.76-2.18,10-3.51,3.07-1.25,6.85,1.29,7,5.52.14,3.24-.66,6.52-1,9.79-.62.22-1.24.45-1.85.69-1,.79-2.45,1.39-2.89,2.41-1.48,3.49-3,6.31-7.58,4.2-.64-.29-1.94.66-2.84,1.19C557.5,153.61,556.24,154.56,554.94,155.46Z"/><path class="cls-32" d="M554.94,155.46c1.3-.9,2.56-1.85,3.91-2.66.9-.53,2.2-1.48,2.84-1.19,4.6,2.11,6.1-.71,7.58-4.2.44-1,1.9-1.62,2.89-2.41.25,6.48-2.68,11-8.26,14.22-1.57.9-2.59,2.77-3.86,4.2l-5,.09-3.85.11c-3.13-.07-3.34-1.54-2.33-4.16,1.83-4.78,3.48.67,5.19,0l1.27.37-1.28-.35C554.33,158.11,554.64,156.78,554.94,155.46Z"/><path class="cls-32" d="M559,170.41c.21-.69.41-1.37.61-2.06C559.39,169,559.19,169.72,559,170.41Z"/><path class="cls-31" d="M622.15,339.93a11.12,11.12,0,0,1,.79,1.14c1.92,4.05,3.87,8.09,5.69,12.19.28.64,0,1.54-.08,2.33-.83-.23-2.21-.23-2.4-.71-1.77-4.46-3.35-9-4.91-13.54C621.15,341.08,621.71,340.59,622.15,339.93Z"/><path class="cls-30" d="M558,132.51l-.15,1.6-2.83.27-1.92-1-1-1.05c-.34-.92-.67-1.85-1-2.77.19-1.87.35-3.74.59-5.61.14-1.1.41-2.19.62-3.29,1.17.62,3,1,3.38,1.91.84,2.26,1,4.78,1.44,7.18C557.36,130.66,557.71,131.58,558,132.51Z"/><path class="cls-36" d="M551.14,129.52c.33.92.66,1.85,1,2.77-.15.48-.29,1-.44,1.44-.59-1.41-1.18-2.81-1.76-4.22Z"/><path class="cls-41" d="M629.08,584.49c1.38-2.28-3.4-5.29.85-7.23.07.69.14,1.37.2,2.06,0,1.32,0,2.64,0,3.95Z"/><path class="cls-41" d="M627.06,589.38l1.87-3.17c0,.7,0,1.4,0,2.1Z"/><path class="cls-20" d="M630.08,583.27c0-1.31,0-2.63,0-3.95C630.12,580.64,630.1,582,630.08,583.27Z"/><path class="cls-27" d="M554.68,670.54c-.17-1.14.07-2.72-.59-3.35-3.26-3.13-6.06-12.47-4.47-15.88l.93.64c7.21,8.08,14.93,15.49,25.41,19.23,1.54.55,3.3.56,4.73,1.28,1,.5,1.55,1.8,2.31,2.74-8.8,2.4-17.28,1.25-25.52-2.38l-2.5-1.41A.9.9,0,0,1,554.68,670.54Z"/><path class="cls-28" d="M550.55,652l-.93-.64c-3.63-6.57-7.31-13.12-10.85-19.74a20.37,20.37,0,0,1-1.21-4.18l3.36-2.92a31,31,0,0,0,1.15,4.43c.75,1.76,1.89,3.35,2.72,5.09,2.16,4.56,4.24,9.15,6.35,13.73C550.94,649.13,550.75,650.54,550.55,652Z"/><path class="cls-25" d="M562.1,657.32l2,1.8Z"/><path class="cls-41" d="M627.12,590.33c0-.33,0-.65,0-1A3.5,3.5,0,0,1,627.12,590.33Z"/><path class="cls-25" d="M509,70.14l6.13-3.7,1.29,4.61Z"/><path class="cls-26" d="M484.91,634.44c2,6.87,7.76,8.54,13.71,9.75,4.84,1,9.77,1.54,14.64,2.42,8.67,1.55,16.13,5.62,22.85,11.19-.07,2.22-.15,4.43-.22,6.65a31.29,31.29,0,0,1-4-2.71c-7.82-7.2-17.82-8.83-27.59-11.28-6.49-1.62-12.76-4.11-19.13-6.21a36.53,36.53,0,0,1-1.48-6.07C483.55,637,484.46,635.69,484.91,634.44Z"/><path class="cls-33" d="M438,662.12c2,3,3.7,4.44,3.92,6.12a125.47,125.47,0,0,1,.76,13.72c0,.65-.73,1.87-1.13,1.87-1,0-2.57-.22-2.94-.89-2.71-4.91-5.76-9.85-4.42-15.83C434.49,665.81,435.94,664.77,438,662.12Z"/><path class="cls-33" d="M459.65,643.52l-4-2.27c.93-1.26,1.87-3.63,2.78-3.62,5.12.08,10.24.7,15.35,1.25.35,0,1,1.39.85,1.51-.75.73-1.64,1.76-2.53,1.8-4.07.19-8.15.08-12.23.08Z"/><path class="cls-32" d="M495.37,705.31c-1.12-.85-2.69-1.46-3.28-2.58-3.15-5.94-6-12-9.07-18a8.36,8.36,0,0,0-1.95-2.33c-1.53-1.35-3.16-2.58-4.75-3.85a69.12,69.12,0,0,1,7.64-1.26c1.34-.09,2.74.65,4.12,1Z"/><path class="cls-28" d="M543.29,663l8,6.12c-2.32-.32-4.91-1-4.14,3l-6.22-3.79C541.72,666.51,542.51,664.74,543.29,663Z"/><path class="cls-25" d="M543.29,663c-.78,1.77-1.57,3.54-2.35,5.3l-5.05-3.82c.07-2.22.15-4.43.22-6.65Z"/><path class="cls-19" d="M558,679.32l6.87,1.23-3.7,1.86-3.18-.18C558,681.26,558,680.29,558,679.32Z"/><path class="cls-22" d="M484.59,649.54l-5.51.41,6-2.72Z"/><path class="cls-26" d="M486.47,660.39l-.18-3.15C488.57,658.17,488.61,659.22,486.47,660.39Z"/><path class="cls-19" d="M473.58,653.39l-.55,1-2.8,2.37c.26-1.17.51-2.34.77-3.51Z"/><path class="cls-19" d="M474.12,659.2l2.42.93Z"/><path class="cls-19" d="M474.23,657.81l-.06,1.46Z"/><path class="cls-19" d="M477.31,650.41l-1.88,1.17.78-1.41Z"/><path class="cls-28" d="M555,671.41l2.5,1.41Z"/><path class="cls-22" d="M557.47,189.34l8.55,11.1a6.77,6.77,0,0,0,0,.9c-5.91-1.39-8.35-.24-11.19,4.83-.38.69-1.9.74-2.89,1.08-1.82-3.24-3.68-6.45-5.43-9.73a36.65,36.65,0,0,1-1.6-4l6.27-8.06,3.26-.53c-.1.74-.18,1.5-.32,2.24-.31,1.66-.65,3.32-1,5Z"/><path class="cls-27" d="M566,201.34a6.77,6.77,0,0,1,0-.9l3,1.72Z"/><path class="cls-37" d="M565.46,358.32l-2.34.88,2-1.81a4,4,0,0,1,.5.59S565.53,358.2,565.46,358.32Z"/><path class="cls-31" d="M551.15,185.51l-6.27,8.06-2.75,1.08c-.64-.75-1.27-1.5-1.91-2.24l1-2.88a22,22,0,0,0,2.75-2.42c2.65-3.22,5.17-6.54,7.83-9.75.28-.34,1.11-.2,1.68-.29-.13.58-.06,1.39-.42,1.69C550.79,180.6,549.57,182.65,551.15,185.51Z"/><path class="cls-36" d="M507.13,176.49l2-2Z"/><path class="cls-31" d="M551.18,163.62l3.85-.11c.34,4.4.29,8.67-4,11.4a8,8,0,0,1-1.62.58,6.61,6.61,0,0,1,0-1.4C549.93,170.6,550.56,167.11,551.18,163.62Z"/><path class="cls-31" d="M542.6,176.33c1.23-3.15,2.28-5.91,3.41-8.63.14-.33.71-.48,1.08-.71,0,.46.06.91,0,1.37-.16,3.07-.22,6.15-.59,9.2-.07.63-1.31,1.12-2,1.67Z"/><path class="cls-36" d="M553.09,133.34l1.92,1-2,.52C553,134.38,553.05,133.86,553.09,133.34Z"/><path class="cls-26" d="M553.09,133.34c0,.52-.08,1-.11,1.56l-1.28-1.17c.15-.48.29-1,.44-1.44Z"/><path class="cls-20" d="M554,159.44l1.28.35-1.27-.37Z"/></g><g id="Layer_7" data-name="Layer 7"><path class="cls-42" d="M502.44,259.4c1.45-2.84,3.1-5.61,4.32-8.55,4.11-9.91,9.81-18.53,18.78-24.77a73.89,73.89,0,0,0,6.47-5.7c.18.42.36.84.55,1.26l.49-1.29-.06.06a11.37,11.37,0,0,1,1.73,2.61c.57,1.75.84,3.6,1.24,5.4l-.09,5.83c-.59,1.21-1.62,2.4-1.7,3.64q-.72,11.4-1,22.83c-.16,5.76,0,11.53,0,17.29,0,7,0,14,0,21a5.87,5.87,0,0,1-.3,1.34,3.37,3.37,0,0,1-.63-.62c-.48-.84-.92-1.71-1.37-2.57-.22,1.25-.51,2.49-.63,3.74a20.34,20.34,0,0,0,0,3.49,17.17,17.17,0,0,0,.54,2.31,10.06,10.06,0,0,1,1.74-1.82c1.5-.93,3.11-1.69,4.68-2.52.33,1.37.66,2.74,1,4.11l-.88,1c-.77,1.26-1.54,2.51-2.3,3.77l-1.69.39-1,1.82-.35,1.79-2.76,3.2L528,321.39c-.06,1-.13,2-.19,3l3.31,6.94c-3.25-.43-6.49-1-9.75-1.25-9.21-.63-18.43-1.18-27.65-1.51a4.44,4.44,0,0,0-3.43,2.24c-2.28,6.31-3.72,13-6.47,19-1.49,3.29-3.88,6.14-4.05,10-3.27-2.38-2.7-5.39-2-8.86,1.91-9.14,3.39-18.37,5-27.57,0-.67.06-1.35.08-2,0-1.65,0-3.29.05-4.94,0-1,0-2,0-3.05l6.08-16c.94-3.22.94-3.22,2.06-7q3-6.5,5.95-13c.76-2.31,1.53-4.61,2.29-6.91.2-.7.39-1.4.59-2.1s.27-1.27.41-1.9l.45-2.11.48-2.9Z"/><path class="cls-43" d="M617,301.36q1.54,15,3.08,29.95,0,11.06.1,22.12-.18,25-.39,50c.1,4.4,0,8.81.34,13.19.84,11.23,2.27,22.43,2.73,33.68.71,17.1.53,34.25,1.27,51.35.37,8.58,2.1,17.09,2.91,25.65.83,8.75,1.36,17.52,1.88,26.29.44,7.28.69,14.57,1,21.86-5.28-.6-5-.55-4.16-4.8.29-1.42-.75-3.31-1.61-4.71-1.56-2.5-3.48-4.77-5.19-7.17-3.38-4.77-6.72-9.57-10.09-14.34a8.37,8.37,0,0,0-.82-.87,2.85,2.85,0,0,1,1-.18c3.33.73,6.81,1.12,9.9,2.43,1.17.5,1.42,3.12,2.13,4.76a7.82,7.82,0,0,0,.75,1.15c.34-.27,1-.67,1-.79-1.82-4.8-2.45-11.92-5.9-13.77-4.64-2.5-7.82-4.57-9.06-9.65-.28-1.13-1.74-1.92-2.42-3-2.19-3.47-4.38-7-6.36-10.56-1.15-2.11-1.51-4.7-2.88-6.61-2.17-3-3.11-5.35.05-8.5,1.8-1.81,1.3-4.33-1.72-5.43a24.19,24.19,0,0,1-3-1.56c1.14-.49,2.26-1.05,3.43-1.45s2.32-.36,3.27-.91a11.29,11.29,0,0,0,2.27-2.35,25.2,25.2,0,0,1-2.39-1.64c-1.81-1.58-3.62-3.17-5.31-4.87-2.07-2.07-.58-2.23,1.28-2.27,4.42-.08,8.85-.41,13.28-.33,5.25.09,4.71-4.47,5.74-7.34.5-1.39-1.12-3.57-1.9-5.35a1.43,1.43,0,0,0-1.27-.42c-.24.05-.58.86-.46,1.16,2.9,7.16-.55,4.52-3.69,2.42-.12-.09-.36,0-.48-.09-1.81-1.34-4-2.41-5.31-4.11-1.67-2.1-2.71-4.65,1.25-6,.49-.17.7-2.15.47-3.16-1.61-6.86-3.4-13.68-5-20.54-.07-.33,1.31-1.43,1.49-1.32,3.32,2.09,3-.63,2.69-2.25-.57-2.74-1.76-5.34-2.46-8a4.64,4.64,0,0,1,.59-2.68c.08-.2,1.27-.23,1.6.06a14.25,14.25,0,0,1,1.79,2.33,24.73,24.73,0,0,0,.59-3.78c.06-6.4-.09-12.81,0-19.22.13-5.78.38-11.57.85-17.34.33-4,1.12-7.92,1.71-11.87.41-2.7,1.39-5.46,1.1-8.08-.35-3.23-1.68-6.36-2.71-9.49-.71-2.14-1.29-3.45,1.57-5.08,4.37-2.5,3.92-5.12-.37-7.64-1.08-.64-2.58-1.27-2.95-2.26-1.25-3.33.15-7.92-4.79-9.37,1.59-4.56-2.54-9.42,1-14.06,1.57-2.05,2-5,2.84-7.59a6.24,6.24,0,0,0,.07-1.84c-.59.42-1.21.8-1.76,1.27s-1.12,1.05-1.68,1.59a16.89,16.89,0,0,1-.87-2.6,4.25,4.25,0,0,1,.1-2.46c4.74-9.12,2.3-18.94,2.81-28.47a31.54,31.54,0,0,0-.7-6.37c-.08-.53-.65-1-1-1.48a10.58,10.58,0,0,0-.24,1.46c-.09,7.41-.16,14.82-.27,22.22a6.36,6.36,0,0,1-.53,1.69,6.5,6.5,0,0,1-1.21-1.19,18.56,18.56,0,0,1-1-2.27c0-8.84.57-17.74-.18-26.52-.49-5.65-2.88-11.14-4.49-16.69-.15-.49-.88-.82-1.34-1.22-.25.51-.79,1.08-.71,1.54,1.37,8.63,2.84,17.24,4.24,25.86.35,2.13.53,4.28.79,6.43-1-1.71-2-3.44-3.11-5.12a18.63,18.63,0,0,0-1.38-1.7,8.3,8.3,0,0,0-.37,2.17c.48,5.09,1,10.17,1.59,15.26l0,4.07q-1.49,9.45-3,18.91l-6.15,17.9-7,18-3.56,2.53a.5.5,0,0,0-.5-.52l-1-1.54-1.17-1.13a.9.9,0,0,1-.5-.36l-1.18-.83,0,0-1-2-1.43-5.39c1.22.91,2.35,2.41,3.68,2.6,1.68.24,3.52-.59,5.29-1a35.44,35.44,0,0,1-2.19-3.56c-.47-1-1.21-2.69-.83-3.08,5.57-5.59-.41-14,5.2-20,1.58-1.69-.37-6.59-.49-10-.08-2.12.33-4.25.37-6.37a18.18,18.18,0,0,0-.29-4.73c-.58-2.34-1.64-4.55-2.24-6.89-.51-1.95-.67-4-1-6,0,1.78,0,3.55-.05,5.33,0,.65-.15,1.3-.22,2-.24-.12-.63-.19-.7-.38-1-2.6-3.09-5.5-2.55-7.77.9-3.77,1.13-6.47-2.14-9.11-.74-.59-.2-2.76-.25-4.21,1.38,0,3.05-.57,4.07,0,1.4.82,2.34,2.45,3.4,3.8a8.52,8.52,0,0,1,.79,1.79,9,9,0,0,0,1-2c.2-.92-.16-2,.21-2.84a32.14,32.14,0,0,1,2.54-4c.33,1.25.66,2.51,1,3.76.24.86.51,1.71.77,2.57.64-.61,1.78-1.16,1.86-1.84.55-4.29,5.94-8.12,1.36-12.95a1,1,0,0,1,.07-.94c3.28-3.63.72-7.21-.14-10.75a15.32,15.32,0,0,0-1.94-3.56,24.55,24.55,0,0,0-2,4.21c-.23.84.41,1.9.54,2.87.44,3.27.94,6.53,1.16,9.81,0,.68-1,1.44-1.61,2.16a10.13,10.13,0,0,1-1.19-2.34c-.41-1.91-.4-4-1-5.79-.27-.84-1.58-1.34-2.42-2-.34.95-.68,1.9-1,2.85-.28.77-.54,1.55-.81,2.32-.6-.69-1.56-1.31-1.75-2.1-1-4.33-2-8.69-2.59-13.08-.13-.9,1.92-2.94,2-2.9,3.94,2.53,4.88-2.2,7.38-3a17.16,17.16,0,0,1,3.1-1c3.42-.42,4.37-2.65,3.64-6.24-.39-1.91.89-4.16,1.41-6.26l1.2,1q3.88,6.38,7.79,12.75c3.7,8.86,8.07,17.5,10.95,26.62C609.48,272.16,613,286.83,617,301.36Zm-14.39,1.31a1.36,1.36,0,0,0,.13-.42c0-.05-.23-.09-.35-.13a1.13,1.13,0,0,0-.13.42S602.49,302.63,602.62,302.67Z"/><path class="cls-43" d="M585,217.42c-.52,2.1-1.8,4.35-1.41,6.26.73,3.59-.22,5.82-3.64,6.24a17.16,17.16,0,0,0-3.1,1c-2.5.78-3.44,5.51-7.38,3-.05,0-2.1,2-2,2.9.61,4.39,1.58,8.75,2.59,13.08.19.79,1.15,1.41,1.75,2.1.27-.77.53-1.55.81-2.32.33-1,.67-1.9,1-2.85.84.65,2.15,1.15,2.42,2,.6,1.84.59,3.88,1,5.79a10.13,10.13,0,0,0,1.19,2.34c.57-.72,1.65-1.48,1.61-2.16-.22-3.28-.72-6.54-1.16-9.81-.13-1-.77-2-.54-2.87a24.55,24.55,0,0,1,2-4.21,15.32,15.32,0,0,1,1.94,3.56c.86,3.54,3.42,7.12.14,10.75a1,1,0,0,0-.07.94c4.58,4.83-.81,8.66-1.36,12.95-.08.68-1.22,1.23-1.86,1.84-.26-.86-.53-1.71-.77-2.57-.34-1.25-.67-2.51-1-3.76a32.14,32.14,0,0,0-2.54,4c-.37.81,0,1.92-.21,2.84a9,9,0,0,1-1,2,8.52,8.52,0,0,0-.79-1.79c-1.06-1.35-2-3-3.4-3.8-1-.59-2.69,0-4.07,0,.05,1.45-.49,3.62.25,4.21,3.27,2.64,3,5.34,2.14,9.11-.54,2.27,1.59,5.17,2.55,7.77.07.19.46.26.7.38.07-.65.2-1.3.22-2,0-1.78,0-3.55.05-5.33.32,2,.48,4.07,1,6,.6,2.34,1.66,4.55,2.24,6.89a18.18,18.18,0,0,1,.29,4.73c0,2.12-.45,4.25-.37,6.37.12,3.44,2.07,8.34.49,10-5.61,6,.37,14.42-5.2,20-.38.39.36,2.11.83,3.08a35.44,35.44,0,0,0,2.19,3.56c-1.77.37-3.61,1.2-5.29,1-1.33-.19-2.46-1.69-3.68-2.6q.71,2.69,1.43,5.39l-6.37-.7a.89.89,0,0,1-.67-.26c-.31-.41-.63-.81-1-1.21,1.14-5.07-4.69-5.84-5.85-9.49-1.81,2.5-4.7-4.41-6.2.71l-3.06-3.12a27.05,27.05,0,0,0,1.82-3.5c.29-.82-.16-1.95.22-2.68,1.4-2.7,3.32-5.17,4.39-8,.46-1.21-.66-3-1.06-4.58-1.73.63-3.67.93-5.11,2s-2.51,2.85-3.74,4.32l-2.33-5.5c.37-1.32.75-2.64,1.12-4l.88-1c.62-.21,1.66-.26,1.79-.65,1.54-4.33,3.38-8.63,4.23-13.12.49-2.66-.85-5.61-1-8.45q-.68-12.16-1-24.33a125.92,125.92,0,0,1,.11-15.3c.21-2.3,2-4.44,3.1-6.65l.87,1.15c.28-.31.8-.61.81-.93.13-3.9.18-7.8.25-11.71q-.24-3.09-.49-6.2l-.17-4.62c.91-2.34,1.81-4.67,2.72-7l2.63-1.37c1-.34,2.51-.39,2.89-1.08,2.84-5.07,5.28-6.22,11.19-4.83l3,.82,1.71,1c3.29,2.63,6.76,5.07,9.8,8C582.37,212.85,583.53,215.29,585,217.42Zm-20.17-5.93-.57-2.3c-1.11-.23-2.54-1-3.29-.59a42.18,42.18,0,0,0-7.2,5.09c-1.09,1-1.5,2.69-2.22,4.07,1.36-.21,2.73-.4,4.08-.64s2.8-.18,3.79-.87A59.05,59.05,0,0,0,564.82,211.49Z"/><path class="cls-43" d="M546.56,215.62l.18,4.62c-2.72,1.39-5.19,1.66-7.76-.65-1.25-1.13-3.23-1.43-4.89-2.1l4-4.06,2.16,1.53.76-3.56,0-.06,1.33-.43-1.32-.48c-.29-1.8-1.41-4.73-.74-5.22,3.47-2.52,2.27-4.87.51-7.48l1.35-3.08,2.75-1.08a36.65,36.65,0,0,0,1.6,4c1.75,3.28,3.61,6.49,5.43,9.73l-2.63,1.37C544.85,209.58,545.14,212.38,546.56,215.62Z"/><path class="cls-43" d="M534.09,217.49c1.66.67,3.64,1,4.89,2.1,2.57,2.31,5,2,7.76.65l.48,6.2-11.26,2c-.4-1.8-.67-3.65-1.24-5.4a11.37,11.37,0,0,0-1.73-2.61C533.36,219.44,533.73,218.46,534.09,217.49Z"/><path class="cls-43" d="M536,228.42l11.26-2c-.07,3.91-.12,7.81-.25,11.71,0,.32-.53.62-.81.93l-.87-1.15c-1.08,2.21-2.89,4.35-3.1,6.65a125.92,125.92,0,0,0-.11,15.3q.34,12.17,1,24.33c.15,2.84,1.49,5.79,1,8.45-.85,4.49-2.69,8.79-4.23,13.12-.13.39-1.17.44-1.79.65-.34-1.37-.67-2.74-1-4.11.31-22.7.94-45.41-1.21-68.07Z"/><path class="cls-43" d="M543,576.38c0-1,0-2.07,0-3.1,2.81.85,5,1.22,3.6-3.11-.46-1.46.3-3.31.51-5,5.47,6.64,11.24,12.79,19.54,16.19,6.18,2.54,12,6,18,8.84,1.08.51,2.61.07,3.93.06-.7-1.18-1.12-2.85-2.16-3.47-6.68-4-13.6-7.52-20.2-11.59a24.1,24.1,0,0,1-6.74-6.42c-1.41-2-.74-3.95,2.44-3.39l2.17,1.8.83.2c2.85,1.73,6.2,3,8.45,5.28,7.13,7.32,18.24,5.41,25.79,11.59a6.11,6.11,0,0,0,4.09,1.52c2.45-.36,4.79-1.45,7.18-2.24-1.32-1.31-2.47-2.89-4-3.85-1.32-.83-3.13-.85-4.65-1.42s-2.64-1.37-4-1.91c-5-2-7.91-7.53-13.74-8.08l-3-2c.86-.8,0-3.86-1.34-4.83-.53-.39-1-.91-1.46-1.35-3.63-3.24-7.32-6.43-10.86-9.76a10.54,10.54,0,0,1-2.31-3.54c-.2-.47.55-1.34.86-2a17.78,17.78,0,0,0,3.29,2.39,16.87,16.87,0,0,0,3.94.76c-.43-1.07-.6-2.41-1.35-3.16-2.32-2.32-5.78-4-7.12-6.71-2.36-4.81-6.37-6.8-10.73-8.72,0-.34,0-.67,0-1,.92-2.49,2.21-4.91,2.68-7.48.61-3.34,1.79-3.75,4.48-1.93a25,25,0,0,0,4.32,1.88c-.39-1.66-.68-3.34-1.18-5-1-3.34-2.17-6.3-5.37-8.71-1.58-1.19-2.11-6.9-.8-8.16,2.76-2.64,2.27-5.1,1.35-7.53-1.35-3.56-3.44-6.84-5.21-10.23-.44-1.26-.87-2.52-1.3-3.79,2.07-4.07,4.07-3.61,6.06.08a7,7,0,0,0,1.16,1.29c.23-.53.69-1.08.64-1.59-.52-5.81-.69-11.7-1.81-17.4-1.66-8.51-3.79-16.94-6.2-25.26-.6-2.08-3-3.63-4.58-5.42-.36-2.89-.73-5.79-1.09-8.68v0l5.73,8.06,2.49,5.3c-.12-1.81-.24-3.63-.35-5.44-1.3-6.07-2.41-12.2-4-18.19-.42-1.57-2.31-2.74-3.52-4.09l-.65-13.62q.54-2.49,1.09-5l3,7,7.71,15.34c.71,1.43,1.4,2.87,2.11,4.3.1-1.29.19-2.58.32-3.86a3.26,3.26,0,0,1,.27-.89c4.63,1.14,1.88-2.63,2.68-4h0c1,.43,2.24.61,2.84,1.34,4.68,5.69,9.37,11.39,13.74,17.32,2.26,3.06,3.83,6.63,5.78,9.94,2.19,3.71,1.83,9.31,8.41,10.71.42.12.05-.08-.33-.28-.09.28-.35.71-.25.83a3.75,3.75,0,0,0,1,.66c.11-.26.22-.52-.43-1.21-.56-6-5.8-10.54-4.14-16.58.16-.58-1-1.59-1.69-2.32-2.34-2.58-4.91-5-7.05-7.71-5.42-6.95-10.63-14.06-16-21-.48-.62-1.83-.56-2.77-.81L562,391.38c-1.87-4.31-2.14-10-8.85-10.08a4.63,4.63,0,0,0-.18-.9q.93-3.06,1.87-6.12c1.45,1.37,3.2,2.55,4.3,4.16,2.68,3.92,4.91,8.16,7.61,12.07,3.69,5.33,7.64,10.49,11.52,15.69.33.44,1,.63,1.53.94.2-.65.78-1.5.56-1.92-2-3.79-3.93-7.65-6.28-11.22-3.11-4.72-6.58-9.19-9.89-13.77,2.93,2.21,5.82,4.5,8.83,6.59a13.27,13.27,0,0,0,3.4,1.18c0-1.22.46-2.58.06-3.63-.9-2.42-2.2-4.68-3.34-7l-1-5.92c3.75,6.92,7.43,13.88,11.28,20.73a46.32,46.32,0,0,0,4.81,6.82c.59.7,2,.75,3,1.1a13,13,0,0,0-.41-3.1c-1-2.59-2.21-5.08-3.25-7.64-3.93-9.65-6.52-20.2-17.25-25.19l-4.84-5.84c.07-.12.22-.29.18-.34a4,4,0,0,0-.5-.59l1.92-2.15c2.36,1.95,4.69,3.94,7.12,5.8a1.69,1.69,0,0,0,1.54-.28c1.45-4.44,2.93-1.44,4.12.05,1.52,1.91,2.78,4,4.19,6.05a4.54,4.54,0,0,0,1.06.8c.24-.38.7-.77.68-1.13-.07-1.62.12-3.41-.52-4.8a74.47,74.47,0,0,0-4.33-7.35c4.83,2,9.42.68,13.92-1.15.74-.3,1.2-1.32,1.8-2-.71-.59-1.33-1.47-2.14-1.71-2.83-.84-5.77-1.33-8.59-2.23-.93-.29-1.61-1.4-2.4-2.14.72-.62,1.42-1.26,2.16-1.86s1.27-.94,1.9-1.4a14.54,14.54,0,0,0-1.94-1.75C583.83,339,582,338,580.12,337l4.28-1.22c-.38-.77-1.25-2.06-1.06-2.24a41.18,41.18,0,0,1,4.17-3.21c-1.53-.3-3-.63-4.58-.89a16.48,16.48,0,0,0-2-.11l6.15-17.9c3.22,1.55,5,.25,5.74-3s1.59-6.42,2-9.68c.49-3.5-.26-6.42-4.79-6.26,0-1.36,0-2.72,0-4.07h5a18.56,18.56,0,0,0,1,2.27,6.5,6.5,0,0,0,1.21,1.19,6.36,6.36,0,0,0,.53-1.69c.11-7.4.18-14.81.27-22.22a10.58,10.58,0,0,1,.24-1.46c.34.49.91.95,1,1.48a31.54,31.54,0,0,1,.7,6.37c-.51,9.53,1.93,19.35-2.81,28.47a4.25,4.25,0,0,0-.1,2.46,16.89,16.89,0,0,0,.87,2.6c.56-.54,1.09-1.1,1.68-1.59s1.17-.85,1.76-1.27a6.24,6.24,0,0,1-.07,1.84c-.86,2.58-1.27,5.54-2.84,7.59-3.55,4.64.58,9.5-1,14.06,4.94,1.45,3.54,6,4.79,9.37.37,1,1.87,1.62,2.95,2.26,4.29,2.52,4.74,5.14.37,7.64-2.86,1.63-2.28,2.94-1.57,5.08,1,3.13,2.36,6.26,2.71,9.49.29,2.62-.69,5.38-1.1,8.08-.59,3.95-1.38,7.9-1.71,11.87-.47,5.77-.72,11.56-.85,17.34-.14,6.41,0,12.82,0,19.22a24.73,24.73,0,0,1-.59,3.78,14.25,14.25,0,0,0-1.79-2.33c-.33-.29-1.52-.26-1.6-.06a4.64,4.64,0,0,0-.59,2.68c.7,2.71,1.89,5.31,2.46,8,.33,1.62.63,4.34-2.69,2.25-.18-.11-1.56,1-1.49,1.32,1.61,6.86,3.4,13.68,5,20.54.23,1,0,3-.47,3.16-4,1.39-2.92,3.94-1.25,6,1.35,1.7,3.5,2.77,5.31,4.11.12.08.36,0,.48.09,3.14,2.1,6.59,4.74,3.69-2.42-.12-.3.22-1.11.46-1.16a1.43,1.43,0,0,1,1.27.42c.78,1.78,2.4,4,1.9,5.35-1,2.87-.49,7.43-5.74,7.34-4.43-.08-8.86.25-13.28.33-1.86,0-3.35.2-1.28,2.27,1.69,1.7,3.5,3.29,5.31,4.87a25.2,25.2,0,0,0,2.39,1.64,11.29,11.29,0,0,1-2.27,2.35c-1,.55-2.2.54-3.27.91s-2.29,1-3.43,1.45a24.19,24.19,0,0,0,3,1.56c3,1.1,3.52,3.62,1.72,5.43-3.16,3.15-2.22,5.47-.05,8.5,1.37,1.91,1.73,4.5,2.88,6.61,2,3.6,4.17,7.09,6.36,10.56.68,1.1,2.14,1.89,2.42,3,1.24,5.08,4.42,7.15,9.06,9.65,3.45,1.85,4.08,9,5.9,13.77.05.12-.63.52-1,.79a7.82,7.82,0,0,1-.75-1.15c-.71-1.64-1-4.26-2.13-4.76-3.09-1.31-6.57-1.7-9.9-2.43a2.85,2.85,0,0,0-1,.18,8.37,8.37,0,0,1,.82.87c3.37,4.77,6.71,9.57,10.09,14.34,1.71,2.4,3.63,4.67,5.19,7.17.86,1.4,1.9,3.29,1.61,4.71-.88,4.25-1.12,4.2,4.16,4.8,0,.61,0,1.21,0,1.82-4.25,1.94.53,5-.85,7.23l-.15,1.72-1.87,3.17v0c0,.32,0,.64,0,1,.25,6.13-1.34,11.41-6.88,14.86l-2,1.3-9.86,5.26L569,619.83l-4,.28c1.08-7.66,1.09-7.64,8.43-8.9a10.36,10.36,0,0,0,2.82-.92c.45-.22.71-.84,1.06-1.28-.41-.21-.81-.58-1.23-.6a35.26,35.26,0,0,0-4.48-.06c-7.41.47-11-2.34-11.84-9.59,0-.31,1.06-1.12,1.57-1.07,2.69.26,5.37.72,8,1.11-1.43-2.29-2.47-5-4.37-6.77-3.07-2.88-7.43-4.58-7.61-9.72,0-.35-.62-.68-.95-1-.14.44-.26.89-.41,1.32-.41,1.12-.82,2.24-1.24,3.35-1.22-.77-2.5-1.47-3.64-2.35-1.77-1.36-3.45-2.84-5.16-4.27l-2.32-1.82Zm44.09-123.83c-.32-1.18-.38-1.51-.49-1.81l-7.47-19.65c-.22-.59-.42-1.19-.63-1.79-.17.61-.38,1.22-.52,1.84-1.31,5.95.67,11.22,3.23,16.42.52,1.07.28,2.48.65,3.66.24.77.91,1.94,1.47,2A13.91,13.91,0,0,0,587.06,452.55Zm-9.75,40.14c-.6-1.47-.72-2.78-1.39-3.21-3.71-2.35-7.54-4.5-11.38-6.61-.15-.08-1.26.89-1.27,1.39-.07,4.54,7.13,10.81,11.48,10A9,9,0,0,0,577.31,492.69Zm3.47-23.41,5-2.19c-.93-.95-1.82-1.94-2.78-2.85a18.24,18.24,0,0,0-3.24-2.75,13.92,13.92,0,0,0-3.52-.93c-.16,1.12-.84,2.62-.36,3.31A51.13,51.13,0,0,0,580.78,469.28ZM576.52,482c.74-1.21,1.21-1.76,1.12-1.87-.67-.84-1.44-1.59-2.19-2.38-.33.39-1,1-.94,1.14A29,29,0,0,0,576.52,482Zm-6.43-10.65a8.81,8.81,0,0,0-.82,2.41c0,.41.93,1.27,1,1.21a18.43,18.43,0,0,0,2.16-1.62ZM601.26,342c.12-.28.39-.62.31-.83s-.51-.26-.79-.38c-.12.28-.4.62-.32.83S601,341.91,601.26,342ZM597,310.92l-.39-.77c-.15.23-.41.47-.42.71s.22.51.34.77ZM600.73,345a1.33,1.33,0,0,0,.42.12c.05,0,.09-.22.13-.34a1.13,1.13,0,0,0-.42-.13C600.81,344.64,600.77,344.86,600.73,345Z"/><path class="cls-43" d="M573.91,347.29l7,7.09a74.47,74.47,0,0,1,4.33,7.35c.64,1.39.45,3.18.52,4.8,0,.36-.44.75-.68,1.13a4.54,4.54,0,0,1-1.06-.8c-1.41-2-2.67-4.14-4.19-6.05-1.19-1.49-2.67-4.49-4.12-.05a1.69,1.69,0,0,1-1.54.28c-2.43-1.86-4.76-3.85-7.12-5.8-.1-1.24-.19-2.48-.29-3.72l3.58-1.7Z"/><path class="cls-42" d="M491.25,477.53c3-3.51,3.8-11.8,1.59-15.44-.32-.53-.73-1.38-.52-1.78,3.38-6.69,5.58.77,10.37-2.37a26.2,26.2,0,0,0,3.52-3.32c3.69-3.23,8-6,10.9-9.82,4-5.24,6.71-11.39,10.26-17,2.4-3.78,5.27-7.25,7.94-10.86l.5,1.09,1.94,5.61c.13.55.26,1.09.38,1.63q1.07,8,2.12,16l.32,2.87,2.58,27.09,3.34,4.11c-.17,3.33-.33,6.65-.49,10-1.3.9-3.8,2-3.69,2.66.49,3.16-2.69,7.28,2.09,9.44,0,1.26,0,2.52,0,3.77a17.2,17.2,0,0,0-3.87-.47c-.75.07-2,1-2,1.46.09,4.29.51,8.57.64,12.86a14.07,14.07,0,0,1-.64,5.43c-2.39,6.08-.71,11.14,3.37,15.75l.25,4.08q.39,14.91.77,29.82c-2.64-2.24-5.28-4.47-7.91-6.72,4.37-1.6,6.6-6.71,4.52-10.71a2.13,2.13,0,0,0-4,.94c-.32,3.23-.38,6.49-.54,9.74l-5.83-.08c-3-.48-7-2.92-7.93,2.33s-6.32.58-7.79,3.88c-.44,1-.19,2.28-.32,3.43-.41,3.6-.09,7.51-1.43,10.73-3.27,7.86,4.37,16.5,11.26,17.6,2.69.43,5.32,1.22,8,1.85.12-2.63.12-5.26.42-7.87.1-.86,1-1.63,1.49-2.44.71.6,1.67,1.07,2.06,1.83a7.13,7.13,0,0,1,1,3.64c-.66,7,.43,8.59,7.24,10q.6,5.37,1.21,10.74l-3.54,1.77-5.61-.45c-1.63-1.3-3.07-3.12-4.93-3.82-6.16-2.31-12.56-4-18.7-6.38-2.77-1.07-3.4.38-4.3,2.16l-4.2-2a23.74,23.74,0,0,0-2.92-3.83c-3-2.66-6.56-4.77-9.17-7.74-5-5.75-6-13-5.94-20.34.37-3.36.73-6.71,1.09-10.07q.57-3.47,1.13-6.93c.65-1.49,1.93-3,1.81-4.46-.38-4.88-1.25-9.73-1.94-14.59-.52-2.53,1.7-6.27-3.05-7,0-.59-.28-1.31,0-1.76,4.16-7.64,4.48-15.69,2.65-24,.12-.78.25-1.55.37-2.33q1.5-8.44,3-16.89l-.06-5.15a2.36,2.36,0,0,1,.08-.65l.11-.27,1-3C491.12,480.08,491.18,478.81,491.25,477.53Zm39.8,66.4H531a24.83,24.83,0,0,0-.09-5c-.2-.91-1.33-1.61-2-2.4-.59.8-1.51,1.52-1.71,2.41-.51,2.24-1.16,4.62-.85,6.81.27,1.81,1.83,3.44,2.82,5.15.65-1.51,1.4-3,1.91-4.54A8.47,8.47,0,0,0,531.05,543.93Z"/><path class="cls-43" d="M545,332.5c1.5-5.12,4.39,1.79,6.2-.71,1.16,3.65,7,4.42,5.85,9.49a2.17,2.17,0,0,0,0,.88l-8.78-5Z"/><path class="cls-43" d="M531.16,331.31c-1.1-2.32-2.21-4.63-3.31-6.94,3.68.28,6.93,1.13,8.8,4.92.49,1,2.22,1.38,3.38,2,.35,1.29.69,2.58,1,3.86Z"/><path class="cls-43" d="M541.07,335.2c-.35-1.28-.69-2.57-1-3.86,0-.66.07-1.31.11-2h1.75L545,332.5l3.24,4.71Z"/><path class="cls-43" d="M542.1,540.35c-.08-1.36-.17-2.72-.25-4.08q1.64-7.47,3.25-14.94c1.83-1.62,3.49-2.25,5,.49,1.2,2.23,2.59,4.36,3.89,6.53,0,.33,0,.66,0,1,.27,4.54.47,9.09.85,13.62.09,1,.87,1.87,1.33,2.81.17-1,.37-2,.5-3.06a15.63,15.63,0,0,0,0-1.81c.38.2.94.29,1.1.6,2,3.72,3.76,7.61,6,11.19,2.5,4,5.44,7.77,8.18,11.64,0,.34,0,.67.07,1-1,5.44-4.78,1.24-7.1,2.07l-.83-.2-2.17-1.8c-3.18-.56-3.85,1.41-2.44,3.39a24.1,24.1,0,0,0,6.74,6.42c6.6,4.07,13.52,7.63,20.2,11.59,1,.62,1.46,2.29,2.16,3.47-1.32,0-2.85.45-3.93-.06-6.06-2.85-11.86-6.3-18-8.84-8.3-3.4-14.07-9.55-19.54-16.2-2.83-2.37-3.29-5.41-3.06-9a137.63,137.63,0,0,0-.12-14.07C543.91,541.53,542.74,541,542.1,540.35Zm14.92,15-2-2-2.69-3.62-.87.84,3.59,2.75,2,2,3,3c.91.93,1.82,1.87,2.74,2.8l1.06-1.43c-1.1-.45-2.21-.91-3.32-1.35a1.34,1.34,0,0,0-.49,0Zm-9.41-.08c-.21.13-1,.38-1.12.79a2.34,2.34,0,0,0,.69,1.67c2.28,2.52,4.59,5,7,7.44a1.85,1.85,0,0,0,1.61-.13C556.6,562.62,550.75,555.31,547.61,555.26Zm19.49,7.87-.72-1.38c-.33.2-.94.39-1,.59a1.68,1.68,0,0,0,.56,1.13C566.12,563.59,566.62,563.29,567.1,563.13Z"/><path class="cls-43" d="M543.06,608.32c-6.81-1.41-7.9-3-7.24-10a7.13,7.13,0,0,0-1-3.64c-.39-.76-1.35-1.23-2.06-1.83-.52.81-1.39,1.58-1.49,2.44-.3,2.61-.3,5.24-.42,7.87-2.66-.63-5.29-1.42-8-1.85-6.89-1.1-14.53-9.74-11.26-17.6,1.34-3.22,1-7.13,1.43-10.73.13-1.15-.12-2.44.32-3.43,1.47-3.3,6.81,1.41,7.79-3.88s4.89-2.81,7.93-2.33l3.3,6.75a38.2,38.2,0,0,0-1.28,6c-.19,3.05-1,4-3.87,2.11-1-.7-2.57-.69-3.87-1,.59,1.24.84,2.93,1.82,3.66,6.11,4.63,12.39,9,18.62,13.53.08,2,.15,4,.23,6l-2.51,1.22,2.49.77Z"/><path class="cls-43" d="M543.06,608.32l1-6c0-.66,0-1.33,0-2-.08-2-.15-4-.23-6,.1-.33.19-.67.29-1L546,593,544,591.31v-3h2l3,5h0A13.79,13.79,0,0,0,548,595.5c3,2.19,6.18,4.26,9.31,6.35.31-.72,1.09-1.81.86-2.09-4-4.87-8-9.64-12.07-14.43l-2,0c0-.64-.07-1.28-.11-1.92l2.14-4c1.71,1.43,3.39,2.91,5.16,4.27,1.14.88,2.42,1.58,3.64,2.35.42-1.11.83-2.23,1.24-3.35.15-.43.27-.88.41-1.32.33.34.93.67.95,1,.18,5.14,4.54,6.84,7.61,9.72,1.9,1.78,2.94,4.48,4.37,6.77-2.68-.39-5.36-.85-8-1.11-.51-.05-1.61.76-1.57,1.07.88,7.25,4.43,10.06,11.84,9.59a35.26,35.26,0,0,1,4.48.06c.42,0,.82.39,1.23.6-.35.44-.61,1.06-1.06,1.28a10.36,10.36,0,0,1-2.82.92c-7.34,1.26-7.35,1.24-8.43,8.9l-20.77-1.05Z"/><path class="cls-43" d="M554,528.35c-1.3-2.17-2.69-4.3-3.89-6.53-1.48-2.74-3.14-2.11-5-.49q-.36-10.05-.71-20.09c0-1.25,0-2.51,0-3.77l1.57-2.22c.64,3,1.25,6,2,9,.13.54.67,1,1,1.49a13.58,13.58,0,0,0,1.06-1.37c4.21-7.19,4.57-15.09,4.23-23.11,1.77,3.39,3.86,6.67,5.21,10.23.92,2.43,1.41,4.89-1.35,7.53-1.31,1.26-.78,7,.8,8.16,3.2,2.41,4.33,5.37,5.37,8.71.5,1.62.79,3.3,1.18,5a25,25,0,0,1-4.32-1.88c-2.69-1.82-3.87-1.41-4.48,1.93C556.17,523.44,554.88,525.86,554,528.35Z"/><path class="cls-43" d="M544.39,501.24q.35,10,.71,20.09-1.62,7.47-3.25,14.94c-4.08-4.61-5.76-9.67-3.37-15.75a14.07,14.07,0,0,0,.64-5.43c-.13-4.29-.55-8.57-.64-12.86,0-.5,1.29-1.39,2-1.46A17.2,17.2,0,0,1,544.39,501.24Z"/><path class="cls-43" d="M535.87,234.25c2.15,22.66,1.52,45.37,1.21,68.07-1.57.83-3.18,1.59-4.68,2.52a10.06,10.06,0,0,0-1.74,1.82,17.17,17.17,0,0,1-.54-2.31,20.34,20.34,0,0,1,0-3.49c.12-1.25.41-2.49.63-3.74.45.86.89,1.73,1.37,2.57a3.37,3.37,0,0,0,.63.62,5.87,5.87,0,0,0,.3-1.34c0-7,0-14,0-21,0-5.76-.12-11.53,0-17.29q.32-11.43,1-22.83C534.25,236.65,535.28,235.46,535.87,234.25Z"/><path class="cls-43" d="M541.89,329.38h-1.75a4.7,4.7,0,0,1-.15-.9l.08-2a15.14,15.14,0,0,0,.32-1.57c-4.1-1.23-8.23-2.39-12.35-3.55.36-1,.73-2,1.09-2.95l2.76-3.2c.12-.59.23-1.19.35-1.79l1-1.82,1.69-.38,1.18.18c.78,1.83,1.55,3.67,2.33,5.5,1.23-1.47,2.24-3.24,3.74-4.32s3.38-1.33,5.11-2c.4,1.55,1.52,3.37,1.06,4.58-1.07,2.8-3,5.27-4.39,8-.38.73.07,1.86-.22,2.68A27.05,27.05,0,0,1,541.89,329.38Z"/><path class="cls-43" d="M580.94,329.28a16.48,16.48,0,0,1,2,.11c1.53.26,3.05.59,4.58.89a41.18,41.18,0,0,0-4.17,3.21c-.19.18.68,1.47,1.06,2.24L580.12,337c1.84,1.06,3.71,2.06,5.51,3.18a14.54,14.54,0,0,1,1.94,1.75c-.63.46-1.29.91-1.9,1.4s-1.44,1.24-2.16,1.86c.79.74,1.47,1.85,2.4,2.14,2.82.9,5.76,1.39,8.59,2.23.81.24,1.43,1.12,2.14,1.71-.6.69-1.06,1.71-1.8,2-4.5,1.83-9.09,3.17-13.92,1.15l-7-7.09Z"/><path class="cls-43" d="M595,288.39h-5c-.54-5.09-1.11-10.17-1.59-15.26a8.3,8.3,0,0,1,.37-2.17,18.63,18.63,0,0,1,1.38,1.7c1.07,1.68,2.08,3.41,3.11,5.12-.26-2.15-.44-4.3-.79-6.43-1.4-8.62-2.87-17.23-4.24-25.86-.08-.46.46-1,.71-1.54.46.4,1.19.73,1.34,1.22,1.61,5.55,4,11,4.49,16.69C595.56,270.65,595,279.55,595,288.39Z"/><path class="cls-43" d="M590.07,292.47c4.53-.16,5.28,2.76,4.79,6.26-.44,3.26-1.3,6.46-2,9.68s-2.52,4.52-5.74,3Q588.58,301.93,590.07,292.47Z"/><path class="cls-43" d="M564.82,211.49a59.05,59.05,0,0,1-5.41,4.76c-1,.69-2.5.64-3.79.87s-2.72.43-4.08.64c.72-1.38,1.13-3.1,2.22-4.07a42.18,42.18,0,0,1,7.2-5.09c.75-.42,2.18.36,3.29.59Z"/><path class="cls-43" d="M546.56,215.62c-1.42-3.24-1.71-6,2.72-7C548.37,211,547.47,213.28,546.56,215.62Z"/><path class="cls-43" d="M564.16,380.23c3.31,4.58,6.78,9,9.89,13.77,2.35,3.57,4.28,7.43,6.28,11.22.22.42-.36,1.27-.56,1.92-.52-.31-1.2-.5-1.53-.94-3.88-5.2-7.83-10.36-11.52-15.69-2.7-3.91-4.93-8.15-7.61-12.07-1.1-1.61-2.85-2.79-4.3-4.16,1.41-2.12.51-6.32,5.05-5.64Q562,374.43,564.16,380.23Z"/><path class="cls-43" d="M573.11,377.36c-2.79-2.23-5.48-4.6-8.41-6.64s-4.37-4.68-3.82-8.29c.75-1.08,1.49-2.16,2.24-3.23l2.34-.88,4.83,5.84,1.86,7.28Z"/><path class="cls-43" d="M554,529.35c4.36,1.92,8.37,3.91,10.73,8.72,1.34,2.74,4.8,4.39,7.12,6.71.75.75.92,2.09,1.35,3.16a16.87,16.87,0,0,1-3.94-.76,17.78,17.78,0,0,1-3.29-2.39c-.31.68-1.06,1.55-.86,2a10.54,10.54,0,0,0,2.31,3.54c3.54,3.33,7.23,6.52,10.86,9.76.5.44.93,1,1.46,1.35,1.32,1,2.2,4,1.34,4.83a28.22,28.22,0,0,0-5.18-2.54c-1.17-.32-2.6.36-3.91.59-2.74-3.87-5.68-7.62-8.18-11.64-2.23-3.58-4-7.47-6-11.19-.16-.31-.72-.4-1.1-.6a15.63,15.63,0,0,1,0,1.81c-.13,1-.33,2-.5,3.06-.46-.94-1.24-1.84-1.33-2.81C554.48,538.44,554.28,533.89,554,529.35Z"/><path class="cls-43" d="M584.07,568.3c5.83.55,8.72,6.12,13.74,8.08,1.38.54,2.64,1.4,4,1.91s3.33.59,4.65,1.42c1.53,1,2.68,2.54,4,3.85-2.39.79-4.73,1.88-7.18,2.24a6.11,6.11,0,0,1-4.09-1.52c-7.55-6.18-18.66-4.27-25.79-11.59-2.25-2.31-5.6-3.55-8.45-5.28,2.32-.83,6.12,3.37,7.1-2.07a47.26,47.26,0,0,1,5.34,3.26C579.83,570.53,582,571.1,584.07,568.3Z"/><path class="cls-43" d="M547.61,555.26c3.14,0,9,7.36,8.16,9.77a1.85,1.85,0,0,1-1.61.13c-2.39-2.42-4.7-4.92-7-7.44a2.34,2.34,0,0,1-.69-1.67C546.58,555.64,547.4,555.39,547.61,555.26Z"/><path class="cls-43" d="M557,555.34l3,3h0l-3-3Z"/><path class="cls-43" d="M552.93,477.44,549,475.35l-1.73-1,.21-5.21c.83-1.21,2.32-2.4,2.38-3.66a144.39,144.39,0,0,0,.05-16c-.33-5.36-1.24-10.69-1.9-16l.15-4.29c1.58,1.79,4,3.34,4.58,5.42,2.41,8.32,4.54,16.75,6.2,25.26,1.12,5.7,1.29,11.59,1.81,17.4.05.51-.41,1.06-.64,1.59a7,7,0,0,1-1.16-1.29C557,473.83,555,473.37,552.93,477.44Z"/><path class="cls-43" d="M548.05,433.43c.66,5.35,1.57,10.68,1.9,16a144.39,144.39,0,0,1-.05,16c-.06,1.26-1.55,2.45-2.38,3.66l-.33-7.95c0-7.87-.12-15.74-.07-23.61A19.11,19.11,0,0,1,548.05,433.43Z"/><path class="cls-43" d="M551,394.49c.7-1.28,1.88-2.5,2-3.83.32-3.09.13-6.24.15-9.36,6.71.06,7,5.77,8.85,10.08-5.17-1.28-5.49-1-4.4,4.13.2.95.26,1.94.46,2.9.31,1.51.67,3,1,4.49a46.53,46.53,0,0,0,3.17-3.87,10.73,10.73,0,0,0,.9-2.79c.94.25,2.29.19,2.77.81,5.41,7,10.62,14.07,16,21,2.14,2.73,4.71,5.13,7.05,7.71.66.73,1.85,1.74,1.69,2.32-1.66,6,3.58,10.58,3.35,16.25-5.79-1.07-5.43-6.67-7.62-10.38-1.95-3.31-3.52-6.88-5.78-9.94-4.37-5.93-9.06-11.63-13.74-17.32-.6-.73-1.88-.91-2.84-1.34l-.42-.24.43.23c-.8,1.39,2,5.16-2.68,4a3.26,3.26,0,0,0-.27.89c-.13,1.28-.22,2.57-.32,3.86-.71-1.43-1.4-2.87-2.11-4.3Z"/><path class="cls-43" d="M572.15,371.44l-1.86-7.28c10.74,5,13.33,15.54,17.26,25.19,1,2.56,2.26,5,3.25,7.64a13,13,0,0,1,.41,3.1c-1-.35-2.38-.4-3-1.1a46.32,46.32,0,0,1-4.81-6.82C579.58,385.32,575.9,378.36,572.15,371.44Z"/><path class="cls-43" d="M587.06,452.55a13.91,13.91,0,0,1-3.76.66c-.56,0-1.23-1.22-1.47-2-.37-1.18-.13-2.59-.65-3.66-2.56-5.2-4.54-10.47-3.23-16.42.14-.62.35-1.23.52-1.84.21.6.41,1.2.63,1.79l7.47,19.65C586.68,451,586.74,451.37,587.06,452.55Z"/><path class="cls-43" d="M577.31,492.69a9,9,0,0,1-2.56,1.55c-4.35.83-11.55-5.44-11.48-10,0-.5,1.12-1.47,1.27-1.39,3.84,2.11,7.67,4.26,11.38,6.61C576.59,489.91,576.71,491.22,577.31,492.69Z"/><path class="cls-43" d="M580.78,469.28a51.13,51.13,0,0,1-4.89-5.41c-.48-.69.2-2.19.36-3.31a13.92,13.92,0,0,1,3.52.93,18.24,18.24,0,0,1,3.24,2.75c1,.91,1.85,1.9,2.78,2.85Z"/><path class="cls-43" d="M576.52,482a29,29,0,0,1-2-3.11c-.09-.18.61-.75.94-1.14.75.79,1.52,1.54,2.19,2.38C577.73,480.22,577.26,480.77,576.52,482Z"/><path class="cls-43" d="M570.09,471.33l2.38,2a18.43,18.43,0,0,1-2.16,1.62c-.11.06-1.06-.8-1-1.21A8.81,8.81,0,0,1,570.09,471.33Z"/><path class="cls-43" d="M535.31,417c.6-2.88,1.21-5.76,1.81-8.64.44.21,1.17.32,1.28.64,3.08,9.26,7.77,18.15,6.7,28.39l-3.83-1.1q-1.56-5.47-3.14-11c-.12-.54-.25-1.08-.38-1.63l-1.94-5.61Z"/><path class="cls-43" d="M542.1,540.35c.64.6,1.81,1.18,1.84,1.8a137.63,137.63,0,0,1,.12,14.07c-.23,3.55.23,6.59,3.06,9-.21,1.67-1,3.52-.51,5,1.36,4.33-.79,4-3.6,3.11l-.14-3.11Q542.48,555.26,542.1,540.35Z"/><path class="cls-43" d="M542.87,570.17c0,1,.09,2.08.14,3.11s0,2.06,0,3.1l-10-6.21a1.89,1.89,0,0,0-.58-.08l-3.3-6.75,5.83.08,0,0Z"/><path class="cls-43" d="M531.05,543.93a8.47,8.47,0,0,1,0,2.47c-.51,1.56-1.26,3-1.91,4.54-1-1.71-2.55-3.34-2.82-5.15-.31-2.19.34-4.57.85-6.81.2-.89,1.12-1.61,1.71-2.41.71.79,1.84,1.49,2,2.4a24.83,24.83,0,0,1,.09,5Z"/><path class="cls-43" d="M534.92,563.42c.16-3.25.22-6.51.54-9.74a2.13,2.13,0,0,1,4-.94c2.08,4-.15,9.11-4.52,10.71Z"/><path class="cls-43" d="M546,495.25l-1.57,2.22c-4.78-2.16-1.6-6.28-2.09-9.44-.11-.68,2.39-1.76,3.69-2.66l.26-.16C546.16,488.56,546.06,491.9,546,495.25Z"/><path class="cls-43" d="M541.27,436.26l-1,5.06q-1.05-8-2.12-16Q539.7,430.78,541.27,436.26Z"/><path class="cls-43" d="M546,485.37l.48-10,.83-1.07,1.73,1c-.33,3.46,1.18,7.43-2.78,9.86Z"/><path class="cls-43" d="M547.11,420.46c.36,2.89.73,5.79,1.09,8.68l-.15,4.29a19.11,19.11,0,0,0-.93,4.12c0,7.87,0,15.74.07,23.6l-1.47.16c.1-6.12.28-12.23.25-18.34a35,35,0,0,0-.87-5.61c1.07-10.24-3.62-19.13-6.7-28.39-.11-.32-.84-.43-1.28-.64l5.91-11c.32,6.78.52,13.57,1.1,20.33C544.21,418.68,546.07,419.54,547.11,420.46Z"/><path class="cls-43" d="M584.07,568.3c-2.11,2.8-4.24,2.23-6.66.3a47.26,47.26,0,0,0-5.34-3.26c0-.33-.06-.66-.07-1,1.31-.23,2.74-.91,3.91-.59a28.22,28.22,0,0,1,5.18,2.54Z"/><path class="cls-43" d="M560,558.33a1.34,1.34,0,0,1,.49,0c1.11.44,2.22.9,3.32,1.35l-1.06,1.43c-.92-.93-1.83-1.87-2.74-2.8Z"/><path class="cls-43" d="M555.05,553.31l-3.59-2.75.87-.84,2.69,3.62Z"/><path class="cls-43" d="M567.1,563.13c-.48.16-1,.46-1.11.34a1.68,1.68,0,0,1-.56-1.13c0-.2.62-.39,1-.59Z"/><path class="cls-43" d="M557.05,555.31l-2-2,0,0,2,2Z"/><path class="cls-43" d="M564.14,567.21l-2.17-1.8Z"/><path class="cls-43" d="M532.39,570.09a1.89,1.89,0,0,1,.58.08c.94,3.46,2.29,6.86,2.71,10.37.73,6.19,2.26,7.51,8,5.75.12.68.25,1.35.37,2v3l.06,2c-.1.34-.19.68-.29,1-6.23-4.48-12.51-8.89-18.62-13.52-1-.73-1.23-2.42-1.82-3.66,1.3.31,2.82.3,3.87,1,2.88,1.91,3.68.94,3.87-2.11A38.2,38.2,0,0,1,532.39,570.09Z"/><path class="cls-43" d="M544,600.32c0,.66,0,1.33,0,2l-2.49-.77Z"/><path class="cls-43" d="M543.67,586.29c-5.73,1.76-7.26.44-8-5.75-.42-3.51-1.77-6.91-2.71-10.37l10,6.21.74,1.14.18,5.87c0,.64.08,1.28.11,1.92Z"/><path class="cls-43" d="M546.05,585.33c4.05,4.79,8.12,9.56,12.07,14.43.23.28-.55,1.37-.86,2.09-3.13-2.09-6.27-4.16-9.31-6.35a13.79,13.79,0,0,1,1.09-2.19l.43.23-.44-.22-3-5C546,587.32,546.05,586.32,546.05,585.33Z"/><path class="cls-43" d="M543.89,583.39l-.18-5.87,2.32,1.82Z"/><path class="cls-43" d="M546.05,585.33c0,1,0,2,0,3h-2c-.12-.68-.25-1.35-.37-2l.33-1Z"/><path class="cls-43" d="M544.1,593.33l-.06-2L546,593Z"/><path class="cls-43" d="M553,476.88l1.32,3.86c.35,8.18,0,16.24-4.31,23.57a12.77,12.77,0,0,1-1.08,1.4c-.35-.51-.9-1-1-1.52-.72-3-1.34-6.1-2-9.15.1-3.41.19-6.82.29-10.24,4-2.48,2.51-6.53,2.84-10.05Z"/><path class="cls-43" d="M552.85,428.49l2.14-.14c.11,1.81.23,3.63.35,5.44Z"/><path class="cls-43" d="M595.59,445l-.36.89a3.75,3.75,0,0,1-1-.66c-.1-.12.16-.55.25-.83Z"/><path class="cls-43" d="M549,593.32l.44.22c-.15-.07-.29-.15-.43-.23Z"/><path class="cls-43" d="M541.27,436.26l3.83,1.1A35,35,0,0,1,546,443c0,6.11-.15,12.22-.25,18.34l-.12,3.88a52.56,52.56,0,0,1-1.51-5.08c-1-5.34,1.29-11.42-3.52-15.92-.11-1-.21-1.92-.32-2.87Z"/><path class="cls-43" d="M540.43,443c4.91,4.59,2.53,10.79,3.59,16.23a50.4,50.4,0,0,0,1.55,5.18l-.66,6.1-.08.11h-1.77Q541.76,456.79,540.43,443Z"/><path class="cls-43" d="M547.31,474.32l-.83,1.07-3.33-4.11h1.73l.57.45-.49-.56c.22-2,.43-4,.65-6,0-1.3.07-2.59.11-3.88l1.47-.15q.16,4,.34,7.95C547.45,470.85,547.38,472.58,547.31,474.32Z"/><path class="cls-43" d="M533.21,311.63l-1,1.82Z"/><path class="cls-43" d="M547.11,420.46c-1-.92-2.9-1.78-3-2.78-.58-6.76-.78-13.55-1.1-20.33l3.79-4.9q.33,6.81.65,13.62-.18,7.19-.35,14.36Z"/><path class="cls-43" d="M545,471.17l.49.56-.57-.45Z"/><path class="cls-43" d="M540,328.47l-1.53-1.33,1.61-.63C540,327.17,540,327.82,540,328.47Z"/><path class="cls-43" d="M547.12,420.43q.18-7.19.35-14.36c1.21,1.35,3.1,2.52,3.52,4.09,1.59,6,2.7,12.12,4,18.19l-2.14.14Z"/><path class="cls-43" d="M563.11,396.24a10.73,10.73,0,0,1-.9,2.79A46.53,46.53,0,0,1,559,402.9c-.34-1.49-.7-3-1-4.49-.2-1-.26-2-.46-2.9-1.09-5.11-.77-5.41,4.4-4.13Z"/><path class="cls-43" d="M602.62,302.67c-.13,0-.35-.08-.35-.13a1.13,1.13,0,0,1,.13-.42c.12,0,.34.08.35.13A1.36,1.36,0,0,1,602.62,302.67Z"/><path class="cls-43" d="M601.26,342c-.29-.12-.73-.18-.8-.38s.2-.55.32-.83c.28.12.72.18.79.38S601.38,341.75,601.26,342Z"/><path class="cls-43" d="M597,310.92l-.47.71c-.12-.26-.35-.52-.34-.77s.27-.48.42-.71Z"/><path class="cls-43" d="M600.73,345c0-.13.08-.35.13-.35a1.13,1.13,0,0,1,.42.13c0,.12-.08.34-.13.34A1.33,1.33,0,0,1,600.73,345Z"/><path class="cls-43" d="M558.62,342.75l6.37.7,1,2Z"/><path class="cls-43" d="M535.81,418.06l1.94,5.61Z"/><path class="cls-43" d="M540,328.47a4.7,4.7,0,0,0,.15.9c0,.66-.07,1.31-.11,2-1.16-.67-2.89-1.06-3.38-2-1.87-3.79-5.12-4.64-8.8-4.92.06-1,.13-2,.19-3,4.12,1.16,8.25,2.32,12.35,3.55a15.14,15.14,0,0,1-.32,1.57l-1.61.63Z"/><path class="cls-43" d="M536.08,311.43l-1.18-.18c.76-1.27,1.53-2.52,2.3-3.78C536.83,308.79,536.45,310.11,536.08,311.43Z"/><path class="cls-43" d="M564.16,380.23q-2.14-5.81-4.3-11.59l1-6.21c-.55,3.61.84,6.21,3.82,8.29s5.62,4.41,8.41,6.64c1.14,2.33,2.44,4.59,3.34,7,.4,1.05,0,2.41-.06,3.63a13.27,13.27,0,0,1-3.4-1.18C570,384.73,567.09,382.44,564.16,380.23Z"/><path class="cls-43" d="M551,394.49l-3-7c.81-3,.58-6.69,5-7.07a4.63,4.63,0,0,1,.18.9c0,3.12.17,6.27-.15,9.36C552.83,392,551.65,393.21,551,394.49Z"/><path class="cls-43" d="M564,405.36l-.43-.23.42.24Z"/></g><g id="GG_RED" data-name="GG RED"><path class="cls-44" d="M295.05,163.37c-25.65-2.64-51.28-5.57-77-7.83-16.56-1.46-33.2-1.94-49.81-2.84-9.55-.51-19.11-1-28.66-1.44l.3-2.3q96.33,6.19,192.66,12.43c2.24.15,4.44,1.08,6.66,1.64-13-.3-26.07-.65-39.11-.84C298.44,162.16,296.74,163,295.05,163.37Z"/><path class="cls-44" d="M98.36,103.44c-.1-8.59-.43-17.18-.19-25.76.08-3,.83-7.85,2.53-8.49,3.06-1.14,7.07.27,10.68.61-2.54,1.94-5.51,3.54-7.47,6-1.33,1.64-1.69,4.46-1.57,6.7.06,1,2.42,1.79,3.57,2.86,2,1.89,3.93,3.92,5.89,5.89L109,92.43q-2.86,4.92-5.74,9.85Z"/><path class="cls-44" d="M89.77,152.35l-53.24-1.79-4.65-4.81,1.41-2h2.59L58.31,145l1.52,0,4.44-.17,1.6,0h12L81.32,146Z"/><path class="cls-44" d="M108.93,122.4l-5,23.95H99.18c-.1-.36-.21-.73-.32-1.09q.24-13.41.46-26.83l4.5-1Z"/><path class="cls-44" d="M138.06,152.39,117.67,151c1.18-.88,2.31-2.42,3.54-2.51,4.64-.34,9.32-.2,14-.25Z"/><path class="cls-44" d="M112.91,148.63c0-.91-5.84-1.53-9-2.28l5-23.95q.19-5.64.37-11.27l3.25-1.13c.39,5.25,2,10.77,1,15.69-4.2,19,8.42,20.89,21.69,22.55-4.66,0-9.34-.09-14,.25-1.23.09-3.54,2.51-3.54,2.51A28.15,28.15,0,0,0,112.91,148.63Z"/><path class="cls-44" d="M112.63,108.71l-3.83-6.93.15-9.35,2.85-1.23Q112.2,100,112.63,108.71Z"/><path class="cls-44" d="M98.36,103.44l4.85-1.16,5.59-.5,3.83,6.93c0,.43,0,.86-.08,1.29l-3.25,1.13-5.48.17-5.46-5Z"/><path class="cls-44" d="M98.36,106.3l5.46,5v6.14l-4.5,1Z"/><polygon class="cls-44" points="19.79 142.47 115.41 146.36 350.91 162.38 293.35 164.29 33.29 150.36 19.79 142.47"/><rect class="cls-44" x="108.8" y="69.13" width="3.83" height="81.18"/></g></svg>