<svg id="Layer_1" data-name="Layer 1" xmlns="http://www.w3.org/2000/svg" viewBox="0 0 3557.78 469.92"><defs><style>.cls-1{fill:none;stroke:#fff;stroke-miterlimit:10;stroke-width:15px;}</style></defs><path class="cls-1" d="M3447.56,397.83c-1,6.19-1.9,12.4-3.06,18.57-2.79,14.82-5.88,29.59-8.52,44.44-3,17.14-5.63,34.37-8.6,51.53-1,5.7-3.05,11.25-3.76,17-1.9,15.46-3.14,31-5,46.46-1.25,10.22-3.61,20.31-4.63,30.54-.8,7.9,0,15.95-.46,23.9a78.36,78.36,0,0,1-2.81,16.16c-.63,2.2-3.23,5.42-5,5.44-4.29,0-5.17,3.14-6.65,5.58-3.38,5.57-8.84,6.7-14.24,2.88-2-1.39-4.73-1.71-6.6-3.18-8.61-6.78-18.32-13.3-18.95-25.49-.46-8.69.79-17.54,2-26.22,2.06-15.24,4.68-30.41,7-45.61,3.46-22.61,6.69-45.25,10.36-67.82,2.61-16.05,5.73-32,8.7-48q3.82-20.54,7.82-41c2.38-12.19,5.31-24.29,7.19-36.55a146.53,146.53,0,0,1,6.87-27.28c2.3-6.41,6.81-7.66,12.29-8.89,2.86-.64,5.36-2.77,8.21-3.64,4.16-1.27,8.48-2.83,12.72-2.8a154.67,154.67,0,0,1,21.21,2.1c1.47.22,3.2,1.95,3.93,3.43,5.47,11.05,10.53,22.29,16.1,33.28,2.66,5.25,6.36,9.95,9.25,15.09,7.17,12.78,14.56,25.46,21.08,38.57,7.29,14.66,13.89,29.68,20.43,44.71,3.95,9.07,7,18.54,10.87,27.66,3.06,7.2,6.84,14.09,10.13,21.2,3,6.59,5.89,13.26,8.76,19.92,5.39,12.54,10.67,25.14,16.14,37.65,1.33,3,3.2,5.81,4.82,8.7l2-.4c.49-2.8,1.12-5.59,1.44-8.41q2.49-22.14,4.84-44.31c.92-8.75,1.21-17.59,2.6-26.26,3.31-20.6,7.15-41.11,10.68-61.67,2.5-14.55,4.8-29.13,7.28-43.68,1.43-8.34,3.34-16.6,4.48-25,1.41-10.34,2.75-20.75,3.19-31.16.51-12.33,6.61-17.84,18.86-16,2.71.4,5.54-.17,8.31-.13a13.9,13.9,0,0,1,3.62.75A66.59,66.59,0,0,1,3662,323a10,10,0,0,1,3.88,4.29c1.63,3.11,2.81,6.45,4.19,9.68.25.6.8,1.18.79,1.76-.19,8.83,3.48,17.56,0,26.57-1.52,3.9-1.07,8.54-1.76,12.8-2.64,16.46-5.3,32.92-8.09,49.36-3,17.63-6.5,35.19-9.13,52.88-1.76,11.8-2.34,23.77-3.55,35.66-1.58,15.48-3.48,30.93-4.87,46.43-1.84,20.32-2.83,40.72-5.23,61-.78,6.63-4.61,13-7.52,19.24-.51,1.11-3.64.75-5,1.82-3.09,2.48-2.27,6.26-2.17,9.61.24,8.32-4.37,14.63-8,21.78l-5-2.76c-2.08,2.34-3.71,5.25-6.19,6.75-6.16,3.7-13.12,2-19.55-3.15-11-8.85-18-20.31-23.32-33.13a262,262,0,0,0-12.17-25.34c-9-16.21-16.74-33-24.17-49.87-8.05-18.36-16.29-36.64-24.1-55.1-5.38-12.74-10-25.82-15.32-38.56-2.82-6.68-6.91-12.82-9.81-19.47-2.84-6.49-4.44-13.54-7.41-20-3.56-7.7-8.09-15-12-22.51-1.82-3.5-3.1-7.28-4.78-10.87a40.89,40.89,0,0,0-2.73-4.38Z" transform="translate(-122.05 -253.89)"/><path class="cls-1" d="M982.56,385.18c-1.32,2-2.27,2.93-2.6,4-5.29,17.68-10.59,35.35-15.7,53.08-3.28,11.39-5.84,23-9.45,34.28-6.5,20.35-13.71,40.47-20.29,60.79-3.67,11.36-6.71,22.93-9.94,34.43-2.32,8.26-4.64,16.53-6.68,24.86-2.43,9.92-4.81,19.86-6.75,29.88-1,5.38-2.47,10.23-6.77,14a13.53,13.53,0,0,0-3.24,4.66c-1.4,3.17-3.06,5.57-7.06,5.37-1.39-.07-2.85,1.1-4.23,1a100.86,100.86,0,0,1-10.64-1.38c-.64-.11-1.36-1.74-1.64-1.63-6.73,2.67-9.05-3.9-12.51-6.71-5.2-4.24-8.62-10.09-6.37-17.85,5.89-20.31,11.28-40.76,17.11-61.08,4.25-14.83,8.69-29.61,13.43-44.28,3.36-10.39,7.6-20.49,11-30.87,2.92-9,5-18.19,7.73-27.24q7.18-24.21,14.61-48.33c5-16.37,10.3-32.66,15.08-49.09,3-10.3,5-20.88,7.92-31.19A177.22,177.22,0,0,1,953.66,309c1-2.15,4.52-3.48,7.15-4.48a46.94,46.94,0,0,1,11-2.76c2.39-.29,5,.61,7.4,1.11a36.64,36.64,0,0,1,4.18,1.29,60.84,60.84,0,0,1,6.54,2.27c3.37,1.59,6.64,3.39,9.89,5.21,5.8,3.25,9.29,7.64,10.23,14.78.83,6.39,3.58,12.58,5.84,18.73,2.41,6.53,5.29,12.88,7.87,19.35,4.65,11.67,9.29,23.35,13.83,35.06,5.33,13.74,10.3,27.63,15.89,41.26,3.82,9.3,8.81,18.12,12.61,27.42,5.88,14.37,11.06,29,16.77,43.45,5.66,14.26,11.66,28.39,17.4,42.62,1.41,3.48,2.34,7.15,3.67,10.66a10.07,10.07,0,0,0,3.9,4.77,56.74,56.74,0,0,0,1.93-6c3.41-16.76,6.85-33.51,10-50.31,1.45-7.62,2.11-15.39,3.62-23,2.39-12,5.14-23.92,7.81-35.86,3.41-15.21,7-30.38,10.28-45.62q4.8-22.24,9.08-44.6c1.78-9.22,2.87-18.57,4.78-27.76,1.71-8.25,3.89-16.43,6.3-24.51,1.27-4.27,4.59-6.66,9.24-5.38,3.92,1.07,7.34.38,11-1,1.66-.64,4.85-.46,5.74.65,2.43,3,5.28,3.49,8.73,3.63,1.35.05,3.54,1.26,3.8,2.33,1.93,7.74,5.18,15.07,3.23,23.71s-1.49,17.7-2.74,26.49q-2.65,18.5-6.33,36.85c-2.84,14.07-6.55,28-9.28,42.07-2.13,11.07-3.11,22.36-5,33.48s-4.51,22.43-6.62,33.68c-2.21,11.75-3.9,23.6-6.35,35.3-4.37,20.78-9.57,41.4-13.53,62.25-1.64,8.64-5.26,16.91-4.52,26.14.39,4.85-1.37,9.94-2.54,14.82a8.35,8.35,0,0,1-3.09,4.08c-3,2.3-6.6,3.82-6.85,8.45,0,.88-1.64,2.25-2.67,2.4-5.83.9-11.72,2.1-17.57,2s-12.4-.08-17.11-2.79c-6.5-3.73-13-9.08-16.85-15.37-5.53-9.08-8.82-19.56-12.74-29.57-3.79-9.66-7.22-19.46-10.72-29.23-4-11.21-7.7-22.54-11.89-33.68-4.62-12.28-9.87-24.33-14.43-36.63-5.11-13.8-9.48-27.86-14.7-41.61-2.8-7.38-6.94-14.23-10.05-21.5-3.7-8.62-7-17.41-10.34-26.18q-4.58-12-8.83-24C986.65,397.86,984.89,392.23,982.56,385.18Z" transform="translate(-122.05 -253.89)"/><path class="cls-1" d="M311.83,263.43c6.26,4.57,13.09,5.72,20.61,5.64,5.69-.07,11.38,1.9,17.1,2.74,9.16,1.36,18.59,1.61,27.45,4,11.23,3.05,22.73,4.55,33.65,9.81,13.91,6.72,24,17.73,35.86,26.65a241.57,241.57,0,0,1,23.56,19.57c2.84,2.76,5,8,4.72,11.87A258.62,258.62,0,0,1,469.62,376c-.74,3.5-3.68,6.51-5.41,9.84-2.3,4.43-4.35,9-6.6,13.44a65.25,65.25,0,0,1-16.43,20.53c-3.68,3.11-6.68,7.05-10.51,9.93A119.25,119.25,0,0,1,416,438.92c-11,6-21.92,12.12-33.24,17.42-6.86,3.2-14.57,4.56-21.58,7.48s-13.56,6.74-21.39,10.72c2.57,1.57,4.24,2.71,6,3.64,14.84,7.81,30.12,14.87,44.44,23.53,19,11.48,32.92,28.31,45,46.67,9.76,14.78,20,29.27,28.89,44.57,6,10.37,10.37,21.75,14.73,33,3.09,8,4.23,16.68,7.54,24.52,3.62,8.59,4.22,17.6,5.92,26.48a13.45,13.45,0,0,1,0,2.22c-5.86.78-10.71,2.41-10.16,9.91.19,2.59-8.32,7.5-11.31,6.41a147,147,0,0,1-19.23-8.2c-4.28-2.29-8-5.72-11.59-9.08-1.16-1.09-1-3.56-1.49-5.39-2.73-11.07-5.24-22.2-8.25-33.18a149.57,149.57,0,0,0-16.55-37.39c-7-11.61-14-23.22-21.3-34.62-8.39-13.05-18.77-24.24-32-32.66-8.49-5.43-16.43-11.89-25.35-16.45-9.44-4.83-19.64-8.29-29.73-11.71-7-2.38-14.42-3.67-21.65-5.46-.64-.15-1.3-.63-1.89-.54-11.62,1.81-18.93-6.62-27.47-11.85-1.87-1.15-2.06-4.86-3.36-7.21a26.74,26.74,0,0,0-3.5-4.15c-1.3,1.35-3.08,2.48-3.8,4.09-3.14,6.9-4.85,14.74-9.18,20.71-5.33,7.36-6.19,16.17-10.39,23.74-4.94,8.9-7.83,18.61-10.89,28.31-3.4,10.79-8.37,21.08-12.51,31.65q-5.35,13.7-10.39,27.55c-3.85,10.67-7.06,21.59-11.41,32-2.93,7-7.18,13.53-11.21,20-1.42,2.29-10.47,1.56-14.42-.17-3-1.31-6.38-1.71-9.41-3a14.23,14.23,0,0,1-5.18-3.74,81.68,81.68,0,0,1-8.7-11.56c-.89-1.5-.64-5.21.52-6.15,7.75-6.26,5.22-16.69,10.47-24.23,3.83-5.5,3.94-13.45,6.57-20,4.06-10,9-19.72,13.29-29.7,5-11.7,9.51-23.57,14.31-35.34q6.27-15.35,12.73-30.63c3.37-7.9,5.93-16.39,10.63-23.41,6.55-9.77,8-21.48,14.06-31.41,3.44-5.65,4.43-12.75,6.86-19.07,3.05-7.94,6.57-15.7,9.66-23.63,4-10.32,7.59-20.83,11.85-31.05,2.34-5.62,5.75-10.79,8.6-16.2,1.35-2.57,3.67-5.3,3.54-7.85-.25-5,4.87-7.49,4.27-13.05-.41-3.78,4.2-8,6.21-12.17q7.89-16.41,15.39-33c1.26-2.8,1.16-6.26,2.6-8.93a125.4,125.4,0,0,1,10.07-15.77c.88-1.16,4.42-1.51,6-.74C303.85,268,306.34,268.06,311.83,263.43ZM252.3,461.66c3.92-.55,6.72-.49,9.18-1.36,9.48-3.36,18.82-7.09,28.26-10.54,8.5-3.11,17.13-5.86,25.58-9.08,10.32-3.94,20.63-7.95,30.72-12.42,11.53-5.09,23.24-10,34.06-16.39,6.54-3.86,13.27-7.71,19.06-13.19,7.46-7.05,14.52-14.21,20.18-22.79a101.24,101.24,0,0,0,8.52-16.57c5.28-12.44,2.91-15.54-7.65-22-4.73-2.89-10-4.81-15.12-7.12-15.41-7-31.75-10.46-48.51-11.39-15.57-.86-31.18-.22-46.07,5.35-2.09.78-4.73,2-5.63,3.77-4.05,8-7.93,16.19-11.22,24.56-5.89,15-11.12,30.26-17,45.27C271.32,411.52,265.43,425,260,438.72c-1.2,3-1.48,6.33-2.5,9.39C256.07,452.23,254.38,456.25,252.3,461.66Z" transform="translate(-122.05 -253.89)"/><path class="cls-1" d="M1967.9,323.78c.57,7.93,1.32,15.85,1.67,23.79,1,21.39,2.43,42.73-.23,64.19-1.74,14-1.75,28.22-2.37,42.36-1.25,28.07-4.25,56.06-2.94,84.27.57,12.35-1.62,24.85-.87,37.19,1.21,19.87-3.36,38.91-6.21,58.23-.93,6.24-1.23,12.57-1.83,18.85-.16,1.66.17,3.67-.64,4.91-3.64,5.51-7.18,11.2-11.67,15.95-1.68,1.78-5.85,1.46-8.91,1.63-13.5.73-24.28-5-31.39-16-2.26-3.51-1.34-9.64-.64-14.4,2.62-18.1,6.72-36,8.44-54.21,1.87-19.82,1.75-39.83,2.38-59.75.1-3.25-4.32-5.14-9.31-4.41-12.63,1.85-25.3,3.44-37.9,5.49-17.07,2.78-34.06,6.09-51.15,8.77-7.07,1.11-14.33,1-21.45,1.87a7.65,7.65,0,0,0-4.81,3.48c-6.24,10.7-12,21.72-18.34,32.34-4.55,7.58-9.89,14.69-14.81,22.06-4.76,7.14-9.29,14.43-14.19,21.47-6.89,9.9-14,19.63-21.06,29.42-3,4.16-5.76,8.5-9.07,12.39a87.55,87.55,0,0,1-10.33,10.23c-2.54,2.13-10.19.34-13.5-2.27a7.57,7.57,0,0,0-4.59-1.62c-8.61.41-12-2.19-13.45-10.6,0-.32,0-.76-.14-1-6.37-7-.53-11.61,3-16.83,6.12-9,12-18.13,18.1-27.1,6-8.81,12.59-17.26,18.29-26.27,9-14.19,18.25-28.31,25.91-43.22,8-15.56,17.54-30,27.6-44.15,6.86-9.66,14.42-18.84,21.41-28.42,4.85-6.64,9.09-13.72,13.93-20.37,8.45-11.61,17.24-23,25.74-34.55,3.59-4.89,6.69-10.14,10.24-15.07,2.51-3.49,5.37-6.72,8.1-10.06,13.07-16,26.57-31.6,37.46-49.25,8.36-13.57,18.65-25.66,29.74-37.09a18.35,18.35,0,0,0,3.25-4.36c4.78-9.61,13-13.84,23.07-16.13a32.12,32.12,0,0,1,17.47,1,18.88,18.88,0,0,1,13.49,15.06c1.46,7.25,2.08,14.67,3.06,22Zm-46.59,42.93-93.86,124.4,1.21,1.34c5-.88,9.91-1.86,14.89-2.62,13.48-2.08,27-4.06,40.46-6.1,4.32-.66,8.64-1.34,12.93-2.15,5-.93,9.94-1.86,14.81-3.17,1-.28,2.27-2.09,2.42-3.31,1.48-12.22,3-24.44,4-36.69q1.9-22.8,3-45.65C1921.64,384.59,1921.31,376.37,1921.31,366.71Z" transform="translate(-122.05 -253.89)"/><path class="cls-1" d="M3069.7,545.21c0-18.1-.55-36.22.2-54.28.44-10.48,2.76-20.91,4.61-31.3,1.39-7.82,2.69-15.76,5.24-23.24,4.76-14,10.72-27.54,15.56-41.49,4.23-12.21,12-22,20.31-31.36,9.84-11.12,21-20.89,36-24.72a69.29,69.29,0,0,1,32-.54c3.54.75,6.65.83,9.51,3.79,1.27,1.31,5.06.05,7.68.22,4.74.3,9.7,0,14.15,1.36,9.34,2.81,18.43,6.43,27.58,9.86,4.42,1.65,8.76,3.51,13,5.48a14.73,14.73,0,0,1,4.88,3.38c5.5,6.35,11.27,12.54,16,19.43,3.5,5.1,5.56,11.19,8.26,16.84.35.73.55,1.71,1.13,2.13,5.46,3.92,5.61,10.37,7.92,15.82,1.32,3.14,3.94,5.71,5.71,8.7a27.4,27.4,0,0,1,3.2,7.12c3.18,12.77,6.39,25.61,5.94,38.87-.37,10.58-1.09,21.2-2.5,31.68-1.92,14.24-4.49,28.4-7.08,42.53a140.27,140.27,0,0,1-4.71,18.76c-1.43,4.32-4.21,8.18-6,12.41-5.47,13.16-14.63,23.41-24.95,32.89-5.72,5.26-10.74,11.32-16.69,16.27s-12.29,8.88-18.67,13c-5.73,3.67-11.38,7.81-17.66,10.16-10.47,3.92-21.37,6.73-32.17,9.71-5.53,1.52-11.21,3.06-16.89,3.37-8.81.49-17.36.52-25.25-5.87-7.18-5.82-16.34-9.1-24.13-14.27-4.94-3.27-9-7.85-13.36-12-9.11-8.7-13.83-20.34-19.74-31-3.07-5.54-3.26-12.75-4.44-19.26-2.07-11.37-3.9-22.79-5.83-34.2Zm88.83,72.67c7.32-1.85,14.66-3.6,21.94-5.58a19.4,19.4,0,0,0,6.74-2.86c7.79-6,15-12.76,23.11-18.14,9.06-6,15.49-14.28,21.21-22.87,10.22-15.34,15.84-32.91,20-50.73a201.74,201.74,0,0,0,5.42-34.82c.71-12.86,1.08-26.14-1.39-38.65-2.68-13.53-8.2-26.64-13.66-39.42-3.49-8.17-8.54-15.31-18.69-18.07-8.41-2.29-16.07-7.41-23.95-11.49-2.66-1.37-4.94-4.7-7.5-4.82a46.28,46.28,0,0,0-16.07,1.91c-25.84,8.47-37.3,29.15-43.94,53.47-3.39,12.43-6.49,25-9.13,37.58-2.3,11-5,22.12-5.31,33.26-.53,17.87-.51,35.87,3,53.61,1.84,9.28,2.53,18.86,5.16,27.89a117.48,117.48,0,0,0,10.38,23.94C3140.61,610.59,3146.72,618.12,3158.53,617.88Z" transform="translate(-122.05 -253.89)"/><path class="cls-1" d="M664.82,327.49c-1.55,7.6-3.14,16.52-5.26,25.33-1.16,4.79-3.48,9.29-4.77,14.06-1,3.72-1,7.69-1.85,11.48-2.75,13-5.39,26-8.55,38.83C639.13,438.61,633.53,460,628,481.3c-2.86,11-6.7,21.87-8.61,33.05s-2.17,22.71-2.76,34.1c-.28,5.39.33,10.84.58,16.26A42.49,42.49,0,0,0,626,589.43c5.78,7.71,12,14.44,20.08,19.19a63.73,63.73,0,0,0,16.14,6.48c8.12,2.06,15.51-1.84,21.58-6.22,18.06-13,34.23-28,44.51-48.42,4.31-8.59,10.43-16.24,15.36-24.54,5.87-9.89,11.35-20,17-30.06,2.42-4.33,5.27-8.5,7-13.09,2.31-6,3.81-12.35,5.51-18.59q5.55-20.3,10.94-40.65c3.9-14.69,8.12-29.31,11.49-44.12,2.27-10,3.38-20.19,4.85-30.32,1.28-8.86,9-14.4,17.86-13.54,6.3.61,12.72-.13,19.07.15a8.94,8.94,0,0,1,5.84,2.42,30.81,30.81,0,0,1,5.48,9,16.19,16.19,0,0,1,.92,8.31c-1.85,10.43-4,20.81-6.3,31.15-4.25,19-8.66,38-13.07,57-2.74,11.78-4.87,23.77-8.61,35.23-3.42,10.49-8.18,20.63-13.19,30.5-5.15,10.14-11.24,19.8-17.07,29.59-7.15,12-14.66,23.84-21.65,36-6.49,11.24-14,21.55-24.09,29.85-9.6,7.94-19.13,16-29.08,23.47A75.84,75.84,0,0,1,699,648.49c-8.12,3.17-16.72,6-25.32,6.81-7.25.68-14.8-1.7-22.2-2.81-3.93-.59-7.89-1.14-11.73-2.11-16.18-4.1-29.68-12.72-42.48-23.38-10.24-8.54-17.13-19.32-22.5-30.65-4.49-9.46-6.51-20.61-7.3-31.18a228.34,228.34,0,0,1,.56-43.12c1.63-14.06,5.78-27.84,9-41.71,2-8.39,4-16.76,6.45-25,3.21-11,7.07-21.76,10.17-32.76,3-10.54,5.36-21.25,8-31.89,2.7-11,5.27-22.11,8-33.13,3.34-13.24,6.84-26.43,10.3-39.64a28.17,28.17,0,0,1,1.63-5.16c1.58-3.3,3.78-5.64,8-5.55,3.59.08,7.23-1,10.79-.81,8.51.55,16.78,2.52,22,10C664,318.87,663.83,322.69,664.82,327.49Z" transform="translate(-122.05 -253.89)"/><path class="cls-1" d="M3005.86,403.7c-3.53,1.83-6.12,3.14-8.67,4.51-2.92,1.56-6.24,3-8.25-.62-2.38-4.29-6.91-4.59-10.23-7s-6.92-5.41-8-8.91c-1.49-4.66-1-10.07-.79-15.13.34-7.4,1.51-14.75-1.82-21.88-1.8-3.85-4.29-6.31-8.61-7.18a68.78,68.78,0,0,0-46,6.33c-6.24,3.19-11.34,9.1-16.12,14.52-4.53,5.14-8,11.23-11.86,16.95a18,18,0,0,0-2.91,14.63c0,.16.17.32.15.47-1.57,16,9.71,23,21,30,6.49,4.06,12.87,8.31,19.38,12.34,5.55,3.43,11,7,16.85,10,16.28,8.29,28.81,20.86,40.14,34.75,13.72,16.8,21.45,36.41,24.11,57.68,1.72,13.78,1.51,27.7-3.11,41.37-3.46,10.24-6.85,20.41-13,29.34-3.43,5-7.69,9.43-11.6,14.1-8.17,9.78-18.93,16.25-29.71,22.49-5.05,2.93-11,4.23-16.53,6.4-5,2-10,4-14.93,6.28-8.82,4.08-18.34,3.4-27.27,2.39-9.51-1.08-18.77-4.8-28-7.81-7.37-2.41-14.46-5.68-21.79-8.25a99.7,99.7,0,0,1-29.08-15.93c-2.29-1.81-5-3.11-7.36-4.77-12.56-8.71-20.77-20.38-24.33-35.35a115.91,115.91,0,0,0-4.3-12.67c-3.72-10.25-4.34-20.9-3.84-31.63a24.51,24.51,0,0,1,9.94-19.28,5.6,5.6,0,0,1,2.28-.88c5.08-1,10.15-2.11,15.28-2.68,1.74-.19,3.71,1,5.44,1.77,1.54.74,2.92,2.72,4.31,2.66,3.93-.15,4.75,2,5.13,5.12,1.86,14.86,4.49,29.48,10.11,43.55,5.8,14.52,15,25,29.21,32.13,11.54,5.78,24,8.1,35.94,12.19,6.91,2.37,13.92-.64,20-4.8,7.33-5,14.86-9.75,22-15,2.37-1.72,3.85-4.65,5.78-7,7.32-8.85,10.24-19.7,14.24-30.15,5.55-14.54,1.44-27.84-2.33-41.88-3.61-13.49-12.3-22.89-21.23-32.21-6.85-7.14-15.43-12.37-24.34-17-6.28-3.26-11.92-7.73-17.83-11.68-.54-.36-.95-1-1.53-1.24-11.22-4.93-20.53-12.67-28.34-21.71-13-15.08-19.49-33.2-15.5-52.9,3.06-15.13,10.29-29.21,19.73-41.69a234.79,234.79,0,0,1,19.19-22.67,35.31,35.31,0,0,1,13.11-8.14c9.71-3.47,19.63-6.71,29.74-8.56,7.49-1.36,15.43-.69,23.14-.34A152.18,152.18,0,0,1,2961,311c17.48,2.93,31.62,10.59,41.7,26.12,6.21,9.57,12.12,19,13.61,30.27,1,7.08-.11,14.47-.6,21.69A5.38,5.38,0,0,1,3013,393C3007.58,395.09,3007.59,400.39,3005.86,403.7Z" transform="translate(-122.05 -253.89)"/><path class="cls-1" d="M2095.21,624.53c13.81-.67,26.27-.95,38.67-2,10.42-.85,20.75-2.6,31.13-3.9,2.3-.28,4.62-.28,6.92-.52,9.51-1,19-1.94,28.51-3.11,11-1.36,22-2.93,33-4.41.17,0,.37-.16.48-.11,5.59,3,11.31,5.88,16.65,9.3,1.16.75,1.18,3.55,1.39,5.44.39,3.38,1.17,6.9.6,10.15a20.44,20.44,0,0,1-4.12,8.38,42.63,42.63,0,0,1-8,7.82c-2.26,1.72-5.08,3.49-7.78,3.72-16.86,1.44-33.76,2.34-50.63,3.65-9.55.75-19.1,1.64-28.57,3-6.8,1-13.4,3.71-20.2,4.35-11.63,1.08-23.19,4.18-35,1.81a16.35,16.35,0,0,0-7.36.31c-8.28,2.33-15.1-1.61-22.33-4.43-8.28-3.24-14.68-8.56-20.35-15.31-6.71-8-9.76-16.08-6.37-26.74,2.68-8.45,3.51-17.51,4.88-26.34,3.27-21,9.28-41.22,15.27-61.52,3.71-12.57,6.28-25.47,9.34-38.23,3.74-15.57,5.88-31.48,12.44-46.39,3.63-8.26,5.13-17.46,7.68-26.21,1.48-5.09,3.17-10.12,4.72-15.19,5.5-18,8.34-36.51,10.7-55.14.9-7,3.31-13.88,4.63-20.89,1.43-7.65,2.23-15.41,3.62-23.07,1.31-7.2,4.73-9.64,12-9.2.67,0,1.47.35,2,.09,7.77-4,15.09-.08,22.57,1.17,5.35.89,9.14,5.07,8.83,10.45-.8,13.9-.84,27.94-2.94,41.66-3.39,22.12-7.71,44.12-12.59,66-2.82,12.6-8,24.64-11.27,37.16-4.53,17.49-8.06,35.25-12.35,52.81-3.63,14.79-7.35,29.58-11.73,44.17A373.48,373.48,0,0,0,2097,612.22C2096.5,616.08,2095.88,619.93,2095.21,624.53Z" transform="translate(-122.05 -253.89)"/><path class="cls-1" d="M2407.32,605.08c3.57-.69,7.13-1.43,10.71-2.08,12-2.15,24-4.2,35.92-6.43,7.48-1.4,14.88-3.14,22.35-4.61s15.23-2.7,22.8-4.27c5-1,9.9-2.51,14.85-3.77a15.56,15.56,0,0,1,3.3-.75c5.14-.15,10.31-.45,15.43-.11,2.16.14,4.24,1.7,6.34,2.66,1.29.58,2.5,1.55,3.84,1.78,6.67,1.17,9.9,4.67,10,11.35a97.4,97.4,0,0,1-.27,10.4c-.52,5.27-2.27,9.38-7.87,11.92-3.69,1.67-5.25,7.05-10.13,7.78a31.1,31.1,0,0,1-4.72.31c-7.22-.06-14.5-.76-21.65-.09-6.2.57-12.2,3-18.38,4-8.29,1.37-16.72,1.87-25,3.3-13.84,2.4-27.59,5.33-41.41,7.84-6.35,1.16-12.79,1.82-19.18,2.76-3.1.46-6.17,1.08-9.27,1.54a7.93,7.93,0,0,1-3.46,0c-6.38-2.1-12.65-4.58-19.09-6.51-12.07-3.63-19.83-12.85-25.7-22.65-3.71-6.18-7.35-14.15-3.34-23,2.62-5.75,3.14-12.56,4-19,1.26-9.7,1.42-19.58,3.09-29.19,1.91-10.93,5.21-21.61,7.48-32.48,3.57-17.06,7.11-34.13,10-51.31,1.89-11.1,2.38-22.44,3.94-33.61,2.44-17.4,5.31-34.74,7.89-52.12,2.31-15.56,4.36-31.16,6.74-46.71a158.17,158.17,0,0,1,3.51-16.07c1.23-4.7,5.6-5.17,9.4-6.22,3.3-.9,6.58-1.94,9.93-2.51a24.47,24.47,0,0,1,6.89,0c3.3.39,7,.37,9.72,1.89,3,1.62,5.37,4.59,7.46,7.38,3.74,5,3.77,10.51,2.35,16.5-1.1,4.63-.82,9.58-1.37,14.37-1.75,15.16-3.38,30.34-5.47,45.46-3.08,22.32-6.58,44.57-9.76,66.87-1.27,8.87-1.77,17.85-3.33,26.66-2.72,15.3-6.32,30.45-9,45.76-3,17.17-5.26,34.45-7.8,51.69-.65,4.43-.94,8.92-1.68,13.34-1,5.89.62,7.76,6.81,7.44,1-.06,2,0,3,0Z" transform="translate(-122.05 -253.89)"/><path class="cls-1" d="M2634.12,541.68q4.7-28.7,9.4-57.39c2.42-14.56,5.18-29.06,7.33-43.65,2.4-16.19,3.92-32.52,6.52-48.67,1.43-8.94,4.38-17.62,6.49-26.46,2.81-11.76,6.16-23.37,6.5-35.65.32-11.35,5.72-16.29,17.11-16.55,5.73-.14,11.37-.49,17,2.44,2.5,1.31,7.22-1,9,2.8,2.55,5.5,6.51,10.63,5.55,17.37-2.08,14.61-3.75,29.28-6,43.85-3,18.78-6.32,37.5-9.52,56.24-1.14,6.67-2.37,13.34-3.48,20-2.11,12.6-4.25,25.19-6.2,37.82-1.21,7.84-2.06,15.74-3.13,23.61-.76,5.56-2,11.09-2.37,16.68-1.39,20.39-2.34,40.8-3.8,61.18-.58,8-2.19,16-3.1,24-.38,3.39-2.13,5.11-5,6.79-2.69,1.59-4.45,4.69-7.06,6.47a113.46,113.46,0,0,1-12.23,6.88c-.45.23-1.53-.84-2.34-1.25-3.94-2-8-3.76-11.81-6a28.09,28.09,0,0,1-7.08-5.68c-2.42-2.83-4.85-6-6.07-9.44a26,26,0,0,1-1.06-10.93c1.77-17.17,4-34.29,5.81-51.45.45-4.27.07-8.62.07-12.94Z" transform="translate(-122.05 -253.89)"/><path class="cls-1" d="M1444.36,640.4a78.23,78.23,0,0,1-8,31.71c-4.42,9-8.36,18.52-14.49,26.24-5.35,6.74-10.49,14.67-19.92,17.38-4.82,1.38-8.72.19-12.74-2.14a72,72,0,0,0-9.59-4.87c-5.71-2.25-14.23-14.3-13.39-20.39.37-2.62,2.15-5.35,4-7.42,5.68-6.42,11.6-12.57,13.87-21.24.53-2,2.34-3.63,3-5.62,4-12.85,4.58-25.77-.4-38.49-1.42-3.62-4.6-6.65-5.58-10.32-1.31-5-3.16-11.12-1.34-15.24,2.39-5.36,7.6-9.71,15.28-8.57,3.47.52,7.26-1.21,10.93-1.77a11.36,11.36,0,0,1,4.31,0c3.12.74,6.66,1.1,9.15,2.85a31.88,31.88,0,0,1,9.12,9.25c6.25,10.55,11.12,21.78,13.5,33.91C1442.93,630.56,1443.58,635.49,1444.36,640.4Z" transform="translate(-122.05 -253.89)"/></svg>