<svg xmlns="http://www.w3.org/2000/svg" viewBox="0 0 4943.17 502.92"><defs><style>.cls-1,.cls-2,.cls-3{fill:none;stroke-miterlimit:10;}.cls-1{stroke:#c5dcf0;}.cls-1,.cls-3{stroke-width:15px;}.cls-2{stroke:#d1adf0;stroke-width:25px;}.cls-3{stroke:#f0e6b9;}</style></defs><g id="Layer_1_copy_3" data-name="Layer 1 copy 3"><path class="cls-1" d="M3339.77,228.31c-1,6.19-1.89,12.41-3.05,18.57-2.79,14.82-5.89,29.59-8.52,44.44-3,17.15-5.63,34.37-8.6,51.53-1,5.71-3,11.25-3.76,17-1.9,15.46-3.14,31-5,46.46-1.24,10.21-3.6,20.3-4.63,30.53-.79,7.9,0,16-.45,23.91a77.74,77.74,0,0,1-2.82,16.15c-.62,2.21-3.22,5.42-5,5.44-4.28.05-5.16,3.15-6.64,5.58-3.38,5.57-8.84,6.7-14.24,2.88-2-1.39-4.73-1.7-6.6-3.18-8.61-6.78-18.32-13.29-19-25.49-.45-8.69.8-17.53,2-26.22,2.06-15.24,4.67-30.4,7-45.61,3.46-22.6,6.69-45.24,10.36-67.81,2.6-16.06,5.73-32,8.7-48q3.81-20.53,7.81-41c2.38-12.19,5.32-24.29,7.2-36.55a146.63,146.63,0,0,1,6.87-27.29c2.3-6.41,6.8-7.65,12.29-8.89,2.86-.64,5.36-2.76,8.21-3.63,4.15-1.27,8.48-2.83,12.72-2.8a154.36,154.36,0,0,1,21.2,2.09c1.48.22,3.21,2,3.94,3.43,5.47,11.05,10.53,22.3,16.1,33.29,2.66,5.24,6.36,10,9.24,15.09,7.17,12.77,14.57,25.45,21.09,38.56,7.29,14.67,13.89,29.69,20.43,44.71,4,9.08,7,18.55,10.87,27.66,3,7.21,6.84,14.1,10.13,21.21,3,6.58,5.89,13.25,8.76,19.92,5.39,12.54,10.67,25.13,16.14,37.64,1.32,3,3.2,5.81,4.82,8.71l2-.41c.49-2.8,1.12-5.59,1.44-8.41q2.49-22.14,4.84-44.3c.92-8.75,1.21-17.6,2.6-26.27,3.31-20.59,7.15-41.1,10.68-61.66,2.5-14.55,4.8-29.14,7.28-43.69,1.42-8.34,3.34-16.6,4.48-25,1.41-10.35,2.75-20.75,3.19-31.17.51-12.33,6.61-17.83,18.86-16,2.71.4,5.54-.18,8.31-.13a13.5,13.5,0,0,1,3.62.75c3.21,1,6.54,1.73,9.53,3.18a9.87,9.87,0,0,1,3.87,4.29c1.64,3.1,2.82,6.44,4.2,9.68.25.59.8,1.17.79,1.75-.19,8.84,3.48,17.57,0,26.58-1.52,3.9-1.08,8.53-1.76,12.79-2.64,16.46-5.3,32.92-8.09,49.36-3,17.64-6.5,35.19-9.13,52.88-1.76,11.8-2.34,23.78-3.55,35.67-1.59,15.48-3.48,30.93-4.88,46.42-1.83,20.32-2.82,40.73-5.22,61-.78,6.64-4.62,13-7.52,19.24-.51,1.12-3.64.76-5,1.82-3.09,2.49-2.27,6.26-2.17,9.61.24,8.32-4.37,14.63-8,21.79l-5-2.77c-2.08,2.34-3.71,5.26-6.19,6.75-6.16,3.7-13.12,2-19.55-3.15-11-8.85-18-20.31-23.33-33.12a257.56,257.56,0,0,0-12.17-25.35c-9-16.2-16.73-32.94-24.16-49.87-8-18.35-16.29-36.64-24.1-55.1-5.38-12.73-9.95-25.81-15.32-38.55-2.82-6.68-6.91-12.83-9.81-19.48-2.84-6.49-4.45-13.53-7.41-19.95-3.56-7.71-8.09-15-12-22.51-1.81-3.51-3.1-7.29-4.77-10.88a38.43,38.43,0,0,0-2.74-4.37Z" transform="translate(-90.95 -84.38)"/><path class="cls-1" d="M951.46,215.66c-1.32,2-2.27,2.94-2.6,4.05-5.29,17.67-10.6,35.35-15.71,53.08-3.28,11.39-5.84,23-9.44,34.28-6.5,20.34-13.72,40.46-20.29,60.79-3.68,11.36-6.72,22.92-9.95,34.42-2.32,8.26-4.63,16.53-6.67,24.86C884.36,437.06,882,447,880.05,457c-1,5.37-2.47,10.23-6.77,14a13.58,13.58,0,0,0-3.24,4.65c-1.41,3.18-3.06,5.57-7.07,5.37-1.38-.07-2.84,1.1-4.22,1a100.21,100.21,0,0,1-10.64-1.39c-.64-.11-1.36-1.73-1.64-1.62-6.73,2.66-9.05-3.91-12.51-6.72-5.21-4.24-8.62-10.09-6.37-17.85,5.89-20.3,11.28-40.76,17.11-61.08,4.25-14.83,8.69-29.6,13.43-44.28,3.35-10.39,7.6-20.48,11-30.86,2.91-9,5-18.2,7.73-27.25q7.17-24.19,14.6-48.33c5-16.37,10.31-32.65,15.09-49.09,3-10.29,5-20.87,7.91-31.19a177.26,177.26,0,0,1,8.12-22.89c1-2.15,4.51-3.48,7.15-4.47a46.84,46.84,0,0,1,11-2.77c2.39-.28,5,.61,7.4,1.11a37.27,37.27,0,0,1,4.18,1.29,57.92,57.92,0,0,1,6.53,2.28c3.37,1.58,6.65,3.38,9.9,5.2,5.8,3.25,9.29,7.65,10.22,14.78.84,6.4,3.59,12.59,5.85,18.74,2.4,6.53,5.28,12.88,7.86,19.34q7,17.5,13.84,35.07c5.32,13.74,10.29,27.62,15.89,41.25,3.81,9.3,8.8,18.12,12.61,27.43,5.87,14.36,11,29,16.77,43.44,5.65,14.27,11.65,28.39,17.4,42.62,1.41,3.48,2.34,7.15,3.67,10.67a10.08,10.08,0,0,0,3.89,4.76,54.52,54.52,0,0,0,1.93-6c3.42-16.76,6.86-33.51,10.06-50.31,1.45-7.62,2.11-15.38,3.62-23,2.38-12,5.14-23.92,7.81-35.86,3.4-15.21,7-30.38,10.28-45.61q4.78-22.26,9.08-44.6c1.78-9.22,2.87-18.58,4.78-27.77,1.71-8.25,3.89-16.43,6.29-24.51,1.27-4.26,4.6-6.65,9.24-5.38,3.93,1.08,7.34.39,11-1,1.66-.64,4.85-.45,5.74.65,2.43,3,5.28,3.49,8.73,3.63,1.34.06,3.53,1.27,3.8,2.34,1.93,7.74,5.18,15.07,3.23,23.7s-1.49,17.71-2.75,26.5q-2.64,18.5-6.32,36.84c-2.84,14.08-6.56,28-9.28,42.07-2.14,11.07-3.12,22.36-5,33.48s-4.51,22.44-6.63,33.68c-2.2,11.75-3.89,23.61-6.35,35.3-4.36,20.79-9.57,41.4-13.53,62.26-1.64,8.63-5.25,16.9-4.51,26.13.38,4.86-1.37,9.94-2.54,14.83a8.39,8.39,0,0,1-3.09,4.08c-3,2.29-6.61,3.82-6.86,8.44,0,.88-1.63,2.25-2.66,2.41-5.84.89-11.72,2.09-17.58,2s-12.4-.07-17.11-2.78c-6.49-3.74-13-9.09-16.85-15.38-5.52-9.08-8.81-19.56-12.74-29.57-3.78-9.66-7.22-19.46-10.71-29.23-4-11.21-7.71-22.53-11.89-33.67-4.62-12.29-9.87-24.33-14.43-36.64-5.11-13.79-9.48-27.86-14.7-41.61-2.8-7.37-6.94-14.22-10.06-21.5-3.69-8.62-7-17.41-10.34-26.18q-4.56-12-8.82-24C955.55,228.35,953.79,222.71,951.46,215.66Z" transform="translate(-90.95 -84.38)"/><path class="cls-1" d="M280.72,93.91c6.27,4.58,13.1,5.73,20.62,5.64,5.68-.07,11.37,1.9,17.09,2.75,9.16,1.35,18.6,1.6,27.46,4,11.23,3,22.73,4.54,33.65,9.81,13.91,6.71,24,17.73,35.85,26.64A240.51,240.51,0,0,1,439,162.33c2.84,2.76,5,8,4.71,11.87a255.42,255.42,0,0,1-5.16,32.32c-.74,3.5-3.68,6.5-5.41,9.84-2.3,4.42-4.34,9-6.59,13.43a65,65,0,0,1-16.44,20.53c-3.67,3.11-6.68,7.06-10.5,9.93a118.8,118.8,0,0,1-14.64,9.15c-11,6-21.92,12.12-33.24,17.42-6.86,3.21-14.57,4.56-21.59,7.49s-13.55,6.74-21.39,10.71c2.58,1.57,4.24,2.71,6,3.65,14.83,7.8,30.12,14.86,44.43,23.52,19,11.49,32.93,28.32,45,46.67,9.75,14.78,20,29.28,28.88,44.58,6,10.36,10.37,21.75,14.73,33,3.09,7.95,4.24,16.68,7.55,24.52,3.62,8.58,4.22,17.59,5.92,26.47a13.46,13.46,0,0,1,0,2.22c-5.86.78-10.71,2.41-10.17,9.91.19,2.6-8.32,7.5-11.3,6.41a148.4,148.4,0,0,1-19.24-8.19c-4.27-2.29-8-5.73-11.58-9.09-1.16-1.09-1-3.55-1.49-5.39-2.73-11.06-5.24-22.19-8.26-33.18a148.78,148.78,0,0,0-16.55-37.38c-7-11.61-14-23.23-21.3-34.62-8.39-13-18.77-24.24-32-32.67C320.93,360,313,353.53,304.08,349c-9.44-4.83-19.64-8.29-29.73-11.7-7-2.38-14.42-3.67-21.65-5.46-.64-.16-1.31-.64-1.89-.55-11.62,1.81-18.93-6.61-27.47-11.85-1.87-1.15-2.06-4.86-3.36-7.2a26.83,26.83,0,0,0-3.5-4.15c-1.3,1.35-3.08,2.48-3.81,4.08-3.13,6.9-4.84,14.74-9.17,20.72-5.33,7.35-6.19,16.16-10.4,23.74-4.93,8.89-7.82,18.6-10.88,28.3-3.41,10.79-8.37,21.08-12.51,31.65q-5.37,13.71-10.39,27.55c-3.86,10.67-7.06,21.6-11.41,32-2.93,7-7.18,13.54-11.22,20-1.42,2.29-10.47,1.56-14.41-.16-3-1.31-6.39-1.72-9.41-3a14.16,14.16,0,0,1-5.18-3.73A83.7,83.7,0,0,1,99,477.76c-.88-1.51-.63-5.22.53-6.16,7.75-6.25,5.22-16.69,10.46-24.22,3.83-5.51,3.94-13.46,6.58-20,4-10.05,9-19.72,13.28-29.7,5-11.69,9.52-23.57,14.32-35.33q6.27-15.36,12.73-30.64c3.36-7.9,5.92-16.38,10.63-23.41,6.55-9.77,8-21.48,14.05-31.4,3.44-5.65,4.44-12.75,6.87-19.07,3-7.94,6.56-15.71,9.66-23.63,4-10.32,7.59-20.83,11.85-31,2.34-5.62,5.75-10.79,8.59-16.21,1.36-2.57,3.67-5.29,3.55-7.85-.25-5,4.86-7.49,4.26-13-.41-3.79,4.21-8,6.22-12.17,5.25-10.94,10.41-21.93,15.38-33,1.26-2.8,1.16-6.26,2.61-8.92a125.52,125.52,0,0,1,10.07-15.78c.88-1.16,4.42-1.51,6-.73C272.75,98.51,275.23,98.54,280.72,93.91ZM221.2,292.14c3.92-.54,6.71-.48,9.18-1.36,9.48-3.35,18.82-7.08,28.26-10.54,8.5-3.1,17.13-5.85,25.58-9.08,10.31-3.94,20.62-8,30.72-12.41,11.53-5.1,23.24-10,34.05-16.4,6.55-3.85,13.28-7.71,19.07-13.18,7.45-7.06,14.52-14.22,20.18-22.8a102,102,0,0,0,8.52-16.57c5.28-12.44,2.91-15.53-7.65-22-4.73-2.88-10-4.81-15.12-7.11-15.42-7-31.76-10.47-48.51-11.4-15.57-.86-31.18-.22-46.07,5.35-2.1.79-4.73,2-5.63,3.78-4.06,8-7.93,16.19-11.22,24.56-5.89,15-11.12,30.25-17,45.27-5.36,13.73-11.25,27.25-16.73,40.94-1.2,3-1.48,6.32-2.51,9.39C225,282.72,223.28,286.73,221.2,292.14Z" transform="translate(-90.95 -84.38)"/><path class="cls-1" d="M1860.11,154.27c.58,7.92,1.33,15.84,1.68,23.78,1,21.4,2.43,42.74-.23,64.2-1.74,14-1.75,28.22-2.38,42.35-1.24,28.08-4.24,56.07-2.94,84.27.57,12.36-1.61,24.86-.86,37.19,1.2,19.87-3.36,38.91-6.22,58.24-.92,6.24-1.23,12.56-1.83,18.85-.15,1.65.18,3.66-.63,4.9-3.64,5.51-7.18,11.2-11.67,16-1.68,1.77-5.85,1.46-8.91,1.62-13.5.74-24.29-4.95-31.39-16-2.26-3.51-1.34-9.65-.65-14.41,2.63-18.1,6.73-36,8.44-54.2,1.87-19.82,1.76-39.83,2.39-59.76.1-3.25-4.32-5.14-9.32-4.4-12.62,1.85-25.3,3.44-37.89,5.49-17.07,2.78-34.06,6.09-51.15,8.77-7.07,1.11-14.33,1-21.45,1.87a7.67,7.67,0,0,0-4.81,3.47c-6.24,10.71-12,21.72-18.34,32.34-4.55,7.59-9.89,14.7-14.81,22.07-4.77,7.13-9.29,14.43-14.19,21.46-6.89,9.9-14,19.63-21.06,29.43-3,4.15-5.76,8.5-9.07,12.39a87.47,87.47,0,0,1-10.33,10.22c-2.54,2.14-10.19.35-13.5-2.26a7.57,7.57,0,0,0-4.6-1.63c-8.6.41-12-2.19-13.44-10.6,0-.32,0-.76-.14-1-6.37-6.95-.53-11.61,3-16.83,6.12-9,12-18.13,18.1-27.1,6-8.81,12.59-17.26,18.29-26.26,9-14.2,18.25-28.32,25.91-43.23,8-15.55,17.54-30,27.6-44.14,6.86-9.67,14.41-18.84,21.41-28.42,4.85-6.64,9.08-13.73,13.93-20.38,8.45-11.6,17.24-23,25.74-34.55,3.59-4.89,6.69-10.14,10.24-15.07,2.51-3.48,5.37-6.72,8.09-10,13.08-16,26.57-31.6,37.46-49.26,8.37-13.56,18.66-25.66,29.74-37.09a18.13,18.13,0,0,0,3.26-4.36c4.77-9.61,13-13.83,23.06-16.13a32.06,32.06,0,0,1,17.48,1,18.87,18.87,0,0,1,13.49,15.06c1.46,7.24,2.07,14.66,3.06,22Zm-46.59,42.93-93.85,124.4,1.21,1.33c5-.88,9.91-1.85,14.88-2.62,13.49-2.08,27-4.05,40.47-6.1,4.32-.66,8.64-1.34,12.93-2.15,5-.93,9.94-1.86,14.8-3.16,1.06-.29,2.28-2.09,2.43-3.32,1.48-12.21,3-24.43,4-36.69q1.9-22.78,3-45.64C1813.86,215.07,1813.52,206.86,1813.52,197.2Z" transform="translate(-90.95 -84.38)"/><path class="cls-1" d="M2961.91,375.69c0-18.1-.54-36.21.21-54.28.44-10.48,2.76-20.91,4.61-31.3,1.39-7.81,2.69-15.76,5.24-23.24,4.76-14,10.72-27.53,15.56-41.48,4.23-12.21,12-22,20.3-31.37,9.85-11.11,21-20.89,36-24.71a69.11,69.11,0,0,1,31.95-.55c3.55.75,6.66.84,9.52,3.79,1.27,1.31,5,.06,7.68.22,4.74.3,9.69,0,14.15,1.37,9.34,2.8,18.43,6.43,27.58,9.85,4.41,1.66,8.76,3.51,13,5.49a14.44,14.44,0,0,1,4.88,3.38c5.5,6.34,11.27,12.53,16,19.43,3.5,5.09,5.55,11.18,8.26,16.83.35.73.54,1.72,1.13,2.14,5.46,3.91,5.61,10.36,7.92,15.82,1.32,3.14,3.94,5.7,5.7,8.69a27.58,27.58,0,0,1,3.21,7.12c3.17,12.77,6.39,25.61,5.93,38.87-.36,10.58-1.08,21.2-2.49,31.69-1.92,14.24-4.49,28.39-7.08,42.53a140.13,140.13,0,0,1-4.71,18.75c-1.43,4.32-4.21,8.18-6,12.42-5.46,13.15-14.63,23.4-24.94,32.88-5.72,5.26-10.74,11.32-16.69,16.28s-12.29,8.87-18.67,13c-5.73,3.66-11.38,7.8-17.66,10.15-10.47,3.93-21.37,6.74-32.17,9.71-5.53,1.52-11.21,3.06-16.89,3.38-8.82.49-17.36.52-25.25-5.88-7.18-5.81-16.34-9.1-24.13-14.26-4.94-3.28-9-7.86-13.37-12-9.1-8.7-13.82-20.35-19.73-31-3.07-5.55-3.26-12.75-4.45-19.26-2.06-11.38-3.89-22.8-5.82-34.2Zm88.84,72.67c7.32-1.84,14.66-3.6,21.94-5.57a19.61,19.61,0,0,0,6.74-2.87c7.79-5.95,15-12.76,23.11-18.14,9.06-6,15.49-14.28,21.21-22.86,10.22-15.35,15.84-32.92,20-50.74a201.74,201.74,0,0,0,5.42-34.82c.71-12.85,1.08-26.14-1.39-38.65-2.68-13.53-8.2-26.63-13.66-39.42-3.49-8.17-8.54-15.3-18.69-18.07-8.41-2.28-16.07-7.41-23.95-11.48-2.67-1.38-5-4.71-7.5-4.82a46,46,0,0,0-16.07,1.91c-25.85,8.46-37.3,29.14-43.94,53.46-3.39,12.44-6.49,25-9.13,37.59-2.3,11-5,22.12-5.31,33.25-.53,17.88-.51,35.87,3,53.61,1.84,9.28,2.53,18.87,5.16,27.9a117.64,117.64,0,0,0,10.38,23.93C3032.83,441.08,3038.94,448.61,3050.75,448.36Z" transform="translate(-90.95 -84.38)"/><path class="cls-1" d="M633.72,158c-1.55,7.6-3.14,16.53-5.27,25.33-1.15,4.79-3.47,9.3-4.76,14.07-1,3.72-1.05,7.69-1.85,11.47-2.75,13-5.39,26-8.55,38.83-5.27,21.42-10.87,42.76-16.4,64.11-2.86,11-6.71,21.88-8.62,33.06s-2.16,22.7-2.75,34.09c-.28,5.4.33,10.84.58,16.26a42.47,42.47,0,0,0,8.78,24.72c5.79,7.72,12,14.45,20.08,19.19a63.29,63.29,0,0,0,16.14,6.48c8.13,2.07,15.52-1.84,21.59-6.22,18.06-13,34.23-28,44.51-48.42,4.31-8.58,10.43-16.24,15.35-24.53,5.87-9.9,11.36-20,17-30.06,2.43-4.33,5.28-8.51,7-13.1,2.31-6,3.81-12.35,5.51-18.58Q747.63,284.36,753,264c3.91-14.69,8.13-29.31,11.5-44.13,2.27-9.95,3.38-20.18,4.84-30.31,1.28-8.86,9-14.41,17.87-13.55,6.3.61,12.72-.12,19.07.15a8.94,8.94,0,0,1,5.84,2.42,30.86,30.86,0,0,1,5.48,9,16.16,16.16,0,0,1,.92,8.31c-1.85,10.42-4,20.81-6.3,31.14-4.25,19-8.67,38-13.08,57-2.73,11.79-4.86,23.78-8.6,35.24-3.42,10.49-8.18,20.63-13.19,30.5-5.15,10.13-11.24,19.8-17.07,29.58-7.16,12-14.66,23.84-21.65,36-6.49,11.25-14,21.55-24.1,29.85-9.6,7.94-19.13,16-29.07,23.48A76,76,0,0,1,667.9,479c-8.13,3.17-16.72,6-25.32,6.81-7.25.68-14.8-1.69-22.2-2.81a119.24,119.24,0,0,1-11.74-2.11c-16.18-4.1-29.68-12.72-42.47-23.38-10.25-8.54-17.14-19.31-22.51-30.65-4.48-9.46-6.5-20.6-7.3-31.18a229.19,229.19,0,0,1,.57-43.12c1.63-14.06,5.78-27.84,9-41.7,2-8.39,4-16.77,6.44-25,3.22-11,7.08-21.77,10.18-32.77,3-10.54,5.35-21.24,8-31.88,2.7-11,5.26-22.12,8-33.13,3.34-13.24,6.84-26.44,10.29-39.65a28.19,28.19,0,0,1,1.64-5.16c1.58-3.29,3.78-5.63,8-5.54,3.59.07,7.22-1,10.79-.82,8.51.56,16.77,2.52,21.94,10C632.94,149.36,632.72,153.17,633.72,158Z" transform="translate(-90.95 -84.38)"/><path class="cls-1" d="M4779.17,215.66c-1.31,2-2.26,2.94-2.59,4.05-5.3,17.67-10.6,35.35-15.71,53.08-3.28,11.39-5.84,23-9.44,34.28-6.5,20.34-13.72,40.46-20.29,60.79-3.68,11.36-6.72,22.92-10,34.42-2.32,8.26-4.63,16.53-6.68,24.86-2.43,9.92-4.8,19.86-6.74,29.89-1,5.37-2.47,10.23-6.77,14a13.45,13.45,0,0,0-3.24,4.65c-1.41,3.18-3.06,5.57-7.07,5.37-1.39-.07-2.84,1.1-4.22,1a100.74,100.74,0,0,1-10.65-1.39c-.63-.11-1.36-1.73-1.63-1.62-6.74,2.66-9.06-3.91-12.51-6.72-5.21-4.24-8.62-10.09-6.37-17.85,5.89-20.3,11.27-40.76,17.1-61.08,4.26-14.83,8.7-29.6,13.44-44.28,3.35-10.39,7.6-20.48,11-30.86,2.92-9,5.05-18.2,7.74-27.25q7.17-24.19,14.6-48.33c5-16.37,10.31-32.65,15.08-49.09,3-10.29,5-20.87,7.92-31.19a177.26,177.26,0,0,1,8.12-22.89c.95-2.15,4.51-3.48,7.15-4.47a46.72,46.72,0,0,1,11-2.77c2.39-.28,4.94.61,7.4,1.11a36.48,36.48,0,0,1,4.17,1.29,58.78,58.78,0,0,1,6.54,2.28c3.37,1.58,6.65,3.38,9.9,5.2,5.79,3.25,9.29,7.65,10.22,14.78.84,6.4,3.58,12.59,5.85,18.74,2.4,6.53,5.28,12.88,7.86,19.34,4.65,11.67,9.29,23.35,13.83,35.07,5.33,13.74,10.3,27.62,15.9,41.25,3.81,9.3,8.8,18.12,12.61,27.43,5.87,14.36,11,29,16.77,43.44,5.65,14.27,11.65,28.39,17.4,42.62,1.4,3.48,2.34,7.15,3.66,10.67a10.11,10.11,0,0,0,3.9,4.76,56.74,56.74,0,0,0,1.93-6c3.41-16.76,6.85-33.51,10.06-50.31,1.45-7.62,2.11-15.38,3.62-23,2.38-12,5.14-23.92,7.81-35.86,3.4-15.21,7-30.38,10.28-45.61q4.79-22.26,9.08-44.6c1.77-9.22,2.87-18.58,4.77-27.77,1.71-8.25,3.89-16.43,6.3-24.51,1.27-4.26,4.6-6.65,9.24-5.38,3.93,1.08,7.34.39,11-1,1.66-.64,4.86-.45,5.75.65,2.42,3,5.27,3.49,8.73,3.63,1.34.06,3.53,1.27,3.8,2.34,1.93,7.74,5.18,15.07,3.23,23.7s-1.49,17.71-2.75,26.5q-2.64,18.5-6.32,36.84c-2.84,14.08-6.56,28-9.28,42.07-2.14,11.07-3.12,22.36-5,33.48S4972.12,327.8,4970,339c-2.21,11.75-3.89,23.61-6.35,35.3-4.36,20.79-9.57,41.4-13.53,62.26-1.64,8.63-5.25,16.9-4.52,26.13.39,4.86-1.36,9.94-2.54,14.83a8.31,8.31,0,0,1-3.08,4.08c-3,2.29-6.61,3.82-6.86,8.44-.05.88-1.64,2.25-2.67,2.41-5.83.89-11.72,2.09-17.57,2s-12.4-.07-17.11-2.78c-6.49-3.74-13-9.09-16.85-15.38-5.52-9.08-8.81-19.56-12.74-29.57-3.79-9.66-7.22-19.46-10.71-29.23-4-11.21-7.71-22.53-11.9-33.67-4.62-12.29-9.87-24.33-14.42-36.64-5.11-13.79-9.48-27.86-14.7-41.61-2.8-7.37-6.95-14.22-10.06-21.5-3.69-8.62-7-17.41-10.34-26.18q-4.56-12-8.82-24C4783.26,228.35,4781.51,222.71,4779.17,215.66Z" transform="translate(-90.95 -84.38)"/><path class="cls-1" d="M4108.44,93.91c6.26,4.58,13.1,5.73,20.61,5.64,5.69-.07,11.38,1.9,17.1,2.75,9.16,1.35,18.6,1.6,27.46,4,11.22,3,22.72,4.54,33.64,9.81,13.91,6.71,24,17.73,35.86,26.64a240.39,240.39,0,0,1,23.56,19.57c2.85,2.76,5,8,4.72,11.87a257.23,257.23,0,0,1-5.16,32.32c-.74,3.5-3.68,6.5-5.41,9.84-2.3,4.42-4.35,9-6.59,13.43a65.31,65.31,0,0,1-16.44,20.53c-3.68,3.11-6.68,7.06-10.5,9.93a118.92,118.92,0,0,1-14.65,9.15c-11,6-21.92,12.12-33.24,17.42-6.85,3.21-14.56,4.56-21.58,7.49s-13.55,6.74-21.39,10.71c2.58,1.57,4.24,2.71,6,3.65,14.83,7.8,30.12,14.86,44.43,23.52,19,11.49,32.93,28.32,45,46.67,9.75,14.78,20,29.28,28.88,44.58,6,10.36,10.37,21.75,14.73,33,3.09,7.95,4.24,16.68,7.54,24.52,3.63,8.58,4.23,17.59,5.92,26.47a13.33,13.33,0,0,1,0,2.22c-5.87.78-10.72,2.41-10.17,9.91.19,2.6-8.32,7.5-11.3,6.41a147.81,147.81,0,0,1-19.24-8.19c-4.27-2.29-8-5.73-11.58-9.09-1.16-1.09-1-3.55-1.49-5.39-2.74-11.06-5.25-22.19-8.26-33.18a149.5,149.5,0,0,0-16.55-37.38c-7-11.61-14-23.23-21.3-34.62-8.39-13-18.77-24.24-32-32.67-8.5-5.42-16.43-11.89-25.35-16.45-9.45-4.83-19.64-8.29-29.73-11.7-7-2.38-14.43-3.67-21.66-5.46-.64-.16-1.3-.64-1.88-.55-11.62,1.81-18.94-6.61-27.47-11.85-1.88-1.15-2.06-4.86-3.36-7.2a26.35,26.35,0,0,0-3.51-4.15c-1.29,1.35-3.07,2.48-3.8,4.08-3.13,6.9-4.85,14.74-9.18,20.72-5.32,7.35-6.18,16.16-10.39,23.74-4.93,8.89-7.82,18.6-10.88,28.3-3.41,10.79-8.37,21.08-12.51,31.65q-5.37,13.71-10.39,27.55c-3.86,10.67-7.06,21.6-11.42,32-2.92,7-7.17,13.54-11.21,20-1.42,2.29-10.47,1.56-14.42-.16-3-1.31-6.38-1.72-9.4-3a14.16,14.16,0,0,1-5.18-3.73,83.7,83.7,0,0,1-8.71-11.56c-.89-1.51-.63-5.22.53-6.16,7.74-6.25,5.21-16.69,10.46-24.22,3.83-5.51,3.94-13.46,6.57-20,4.06-10.05,9-19.72,13.29-29.7,5-11.69,9.51-23.57,14.32-35.33q6.27-15.36,12.73-30.64c3.36-7.9,5.92-16.38,10.63-23.41,6.54-9.77,8-21.48,14.05-31.4,3.44-5.65,4.44-12.75,6.87-19.07,3-7.94,6.56-15.71,9.65-23.63,4-10.32,7.59-20.83,11.86-31,2.34-5.62,5.74-10.79,8.59-16.21,1.36-2.57,3.67-5.29,3.54-7.85-.24-5,4.87-7.49,4.27-13-.41-3.79,4.2-8,6.22-12.17,5.25-10.94,10.41-21.93,15.38-33,1.26-2.8,1.16-6.26,2.6-8.92a124.47,124.47,0,0,1,10.08-15.78c.87-1.16,4.42-1.51,6-.73C4100.47,98.51,4103,98.54,4108.44,93.91Zm-59.52,198.23c3.91-.54,6.71-.48,9.18-1.36,9.47-3.35,18.81-7.08,28.26-10.54,8.49-3.1,17.12-5.85,25.57-9.08,10.32-3.94,20.63-8,30.73-12.41,11.52-5.1,23.23-10,34.05-16.4,6.54-3.85,13.28-7.71,19.06-13.18,7.46-7.06,14.53-14.22,20.19-22.8a102,102,0,0,0,8.51-16.57c5.29-12.44,2.91-15.53-7.65-22-4.72-2.88-10-4.81-15.11-7.11-15.42-7-31.76-10.47-48.51-11.4-15.58-.86-31.18-.22-46.08,5.35-2.09.79-4.73,2-5.62,3.78-4.06,8-7.94,16.19-11.22,24.56-5.89,15-11.13,30.25-17,45.27-5.36,13.73-11.25,27.25-16.74,40.94-1.19,3-1.47,6.32-2.5,9.39C4052.68,282.72,4051,286.73,4048.92,292.14Z" transform="translate(-90.95 -84.38)"/><path class="cls-1" d="M4461.44,158c-1.55,7.6-3.15,16.53-5.27,25.33-1.15,4.79-3.47,9.3-4.76,14.07-1,3.72-1.05,7.69-1.86,11.47-2.75,13-5.38,26-8.55,38.83-5.26,21.42-10.86,42.76-16.4,64.11-2.86,11-6.7,21.88-8.61,33.06s-2.17,22.7-2.76,34.09c-.28,5.4.33,10.84.59,16.26a42.41,42.41,0,0,0,8.78,24.72c5.79,7.72,12,14.45,20.08,19.19a63.29,63.29,0,0,0,16.14,6.48c8.13,2.07,15.52-1.84,21.59-6.22,18.06-13,34.22-28,44.51-48.42,4.31-8.58,10.43-16.24,15.35-24.53,5.87-9.9,11.36-20,17-30.06,2.42-4.33,5.28-8.51,7-13.1,2.3-6,3.8-12.35,5.51-18.58q5.53-20.31,10.93-40.65c3.91-14.69,8.13-29.31,11.5-44.13,2.26-9.95,3.38-20.18,4.84-30.31,1.28-8.86,9-14.41,17.87-13.55,6.3.61,12.72-.12,19.07.15a9,9,0,0,1,5.84,2.42,30.86,30.86,0,0,1,5.48,9,16.27,16.27,0,0,1,.91,8.31c-1.84,10.42-4,20.81-6.29,31.14-4.26,19-8.67,38-13.08,57-2.74,11.79-4.86,23.78-8.6,35.24-3.42,10.49-8.18,20.63-13.19,30.5-5.15,10.13-11.25,19.8-17.07,29.58-7.16,12-14.66,23.84-21.65,36-6.49,11.25-14,21.55-24.1,29.85-9.6,7.94-19.13,16-29.08,23.48A75.81,75.81,0,0,1,4495.61,479c-8.12,3.17-16.72,6-25.31,6.81-7.25.68-14.8-1.69-22.2-2.81a118.71,118.71,0,0,1-11.74-2.11c-16.18-4.1-29.68-12.72-42.47-23.38-10.25-8.54-17.14-19.31-22.51-30.65-4.49-9.46-6.5-20.6-7.3-31.18a227.52,227.52,0,0,1,.57-43.12c1.62-14.06,5.77-27.84,9-41.7,2-8.39,4-16.77,6.44-25,3.21-11,7.07-21.77,10.18-32.77,3-10.54,5.35-21.24,7.95-31.88,2.7-11,5.27-22.12,8.05-33.13,3.35-13.24,6.84-26.44,10.3-39.65a29,29,0,0,1,1.63-5.16c1.59-3.29,3.79-5.63,8-5.54,3.6.07,7.23-1,10.79-.82,8.52.56,16.78,2.52,21.95,10C4460.66,149.36,4460.44,153.17,4461.44,158Z" transform="translate(-90.95 -84.38)"/><path class="cls-1" d="M2898.07,234.19c-3.53,1.83-6.11,3.14-8.67,4.5-2.91,1.57-6.24,3-8.24-.61-2.38-4.29-6.92-4.6-10.24-7s-6.91-5.4-8-8.91c-1.49-4.66-1-10.06-.79-15.12.34-7.4,1.51-14.76-1.82-21.88-1.8-3.86-4.3-6.31-8.61-7.19a68.84,68.84,0,0,0-46,6.33c-6.24,3.19-11.34,9.11-16.12,14.53-4.53,5.14-8,11.23-11.86,16.94a18,18,0,0,0-2.91,14.63c0,.16.17.32.15.47-1.57,16,9.71,23,21,30,6.49,4.07,12.87,8.31,19.38,12.34,5.55,3.44,11.05,7,16.85,9.95,16.27,8.29,28.8,20.87,40.14,34.75,13.71,16.8,21.45,36.41,24.1,57.68,1.73,13.79,1.52,27.71-3.1,41.38-3.46,10.23-6.85,20.4-13,29.34-3.43,5-7.69,9.43-11.6,14.1-8.17,9.77-18.93,16.24-29.71,22.49-5.05,2.93-11,4.22-16.54,6.4-5,2-10,4-14.92,6.27-8.82,4.08-18.34,3.4-27.27,2.39-9.51-1.08-18.77-4.79-28-7.81-7.37-2.41-14.46-5.67-21.79-8.24A99.73,99.73,0,0,1,2701.42,466c-2.29-1.8-5-3.1-7.37-4.77-12.55-8.71-20.76-20.38-24.32-35.35a115.91,115.91,0,0,0-4.3-12.67c-3.72-10.25-4.34-20.9-3.85-31.62a24.57,24.57,0,0,1,9.94-19.28,5.56,5.56,0,0,1,2.29-.88c5.08-1,10.15-2.11,15.28-2.69,1.73-.19,3.71.95,5.44,1.78,1.54.73,2.92,2.71,4.31,2.66,3.92-.16,4.75,2,5.13,5.11,1.86,14.86,4.49,29.48,10.11,43.55,5.8,14.52,15,25,29.21,32.14,11.54,5.77,24,8.1,35.93,12.19,6.92,2.36,13.93-.64,20-4.81,7.33-5,14.86-9.75,22-15,2.36-1.73,3.85-4.66,5.78-7,7.32-8.85,10.24-19.69,14.24-30.15,5.55-14.53,1.43-27.83-2.33-41.88-3.62-13.49-12.3-22.89-21.23-32.21-6.85-7.14-15.43-12.37-24.34-17-6.28-3.25-11.92-7.73-17.83-11.67-.55-.37-1-1-1.54-1.25-11.21-4.93-20.52-12.66-28.33-21.71-13-15.08-19.49-33.2-15.5-52.9,3.06-15.12,10.29-29.2,19.73-41.69a235.9,235.9,0,0,1,19.18-22.67,35.43,35.43,0,0,1,13.12-8.14c9.7-3.47,19.63-6.71,29.74-8.55,7.49-1.37,15.43-.69,23.14-.34a150.13,150.13,0,0,1,18.13,2.25c17.48,2.93,31.62,10.59,41.7,26.13,6.21,9.56,12.12,19,13.61,30.26.95,7.09-.11,14.47-.6,21.7a5.42,5.42,0,0,1-2.69,3.93C2899.8,225.57,2899.8,230.88,2898.07,234.19Z" transform="translate(-90.95 -84.38)"/><path class="cls-1" d="M1987.43,455c13.81-.67,26.27-.95,38.67-2,10.41-.86,20.75-2.6,31.13-3.9,2.29-.29,4.62-.29,6.92-.53,9.51-1,19-1.94,28.5-3.11,11-1.35,22-2.92,33-4.4.17,0,.37-.17.48-.11,5.59,3,11.3,5.87,16.65,9.3,1.16.74,1.17,3.54,1.39,5.44.39,3.38,1.17,6.9.59,10.15a20.38,20.38,0,0,1-4.11,8.37,42.94,42.94,0,0,1-8,7.82c-2.26,1.72-5.08,3.5-7.79,3.73-16.85,1.44-33.76,2.33-50.63,3.65-9.54.74-19.1,1.63-28.56,3-6.8,1-13.4,3.71-20.21,4.35-11.62,1.08-23.19,4.18-35,1.82a16.35,16.35,0,0,0-7.36.3c-8.28,2.34-15.1-1.6-22.33-4.43-8.28-3.24-14.68-8.56-20.35-15.31-6.71-8-9.76-16.08-6.37-26.74,2.68-8.45,3.5-17.51,4.88-26.34,3.27-21,9.28-41.22,15.27-61.52,3.71-12.57,6.28-25.47,9.34-38.23,3.74-15.56,5.88-31.47,12.44-46.39,3.63-8.26,5.13-17.45,7.68-26.2,1.48-5.09,3.16-10.12,4.71-15.19,5.51-18,8.35-36.51,10.71-55.15.9-7,3.31-13.88,4.63-20.89,1.43-7.64,2.22-15.41,3.62-23.07,1.31-7.2,4.73-9.64,12-9.2.67,0,1.47.35,2,.09,7.77-4,15.09-.07,22.57,1.17,5.34.89,9.14,5.07,8.83,10.45-.8,13.91-.84,27.95-2.94,41.66-3.39,22.12-7.71,44.13-12.6,66-2.81,12.59-8,24.63-11.26,37.15-4.53,17.5-8.06,35.25-12.36,52.81-3.62,14.8-7.35,29.59-11.72,44.17a373.48,373.48,0,0,0-12.52,58.94C1988.72,446.56,1988.1,450.41,1987.43,455Z" transform="translate(-90.95 -84.38)"/><path class="cls-1" d="M2299.54,435.57c3.57-.7,7.13-1.44,10.71-2.08,12-2.16,24-4.2,35.92-6.44,7.47-1.4,14.88-3.14,22.34-4.6s15.24-2.7,22.8-4.28c5-1,9.91-2.5,14.86-3.77a15.56,15.56,0,0,1,3.3-.75c5.14-.14,10.31-.45,15.43-.11,2.16.14,4.24,1.71,6.34,2.66,1.29.58,2.49,1.55,3.84,1.79,6.67,1.16,9.89,4.67,10,11.35a92.31,92.31,0,0,1-.27,10.39c-.51,5.27-2.26,9.38-7.86,11.92-3.69,1.67-5.26,7.06-10.13,7.78a31.1,31.1,0,0,1-4.72.31c-7.22-.06-14.5-.75-21.65-.09-6.2.58-12.2,3-18.38,4-8.29,1.37-16.72,1.86-25,3.3-13.84,2.39-27.59,5.33-41.42,7.84-6.34,1.15-12.78,1.82-19.17,2.76-3.1.45-6.17,1.08-9.28,1.53a7.89,7.89,0,0,1-3.45,0c-6.39-2.1-12.65-4.58-19.09-6.52-12.07-3.63-19.83-12.85-25.7-22.64-3.72-6.19-7.35-14.16-3.34-23,2.62-5.74,3.14-12.56,4-19,1.26-9.71,1.42-19.58,3.09-29.2,1.91-10.93,5.21-21.6,7.48-32.48,3.57-17.05,7.11-34.13,10-51.3,1.88-11.11,2.38-22.45,3.94-33.62,2.44-17.4,5.31-34.73,7.89-52.11,2.3-15.56,4.36-31.16,6.74-46.71a157.77,157.77,0,0,1,3.51-16.08c1.22-4.7,5.6-5.16,9.4-6.21a102.4,102.4,0,0,1,9.93-2.52,24.47,24.47,0,0,1,6.89,0c3.3.39,7,.38,9.72,1.89,3,1.63,5.36,4.59,7.46,7.39,3.73,5,3.77,10.5,2.35,16.49-1.1,4.64-.82,9.59-1.38,14.37-1.74,15.17-3.37,30.35-5.46,45.47-3.08,22.31-6.58,44.57-9.77,66.87-1.26,8.86-1.76,17.85-3.32,26.65-2.72,15.3-6.33,30.45-9,45.76-2.95,17.17-5.26,34.46-7.8,51.7-.65,4.43-.94,8.92-1.69,13.33-1,5.89.63,7.77,6.82,7.44,1-.05,2,0,3,0C2299.48,435.32,2299.51,435.44,2299.54,435.57Z" transform="translate(-90.95 -84.38)"/><path class="cls-1" d="M2526.34,372.16q4.69-28.7,9.4-57.39c2.42-14.55,5.18-29,7.33-43.64,2.39-16.2,3.92-32.52,6.51-48.68,1.44-8.93,4.38-17.62,6.5-26.45,2.81-11.76,6.16-23.38,6.5-35.66.32-11.35,5.72-16.28,17.11-16.55,5.73-.13,11.37-.48,17,2.45,2.51,1.3,7.23-1,9,2.79,2.55,5.5,6.52,10.63,5.56,17.38-2.08,14.6-3.75,29.27-6,43.85-2.95,18.78-6.32,37.49-9.52,56.23-1.15,6.68-2.37,13.34-3.48,20-2.11,12.6-4.26,25.2-6.2,37.82-1.21,7.85-2.06,15.74-3.13,23.61-.76,5.57-2,11.1-2.37,16.69-1.39,20.38-2.34,40.8-3.81,61.17-.57,8.05-2.18,16-3.09,24-.38,3.39-2.13,5.11-5,6.79s-4.45,4.69-7.06,6.48A115.11,115.11,0,0,1,2549.3,470c-.45.23-1.53-.83-2.34-1.24-3.95-2-8-3.77-11.81-6a28.32,28.32,0,0,1-7.08-5.68c-2.42-2.84-4.85-6-6.07-9.45a25.93,25.93,0,0,1-1.06-10.92c1.76-17.17,4-34.3,5.81-51.46.45-4.26.06-8.62.06-12.93Z" transform="translate(-90.95 -84.38)"/><path class="cls-1" d="M1413.26,470.88a78.48,78.48,0,0,1-8,31.72c-4.43,9-8.36,18.52-14.5,26.23-5.35,6.74-10.48,14.68-19.91,17.38-4.82,1.39-8.72.19-12.74-2.14a72,72,0,0,0-9.59-4.87c-5.71-2.25-14.23-14.29-13.39-20.38.36-2.63,2.14-5.35,4-7.42,5.68-6.42,11.59-12.58,13.87-21.24.52-2,2.34-3.64,3-5.63,4-12.85,4.58-25.77-.4-38.48-1.42-3.63-4.61-6.66-5.58-10.33-1.31-5-3.17-11.12-1.34-15.23,2.39-5.37,7.6-9.71,15.28-8.57,3.47.52,7.26-1.21,10.93-1.78a11.51,11.51,0,0,1,4.3,0c3.13.75,6.66,1.1,9.16,2.85a32,32,0,0,1,9.12,9.25c6.25,10.55,11.12,21.78,13.5,33.92C1411.83,461.05,1412.47,466,1413.26,470.88Z" transform="translate(-90.95 -84.38)"/><path class="cls-1" d="M3772.3,470.88a78.48,78.48,0,0,1-8,31.72c-4.42,9-8.36,18.52-14.5,26.23-5.35,6.74-10.48,14.68-19.91,17.38-4.82,1.39-8.72.19-12.74-2.14a72,72,0,0,0-9.59-4.87c-5.71-2.25-14.23-14.29-13.39-20.38.36-2.63,2.14-5.35,4-7.42,5.68-6.42,11.59-12.58,13.87-21.24.53-2,2.34-3.64,2.95-5.63,4-12.85,4.58-25.77-.4-38.48-1.42-3.63-4.61-6.66-5.58-10.33-1.31-5-3.17-11.12-1.34-15.23,2.39-5.37,7.6-9.71,15.28-8.57,3.47.52,7.26-1.21,10.93-1.78a11.51,11.51,0,0,1,4.3,0c3.13.75,6.66,1.1,9.16,2.85a32,32,0,0,1,9.12,9.25c6.25,10.55,11.12,21.78,13.5,33.92C3770.87,461.05,3771.51,466,3772.3,470.88Z" transform="translate(-90.95 -84.38)"/></g><g id="Layer_1_copy_2" data-name="Layer 1 copy 2"><path class="cls-2" d="M3360.77,256.31c-1,6.19-1.89,12.41-3.05,18.57-2.79,14.82-5.89,29.59-8.52,44.44-3,17.15-5.63,34.37-8.6,51.53-1,5.71-3,11.25-3.76,17-1.9,15.46-3.14,31-5,46.46-1.24,10.21-3.6,20.3-4.63,30.53-.79,7.9,0,16-.45,23.91a77.74,77.74,0,0,1-2.82,16.15c-.62,2.21-3.22,5.42-5,5.44-4.28.05-5.16,3.15-6.64,5.58-3.38,5.57-8.84,6.7-14.24,2.88-2-1.39-4.73-1.7-6.6-3.18-8.61-6.78-18.32-13.29-19-25.49-.45-8.69.8-17.53,2-26.22,2.06-15.24,4.67-30.4,7-45.61,3.46-22.6,6.69-45.24,10.36-67.81,2.6-16.06,5.73-32,8.7-48q3.81-20.54,7.81-41c2.38-12.19,5.32-24.29,7.2-36.55a146.63,146.63,0,0,1,6.87-27.29c2.3-6.41,6.8-7.65,12.29-8.89,2.86-.64,5.36-2.76,8.21-3.63,4.15-1.27,8.48-2.83,12.72-2.8a154.36,154.36,0,0,1,21.2,2.09c1.48.22,3.21,2,3.94,3.43,5.47,11.05,10.53,22.3,16.1,33.29,2.66,5.24,6.36,10,9.24,15.09,7.17,12.77,14.57,25.45,21.09,38.56,7.29,14.67,13.89,29.69,20.43,44.71,4,9.08,7,18.55,10.87,27.66,3,7.21,6.84,14.1,10.13,21.21,3,6.58,5.89,13.25,8.76,19.92,5.39,12.54,10.67,25.13,16.14,37.64,1.32,3,3.2,5.81,4.82,8.71l2-.41c.49-2.8,1.12-5.59,1.44-8.41q2.49-22.14,4.84-44.3c.92-8.75,1.21-17.6,2.6-26.27,3.31-20.59,7.15-41.1,10.68-61.66,2.5-14.55,4.8-29.14,7.28-43.69,1.42-8.34,3.34-16.6,4.48-25,1.41-10.35,2.75-20.75,3.19-31.17.51-12.33,6.61-17.83,18.86-16,2.71.4,5.54-.18,8.31-.13a13.5,13.5,0,0,1,3.62.75c3.21,1,6.54,1.73,9.53,3.18a9.87,9.87,0,0,1,3.87,4.29c1.64,3.1,2.82,6.44,4.2,9.68.25.59.8,1.17.79,1.75-.19,8.84,3.48,17.57,0,26.58-1.52,3.9-1.08,8.53-1.76,12.79-2.64,16.46-5.3,32.92-8.09,49.36-3,17.64-6.5,35.19-9.13,52.88-1.76,11.8-2.34,23.78-3.55,35.67-1.59,15.48-3.48,30.93-4.88,46.42-1.83,20.32-2.82,40.73-5.22,61-.78,6.64-4.62,13-7.52,19.24-.51,1.12-3.64.76-5,1.82-3.09,2.49-2.27,6.26-2.17,9.61.24,8.32-4.37,14.63-8,21.79l-5-2.77c-2.08,2.34-3.71,5.26-6.19,6.75-6.16,3.7-13.12,2-19.55-3.15-11-8.85-18-20.31-23.33-33.12a257.56,257.56,0,0,0-12.17-25.35c-9-16.2-16.73-32.94-24.16-49.87-8-18.35-16.29-36.64-24.1-55.1-5.38-12.73-9.95-25.81-15.32-38.55-2.82-6.68-6.91-12.83-9.81-19.48-2.84-6.49-4.45-13.53-7.41-19.95-3.56-7.71-8.09-15-12-22.51-1.81-3.51-3.1-7.29-4.77-10.88a38.43,38.43,0,0,0-2.74-4.37Z" transform="translate(-90.95 -84.38)"/><path class="cls-2" d="M972.46,243.66c-1.32,2-2.27,2.94-2.6,4.05-5.29,17.67-10.6,35.35-15.71,53.08-3.28,11.39-5.84,23-9.44,34.28-6.5,20.34-13.72,40.46-20.29,60.79-3.68,11.36-6.72,22.92-9.95,34.42-2.32,8.26-4.63,16.53-6.67,24.86C905.36,465.06,903,475,901.05,485c-1,5.37-2.47,10.23-6.77,14a13.58,13.58,0,0,0-3.24,4.65c-1.41,3.18-3.06,5.57-7.07,5.37-1.38-.07-2.84,1.1-4.22,1a100.21,100.21,0,0,1-10.64-1.39c-.64-.11-1.36-1.73-1.64-1.62-6.73,2.66-9.05-3.91-12.51-6.72-5.21-4.24-8.62-10.09-6.37-17.85,5.89-20.3,11.28-40.76,17.11-61.08,4.25-14.83,8.69-29.6,13.43-44.28,3.35-10.39,7.6-20.48,11-30.86,2.91-9,5-18.2,7.73-27.25q7.17-24.19,14.6-48.33c5-16.37,10.31-32.65,15.09-49.09,3-10.29,5-20.87,7.91-31.19a177.26,177.26,0,0,1,8.12-22.89c1-2.15,4.51-3.48,7.15-4.47a46.84,46.84,0,0,1,11-2.77c2.39-.28,5,.61,7.4,1.11a37.27,37.27,0,0,1,4.18,1.29,57.92,57.92,0,0,1,6.53,2.28c3.37,1.58,6.65,3.38,9.9,5.2,5.8,3.25,9.29,7.65,10.22,14.78.84,6.4,3.59,12.59,5.85,18.74,2.4,6.53,5.28,12.88,7.86,19.34q7,17.5,13.84,35.07c5.32,13.74,10.29,27.62,15.89,41.25,3.81,9.3,8.8,18.12,12.61,27.43,5.87,14.36,11,29,16.77,43.44,5.65,14.27,11.65,28.39,17.4,42.62,1.41,3.48,2.34,7.15,3.67,10.67a10.08,10.08,0,0,0,3.89,4.76,54.52,54.52,0,0,0,1.93-6c3.42-16.76,6.86-33.51,10.06-50.31,1.45-7.62,2.11-15.38,3.62-23,2.38-12,5.14-23.92,7.81-35.86,3.4-15.21,7-30.38,10.28-45.61q4.78-22.26,9.08-44.6c1.78-9.22,2.87-18.58,4.78-27.77,1.71-8.25,3.89-16.43,6.29-24.51,1.27-4.26,4.6-6.65,9.24-5.38,3.93,1.08,7.34.39,11-1,1.66-.64,4.85-.45,5.74.65,2.43,3,5.28,3.49,8.73,3.63,1.34.06,3.53,1.27,3.8,2.34,1.93,7.74,5.18,15.07,3.23,23.7s-1.49,17.71-2.75,26.5q-2.64,18.5-6.32,36.84c-2.84,14.08-6.56,28-9.28,42.07-2.14,11.07-3.12,22.36-5,33.48s-4.51,22.44-6.63,33.68c-2.2,11.75-3.89,23.61-6.35,35.3-4.36,20.79-9.57,41.4-13.53,62.26-1.64,8.63-5.25,16.9-4.51,26.13.38,4.86-1.37,9.94-2.54,14.83a8.39,8.39,0,0,1-3.09,4.08c-3,2.29-6.61,3.82-6.86,8.44,0,.88-1.63,2.25-2.66,2.41-5.84.89-11.72,2.09-17.58,2s-12.4-.07-17.11-2.78c-6.49-3.74-13-9.09-16.85-15.38-5.52-9.08-8.81-19.56-12.74-29.57-3.78-9.66-7.22-19.46-10.71-29.23-4-11.21-7.71-22.53-11.89-33.67-4.62-12.29-9.87-24.33-14.43-36.64-5.11-13.79-9.48-27.86-14.7-41.61-2.8-7.37-6.94-14.22-10.06-21.5-3.69-8.62-7-17.41-10.34-26.18q-4.56-12-8.82-24C976.55,256.35,974.79,250.71,972.46,243.66Z" transform="translate(-90.95 -84.38)"/><path class="cls-2" d="M301.72,121.91c6.27,4.58,13.1,5.73,20.62,5.64,5.68-.07,11.37,1.9,17.09,2.75,9.16,1.35,18.6,1.6,27.46,4,11.23,3.05,22.73,4.54,33.65,9.81,13.91,6.71,24,17.73,35.85,26.64A240.51,240.51,0,0,1,460,190.33c2.84,2.76,5,8,4.71,11.87a255.42,255.42,0,0,1-5.16,32.32c-.74,3.5-3.68,6.5-5.41,9.84-2.3,4.42-4.34,9-6.59,13.43a65,65,0,0,1-16.44,20.53c-3.67,3.11-6.68,7.06-10.5,9.93a118.8,118.8,0,0,1-14.64,9.15c-11,6-21.92,12.12-33.24,17.42-6.86,3.21-14.57,4.56-21.59,7.49s-13.55,6.74-21.39,10.71c2.58,1.57,4.24,2.71,6,3.65,14.83,7.8,30.12,14.86,44.43,23.52,19,11.49,32.93,28.32,45,46.67,9.75,14.78,20,29.28,28.88,44.58,6,10.36,10.37,21.75,14.73,33,3.09,7.95,4.24,16.68,7.55,24.52,3.62,8.58,4.22,17.59,5.92,26.47a13.46,13.46,0,0,1,0,2.22c-5.86.78-10.71,2.41-10.17,9.91.19,2.6-8.32,7.5-11.3,6.41a148.4,148.4,0,0,1-19.24-8.19c-4.27-2.29-8-5.73-11.58-9.09-1.16-1.09-1-3.55-1.49-5.39-2.73-11.06-5.24-22.19-8.26-33.18a148.78,148.78,0,0,0-16.55-37.38c-7-11.61-14-23.23-21.3-34.62-8.39-13-18.77-24.24-32-32.67C341.93,388,334,381.53,325.08,377c-9.44-4.83-19.64-8.29-29.73-11.7-7-2.38-14.42-3.67-21.65-5.46-.64-.16-1.31-.64-1.89-.55-11.62,1.81-18.93-6.61-27.47-11.85-1.87-1.15-2.06-4.86-3.36-7.2a26.83,26.83,0,0,0-3.5-4.15c-1.3,1.35-3.08,2.48-3.81,4.08-3.13,6.9-4.84,14.74-9.17,20.72-5.33,7.35-6.19,16.16-10.4,23.74-4.93,8.89-7.82,18.6-10.88,28.3-3.41,10.79-8.37,21.08-12.51,31.65q-5.37,13.71-10.39,27.55c-3.86,10.67-7.06,21.6-11.41,32-2.93,7-7.18,13.54-11.22,20-1.42,2.29-10.47,1.56-14.41-.16-3-1.31-6.39-1.72-9.41-3a14.16,14.16,0,0,1-5.18-3.73A83.7,83.7,0,0,1,120,505.76c-.88-1.51-.63-5.22.53-6.16,7.75-6.25,5.22-16.69,10.46-24.22,3.83-5.51,3.94-13.46,6.58-20,4-10.05,9-19.72,13.28-29.7,5-11.69,9.52-23.57,14.32-35.33q6.27-15.36,12.73-30.64c3.36-7.9,5.92-16.38,10.63-23.41,6.55-9.77,8-21.48,14.05-31.4,3.44-5.65,4.44-12.75,6.87-19.07,3-7.94,6.56-15.71,9.66-23.63,4-10.32,7.59-20.83,11.85-31.05,2.34-5.62,5.75-10.79,8.59-16.21,1.36-2.57,3.67-5.29,3.55-7.85-.25-5,4.86-7.49,4.26-13-.41-3.79,4.21-8,6.22-12.17,5.25-10.94,10.41-21.93,15.38-33,1.26-2.8,1.16-6.26,2.61-8.92a125.52,125.52,0,0,1,10.07-15.78c.88-1.16,4.42-1.51,6-.73C293.75,126.51,296.23,126.54,301.72,121.91ZM242.2,320.14c3.92-.54,6.71-.48,9.18-1.36,9.48-3.35,18.82-7.08,28.26-10.54,8.5-3.1,17.13-5.85,25.58-9.08,10.31-3.94,20.62-8,30.72-12.41,11.53-5.1,23.24-10,34.05-16.4,6.55-3.85,13.28-7.71,19.07-13.18,7.45-7.06,14.52-14.22,20.18-22.8a102,102,0,0,0,8.52-16.57c5.28-12.44,2.91-15.53-7.65-22-4.73-2.88-10-4.81-15.12-7.11-15.42-7-31.76-10.47-48.51-11.4-15.57-.86-31.18-.22-46.07,5.35-2.1.79-4.73,2-5.63,3.78-4.06,8-7.93,16.19-11.22,24.56-5.89,15-11.12,30.25-17,45.27-5.36,13.73-11.25,27.25-16.73,40.94-1.2,3-1.48,6.32-2.51,9.39C246,310.72,244.28,314.73,242.2,320.14Z" transform="translate(-90.95 -84.38)"/><path class="cls-2" d="M1881.11,182.27c.58,7.92,1.33,15.84,1.68,23.78,1,21.4,2.43,42.74-.23,64.2-1.74,14-1.75,28.22-2.38,42.35-1.24,28.08-4.24,56.07-2.94,84.27.57,12.36-1.61,24.86-.86,37.19,1.2,19.87-3.36,38.91-6.22,58.24-.92,6.24-1.23,12.56-1.83,18.85-.15,1.65.18,3.66-.63,4.9-3.64,5.51-7.18,11.2-11.67,16-1.68,1.77-5.85,1.46-8.91,1.62-13.5.74-24.29-5-31.39-16-2.26-3.51-1.34-9.65-.65-14.41,2.63-18.1,6.73-36,8.44-54.2,1.87-19.82,1.76-39.83,2.39-59.76.1-3.25-4.32-5.14-9.32-4.4-12.62,1.85-25.3,3.44-37.89,5.49-17.07,2.78-34.06,6.09-51.15,8.77-7.07,1.11-14.33,1-21.45,1.87a7.67,7.67,0,0,0-4.81,3.47c-6.24,10.71-12,21.72-18.34,32.34-4.55,7.59-9.89,14.7-14.81,22.07-4.77,7.13-9.29,14.43-14.19,21.46-6.89,9.9-14,19.63-21.06,29.43-3,4.15-5.76,8.5-9.07,12.39a87.47,87.47,0,0,1-10.33,10.22c-2.54,2.14-10.19.35-13.5-2.26a7.57,7.57,0,0,0-4.6-1.63c-8.6.41-12-2.19-13.44-10.6,0-.32,0-.76-.14-1-6.37-7-.53-11.61,3-16.83,6.12-9,12-18.13,18.1-27.1,6-8.81,12.59-17.26,18.29-26.26,9-14.2,18.25-28.32,25.91-43.23,8-15.55,17.54-30,27.6-44.14,6.86-9.67,14.41-18.84,21.41-28.42,4.85-6.64,9.08-13.73,13.93-20.38,8.45-11.6,17.24-23,25.74-34.55,3.59-4.89,6.69-10.14,10.24-15.07,2.51-3.48,5.37-6.72,8.09-10.05,13.08-16,26.57-31.6,37.46-49.26,8.37-13.56,18.66-25.66,29.74-37.09a18.13,18.13,0,0,0,3.26-4.36c4.77-9.61,13-13.83,23.06-16.13a32.06,32.06,0,0,1,17.48,1,18.87,18.87,0,0,1,13.49,15.06c1.46,7.24,2.07,14.66,3.06,22Zm-46.59,42.93-93.85,124.4,1.21,1.33c5-.88,9.91-1.85,14.88-2.62,13.49-2.08,27-4.05,40.47-6.1,4.32-.66,8.64-1.34,12.93-2.15,5-.93,9.94-1.86,14.8-3.16,1.06-.29,2.28-2.09,2.43-3.32,1.48-12.21,3-24.43,4-36.69q1.9-22.78,3-45.64C1834.86,243.07,1834.52,234.86,1834.52,225.2Z" transform="translate(-90.95 -84.38)"/><path class="cls-2" d="M2982.91,403.69c0-18.1-.54-36.21.21-54.28.44-10.48,2.76-20.91,4.61-31.3,1.39-7.81,2.69-15.76,5.24-23.24,4.76-14,10.72-27.53,15.56-41.48,4.23-12.21,12-22,20.3-31.37,9.85-11.11,21-20.89,36-24.71a69.11,69.11,0,0,1,31.95-.55c3.55.75,6.66.84,9.52,3.79,1.27,1.31,5,.06,7.68.22,4.74.3,9.69,0,14.15,1.37,9.34,2.8,18.43,6.43,27.58,9.85,4.41,1.66,8.76,3.51,13,5.49a14.44,14.44,0,0,1,4.88,3.38c5.5,6.34,11.27,12.53,16,19.43,3.5,5.09,5.55,11.18,8.26,16.83.35.73.54,1.72,1.13,2.14,5.46,3.91,5.61,10.36,7.92,15.82,1.32,3.14,3.94,5.7,5.7,8.69a27.58,27.58,0,0,1,3.21,7.12c3.17,12.77,6.39,25.61,5.93,38.87-.36,10.58-1.08,21.2-2.49,31.69-1.92,14.24-4.49,28.39-7.08,42.53a140.13,140.13,0,0,1-4.71,18.75c-1.43,4.32-4.21,8.18-6,12.42-5.46,13.15-14.63,23.4-24.94,32.88-5.72,5.26-10.74,11.32-16.69,16.28s-12.29,8.87-18.67,13c-5.73,3.66-11.38,7.8-17.66,10.15-10.47,3.93-21.37,6.74-32.17,9.71-5.53,1.52-11.21,3.06-16.89,3.38-8.82.49-17.36.52-25.25-5.88-7.18-5.81-16.34-9.1-24.13-14.26-4.94-3.28-9-7.86-13.37-12-9.1-8.7-13.82-20.35-19.73-31-3.07-5.55-3.26-12.75-4.45-19.26-2.06-11.38-3.89-22.8-5.82-34.2Zm88.84,72.67c7.32-1.84,14.66-3.6,21.94-5.57a19.61,19.61,0,0,0,6.74-2.87c7.79-5.95,15-12.76,23.11-18.14,9.06-6,15.49-14.28,21.21-22.86,10.22-15.35,15.84-32.92,20-50.74a201.74,201.74,0,0,0,5.42-34.82c.71-12.85,1.08-26.14-1.39-38.65-2.68-13.53-8.2-26.63-13.66-39.42-3.49-8.17-8.54-15.3-18.69-18.07-8.41-2.28-16.07-7.41-23.95-11.48-2.67-1.38-5-4.71-7.5-4.82a46,46,0,0,0-16.07,1.91c-25.85,8.46-37.3,29.14-43.94,53.46-3.39,12.44-6.49,25-9.13,37.59-2.3,11-5,22.12-5.31,33.25-.53,17.88-.51,35.87,3,53.61,1.84,9.28,2.53,18.87,5.16,27.9a117.64,117.64,0,0,0,10.38,23.93C3053.83,469.08,3059.94,476.61,3071.75,476.36Z" transform="translate(-90.95 -84.38)"/><path class="cls-2" d="M654.72,186c-1.55,7.6-3.14,16.53-5.27,25.33-1.15,4.79-3.47,9.3-4.76,14.07-1,3.72-1.05,7.69-1.85,11.47-2.75,13-5.39,26-8.55,38.83-5.27,21.42-10.87,42.76-16.4,64.11-2.86,11-6.71,21.88-8.62,33.06s-2.16,22.7-2.75,34.09c-.28,5.4.33,10.84.58,16.26a42.47,42.47,0,0,0,8.78,24.72c5.79,7.72,12,14.45,20.08,19.19a63.29,63.29,0,0,0,16.14,6.48c8.13,2.07,15.52-1.84,21.59-6.22,18.06-13,34.23-28,44.51-48.42,4.31-8.58,10.43-16.24,15.35-24.53,5.87-9.9,11.36-20,17-30.06,2.43-4.33,5.28-8.51,7-13.1,2.31-6,3.81-12.35,5.51-18.58Q768.63,312.36,774,292c3.91-14.69,8.13-29.31,11.5-44.13,2.27-9.95,3.38-20.18,4.84-30.31,1.28-8.86,9-14.41,17.87-13.55,6.3.61,12.72-.12,19.07.15a8.94,8.94,0,0,1,5.84,2.42,30.86,30.86,0,0,1,5.48,9,16.16,16.16,0,0,1,.92,8.31c-1.85,10.42-4,20.81-6.3,31.14-4.25,19-8.67,38-13.08,57-2.73,11.79-4.86,23.78-8.6,35.24-3.42,10.49-8.18,20.63-13.19,30.5-5.15,10.13-11.24,19.8-17.07,29.58-7.16,12-14.66,23.84-21.65,36-6.49,11.25-14,21.55-24.1,29.85-9.6,7.94-19.13,16-29.07,23.48A76,76,0,0,1,688.9,507c-8.13,3.17-16.72,6-25.32,6.81-7.25.68-14.8-1.69-22.2-2.81a119.24,119.24,0,0,1-11.74-2.11c-16.18-4.1-29.68-12.72-42.47-23.38-10.25-8.54-17.14-19.31-22.51-30.65-4.48-9.46-6.5-20.6-7.3-31.18a229.19,229.19,0,0,1,.57-43.12c1.63-14.06,5.78-27.84,9-41.7,2-8.39,4-16.77,6.44-25,3.22-11,7.08-21.77,10.18-32.77,3-10.54,5.35-21.24,8-31.88,2.7-11,5.26-22.12,8-33.13,3.34-13.24,6.84-26.44,10.29-39.65a28.19,28.19,0,0,1,1.64-5.16c1.58-3.29,3.78-5.63,8-5.54,3.59.07,7.22-1,10.79-.82,8.51.56,16.77,2.52,21.94,10C653.94,177.36,653.72,181.17,654.72,186Z" transform="translate(-90.95 -84.38)"/><path class="cls-2" d="M4800.17,243.66c-1.31,2-2.26,2.94-2.59,4.05-5.3,17.67-10.6,35.35-15.71,53.08-3.28,11.39-5.84,23-9.44,34.28-6.5,20.34-13.72,40.46-20.29,60.79-3.68,11.36-6.72,22.92-10,34.42-2.32,8.26-4.63,16.53-6.68,24.86-2.43,9.92-4.8,19.86-6.74,29.89-1,5.37-2.47,10.23-6.77,14a13.45,13.45,0,0,0-3.24,4.65c-1.41,3.18-3.06,5.57-7.07,5.37-1.39-.07-2.84,1.1-4.22,1a100.74,100.74,0,0,1-10.65-1.39c-.63-.11-1.36-1.73-1.63-1.62-6.74,2.66-9.06-3.91-12.51-6.72-5.21-4.24-8.62-10.09-6.37-17.85,5.89-20.3,11.27-40.76,17.1-61.08,4.26-14.83,8.7-29.6,13.44-44.28,3.35-10.39,7.6-20.48,11-30.86,2.92-9,5.05-18.2,7.74-27.25q7.17-24.19,14.6-48.33c5-16.37,10.31-32.65,15.08-49.09,3-10.29,5-20.87,7.92-31.19a177.26,177.26,0,0,1,8.12-22.89c.95-2.15,4.51-3.48,7.15-4.47a46.72,46.72,0,0,1,11-2.77c2.39-.28,4.94.61,7.4,1.11a36.48,36.48,0,0,1,4.17,1.29,58.78,58.78,0,0,1,6.54,2.28c3.37,1.58,6.65,3.38,9.9,5.2,5.79,3.25,9.29,7.65,10.22,14.78.84,6.4,3.58,12.59,5.85,18.74,2.4,6.53,5.28,12.88,7.86,19.34,4.65,11.67,9.29,23.35,13.83,35.07,5.33,13.74,10.3,27.62,15.9,41.25,3.81,9.3,8.8,18.12,12.61,27.43,5.87,14.36,11,29,16.77,43.44,5.65,14.27,11.65,28.39,17.4,42.62,1.4,3.48,2.34,7.15,3.66,10.67a10.11,10.11,0,0,0,3.9,4.76,56.74,56.74,0,0,0,1.93-6c3.41-16.76,6.85-33.51,10.06-50.31,1.45-7.62,2.11-15.38,3.62-23,2.38-12,5.14-23.92,7.81-35.86,3.4-15.21,7-30.38,10.28-45.61q4.79-22.26,9.08-44.6c1.77-9.22,2.87-18.58,4.77-27.77,1.71-8.25,3.89-16.43,6.3-24.51,1.27-4.26,4.6-6.65,9.24-5.38,3.93,1.08,7.34.39,11-1,1.66-.64,4.86-.45,5.75.65,2.42,3,5.27,3.49,8.73,3.63,1.34.06,3.53,1.27,3.8,2.34,1.93,7.74,5.18,15.07,3.23,23.7s-1.49,17.71-2.75,26.5q-2.64,18.5-6.32,36.84c-2.84,14.08-6.56,28-9.28,42.07-2.14,11.07-3.12,22.36-5,33.48S4993.12,355.8,4991,367c-2.21,11.75-3.89,23.61-6.35,35.3-4.36,20.79-9.57,41.4-13.53,62.26-1.64,8.63-5.25,16.9-4.52,26.13.39,4.86-1.36,9.94-2.54,14.83a8.31,8.31,0,0,1-3.08,4.08c-3,2.29-6.61,3.82-6.86,8.44-.05.88-1.64,2.25-2.67,2.41-5.83.89-11.72,2.09-17.57,2s-12.4-.07-17.11-2.78c-6.49-3.74-13-9.09-16.85-15.38-5.52-9.08-8.81-19.56-12.74-29.57-3.79-9.66-7.22-19.46-10.71-29.23-4-11.21-7.71-22.53-11.9-33.67-4.62-12.29-9.87-24.33-14.42-36.64-5.11-13.79-9.48-27.86-14.7-41.61-2.8-7.37-6.95-14.22-10.06-21.5-3.69-8.62-7-17.41-10.34-26.18q-4.56-12-8.82-24C4804.26,256.35,4802.51,250.71,4800.17,243.66Z" transform="translate(-90.95 -84.38)"/><path class="cls-2" d="M4129.44,121.91c6.26,4.58,13.1,5.73,20.61,5.64,5.69-.07,11.38,1.9,17.1,2.75,9.16,1.35,18.6,1.6,27.46,4,11.22,3.05,22.72,4.54,33.64,9.81,13.91,6.71,24,17.73,35.86,26.64a240.39,240.39,0,0,1,23.56,19.57c2.85,2.76,5,8,4.72,11.87a257.23,257.23,0,0,1-5.16,32.32c-.74,3.5-3.68,6.5-5.41,9.84-2.3,4.42-4.35,9-6.59,13.43a65.31,65.31,0,0,1-16.44,20.53c-3.68,3.11-6.68,7.06-10.5,9.93a118.92,118.92,0,0,1-14.65,9.15c-11,6-21.92,12.12-33.24,17.42-6.85,3.21-14.56,4.56-21.58,7.49s-13.55,6.74-21.39,10.71c2.58,1.57,4.24,2.71,6,3.65,14.83,7.8,30.12,14.86,44.43,23.52,19,11.49,32.93,28.32,45,46.67,9.75,14.78,20,29.28,28.88,44.58,6,10.36,10.37,21.75,14.73,33,3.09,7.95,4.24,16.68,7.54,24.52,3.63,8.58,4.23,17.59,5.92,26.47a13.33,13.33,0,0,1,0,2.22c-5.87.78-10.72,2.41-10.17,9.91.19,2.6-8.32,7.5-11.3,6.41a147.81,147.81,0,0,1-19.24-8.19c-4.27-2.29-8-5.73-11.58-9.09-1.16-1.09-1-3.55-1.49-5.39-2.74-11.06-5.25-22.19-8.26-33.18a149.5,149.5,0,0,0-16.55-37.38c-7-11.61-14-23.23-21.3-34.62-8.39-13-18.77-24.24-32-32.67-8.5-5.42-16.43-11.89-25.35-16.45-9.45-4.83-19.64-8.29-29.73-11.7-7-2.38-14.43-3.67-21.66-5.46-.64-.16-1.3-.64-1.88-.55-11.62,1.81-18.94-6.61-27.47-11.85-1.88-1.15-2.06-4.86-3.36-7.2a26.35,26.35,0,0,0-3.51-4.15c-1.29,1.35-3.07,2.48-3.8,4.08-3.13,6.9-4.85,14.74-9.18,20.72-5.32,7.35-6.18,16.16-10.39,23.74-4.93,8.89-7.82,18.6-10.88,28.3-3.41,10.79-8.37,21.08-12.51,31.65q-5.37,13.71-10.39,27.55c-3.86,10.67-7.06,21.6-11.42,32-2.92,7-7.17,13.54-11.21,20-1.42,2.29-10.47,1.56-14.42-.16-3-1.31-6.38-1.72-9.4-3a14.16,14.16,0,0,1-5.18-3.73,83.7,83.7,0,0,1-8.71-11.56c-.89-1.51-.63-5.22.53-6.16,7.74-6.25,5.21-16.69,10.46-24.22,3.83-5.51,3.94-13.46,6.57-20,4.06-10.05,9-19.72,13.29-29.7,5-11.69,9.51-23.57,14.32-35.33q6.27-15.36,12.73-30.64c3.36-7.9,5.92-16.38,10.63-23.41,6.54-9.77,8-21.48,14.05-31.4,3.44-5.65,4.44-12.75,6.87-19.07,3-7.94,6.56-15.71,9.65-23.63,4-10.32,7.59-20.83,11.86-31.05,2.34-5.62,5.74-10.79,8.59-16.21,1.36-2.57,3.67-5.29,3.54-7.85-.24-5,4.87-7.49,4.27-13-.41-3.79,4.2-8,6.22-12.17,5.25-10.94,10.41-21.93,15.38-33,1.26-2.8,1.16-6.26,2.6-8.92a124.47,124.47,0,0,1,10.08-15.78c.87-1.16,4.42-1.51,6-.73C4121.47,126.51,4124,126.54,4129.44,121.91Zm-59.52,198.23c3.91-.54,6.71-.48,9.18-1.36,9.47-3.35,18.81-7.08,28.26-10.54,8.49-3.1,17.12-5.85,25.57-9.08,10.32-3.94,20.63-8,30.73-12.41,11.52-5.1,23.23-10,34.05-16.4,6.54-3.85,13.28-7.71,19.06-13.18,7.46-7.06,14.53-14.22,20.19-22.8a102,102,0,0,0,8.51-16.57c5.29-12.44,2.91-15.53-7.65-22-4.72-2.88-10-4.81-15.11-7.11-15.42-7-31.76-10.47-48.51-11.4-15.58-.86-31.18-.22-46.08,5.35-2.09.79-4.73,2-5.62,3.78-4.06,8-7.94,16.19-11.22,24.56-5.89,15-11.13,30.25-17,45.27-5.36,13.73-11.25,27.25-16.74,40.94-1.19,3-1.47,6.32-2.5,9.39C4073.68,310.72,4072,314.73,4069.92,320.14Z" transform="translate(-90.95 -84.38)"/><path class="cls-2" d="M4482.44,186c-1.55,7.6-3.15,16.53-5.27,25.33-1.15,4.79-3.47,9.3-4.76,14.07-1,3.72-1.05,7.69-1.86,11.47-2.75,13-5.38,26-8.55,38.83-5.26,21.42-10.86,42.76-16.4,64.11-2.86,11-6.7,21.88-8.61,33.06s-2.17,22.7-2.76,34.09c-.28,5.4.33,10.84.59,16.26a42.41,42.41,0,0,0,8.78,24.72c5.79,7.72,12,14.45,20.08,19.19a63.29,63.29,0,0,0,16.14,6.48c8.13,2.07,15.52-1.84,21.59-6.22,18.06-13,34.22-28,44.51-48.42,4.31-8.58,10.43-16.24,15.35-24.53,5.87-9.9,11.36-20,17-30.06,2.42-4.33,5.28-8.51,7-13.1,2.3-6,3.8-12.35,5.51-18.58q5.53-20.31,10.93-40.65c3.91-14.69,8.13-29.31,11.5-44.13,2.26-9.95,3.38-20.18,4.84-30.31,1.28-8.86,9-14.41,17.87-13.55,6.3.61,12.72-.12,19.07.15a9,9,0,0,1,5.84,2.42,30.86,30.86,0,0,1,5.48,9,16.27,16.27,0,0,1,.91,8.31c-1.84,10.42-4,20.81-6.29,31.14-4.26,19-8.67,38-13.08,57-2.74,11.79-4.86,23.78-8.6,35.24-3.42,10.49-8.18,20.63-13.19,30.5-5.15,10.13-11.25,19.8-17.07,29.58-7.16,12-14.66,23.84-21.65,36-6.49,11.25-14,21.55-24.1,29.85-9.6,7.94-19.13,16-29.08,23.48A75.81,75.81,0,0,1,4516.61,507c-8.12,3.17-16.72,6-25.31,6.81-7.25.68-14.8-1.69-22.2-2.81a118.71,118.71,0,0,1-11.74-2.11c-16.18-4.1-29.68-12.72-42.47-23.38-10.25-8.54-17.14-19.31-22.51-30.65-4.49-9.46-6.5-20.6-7.3-31.18a227.52,227.52,0,0,1,.57-43.12c1.62-14.06,5.77-27.84,9-41.7,2-8.39,4-16.77,6.44-25,3.21-11,7.07-21.77,10.18-32.77,3-10.54,5.35-21.24,7.95-31.88,2.7-11,5.27-22.12,8.05-33.13,3.35-13.24,6.84-26.44,10.3-39.65a29,29,0,0,1,1.63-5.16c1.59-3.29,3.79-5.63,8-5.54,3.6.07,7.23-1,10.79-.82,8.52.56,16.78,2.52,21.95,10C4481.66,177.36,4481.44,181.17,4482.44,186Z" transform="translate(-90.95 -84.38)"/><path class="cls-2" d="M2919.07,262.19c-3.53,1.83-6.11,3.14-8.67,4.5-2.91,1.57-6.24,3-8.24-.61-2.38-4.29-6.92-4.6-10.24-7s-6.91-5.4-8-8.91c-1.49-4.66-1-10.06-.79-15.12.34-7.4,1.51-14.76-1.82-21.88-1.8-3.86-4.3-6.31-8.61-7.19a68.84,68.84,0,0,0-46,6.33c-6.24,3.19-11.34,9.11-16.12,14.53-4.53,5.14-8,11.23-11.86,16.94a18,18,0,0,0-2.91,14.63c0,.16.17.32.15.47-1.57,16,9.71,23,21,30,6.49,4.07,12.87,8.31,19.38,12.34,5.55,3.44,11.05,7,16.85,9.95,16.27,8.29,28.8,20.87,40.14,34.75,13.71,16.8,21.45,36.41,24.1,57.68,1.73,13.79,1.52,27.71-3.1,41.38-3.46,10.23-6.85,20.4-13,29.34-3.43,5-7.69,9.43-11.6,14.1-8.17,9.77-18.93,16.24-29.71,22.49-5.05,2.93-11,4.22-16.54,6.4-5,2-10,4-14.92,6.27-8.82,4.08-18.34,3.4-27.27,2.39-9.51-1.08-18.77-4.79-28-7.81-7.37-2.41-14.46-5.67-21.79-8.24A99.73,99.73,0,0,1,2722.42,494c-2.29-1.8-5-3.1-7.37-4.77-12.55-8.71-20.76-20.38-24.32-35.35a115.91,115.91,0,0,0-4.3-12.67c-3.72-10.25-4.34-20.9-3.85-31.62a24.57,24.57,0,0,1,9.94-19.28,5.56,5.56,0,0,1,2.29-.88c5.08-1,10.15-2.11,15.28-2.69,1.73-.19,3.71.95,5.44,1.78,1.54.73,2.92,2.71,4.31,2.66,3.92-.16,4.75,2,5.13,5.11,1.86,14.86,4.49,29.48,10.11,43.55,5.8,14.52,15,25,29.21,32.14,11.54,5.77,24,8.1,35.93,12.19,6.92,2.36,13.93-.64,20-4.81,7.33-5,14.86-9.75,22-15,2.36-1.73,3.85-4.66,5.78-7,7.32-8.85,10.24-19.69,14.24-30.15,5.55-14.53,1.43-27.83-2.33-41.88-3.62-13.49-12.3-22.89-21.23-32.21-6.85-7.14-15.43-12.37-24.34-17-6.28-3.25-11.92-7.73-17.83-11.67-.55-.37-1-1-1.54-1.25-11.21-4.93-20.52-12.66-28.33-21.71-13-15.08-19.49-33.2-15.5-52.9,3.06-15.12,10.29-29.2,19.73-41.69a235.9,235.9,0,0,1,19.18-22.67,35.43,35.43,0,0,1,13.12-8.14c9.7-3.47,19.63-6.71,29.74-8.55,7.49-1.37,15.43-.69,23.14-.34a150.13,150.13,0,0,1,18.13,2.25c17.48,2.93,31.62,10.59,41.7,26.13,6.21,9.56,12.12,19,13.61,30.26.95,7.09-.11,14.47-.6,21.7a5.42,5.42,0,0,1-2.69,3.93C2920.8,253.57,2920.8,258.88,2919.07,262.19Z" transform="translate(-90.95 -84.38)"/><path class="cls-2" d="M2008.43,483c13.81-.67,26.27-.95,38.67-2,10.41-.86,20.75-2.6,31.13-3.9,2.29-.29,4.62-.29,6.92-.53,9.51-1,19-1.94,28.5-3.11,11-1.35,22-2.92,33-4.4.17,0,.37-.17.48-.11,5.59,3,11.3,5.87,16.65,9.3,1.16.74,1.17,3.54,1.39,5.44.39,3.38,1.17,6.9.59,10.15a20.38,20.38,0,0,1-4.11,8.37,42.94,42.94,0,0,1-8,7.82c-2.26,1.72-5.08,3.5-7.79,3.73-16.85,1.44-33.76,2.33-50.63,3.65-9.54.74-19.1,1.63-28.56,3-6.8,1-13.4,3.71-20.21,4.35-11.62,1.08-23.19,4.18-35,1.82a16.35,16.35,0,0,0-7.36.3c-8.28,2.34-15.1-1.6-22.33-4.43-8.28-3.24-14.68-8.56-20.35-15.31-6.71-8-9.76-16.08-6.37-26.74,2.68-8.45,3.5-17.51,4.88-26.34,3.27-21,9.28-41.22,15.27-61.52,3.71-12.57,6.28-25.47,9.34-38.23,3.74-15.56,5.88-31.47,12.44-46.39,3.63-8.26,5.13-17.45,7.68-26.2,1.48-5.09,3.16-10.12,4.71-15.19,5.51-18,8.35-36.51,10.71-55.15.9-7,3.31-13.88,4.63-20.89,1.43-7.64,2.22-15.41,3.62-23.07,1.31-7.2,4.73-9.64,12-9.2.67,0,1.47.35,2,.09,7.77-4,15.09-.07,22.57,1.17,5.34.89,9.14,5.07,8.83,10.45-.8,13.91-.84,27.95-2.94,41.66-3.39,22.12-7.71,44.13-12.6,66-2.81,12.59-8,24.63-11.26,37.15-4.53,17.5-8.06,35.25-12.36,52.81-3.62,14.8-7.35,29.59-11.72,44.17a373.48,373.48,0,0,0-12.52,58.94C2009.72,474.56,2009.1,478.41,2008.43,483Z" transform="translate(-90.95 -84.38)"/><path class="cls-2" d="M2320.54,463.57c3.57-.7,7.13-1.44,10.71-2.08,12-2.16,24-4.2,35.92-6.44,7.47-1.4,14.88-3.14,22.34-4.6s15.24-2.7,22.8-4.28c5-1,9.91-2.5,14.86-3.77a15.56,15.56,0,0,1,3.3-.75c5.14-.14,10.31-.45,15.43-.11,2.16.14,4.24,1.71,6.34,2.66,1.29.58,2.49,1.55,3.84,1.79,6.67,1.16,9.89,4.67,10,11.35a92.31,92.31,0,0,1-.27,10.39c-.51,5.27-2.26,9.38-7.86,11.92-3.69,1.67-5.26,7.06-10.13,7.78a31.1,31.1,0,0,1-4.72.31c-7.22-.06-14.5-.75-21.65-.09-6.2.58-12.2,3-18.38,4-8.29,1.37-16.72,1.86-25,3.3-13.84,2.39-27.59,5.33-41.42,7.84-6.34,1.15-12.78,1.82-19.17,2.76-3.1.45-6.17,1.08-9.28,1.53a7.89,7.89,0,0,1-3.45,0c-6.39-2.1-12.65-4.58-19.09-6.52-12.07-3.63-19.83-12.85-25.7-22.64-3.72-6.19-7.35-14.16-3.34-23,2.62-5.74,3.14-12.56,4-19,1.26-9.71,1.42-19.58,3.09-29.2,1.91-10.93,5.21-21.6,7.48-32.48,3.57-17.05,7.11-34.13,10-51.3,1.88-11.11,2.38-22.45,3.94-33.62,2.44-17.4,5.31-34.73,7.89-52.11,2.3-15.56,4.36-31.16,6.74-46.71a157.77,157.77,0,0,1,3.51-16.08c1.22-4.7,5.6-5.16,9.4-6.21a102.4,102.4,0,0,1,9.93-2.52,24.47,24.47,0,0,1,6.89,0c3.3.39,7,.38,9.72,1.89,3,1.63,5.36,4.59,7.46,7.39,3.73,5,3.77,10.5,2.35,16.49-1.1,4.64-.82,9.59-1.38,14.37-1.74,15.17-3.37,30.35-5.46,45.47-3.08,22.31-6.58,44.57-9.77,66.87-1.26,8.86-1.76,17.85-3.32,26.65-2.72,15.3-6.33,30.45-9,45.76-2.95,17.17-5.26,34.46-7.8,51.7-.65,4.43-.94,8.92-1.69,13.33-1,5.89.63,7.77,6.82,7.44,1-.05,2,0,3,0C2320.48,463.32,2320.51,463.44,2320.54,463.57Z" transform="translate(-90.95 -84.38)"/><path class="cls-2" d="M2547.34,400.16q4.69-28.7,9.4-57.39c2.42-14.55,5.18-29,7.33-43.64,2.39-16.2,3.92-32.52,6.51-48.68,1.44-8.93,4.38-17.62,6.5-26.45,2.81-11.76,6.16-23.38,6.5-35.66.32-11.35,5.72-16.28,17.11-16.55,5.73-.13,11.37-.48,17,2.45,2.51,1.3,7.23-1,9,2.79,2.55,5.5,6.52,10.63,5.56,17.38-2.08,14.6-3.75,29.27-6,43.85-2.95,18.78-6.32,37.49-9.52,56.23-1.15,6.68-2.37,13.34-3.48,20-2.11,12.6-4.26,25.2-6.2,37.82-1.21,7.85-2.06,15.74-3.13,23.61-.76,5.57-2,11.1-2.37,16.69-1.39,20.38-2.34,40.8-3.81,61.17-.57,8.05-2.18,16-3.09,24-.38,3.39-2.13,5.11-5,6.79s-4.45,4.69-7.06,6.48A115.11,115.11,0,0,1,2570.3,498c-.45.23-1.53-.83-2.34-1.24-3.95-2-8-3.77-11.81-6a28.32,28.32,0,0,1-7.08-5.68c-2.42-2.84-4.85-6-6.07-9.45a25.93,25.93,0,0,1-1.06-10.92c1.76-17.17,4-34.3,5.81-51.46.45-4.26.06-8.62.06-12.93Z" transform="translate(-90.95 -84.38)"/><path class="cls-2" d="M1434.26,498.88a78.48,78.48,0,0,1-8,31.72c-4.43,9-8.36,18.52-14.5,26.23-5.35,6.74-10.48,14.68-19.91,17.38-4.82,1.39-8.72.19-12.74-2.14a72,72,0,0,0-9.59-4.87c-5.71-2.25-14.23-14.29-13.39-20.38.36-2.63,2.14-5.35,4-7.42,5.68-6.42,11.59-12.58,13.87-21.24.52-2,2.34-3.64,3-5.63,4-12.85,4.58-25.77-.4-38.48-1.42-3.63-4.61-6.66-5.58-10.33-1.31-5-3.17-11.12-1.34-15.23,2.39-5.37,7.6-9.71,15.28-8.57,3.47.52,7.26-1.21,10.93-1.78a11.51,11.51,0,0,1,4.3,0c3.13.75,6.66,1.1,9.16,2.85a32,32,0,0,1,9.12,9.25c6.25,10.55,11.12,21.78,13.5,33.92C1432.83,489.05,1433.47,494,1434.26,498.88Z" transform="translate(-90.95 -84.38)"/><path class="cls-2" d="M3793.3,498.88a78.48,78.48,0,0,1-8,31.72c-4.42,9-8.36,18.52-14.5,26.23-5.35,6.74-10.48,14.68-19.91,17.38-4.82,1.39-8.72.19-12.74-2.14a72,72,0,0,0-9.59-4.87c-5.71-2.25-14.23-14.29-13.39-20.38.36-2.63,2.14-5.35,4-7.42,5.68-6.42,11.59-12.58,13.87-21.24.53-2,2.34-3.64,2.95-5.63,4-12.85,4.58-25.77-.4-38.48-1.42-3.63-4.61-6.66-5.58-10.33-1.31-5-3.17-11.12-1.34-15.23,2.39-5.37,7.6-9.71,15.28-8.57,3.47.52,7.26-1.21,10.93-1.78a11.51,11.51,0,0,1,4.3,0c3.13.75,6.66,1.1,9.16,2.85a32,32,0,0,1,9.12,9.25c6.25,10.55,11.12,21.78,13.5,33.92C3791.87,489.05,3792.51,494,3793.3,498.88Z" transform="translate(-90.95 -84.38)"/></g><g id="Layer_1_copy" data-name="Layer 1 copy"><path class="cls-3" d="M3350.77,246.31c-1,6.19-1.89,12.41-3.05,18.57-2.79,14.82-5.89,29.59-8.52,44.44-3,17.15-5.63,34.37-8.6,51.53-1,5.71-3,11.25-3.76,17-1.9,15.46-3.14,31-5,46.46-1.24,10.21-3.6,20.3-4.63,30.53-.79,7.9,0,16-.45,23.91a77.74,77.74,0,0,1-2.82,16.15c-.62,2.21-3.22,5.42-5,5.44-4.28.05-5.16,3.15-6.64,5.58-3.38,5.57-8.84,6.7-14.24,2.88-2-1.39-4.73-1.7-6.6-3.18-8.61-6.78-18.32-13.29-19-25.49-.45-8.69.8-17.53,2-26.22,2.06-15.24,4.67-30.4,7-45.61,3.46-22.6,6.69-45.24,10.36-67.81,2.6-16.06,5.73-32,8.7-48q3.81-20.54,7.81-41c2.38-12.19,5.32-24.29,7.2-36.55a146.63,146.63,0,0,1,6.87-27.29c2.3-6.41,6.8-7.65,12.29-8.89,2.86-.64,5.36-2.76,8.21-3.63,4.15-1.27,8.48-2.83,12.72-2.8a154.36,154.36,0,0,1,21.2,2.09c1.48.22,3.21,2,3.94,3.43,5.47,11.05,10.53,22.3,16.1,33.29,2.66,5.24,6.36,10,9.24,15.09,7.17,12.77,14.57,25.45,21.09,38.56,7.29,14.67,13.89,29.69,20.43,44.71,4,9.08,7,18.55,10.87,27.66,3,7.21,6.84,14.1,10.13,21.21,3,6.58,5.89,13.25,8.76,19.92,5.39,12.54,10.67,25.13,16.14,37.64,1.32,3,3.2,5.81,4.82,8.71l2-.41c.49-2.8,1.12-5.59,1.44-8.41q2.49-22.14,4.84-44.3c.92-8.75,1.21-17.6,2.6-26.27,3.31-20.59,7.15-41.1,10.68-61.66,2.5-14.55,4.8-29.14,7.28-43.69,1.42-8.34,3.34-16.6,4.48-25,1.41-10.35,2.75-20.75,3.19-31.17.51-12.33,6.61-17.83,18.86-16,2.71.4,5.54-.18,8.31-.13a13.5,13.5,0,0,1,3.62.75c3.21,1,6.54,1.73,9.53,3.18a9.87,9.87,0,0,1,3.87,4.29c1.64,3.1,2.82,6.44,4.2,9.68.25.59.8,1.17.79,1.75-.19,8.84,3.48,17.57,0,26.58-1.52,3.9-1.08,8.53-1.76,12.79-2.64,16.46-5.3,32.92-8.09,49.36-3,17.64-6.5,35.19-9.13,52.88-1.76,11.8-2.34,23.78-3.55,35.67-1.59,15.48-3.48,30.93-4.88,46.42-1.83,20.32-2.82,40.73-5.22,61-.78,6.64-4.62,13-7.52,19.24-.51,1.12-3.64.76-5,1.82-3.09,2.49-2.27,6.26-2.17,9.61.24,8.32-4.37,14.63-8,21.79l-5-2.77c-2.08,2.34-3.71,5.26-6.19,6.75-6.16,3.7-13.12,2-19.55-3.15-11-8.85-18-20.31-23.33-33.12a257.56,257.56,0,0,0-12.17-25.35c-9-16.2-16.73-32.94-24.16-49.87-8-18.35-16.29-36.64-24.1-55.1-5.38-12.73-9.95-25.81-15.32-38.55-2.82-6.68-6.91-12.83-9.81-19.48-2.84-6.49-4.45-13.53-7.41-19.95-3.56-7.71-8.09-15-12-22.51-1.81-3.51-3.1-7.29-4.77-10.88a38.43,38.43,0,0,0-2.74-4.37Z" transform="translate(-90.95 -84.38)"/><path class="cls-3" d="M962.46,233.66c-1.32,2-2.27,2.94-2.6,4.05-5.29,17.67-10.6,35.35-15.71,53.08-3.28,11.39-5.84,23-9.44,34.28-6.5,20.34-13.72,40.46-20.29,60.79-3.68,11.36-6.72,22.92-9.95,34.42-2.32,8.26-4.63,16.53-6.67,24.86C895.36,455.06,893,465,891.05,475c-1,5.37-2.47,10.23-6.77,14a13.58,13.58,0,0,0-3.24,4.65c-1.41,3.18-3.06,5.57-7.07,5.37-1.38-.07-2.84,1.1-4.22,1a100.21,100.21,0,0,1-10.64-1.39c-.64-.11-1.36-1.73-1.64-1.62-6.73,2.66-9.05-3.91-12.51-6.72-5.21-4.24-8.62-10.09-6.37-17.85,5.89-20.3,11.28-40.76,17.11-61.08,4.25-14.83,8.69-29.6,13.43-44.28,3.35-10.39,7.6-20.48,11-30.86,2.91-9,5-18.2,7.73-27.25q7.17-24.19,14.6-48.33c5-16.37,10.31-32.65,15.09-49.09,3-10.29,5-20.87,7.91-31.19a177.26,177.26,0,0,1,8.12-22.89c1-2.15,4.51-3.48,7.15-4.47a46.84,46.84,0,0,1,11-2.77c2.39-.28,5,.61,7.4,1.11a37.27,37.27,0,0,1,4.18,1.29,57.92,57.92,0,0,1,6.53,2.28c3.37,1.58,6.65,3.38,9.9,5.2,5.8,3.25,9.29,7.65,10.22,14.78.84,6.4,3.59,12.59,5.85,18.74,2.4,6.53,5.28,12.88,7.86,19.34q7,17.5,13.84,35.07c5.32,13.74,10.29,27.62,15.89,41.25,3.81,9.3,8.8,18.12,12.61,27.43,5.87,14.36,11,29,16.77,43.44,5.65,14.27,11.65,28.39,17.4,42.62,1.41,3.48,2.34,7.15,3.67,10.67a10.08,10.08,0,0,0,3.89,4.76,54.52,54.52,0,0,0,1.93-6c3.42-16.76,6.86-33.51,10.06-50.31,1.45-7.62,2.11-15.38,3.62-23,2.38-12,5.14-23.92,7.81-35.86,3.4-15.21,7-30.38,10.28-45.61q4.78-22.26,9.08-44.6c1.78-9.22,2.87-18.58,4.78-27.77,1.71-8.25,3.89-16.43,6.29-24.51,1.27-4.26,4.6-6.65,9.24-5.38,3.93,1.08,7.34.39,11-1,1.66-.64,4.85-.45,5.74.65,2.43,3,5.28,3.49,8.73,3.63,1.34.06,3.53,1.27,3.8,2.34,1.93,7.74,5.18,15.07,3.23,23.7s-1.49,17.71-2.75,26.5q-2.64,18.5-6.32,36.84c-2.84,14.08-6.56,28-9.28,42.07-2.14,11.07-3.12,22.36-5,33.48s-4.51,22.44-6.63,33.68c-2.2,11.75-3.89,23.61-6.35,35.3-4.36,20.79-9.57,41.4-13.53,62.26-1.64,8.63-5.25,16.9-4.51,26.13.38,4.86-1.37,9.94-2.54,14.83a8.39,8.39,0,0,1-3.09,4.08c-3,2.29-6.61,3.82-6.86,8.44,0,.88-1.63,2.25-2.66,2.41-5.84.89-11.72,2.09-17.58,2s-12.4-.07-17.11-2.78c-6.49-3.74-13-9.09-16.85-15.38-5.52-9.08-8.81-19.56-12.74-29.57-3.78-9.66-7.22-19.46-10.71-29.23-4-11.21-7.71-22.53-11.89-33.67-4.62-12.29-9.87-24.33-14.43-36.64-5.11-13.79-9.48-27.86-14.7-41.61-2.8-7.37-6.94-14.22-10.06-21.5-3.69-8.62-7-17.41-10.34-26.18q-4.56-12-8.82-24C966.55,246.35,964.79,240.71,962.46,233.66Z" transform="translate(-90.95 -84.38)"/><path class="cls-3" d="M291.72,111.91c6.27,4.58,13.1,5.73,20.62,5.64,5.68-.07,11.37,1.9,17.09,2.75,9.16,1.35,18.6,1.6,27.46,4,11.23,3,22.73,4.54,33.65,9.81,13.91,6.71,24,17.73,35.85,26.64A240.51,240.51,0,0,1,450,180.33c2.84,2.76,5,8,4.71,11.87a255.42,255.42,0,0,1-5.16,32.32c-.74,3.5-3.68,6.5-5.41,9.84-2.3,4.42-4.34,9-6.59,13.43a65,65,0,0,1-16.44,20.53c-3.67,3.11-6.68,7.06-10.5,9.93a118.8,118.8,0,0,1-14.64,9.15c-11,6-21.92,12.12-33.24,17.42-6.86,3.21-14.57,4.56-21.59,7.49s-13.55,6.74-21.39,10.71c2.58,1.57,4.24,2.71,6,3.65,14.83,7.8,30.12,14.86,44.43,23.52,19,11.49,32.93,28.32,45,46.67,9.75,14.78,20,29.28,28.88,44.58,6,10.36,10.37,21.75,14.73,33,3.09,7.95,4.24,16.68,7.55,24.52,3.62,8.58,4.22,17.59,5.92,26.47a13.46,13.46,0,0,1,0,2.22c-5.86.78-10.71,2.41-10.17,9.91.19,2.6-8.32,7.5-11.3,6.41a148.4,148.4,0,0,1-19.24-8.19c-4.27-2.29-8-5.73-11.58-9.09-1.16-1.09-1-3.55-1.49-5.39-2.73-11.06-5.24-22.19-8.26-33.18a148.78,148.78,0,0,0-16.55-37.38c-7-11.61-14-23.23-21.3-34.62-8.39-13-18.77-24.24-32-32.67C331.93,378,324,371.53,315.08,367c-9.44-4.83-19.64-8.29-29.73-11.7-7-2.38-14.42-3.67-21.65-5.46-.64-.16-1.31-.64-1.89-.55-11.62,1.81-18.93-6.61-27.47-11.85-1.87-1.15-2.06-4.86-3.36-7.2a26.83,26.83,0,0,0-3.5-4.15c-1.3,1.35-3.08,2.48-3.81,4.08-3.13,6.9-4.84,14.74-9.17,20.72-5.33,7.35-6.19,16.16-10.4,23.74-4.93,8.89-7.82,18.6-10.88,28.3-3.41,10.79-8.37,21.08-12.51,31.65q-5.37,13.71-10.39,27.55c-3.86,10.67-7.06,21.6-11.41,32-2.93,7-7.18,13.54-11.22,20-1.42,2.29-10.47,1.56-14.41-.16-3-1.31-6.39-1.72-9.41-3a14.16,14.16,0,0,1-5.18-3.73A83.7,83.7,0,0,1,110,495.76c-.88-1.51-.63-5.22.53-6.16,7.75-6.25,5.22-16.69,10.46-24.22,3.83-5.51,3.94-13.46,6.58-20,4-10.05,9-19.72,13.28-29.7,5-11.69,9.52-23.57,14.32-35.33q6.27-15.36,12.73-30.64c3.36-7.9,5.92-16.38,10.63-23.41,6.55-9.77,8-21.48,14.05-31.4,3.44-5.65,4.44-12.75,6.87-19.07,3-7.94,6.56-15.71,9.66-23.63,4-10.32,7.59-20.83,11.85-31,2.34-5.62,5.75-10.79,8.59-16.21,1.36-2.57,3.67-5.29,3.55-7.85-.25-5,4.86-7.49,4.26-13-.41-3.79,4.21-8,6.22-12.17,5.25-10.94,10.41-21.93,15.38-33,1.26-2.8,1.16-6.26,2.61-8.92a125.52,125.52,0,0,1,10.07-15.78c.88-1.16,4.42-1.51,6-.73C283.75,116.51,286.23,116.54,291.72,111.91ZM232.2,310.14c3.92-.54,6.71-.48,9.18-1.36,9.48-3.35,18.82-7.08,28.26-10.54,8.5-3.1,17.13-5.85,25.58-9.08,10.31-3.94,20.62-8,30.72-12.41,11.53-5.1,23.24-10,34.05-16.4,6.55-3.85,13.28-7.71,19.07-13.18,7.45-7.06,14.52-14.22,20.18-22.8a102,102,0,0,0,8.52-16.57c5.28-12.44,2.91-15.53-7.65-22-4.73-2.88-10-4.81-15.12-7.11-15.42-7-31.76-10.47-48.51-11.4-15.57-.86-31.18-.22-46.07,5.35-2.1.79-4.73,2-5.63,3.78-4.06,8-7.93,16.19-11.22,24.56-5.89,15-11.12,30.25-17,45.27-5.36,13.73-11.25,27.25-16.73,40.94-1.2,3-1.48,6.32-2.51,9.39C236,300.72,234.28,304.73,232.2,310.14Z" transform="translate(-90.95 -84.38)"/><path class="cls-3" d="M1871.11,172.27c.58,7.92,1.33,15.84,1.68,23.78,1,21.4,2.43,42.74-.23,64.2-1.74,14-1.75,28.22-2.38,42.35-1.24,28.08-4.24,56.07-2.94,84.27.57,12.36-1.61,24.86-.86,37.19,1.2,19.87-3.36,38.91-6.22,58.24-.92,6.24-1.23,12.56-1.83,18.85-.15,1.65.18,3.66-.63,4.9-3.64,5.51-7.18,11.2-11.67,16-1.68,1.77-5.85,1.46-8.91,1.62-13.5.74-24.29-5-31.39-16-2.26-3.51-1.34-9.65-.65-14.41,2.63-18.1,6.73-36,8.44-54.2,1.87-19.82,1.76-39.83,2.39-59.76.1-3.25-4.32-5.14-9.32-4.4-12.62,1.85-25.3,3.44-37.89,5.49-17.07,2.78-34.06,6.09-51.15,8.77-7.07,1.11-14.33,1-21.45,1.87a7.67,7.67,0,0,0-4.81,3.47c-6.24,10.71-12,21.72-18.34,32.34-4.55,7.59-9.89,14.7-14.81,22.07-4.77,7.13-9.29,14.43-14.19,21.46-6.89,9.9-14,19.63-21.06,29.43-3,4.15-5.76,8.5-9.07,12.39a87.47,87.47,0,0,1-10.33,10.22c-2.54,2.14-10.19.35-13.5-2.26a7.57,7.57,0,0,0-4.6-1.63c-8.6.41-12-2.19-13.44-10.6,0-.32,0-.76-.14-1-6.37-6.95-.53-11.61,3-16.83,6.12-9,12-18.13,18.1-27.1,6-8.81,12.59-17.26,18.29-26.26,9-14.2,18.25-28.32,25.91-43.23,8-15.55,17.54-30,27.6-44.14,6.86-9.67,14.41-18.84,21.41-28.42,4.85-6.64,9.08-13.73,13.93-20.38,8.45-11.6,17.24-23,25.74-34.55,3.59-4.89,6.69-10.14,10.24-15.07,2.51-3.48,5.37-6.72,8.09-10,13.08-16,26.57-31.6,37.46-49.26,8.37-13.56,18.66-25.66,29.74-37.09a18.13,18.13,0,0,0,3.26-4.36c4.77-9.61,13-13.83,23.06-16.13a32.06,32.06,0,0,1,17.48,1,18.87,18.87,0,0,1,13.49,15.06c1.46,7.24,2.07,14.66,3.06,22Zm-46.59,42.93-93.85,124.4,1.21,1.33c5-.88,9.91-1.85,14.88-2.62,13.49-2.08,27-4.05,40.47-6.1,4.32-.66,8.64-1.34,12.93-2.15,5-.93,9.94-1.86,14.8-3.16,1.06-.29,2.28-2.09,2.43-3.32,1.48-12.21,3-24.43,4-36.69q1.9-22.78,3-45.64C1824.86,233.07,1824.52,224.86,1824.52,215.2Z" transform="translate(-90.95 -84.38)"/><path class="cls-3" d="M2972.91,393.69c0-18.1-.54-36.21.21-54.28.44-10.48,2.76-20.91,4.61-31.3,1.39-7.81,2.69-15.76,5.24-23.24,4.76-14,10.72-27.53,15.56-41.48,4.23-12.21,12-22,20.3-31.37,9.85-11.11,21-20.89,36-24.71a69.11,69.11,0,0,1,31.95-.55c3.55.75,6.66.84,9.52,3.79,1.27,1.31,5,.06,7.68.22,4.74.3,9.69,0,14.15,1.37,9.34,2.8,18.43,6.43,27.58,9.85,4.41,1.66,8.76,3.51,13,5.49a14.44,14.44,0,0,1,4.88,3.38c5.5,6.34,11.27,12.53,16,19.43,3.5,5.09,5.55,11.18,8.26,16.83.35.73.54,1.72,1.13,2.14,5.46,3.91,5.61,10.36,7.92,15.82,1.32,3.14,3.94,5.7,5.7,8.69a27.58,27.58,0,0,1,3.21,7.12c3.17,12.77,6.39,25.61,5.93,38.87-.36,10.58-1.08,21.2-2.49,31.69-1.92,14.24-4.49,28.39-7.08,42.53a140.13,140.13,0,0,1-4.71,18.75c-1.43,4.32-4.21,8.18-6,12.42-5.46,13.15-14.63,23.4-24.94,32.88-5.72,5.26-10.74,11.32-16.69,16.28s-12.29,8.87-18.67,13c-5.73,3.66-11.38,7.8-17.66,10.15-10.47,3.93-21.37,6.74-32.17,9.71-5.53,1.52-11.21,3.06-16.89,3.38-8.82.49-17.36.52-25.25-5.88-7.18-5.81-16.34-9.1-24.13-14.26-4.94-3.28-9-7.86-13.37-12-9.1-8.7-13.82-20.35-19.73-31-3.07-5.55-3.26-12.75-4.45-19.26-2.06-11.38-3.89-22.8-5.82-34.2Zm88.84,72.67c7.32-1.84,14.66-3.6,21.94-5.57a19.61,19.61,0,0,0,6.74-2.87c7.79-5.95,15-12.76,23.11-18.14,9.06-6,15.49-14.28,21.21-22.86,10.22-15.35,15.84-32.92,20-50.74a201.74,201.74,0,0,0,5.42-34.82c.71-12.85,1.08-26.14-1.39-38.65-2.68-13.53-8.2-26.63-13.66-39.42-3.49-8.17-8.54-15.3-18.69-18.07-8.41-2.28-16.07-7.41-23.95-11.48-2.67-1.38-5-4.71-7.5-4.82a46,46,0,0,0-16.07,1.91c-25.85,8.46-37.3,29.14-43.94,53.46-3.39,12.44-6.49,25-9.13,37.59-2.3,11-5,22.12-5.31,33.25-.53,17.88-.51,35.87,3,53.61,1.84,9.28,2.53,18.87,5.16,27.9a117.64,117.64,0,0,0,10.38,23.93C3043.83,459.08,3049.94,466.61,3061.75,466.36Z" transform="translate(-90.95 -84.38)"/><path class="cls-3" d="M644.72,176c-1.55,7.6-3.14,16.53-5.27,25.33-1.15,4.79-3.47,9.3-4.76,14.07-1,3.72-1.05,7.69-1.85,11.47-2.75,13-5.39,26-8.55,38.83-5.27,21.42-10.87,42.76-16.4,64.11-2.86,11-6.71,21.88-8.62,33.06s-2.16,22.7-2.75,34.09c-.28,5.4.33,10.84.58,16.26a42.47,42.47,0,0,0,8.78,24.72c5.79,7.72,12,14.45,20.08,19.19a63.29,63.29,0,0,0,16.14,6.48c8.13,2.07,15.52-1.84,21.59-6.22,18.06-13,34.23-28,44.51-48.42,4.31-8.58,10.43-16.24,15.35-24.53,5.87-9.9,11.36-20,17-30.06,2.43-4.33,5.28-8.51,7-13.1,2.31-6,3.81-12.35,5.51-18.58Q758.63,302.36,764,282c3.91-14.69,8.13-29.31,11.5-44.13,2.27-9.95,3.38-20.18,4.84-30.31,1.28-8.86,9-14.41,17.87-13.55,6.3.61,12.72-.12,19.07.15a8.94,8.94,0,0,1,5.84,2.42,30.86,30.86,0,0,1,5.48,9,16.16,16.16,0,0,1,.92,8.31c-1.85,10.42-4,20.81-6.3,31.14-4.25,19-8.67,38-13.08,57-2.73,11.79-4.86,23.78-8.6,35.24-3.42,10.49-8.18,20.63-13.19,30.5-5.15,10.13-11.24,19.8-17.07,29.58-7.16,12-14.66,23.84-21.65,36-6.49,11.25-14,21.55-24.1,29.85-9.6,7.94-19.13,16-29.07,23.48A76,76,0,0,1,678.9,497c-8.13,3.17-16.72,6-25.32,6.81-7.25.68-14.8-1.69-22.2-2.81a119.24,119.24,0,0,1-11.74-2.11c-16.18-4.1-29.68-12.72-42.47-23.38-10.25-8.54-17.14-19.31-22.51-30.65-4.48-9.46-6.5-20.6-7.3-31.18a229.19,229.19,0,0,1,.57-43.12c1.63-14.06,5.78-27.84,9-41.7,2-8.39,4-16.77,6.44-25,3.22-11,7.08-21.77,10.18-32.77,3-10.54,5.35-21.24,8-31.88,2.7-11,5.26-22.12,8-33.13,3.34-13.24,6.84-26.44,10.29-39.65a28.19,28.19,0,0,1,1.64-5.16c1.58-3.29,3.78-5.63,8-5.54,3.59.07,7.22-1,10.79-.82,8.51.56,16.77,2.52,21.94,10C643.94,167.36,643.72,171.17,644.72,176Z" transform="translate(-90.95 -84.38)"/><path class="cls-3" d="M4790.17,233.66c-1.31,2-2.26,2.94-2.59,4.05-5.3,17.67-10.6,35.35-15.71,53.08-3.28,11.39-5.84,23-9.44,34.28-6.5,20.34-13.72,40.46-20.29,60.79-3.68,11.36-6.72,22.92-10,34.42-2.32,8.26-4.63,16.53-6.68,24.86-2.43,9.92-4.8,19.86-6.74,29.89-1,5.37-2.47,10.23-6.77,14a13.45,13.45,0,0,0-3.24,4.65c-1.41,3.18-3.06,5.57-7.07,5.37-1.39-.07-2.84,1.1-4.22,1a100.74,100.74,0,0,1-10.65-1.39c-.63-.11-1.36-1.73-1.63-1.62-6.74,2.66-9.06-3.91-12.51-6.72-5.21-4.24-8.62-10.09-6.37-17.85,5.89-20.3,11.27-40.76,17.1-61.08,4.26-14.83,8.7-29.6,13.44-44.28,3.35-10.39,7.6-20.48,11-30.86,2.92-9,5.05-18.2,7.74-27.25q7.17-24.19,14.6-48.33c5-16.37,10.31-32.65,15.08-49.09,3-10.29,5-20.87,7.92-31.19a177.26,177.26,0,0,1,8.12-22.89c.95-2.15,4.51-3.48,7.15-4.47a46.72,46.72,0,0,1,11-2.77c2.39-.28,4.94.61,7.4,1.11a36.48,36.48,0,0,1,4.17,1.29,58.78,58.78,0,0,1,6.54,2.28c3.37,1.58,6.65,3.38,9.9,5.2,5.79,3.25,9.29,7.65,10.22,14.78.84,6.4,3.58,12.59,5.85,18.74,2.4,6.53,5.28,12.88,7.86,19.34,4.65,11.67,9.29,23.35,13.83,35.07,5.33,13.74,10.3,27.62,15.9,41.25,3.81,9.3,8.8,18.12,12.61,27.43,5.87,14.36,11,29,16.77,43.44,5.65,14.27,11.65,28.39,17.4,42.62,1.4,3.48,2.34,7.15,3.66,10.67a10.11,10.11,0,0,0,3.9,4.76,56.74,56.74,0,0,0,1.93-6c3.41-16.76,6.85-33.51,10.06-50.31,1.45-7.62,2.11-15.38,3.62-23,2.38-12,5.14-23.92,7.81-35.86,3.4-15.21,7-30.38,10.28-45.61q4.79-22.26,9.08-44.6c1.77-9.22,2.87-18.58,4.77-27.77,1.71-8.25,3.89-16.43,6.3-24.51,1.27-4.26,4.6-6.65,9.24-5.38,3.93,1.08,7.34.39,11-1,1.66-.64,4.86-.45,5.75.65,2.42,3,5.27,3.49,8.73,3.63,1.34.06,3.53,1.27,3.8,2.34,1.93,7.74,5.18,15.07,3.23,23.7s-1.49,17.71-2.75,26.5q-2.64,18.5-6.32,36.84c-2.84,14.08-6.56,28-9.28,42.07-2.14,11.07-3.12,22.36-5,33.48S4983.12,345.8,4981,357c-2.21,11.75-3.89,23.61-6.35,35.3-4.36,20.79-9.57,41.4-13.53,62.26-1.64,8.63-5.25,16.9-4.52,26.13.39,4.86-1.36,9.94-2.54,14.83a8.31,8.31,0,0,1-3.08,4.08c-3,2.29-6.61,3.82-6.86,8.44-.05.88-1.64,2.25-2.67,2.41-5.83.89-11.72,2.09-17.57,2s-12.4-.07-17.11-2.78c-6.49-3.74-13-9.09-16.85-15.38-5.52-9.08-8.81-19.56-12.74-29.57-3.79-9.66-7.22-19.46-10.71-29.23-4-11.21-7.71-22.53-11.9-33.67-4.62-12.29-9.87-24.33-14.42-36.64-5.11-13.79-9.48-27.86-14.7-41.61-2.8-7.37-6.95-14.22-10.06-21.5-3.69-8.62-7-17.41-10.34-26.18q-4.56-12-8.82-24C4794.26,246.35,4792.51,240.71,4790.17,233.66Z" transform="translate(-90.95 -84.38)"/><path class="cls-3" d="M4119.44,111.91c6.26,4.58,13.1,5.73,20.61,5.64,5.69-.07,11.38,1.9,17.1,2.75,9.16,1.35,18.6,1.6,27.46,4,11.22,3,22.72,4.54,33.64,9.81,13.91,6.71,24,17.73,35.86,26.64a240.39,240.39,0,0,1,23.56,19.57c2.85,2.76,5,8,4.72,11.87a257.23,257.23,0,0,1-5.16,32.32c-.74,3.5-3.68,6.5-5.41,9.84-2.3,4.42-4.35,9-6.59,13.43a65.31,65.31,0,0,1-16.44,20.53c-3.68,3.11-6.68,7.06-10.5,9.93a118.92,118.92,0,0,1-14.65,9.15c-11,6-21.92,12.12-33.24,17.42-6.85,3.21-14.56,4.56-21.58,7.49s-13.55,6.74-21.39,10.71c2.58,1.57,4.24,2.71,6,3.65,14.83,7.8,30.12,14.86,44.43,23.52,19,11.49,32.93,28.32,45,46.67,9.75,14.78,20,29.28,28.88,44.58,6,10.36,10.37,21.75,14.73,33,3.09,7.95,4.24,16.68,7.54,24.52,3.63,8.58,4.23,17.59,5.92,26.47a13.33,13.33,0,0,1,0,2.22c-5.87.78-10.72,2.41-10.17,9.91.19,2.6-8.32,7.5-11.3,6.41a147.81,147.81,0,0,1-19.24-8.19c-4.27-2.29-8-5.73-11.58-9.09-1.16-1.09-1-3.55-1.49-5.39-2.74-11.06-5.25-22.19-8.26-33.18a149.5,149.5,0,0,0-16.55-37.38c-7-11.61-14-23.23-21.3-34.62-8.39-13-18.77-24.24-32-32.67-8.5-5.42-16.43-11.89-25.35-16.45-9.45-4.83-19.64-8.29-29.73-11.7-7-2.38-14.43-3.67-21.66-5.46-.64-.16-1.3-.64-1.88-.55-11.62,1.81-18.94-6.61-27.47-11.85-1.88-1.15-2.06-4.86-3.36-7.2a26.35,26.35,0,0,0-3.51-4.15c-1.29,1.35-3.07,2.48-3.8,4.08-3.13,6.9-4.85,14.74-9.18,20.72-5.32,7.35-6.18,16.16-10.39,23.74-4.93,8.89-7.82,18.6-10.88,28.3-3.41,10.79-8.37,21.08-12.51,31.65q-5.37,13.71-10.39,27.55c-3.86,10.67-7.06,21.6-11.42,32-2.92,7-7.17,13.54-11.21,20-1.42,2.29-10.47,1.56-14.42-.16-3-1.31-6.38-1.72-9.4-3a14.16,14.16,0,0,1-5.18-3.73,83.7,83.7,0,0,1-8.71-11.56c-.89-1.51-.63-5.22.53-6.16,7.74-6.25,5.21-16.69,10.46-24.22,3.83-5.51,3.94-13.46,6.57-20,4.06-10.05,9-19.72,13.29-29.7,5-11.69,9.51-23.57,14.32-35.33q6.27-15.36,12.73-30.64c3.36-7.9,5.92-16.38,10.63-23.41,6.54-9.77,8-21.48,14.05-31.4,3.44-5.65,4.44-12.75,6.87-19.07,3-7.94,6.56-15.71,9.65-23.63,4-10.32,7.59-20.83,11.86-31,2.34-5.62,5.74-10.79,8.59-16.21,1.36-2.57,3.67-5.29,3.54-7.85-.24-5,4.87-7.49,4.27-13-.41-3.79,4.2-8,6.22-12.17,5.25-10.94,10.41-21.93,15.38-33,1.26-2.8,1.16-6.26,2.6-8.92a124.47,124.47,0,0,1,10.08-15.78c.87-1.16,4.42-1.51,6-.73C4111.47,116.51,4114,116.54,4119.44,111.91Zm-59.52,198.23c3.91-.54,6.71-.48,9.18-1.36,9.47-3.35,18.81-7.08,28.26-10.54,8.49-3.1,17.12-5.85,25.57-9.08,10.32-3.94,20.63-8,30.73-12.41,11.52-5.1,23.23-10,34.05-16.4,6.54-3.85,13.28-7.71,19.06-13.18,7.46-7.06,14.53-14.22,20.19-22.8a102,102,0,0,0,8.51-16.57c5.29-12.44,2.91-15.53-7.65-22-4.72-2.88-10-4.81-15.11-7.11-15.42-7-31.76-10.47-48.51-11.4-15.58-.86-31.18-.22-46.08,5.35-2.09.79-4.73,2-5.62,3.78-4.06,8-7.94,16.19-11.22,24.56-5.89,15-11.13,30.25-17,45.27-5.36,13.73-11.25,27.25-16.74,40.94-1.19,3-1.47,6.32-2.5,9.39C4063.68,300.72,4062,304.73,4059.92,310.14Z" transform="translate(-90.95 -84.38)"/><path class="cls-3" d="M4472.44,176c-1.55,7.6-3.15,16.53-5.27,25.33-1.15,4.79-3.47,9.3-4.76,14.07-1,3.72-1.05,7.69-1.86,11.47-2.75,13-5.38,26-8.55,38.83-5.26,21.42-10.86,42.76-16.4,64.11-2.86,11-6.7,21.88-8.61,33.06s-2.17,22.7-2.76,34.09c-.28,5.4.33,10.84.59,16.26a42.41,42.41,0,0,0,8.78,24.72c5.79,7.72,12,14.45,20.08,19.19a63.29,63.29,0,0,0,16.14,6.48c8.13,2.07,15.52-1.84,21.59-6.22,18.06-13,34.22-28,44.51-48.42,4.31-8.58,10.43-16.24,15.35-24.53,5.87-9.9,11.36-20,17-30.06,2.42-4.33,5.28-8.51,7-13.1,2.3-6,3.8-12.35,5.51-18.58q5.53-20.31,10.93-40.65c3.91-14.69,8.13-29.31,11.5-44.13,2.26-9.95,3.38-20.18,4.84-30.31,1.28-8.86,9-14.41,17.87-13.55,6.3.61,12.72-.12,19.07.15a9,9,0,0,1,5.84,2.42,30.86,30.86,0,0,1,5.48,9,16.27,16.27,0,0,1,.91,8.31c-1.84,10.42-4,20.81-6.29,31.14-4.26,19-8.67,38-13.08,57-2.74,11.79-4.86,23.78-8.6,35.24-3.42,10.49-8.18,20.63-13.19,30.5-5.15,10.13-11.25,19.8-17.07,29.58-7.16,12-14.66,23.84-21.65,36-6.49,11.25-14,21.55-24.1,29.85-9.6,7.94-19.13,16-29.08,23.48A75.81,75.81,0,0,1,4506.61,497c-8.12,3.17-16.72,6-25.31,6.81-7.25.68-14.8-1.69-22.2-2.81a118.71,118.71,0,0,1-11.74-2.11c-16.18-4.1-29.68-12.72-42.47-23.38-10.25-8.54-17.14-19.31-22.51-30.65-4.49-9.46-6.5-20.6-7.3-31.18a227.52,227.52,0,0,1,.57-43.12c1.62-14.06,5.77-27.84,9-41.7,2-8.39,4-16.77,6.44-25,3.21-11,7.07-21.77,10.18-32.77,3-10.54,5.35-21.24,7.95-31.88,2.7-11,5.27-22.12,8.05-33.13,3.35-13.24,6.84-26.44,10.3-39.65a29,29,0,0,1,1.63-5.16c1.59-3.29,3.79-5.63,8-5.54,3.6.07,7.23-1,10.79-.82,8.52.56,16.78,2.52,21.95,10C4471.66,167.36,4471.44,171.17,4472.44,176Z" transform="translate(-90.95 -84.38)"/><path class="cls-3" d="M2909.07,252.19c-3.53,1.83-6.11,3.14-8.67,4.5-2.91,1.57-6.24,3-8.24-.61-2.38-4.29-6.92-4.6-10.24-7s-6.91-5.4-8-8.91c-1.49-4.66-1-10.06-.79-15.12.34-7.4,1.51-14.76-1.82-21.88-1.8-3.86-4.3-6.31-8.61-7.19a68.84,68.84,0,0,0-46,6.33c-6.24,3.19-11.34,9.11-16.12,14.53-4.53,5.14-8,11.23-11.86,16.94a18,18,0,0,0-2.91,14.63c0,.16.17.32.15.47-1.57,16,9.71,23,21,30,6.49,4.07,12.87,8.31,19.38,12.34,5.55,3.44,11.05,7,16.85,9.95,16.27,8.29,28.8,20.87,40.14,34.75,13.71,16.8,21.45,36.41,24.1,57.68,1.73,13.79,1.52,27.71-3.1,41.38-3.46,10.23-6.85,20.4-13,29.34-3.43,5-7.69,9.43-11.6,14.1-8.17,9.77-18.93,16.24-29.71,22.49-5.05,2.93-11,4.22-16.54,6.4-5,2-10,4-14.92,6.27-8.82,4.08-18.34,3.4-27.27,2.39-9.51-1.08-18.77-4.79-28-7.81-7.37-2.41-14.46-5.67-21.79-8.24A99.73,99.73,0,0,1,2712.42,484c-2.29-1.8-5-3.1-7.37-4.77-12.55-8.71-20.76-20.38-24.32-35.35a115.91,115.91,0,0,0-4.3-12.67c-3.72-10.25-4.34-20.9-3.85-31.62a24.57,24.57,0,0,1,9.94-19.28,5.56,5.56,0,0,1,2.29-.88c5.08-1,10.15-2.11,15.28-2.69,1.73-.19,3.71.95,5.44,1.78,1.54.73,2.92,2.71,4.31,2.66,3.92-.16,4.75,2,5.13,5.11,1.86,14.86,4.49,29.48,10.11,43.55,5.8,14.52,15,25,29.21,32.14,11.54,5.77,24,8.1,35.93,12.19,6.92,2.36,13.93-.64,20-4.81,7.33-5,14.86-9.75,22-15,2.36-1.73,3.85-4.66,5.78-7,7.32-8.85,10.24-19.69,14.24-30.15,5.55-14.53,1.43-27.83-2.33-41.88-3.62-13.49-12.3-22.89-21.23-32.21-6.85-7.14-15.43-12.37-24.34-17-6.28-3.25-11.92-7.73-17.83-11.67-.55-.37-1-1-1.54-1.25-11.21-4.93-20.52-12.66-28.33-21.71-13-15.08-19.49-33.2-15.5-52.9,3.06-15.12,10.29-29.2,19.73-41.69a235.9,235.9,0,0,1,19.18-22.67,35.43,35.43,0,0,1,13.12-8.14c9.7-3.47,19.63-6.71,29.74-8.55,7.49-1.37,15.43-.69,23.14-.34a150.13,150.13,0,0,1,18.13,2.25c17.48,2.93,31.62,10.59,41.7,26.13,6.21,9.56,12.12,19,13.61,30.26.95,7.09-.11,14.47-.6,21.7a5.42,5.42,0,0,1-2.69,3.93C2910.8,243.57,2910.8,248.88,2909.07,252.19Z" transform="translate(-90.95 -84.38)"/><path class="cls-3" d="M1998.43,473c13.81-.67,26.27-.95,38.67-2,10.41-.86,20.75-2.6,31.13-3.9,2.29-.29,4.62-.29,6.92-.53,9.51-1,19-1.94,28.5-3.11,11-1.35,22-2.92,33-4.4.17,0,.37-.17.48-.11,5.59,3,11.3,5.87,16.65,9.3,1.16.74,1.17,3.54,1.39,5.44.39,3.38,1.17,6.9.59,10.15a20.38,20.38,0,0,1-4.11,8.37,42.94,42.94,0,0,1-8,7.82c-2.26,1.72-5.08,3.5-7.79,3.73-16.85,1.44-33.76,2.33-50.63,3.65-9.54.74-19.1,1.63-28.56,3-6.8,1-13.4,3.71-20.21,4.35-11.62,1.08-23.19,4.18-35,1.82a16.35,16.35,0,0,0-7.36.3c-8.28,2.34-15.1-1.6-22.33-4.43-8.28-3.24-14.68-8.56-20.35-15.31-6.71-8-9.76-16.08-6.37-26.74,2.68-8.45,3.5-17.51,4.88-26.34,3.27-21,9.28-41.22,15.27-61.52,3.71-12.57,6.28-25.47,9.34-38.23,3.74-15.56,5.88-31.47,12.44-46.39,3.63-8.26,5.13-17.45,7.68-26.2,1.48-5.09,3.16-10.12,4.71-15.19,5.51-18,8.35-36.51,10.71-55.15.9-7,3.31-13.88,4.63-20.89,1.43-7.64,2.22-15.41,3.62-23.07,1.31-7.2,4.73-9.64,12-9.2.67,0,1.47.35,2,.09,7.77-4,15.09-.07,22.57,1.17,5.34.89,9.14,5.07,8.83,10.45-.8,13.91-.84,27.95-2.94,41.66-3.39,22.12-7.71,44.13-12.6,66-2.81,12.59-8,24.63-11.26,37.15-4.53,17.5-8.06,35.25-12.36,52.81-3.62,14.8-7.35,29.59-11.72,44.17a373.48,373.48,0,0,0-12.52,58.94C1999.72,464.56,1999.1,468.41,1998.43,473Z" transform="translate(-90.95 -84.38)"/><path class="cls-3" d="M2310.54,453.57c3.57-.7,7.13-1.44,10.71-2.08,12-2.16,24-4.2,35.92-6.44,7.47-1.4,14.88-3.14,22.34-4.6s15.24-2.7,22.8-4.28c5-1,9.91-2.5,14.86-3.77a15.56,15.56,0,0,1,3.3-.75c5.14-.14,10.31-.45,15.43-.11,2.16.14,4.24,1.71,6.34,2.66,1.29.58,2.49,1.55,3.84,1.79,6.67,1.16,9.89,4.67,10,11.35a92.31,92.31,0,0,1-.27,10.39c-.51,5.27-2.26,9.38-7.86,11.92-3.69,1.67-5.26,7.06-10.13,7.78a31.1,31.1,0,0,1-4.72.31c-7.22-.06-14.5-.75-21.65-.09-6.2.58-12.2,3-18.38,4-8.29,1.37-16.72,1.86-25,3.3-13.84,2.39-27.59,5.33-41.42,7.84-6.34,1.15-12.78,1.82-19.17,2.76-3.1.45-6.17,1.08-9.28,1.53a7.89,7.89,0,0,1-3.45,0c-6.39-2.1-12.65-4.58-19.09-6.52-12.07-3.63-19.83-12.85-25.7-22.64-3.72-6.19-7.35-14.16-3.34-23,2.62-5.74,3.14-12.56,4-19,1.26-9.71,1.42-19.58,3.09-29.2,1.91-10.93,5.21-21.6,7.48-32.48,3.57-17.05,7.11-34.13,10-51.3,1.88-11.11,2.38-22.45,3.94-33.62,2.44-17.4,5.31-34.73,7.89-52.11,2.3-15.56,4.36-31.16,6.74-46.71a157.77,157.77,0,0,1,3.51-16.08c1.22-4.7,5.6-5.16,9.4-6.21a102.4,102.4,0,0,1,9.93-2.52,24.47,24.47,0,0,1,6.89,0c3.3.39,7,.38,9.72,1.89,3,1.63,5.36,4.59,7.46,7.39,3.73,5,3.77,10.5,2.35,16.49-1.1,4.64-.82,9.59-1.38,14.37-1.74,15.17-3.37,30.35-5.46,45.47-3.08,22.31-6.58,44.57-9.77,66.87-1.26,8.86-1.76,17.85-3.32,26.65-2.72,15.3-6.33,30.45-9,45.76-2.95,17.17-5.26,34.46-7.8,51.7-.65,4.43-.94,8.92-1.69,13.33-1,5.89.63,7.77,6.82,7.44,1-.05,2,0,3,0C2310.48,453.32,2310.51,453.44,2310.54,453.57Z" transform="translate(-90.95 -84.38)"/><path class="cls-3" d="M2537.34,390.16q4.69-28.7,9.4-57.39c2.42-14.55,5.18-29,7.33-43.64,2.39-16.2,3.92-32.52,6.51-48.68,1.44-8.93,4.38-17.62,6.5-26.45,2.81-11.76,6.16-23.38,6.5-35.66.32-11.35,5.72-16.28,17.11-16.55,5.73-.13,11.37-.48,17,2.45,2.51,1.3,7.23-1,9,2.79,2.55,5.5,6.52,10.63,5.56,17.38-2.08,14.6-3.75,29.27-6,43.85-2.95,18.78-6.32,37.49-9.52,56.23-1.15,6.68-2.37,13.34-3.48,20-2.11,12.6-4.26,25.2-6.2,37.82-1.21,7.85-2.06,15.74-3.13,23.61-.76,5.57-2,11.1-2.37,16.69-1.39,20.38-2.34,40.8-3.81,61.17-.57,8.05-2.18,16-3.09,24-.38,3.39-2.13,5.11-5,6.79s-4.45,4.69-7.06,6.48A115.11,115.11,0,0,1,2560.3,488c-.45.23-1.53-.83-2.34-1.24-3.95-2-8-3.77-11.81-6a28.32,28.32,0,0,1-7.08-5.68c-2.42-2.84-4.85-6-6.07-9.45a25.93,25.93,0,0,1-1.06-10.92c1.76-17.17,4-34.3,5.81-51.46.45-4.26.06-8.62.06-12.93Z" transform="translate(-90.95 -84.38)"/><path class="cls-3" d="M1424.26,488.88a78.48,78.48,0,0,1-8,31.72c-4.43,9-8.36,18.52-14.5,26.23-5.35,6.74-10.48,14.68-19.91,17.38-4.82,1.39-8.72.19-12.74-2.14a72,72,0,0,0-9.59-4.87c-5.71-2.25-14.23-14.29-13.39-20.38.36-2.63,2.14-5.35,4-7.42,5.68-6.42,11.59-12.58,13.87-21.24.52-2,2.34-3.64,3-5.63,4-12.85,4.58-25.77-.4-38.48-1.42-3.63-4.61-6.66-5.58-10.33-1.31-5-3.17-11.12-1.34-15.23,2.39-5.37,7.6-9.71,15.28-8.57,3.47.52,7.26-1.21,10.93-1.78a11.51,11.51,0,0,1,4.3,0c3.13.75,6.66,1.1,9.16,2.85a32,32,0,0,1,9.12,9.25c6.25,10.55,11.12,21.78,13.5,33.92C1422.83,479.05,1423.47,484,1424.26,488.88Z" transform="translate(-90.95 -84.38)"/><path class="cls-3" d="M3783.3,488.88a78.48,78.48,0,0,1-8,31.72c-4.42,9-8.36,18.52-14.5,26.23-5.35,6.74-10.48,14.68-19.91,17.38-4.82,1.39-8.72.19-12.74-2.14a72,72,0,0,0-9.59-4.87c-5.71-2.25-14.23-14.29-13.39-20.38.36-2.63,2.14-5.35,4-7.42,5.68-6.42,11.59-12.58,13.87-21.24.53-2,2.34-3.64,2.95-5.63,4-12.85,4.58-25.77-.4-38.48-1.42-3.63-4.61-6.66-5.58-10.33-1.31-5-3.17-11.12-1.34-15.23,2.39-5.37,7.6-9.71,15.28-8.57,3.47.52,7.26-1.21,10.93-1.78a11.51,11.51,0,0,1,4.3,0c3.13.75,6.66,1.1,9.16,2.85a32,32,0,0,1,9.12,9.25c6.25,10.55,11.12,21.78,13.5,33.92C3781.87,479.05,3782.51,484,3783.3,488.88Z" transform="translate(-90.95 -84.38)"/></g></svg>