<?xml version="1.0" encoding="utf-8"?>
<!-- Generator: Adobe Illustrator 24.3.0, SVG Export Plug-In . SVG Version: 6.00 Build 0)  -->
<svg version="1.1" id="Layer_1" xmlns="http://www.w3.org/2000/svg" xmlns:xlink="http://www.w3.org/1999/xlink" x="0px" y="0px"
	 viewBox="0 0 5107.4 643.9" style="enable-background:new 0 0 5107.4 643.9;" xml:space="preserve">
<style type="text/css">
	.st0{display:none;}
	.st1{display:inline;stroke:#FFFFFF;stroke-miterlimit:10;}
	.st2{opacity:0.25;}
	.st3{fill:#FCE76B;}
	.st4{display:none;opacity:0.8;}
	.st5{display:inline;fill:none;stroke:#C5DCF0;stroke-width:15;stroke-miterlimit:10;}
	.st6{fill:none;stroke:#008BBC;stroke-width:15;stroke-miterlimit:10;}
	.st7{display:inline;fill:none;stroke:#F0E6B9;stroke-width:15;stroke-miterlimit:10;}
</style>
<g id="Layer_2_1_" class="st0">
	<rect y="-220.2" class="st1" width="4980.8" height="1095.1"/>
</g>
<g class="st2">
	<path class="st3" d="M-9.4,704c-4.6-14.3-7.6-27.1-10.1-39.5c-2.7-12.5-4.5-24.3-6-35.8c-0.8-5.8-1.3-11.3-1.9-16.9l-0.7-8.2
		l-0.3-4.1l-0.2-4l-0.4-8c-0.1-2.6-0.1-5.2-0.2-7.8l-0.1-3.9c0-1.3-0.1-2.6-0.1-3.8l0-7.5l0-3.8c0-1.2,0.1-2.5,0.1-3.7l0.2-7.3
		c0.1-2.5,0.2-4.9,0.3-7.2c0.1-2.4,0.3-4.8,0.5-7.1c0.7-9.4,1.8-18.6,3.1-27.5s2.9-17.5,4.7-25.9c1.9-8.4,4-16.5,6.4-24.4
		c2.3-7.9,5-15.6,7.9-23c2.8-7.5,5.9-14.7,9.3-21.8c6.7-14.1,14.2-27.3,22.6-39.7c2.1-3.1,4.3-6.2,6.5-9.2s4.5-6,6.8-8.9
		c4.8-5.7,10-11,15.9-15.7c11.6-9.5,25.5-16.9,41.5-22.4c8-2.8,16.5-5,25.4-6.9l6.8-1.3l3.4-0.7l3.5-0.6l7-1.1l7.2-1l3.6-0.5
		l3.7-0.4l7.3-0.8l14.9-1.5l29.9-2.9c9.9-1,19.6-2.2,29.1-3.6c9.4-1.5,18.6-3.1,27.2-5.3c8.6-2.1,16.9-4.6,24.6-7.7
		c7.7-3,14.9-6.5,21.6-10.4c6.7-4,12.8-8.4,18.5-13.3c5.6-4.9,10.7-10.4,15.4-16.1c9.5-11.5,17.4-24.3,23.8-38.7
		c6.3-14.4,11-30.2,14.3-47.4c1.7-8.5,3-17.4,4.1-26.5l0.8-6.8c0.2-2.3,0.5-4.6,0.7-6.9l1.3-13.9c3.1-37.5,5.1-76,12.8-109.3
		c3.8-16.7,8.7-32.4,14.9-46.8c1.5-3.6,3.2-7.2,4.9-10.7l5-10.6c3.3-7,6.6-14.1,9.9-21.2l9.8-21.3c3.3-7.1,6.6-14.1,10-21.1
		c3.4-7,6.8-13.9,10.3-20.8c3.6-6.8,7.2-13.6,11.1-20.1c7.7-13.1,16-25.6,25.5-37.2c9.4-11.6,19.7-22.2,31.1-32
		c22.7-19.5,49.2-35.5,77.9-49.5c28.7-14,59.9-25.8,93.8-34.9c34.1-9.1,70.7-15.8,111.3-18.9l7.6-0.6c2.5-0.2,5.2-0.3,7.8-0.5
		c2.6-0.1,5.2-0.3,7.8-0.4l8-0.3l4-0.1l4.1-0.1l8.1-0.1c5.5,0,11,0,16.7,0.1l4.2,0.1c1.4,0,2.9,0.1,4.3,0.2l8.7,0.4l4.3,0.2
		c1.5,0.1,2.9,0.1,4.4,0.2l9,0.7c12,0.9,24.3,2.2,37.8,4.4l36.8,33.8c3.4,13.2,5.7,25.4,7.6,37.3l1.4,8.9c0.3,1.5,0.4,2.9,0.6,4.4
		l0.6,4.3l1.1,8.6c0.2,1.4,0.4,2.9,0.5,4.3l0.5,4.2c0.6,5.6,1.1,11.1,1.6,16.6l0.6,8.1l0.3,4.1l0.2,4l0.4,7.9
		c0.1,2.6,0.2,5.2,0.3,7.8c0.1,2.6,0.2,5.2,0.2,7.8l0.1,7.6c0.4,40.7-3.2,77.8-9.3,112.5c-6.2,34.6-15.3,66.7-26.7,96.5
		C960.6,60.9,947,88.7,929.5,113c-8.7,12.2-18.5,23.4-29.2,33.7c-10.7,10.4-22.4,19.8-34.8,28.6c-6.2,4.4-12.6,8.6-19.1,12.8
		c-6.5,4.1-13.1,8.1-19.8,12.1c-6.7,3.9-13.5,7.8-20.2,11.7L786,223.5c-6.8,3.9-13.6,7.7-20.3,11.6l-10.1,5.9
		c-3.4,1.9-6.7,3.9-10.2,5.8c-13.9,7.4-29,13.7-45.4,18.9c-32.6,10.5-70.7,15.8-107.8,22.1l-13.8,2.5c-2.3,0.4-4.6,0.8-6.9,1.3
		l-6.7,1.4c-8.9,1.9-17.7,4-26,6.4c-16.8,4.7-32.2,10.8-46,18.4c-13.8,7.5-25.9,16.6-36.5,27c-5.3,5.2-10.3,10.7-14.7,16.8
		c-4.4,6-8.3,12.5-11.7,19.5c-3.4,7-6.2,14.5-8.5,22.4c-2.4,7.9-4.1,16.4-5.5,25.2c-1.4,8.8-2.2,18.1-2.9,27.6
		c-0.6,9.6-0.9,19.3-1.1,29.3l-0.3,30l-0.2,15l-0.2,7.4l-0.1,3.7l-0.2,3.6l-0.4,7.2l-0.5,7.1l-0.3,3.5l-0.4,3.5l-0.7,6.9
		c-1.1,9-2.6,17.8-4.7,25.9c-4.1,16.4-10.3,30.9-18.8,43.3c-4.2,6.2-9,11.9-14.3,17.2c-2.6,2.6-5.4,5.1-8.2,7.6
		c-2.8,2.5-5.7,4.9-8.6,7.2c-11.7,9.5-24.2,18.1-37.6,26c-6.7,3.9-13.7,7.6-20.9,11.1c-7.2,3.5-14.6,6.8-22.3,9.8
		c-7.7,3-15.6,5.9-23.8,8.4c-8.2,2.6-16.7,4.9-25.4,7c-8.7,2.1-17.8,3.9-27.1,5.4c-2.3,0.4-4.7,0.8-7.1,1.1c-2.4,0.3-4.7,0.7-7.2,1
		l-7.3,0.9c-1.2,0.1-2.4,0.3-3.7,0.4l-3.8,0.3l-7.5,0.7c-1.2,0.1-2.5,0.2-3.8,0.3l-3.9,0.2c-2.6,0.1-5.1,0.3-7.8,0.4l-8,0.2l-4,0.1
		l-4.1,0l-8.2,0c-5.6-0.1-11.2-0.2-17-0.5c-11.5-0.5-23.4-1.3-36.2-2.9c-12.6-1.4-25.7-3.4-40.2-6.7L-9.4,704z"/>
</g>
<g class="st2">
	<path class="st3" d="M744,844.4c3.9-10.1,8.4-19.7,12.9-29.2c4.5-9.5,9.3-18.9,14.2-28.1c9.7-18.5,20-36.4,30.7-54
		c21.3-35.2,44.2-68.9,68.3-101.6c24.1-32.7,49.4-64.2,75.7-94.8c6.6-7.6,13.2-15.3,19.9-22.8c6.7-7.5,13.6-14.9,20.7-22.1
		c14.1-14.4,28.9-28.2,44.3-41.5c15.4-13.2,31.5-25.9,47.9-38.2c4.1-3.1,8.2-6.1,12.3-9.2l12.4-9.1l24.9-18.2
		c33.2-24.3,65.3-49.6,94.5-77.6c14.6-14,28.6-28.5,42-43.6c13.5-15,26.5-30.5,39-46.4s24.6-32.2,36.2-48.9
		c11.7-16.7,22.8-33.8,33.9-51c22.2-34.4,44-69.1,67.6-102.3c11.7-16.6,23.8-32.9,36.3-48.8l37.8-47.5l37.8-47.5
		c6.3-7.9,12.7-15.8,19.1-23.6c6.4-7.9,12.8-15.7,19.2-23.4c25.8-31.1,52.6-61.2,80.7-90.2c28-29,57.3-57,87.1-84.4
		c29.9-27.3,60.5-54,91.9-80c31.5-25.9,63.7-51.1,97.1-75.2c16.7-12,33.7-23.9,51.1-35.3c8.7-5.7,17.5-11.4,26.4-16.8
		c8.9-5.5,17.9-10.9,27.3-16l11.1,10.1c-4.3,9.8-8.9,19.2-13.6,28.5c-4.7,9.4-9.6,18.6-14.5,27.8c-9.9,18.3-20.2,36.2-30.8,53.9
		c-21.1,35.4-43.4,69.7-66.5,103.2c-23.1,33.5-47.1,66.3-71.8,98.4c-24.7,32.1-50,63.6-76.5,94.1c-26.4,30.5-54.2,59.8-82.9,88.2
		c-7.2,7.1-14.4,14.2-21.7,21.2c-7.2,7-14.6,14-21.9,21l-44,41.8L1576,47.1c-14.8,13.8-30,27.3-45.5,40.4
		c-31,26.3-63.7,51.1-96.1,76.1c-16.2,12.6-32.2,25.2-47.9,38.2c-15.7,13-30.9,26.4-45.7,40.2s-29,28.1-42.8,42.8
		c-13.8,14.7-27.2,29.9-39.8,45.6c-25.3,31.5-47.8,65.7-69.1,100.8l-16,26.4l-8,13.2c-2.7,4.4-5.4,8.8-8.1,13.1
		c-10.9,17.4-22.1,34.5-33.9,51c-11.8,16.5-24.3,32.4-37.5,47.7c-6.6,7.7-13.3,15.2-20.2,22.5c-6.9,7.3-13.9,14.6-21,21.8
		c-28.3,28.8-57.5,56.7-88,83.6c-30.5,26.8-62.1,52.5-95.3,76.8c-16.6,12.1-33.6,23.9-51.2,35.2c-8.8,5.6-17.7,11.2-26.8,16.5
		c-9.1,5.3-18.3,10.6-28,15.3L744,844.4z"/>
</g>
<g class="st2">
	<path class="st3" d="M1289.7,1637.9c2.7-14.9,6.3-28.9,10.1-42.8c3.9-13.8,8.2-27.3,12.7-40.5c2.2-6.7,4.7-13.2,7-19.7l3.7-9.7
		l1.8-4.8l1.9-4.8l3.8-9.6c1.3-3.2,2.6-6.3,3.9-9.5c1.3-3.1,2.6-6.3,4-9.4l4.1-9.3c11-24.8,22.8-48.9,35.3-72.4
		c12.5-23.5,25.7-46.4,39.6-68.7c27.7-44.7,57.7-87.3,89.9-128.1c8.1-10.2,16.2-20.3,24.5-30.2c8.4-9.9,17.1-19.5,26.1-28.8
		c18-18.7,37.5-36.1,58.2-52.4c10.3-8.2,21-16,31.9-23.7c11-7.6,22.1-15.1,33.5-22.4c5.7-3.7,11.4-7.2,17.1-10.8l17.3-10.7
		l34.7-21.3c11.5-7.1,22.9-14.4,34.2-21.8l8.4-5.6c2.8-1.9,5.6-3.7,8.3-5.6c5.5-3.8,11-7.6,16.3-11.5c21.6-15.6,42-32.2,61.1-49.9
		c9.6-8.9,18.8-18,27.7-27.5c8.9-9.4,17.5-19.2,25.8-29.1c16.7-19.8,32.5-40.5,47.3-62c14.8-21.5,28.6-43.9,41.5-67
		c6.5-11.5,12.8-23.3,18.9-35.1l4.6-8.9l4.5-9l9-18c23.7-48.2,46.8-96.8,73.3-142.5c13.2-22.9,27.1-45.1,41.9-66.7
		c7.4-10.8,14.9-21.4,22.4-32.1l22.4-32.1c14.9-21.4,29.8-42.8,44.9-64.1c7.5-10.6,15.1-21.3,22.7-31.8c7.6-10.5,15.3-21,23.2-31.4
		c15.6-20.8,31.7-41.2,48.3-61.1c16.7-19.9,33.9-39.2,51.8-58c17.9-18.8,36.3-37.1,55.2-55c9.5-8.9,19-17.8,28.7-26.5
		c9.6-8.8,19.4-17.4,29.3-26c39.4-34.4,80.4-67.5,123-99.1c42.7-31.5,87-61.7,133.7-89.7c23.4-14,47.2-27.6,71.9-40.4
		c12.4-6.4,24.9-12.7,37.8-18.6c12.8-6,25.8-11.9,39.5-17.1l22.6,19.8c-3.4,14.3-7.4,27.9-11.7,41.4c-4.2,13.6-8.8,26.8-13.5,39.9
		c-9.4,26.2-19.7,51.7-30.5,76.7c-21.6,50-45.6,97.9-71.2,144.4c-25.6,46.5-53,91.4-81.9,135.1c-7.2,10.9-14.5,21.8-21.9,32.5
		c-7.4,10.8-14.9,21.4-22.5,32c-15.2,21.1-30.9,41.9-47.2,62.1c-16.3,20.2-33.1,39.9-50.6,59.1c-17.5,19.2-35.6,37.8-54.1,56
		c-9.2,9.1-18.6,18.1-28.1,27.1c-9.4,9-19,17.8-28.5,26.7c-19.1,17.7-38.4,35.3-57.6,53l-28.8,26.5c-9.6,8.8-19.1,17.7-28.8,26.5
		c-19.4,17.5-39.6,34.2-60.6,50.4c-41.8,32.3-87,61.7-131.6,91.6l-16.6,11.3l-8.3,5.7l-8.2,5.7c-10.9,7.7-21.7,15.4-32.3,23.4
		c-21.2,15.9-41.6,32.5-60.9,50.1c-19.3,17.5-37.7,35.9-55.1,55.1c-8.7,9.6-17.2,19.4-25.4,29.5c-8.2,10.1-16,20.5-23.5,31.1
		c-15,21.3-28.8,43.7-41.4,67.2c-3.2,5.9-6.2,11.8-9.3,17.7c-1.5,3-3,6-4.5,9l-4.4,9c-5.8,12.2-11.5,24.4-17,36.8l-16.6,37.2
		l-8.3,18.6c-2.8,6.1-5.6,12.3-8.5,18.4c-5.7,12.3-11.7,24.2-17.7,36.2c-6.2,11.8-12.5,23.5-19.3,34.8
		c-13.4,22.7-28.1,44.3-44.2,64.7c-8,10.2-16.4,20.1-25.1,29.7c-8.7,9.6-17.7,19-26.7,28.3c-36.2,37.3-74.4,72.7-115,106.1
		c-20.3,16.7-41.2,32.8-62.9,48.3c-21.6,15.5-43.9,30.4-67.1,44.7l-8.7,5.3c-2.9,1.8-5.9,3.5-8.8,5.2c-2.9,1.7-5.9,3.5-8.9,5.2
		l-9,5.1l-4.5,2.5l-4.6,2.5l-9.1,4.9c-6.2,3.2-12.3,6.5-18.6,9.6c-12.5,6.3-25.3,12.3-38.5,18c-13.2,5.6-26.7,11.1-41.1,15.7
		L1289.7,1637.9z"/>
</g>
<g class="st2">
	<path class="st3" d="M2860.6,700.3c-7.7-13.1-13.6-24.7-19-35.8c-5.5-11.3-10.1-21.8-14.3-31.9c-2.1-5.1-4-10-5.9-14.9l-2.6-7.2
		l-1.3-3.6l-1.2-3.5l-2.4-6.9c-0.8-2.3-1.4-4.5-2.1-6.8l-1.1-3.4c-0.4-1.1-0.7-2.2-1-3.3l-1.8-6.5l-0.9-3.2
		c-0.3-1.1-0.5-2.1-0.8-3.2l-1.6-6.3c-0.2-1-0.6-2.1-0.8-3.1l-0.7-3l-1.3-6.1c-1.7-8-3-15.7-4-23.2c-1-7.4-1.7-14.6-2-21.5
		c-0.4-6.9-0.4-13.5-0.2-20c0.2-6.4,0.7-12.6,1.5-18.5c0.8-6,1.8-11.7,3.1-17.2c2.6-11,6.3-21.1,11-30.4c1.2-2.3,2.4-4.6,3.7-6.8
		c1.3-2.2,2.6-4.4,4.1-6.5c2.9-4.1,6.5-7.8,10.6-10.9c8.3-6.2,19.2-10.2,32.5-12.2c6.6-1,13.9-1.5,21.6-1.6l5.9,0l3,0l3.1,0.1
		l6.1,0.2l6.4,0.4l3.2,0.2l3.2,0.3l6.5,0.5l13.3,1.3l26.6,2.6c8.8,0.8,17.4,1.5,25.8,1.9c8.2,0.3,16.2,0.5,23.6,0.1
		c14.8-0.7,27.6-3.2,37.9-7.7c5.1-2.3,9.7-5.1,13.6-8.3c4-3.3,7.3-7.1,10.2-11.2c5.8-8.3,10-18,12.2-29.3
		c2.3-11.3,2.7-24.2,1.5-38.4c-0.2-3.5-0.7-7.2-1.1-10.8c-0.2-1.8-0.5-3.7-0.8-5.6c-0.3-1.9-0.5-3.7-0.9-5.7l-0.9-5.8
		c-0.3-1.9-0.7-3.9-1.1-5.9l-2.2-11.8c-6.4-31.8-14-64.6-15.2-92.1c-0.7-13.8,0-26.4,2.1-37.9c0.5-2.9,1.2-5.6,1.8-8.4l1.9-8.3
		c1.3-5.5,2.5-11.1,3.8-16.6l3.7-16.7c1.3-5.5,2.6-11.1,3.9-16.5c1.3-5.5,2.8-10.8,4.4-16.2c1.6-5.3,3.3-10.5,5.2-15.5
		c3.8-10,8.4-19.4,14.2-27.7c5.7-8.4,12.6-15.8,20.6-22.3c16-13,36.4-22.2,59.2-29.4c22.9-7.2,48.5-12,77.4-14.1
		c29-2,60.9-1.6,97.3,2.6l6.9,0.8c2.3,0.3,4.7,0.6,7,0.9l7.1,1l7.2,1.1l3.6,0.6l3.7,0.6l7.4,1.3c5.1,1,10.1,1.9,15.3,3l3.9,0.8
		c1.3,0.3,2.7,0.6,4,0.9l8,1.8l4,0.9c1.3,0.3,2.6,0.6,4.1,1l8.4,2.1c11.2,2.8,22.8,6,35.7,10.2l42.1,35.4
		c6.4,11.9,11.5,22.9,16.2,33.4l3.5,7.9c0.6,1.3,1.1,2.6,1.6,3.8l1.6,3.8l3.1,7.6c0.5,1.3,1.1,2.5,1.6,3.8l1.4,3.7
		c2,5,3.7,9.7,5.5,14.6l2.5,7.1l1.3,3.5l1.2,3.5l2.3,6.9l2.2,6.8c0.7,2.2,1.5,4.5,2.1,6.7l2,6.6c10.4,35.1,16.2,66.5,19.2,95.4
		c2.8,28.8,2.4,54.9-0.7,78.7c-3.2,23.7-8.8,45.4-18.9,63.4c-5,9-11.1,17-18.4,24.1c-7.2,7.1-15.7,13.2-24.9,18.7
		c-4.6,2.7-9.4,5.3-14.4,7.7c-5,2.4-10,4.8-15.2,7c-5.1,2.3-10.4,4.5-15.6,6.7l-15.8,6.5c-5.2,2.2-10.5,4.3-15.7,6.6l-7.8,3.3
		c-2.6,1.1-5.2,2.2-7.9,3.2c-10.9,4.1-23.2,6.9-36.9,8.5c-27.2,3.5-60.9,1.6-93.3,0.7l-12-0.2c-2,0-4-0.1-6-0.1l-5.8,0
		c-2,0-3.8,0.1-5.7,0.1c-1.9,0.1-3.8,0.1-5.6,0.2c-3.7,0.2-7.4,0.4-10.9,0.8c-14.2,1.2-26.8,3.8-37.6,8
		c-10.8,4.1-19.6,9.9-26.8,17.1c-3.6,3.6-6.8,7.5-9.3,12c-2.6,4.5-4.5,9.4-5.9,14.9c-2.7,10.9-3,23.9-1.1,38.7
		c0.9,7.4,2.4,15.2,4.1,23.3c1.8,8.2,3.9,16.5,6.2,25.1l7.1,25.8l3.5,12.9l1.6,6.3l0.8,3.2l0.7,3.1l1.5,6.2l1.3,6l0.6,3l0.5,2.9
		l1,5.8c1.2,7.6,1.9,14.8,2.1,21.5c0.3,13.4-1.8,24.9-6.5,34.2c-2.3,4.6-5.3,8.8-8.9,12.3c-1.8,1.8-3.7,3.5-5.7,5.1
		c-2,1.7-4,3.2-6.1,4.8c-8.4,6.2-17.7,11.5-28.1,16c-5.2,2.2-10.6,4.3-16.4,6c-5.7,1.8-11.7,3.4-18,4.7c-6.3,1.3-12.8,2.4-19.7,3.2
		c-6.9,0.8-14.1,1.4-21.6,1.7c-7.5,0.3-15.3,0.3-23.5,0l-6.2-0.3l-3.1-0.1c-1,0-2.1-0.2-3.2-0.2l-6.5-0.5c-1.1-0.1-2.1-0.2-3.2-0.3
		l-3.4-0.3l-6.7-0.7c-1.1-0.1-2.3-0.3-3.4-0.4l-3.5-0.5c-2.3-0.3-4.6-0.6-7-1l-7.2-1.1l-3.6-0.6l-3.8-0.7l-7.5-1.4
		c-5.2-1-10.3-2-15.7-3.3c-10.7-2.4-21.8-5.2-33.9-8.7c-11.9-3.4-24.3-7.3-38.5-12.6L2860.6,700.3z"/>
</g>
<g class="st2">
	<path class="st3" d="M3583.3,926.8c2.6-14.9,6.3-28.9,10.1-42.8c3.9-13.8,8.2-27.3,12.7-40.5c2.2-6.7,4.6-13.2,7-19.7l3.7-9.7
		l1.9-4.8l1.9-4.8l3.8-9.6c1.3-3.2,2.6-6.3,3.9-9.5c1.3-3.1,2.6-6.3,4-9.4l4.1-9.3c11-24.8,22.8-48.9,35.4-72.4
		c12.5-23.5,25.7-46.4,39.6-68.7c27.7-44.7,57.7-87.3,89.9-128.1c8.1-10.2,16.2-20.3,24.5-30.2c8.4-9.9,17.1-19.5,26.1-28.9
		c18-18.7,37.5-36.1,58.2-52.4c10.3-8.2,21-16,31.9-23.7c11-7.6,22.1-15.1,33.5-22.4c5.6-3.7,11.4-7.2,17.1-10.9l17.3-10.7
		l34.7-21.4c11.5-7.1,22.9-14.4,34.2-21.8l8.4-5.6c2.8-1.9,5.6-3.7,8.3-5.6c5.5-3.8,11-7.6,16.4-11.5c21.6-15.6,42-32.2,61.1-49.9
		c9.5-8.9,18.8-18,27.7-27.4c8.9-9.4,17.5-19.2,25.8-29.1c16.7-19.8,32.5-40.5,47.3-62c14.8-21.5,28.6-43.9,41.5-67
		c6.5-11.5,12.8-23.3,18.9-35.1l4.6-8.9l4.5-9l9-18c23.7-48.2,46.8-96.8,73.3-142.5c13.2-22.9,27.1-45.1,41.9-66.7
		c7.4-10.8,14.9-21.4,22.4-32.1l22.4-32.1c14.9-21.4,29.8-42.8,44.9-64.1c7.5-10.6,15.1-21.3,22.7-31.8c7.6-10.5,15.3-21,23.2-31.4
		c15.6-20.8,31.7-41.2,48.3-61.1c16.7-19.9,33.9-39.2,51.8-58c17.9-18.8,36.3-37.1,55.2-55c9.5-9,19-17.8,28.7-26.5
		c9.6-8.8,19.5-17.4,29.3-26c39.5-34.4,80.4-67.5,123-99.1c42.7-31.5,87-61.7,133.7-89.7c23.4-14,47.2-27.6,72-40.4
		c12.4-6.4,24.9-12.7,37.8-18.7c12.8-6,25.8-11.8,39.5-17.1l22.6,19.8c-3.4,14.3-7.4,28-11.7,41.5c-4.2,13.5-8.8,26.8-13.5,39.9
		c-9.4,26.2-19.7,51.7-30.5,76.7c-21.6,50-45.6,97.9-71.2,144.4c-25.6,46.5-53,91.4-81.9,135.1c-7.2,10.9-14.5,21.8-21.9,32.5
		c-7.4,10.8-14.9,21.4-22.5,32c-15.2,21.1-30.9,41.9-47.2,62.1c-16.3,20.2-33.1,39.9-50.6,59.1c-17.5,19.2-35.6,37.8-54.1,56
		c-9.2,9.1-18.6,18.1-28.1,27.1c-9.4,9-19,17.8-28.5,26.7c-19.1,17.7-38.4,35.3-57.6,53l-28.8,26.5c-9.6,8.8-19.1,17.7-28.8,26.4
		c-19.4,17.5-39.6,34.2-60.6,50.4c-41.8,32.3-87,61.7-131.6,91.6l-16.6,11.3L4451,71l-8.2,5.7c-10.9,7.7-21.7,15.4-32.3,23.4
		c-21.2,15.9-41.6,32.5-60.9,50.1c-19.4,17.5-37.7,35.9-55.1,55.1c-8.7,9.6-17.2,19.4-25.4,29.5c-8.2,10.1-16,20.4-23.5,31.1
		c-15,21.3-28.8,43.7-41.4,67.2c-3.1,5.9-6.2,11.8-9.3,17.7c-1.5,3-3,6-4.5,9l-4.4,9c-5.8,12.1-11.5,24.4-17,36.8l-16.6,37.2
		l-8.3,18.6c-2.8,6.1-5.6,12.3-8.5,18.4c-5.7,12.3-11.7,24.2-17.7,36.2c-6.2,11.8-12.5,23.5-19.3,34.8
		c-13.4,22.7-28.1,44.3-44.2,64.7c-8,10.2-16.4,20.1-25.1,29.7c-8.7,9.6-17.7,19-26.7,28.3c-36.2,37.3-74.4,72.7-115,106.1
		c-20.3,16.7-41.2,32.8-62.9,48.3c-21.6,15.5-43.9,30.5-67.1,44.7l-8.7,5.3c-2.9,1.8-5.9,3.5-8.8,5.2c-2.9,1.7-5.9,3.5-8.9,5.2
		l-9,5.1l-4.5,2.5l-4.6,2.5l-9.1,4.9c-6.2,3.2-12.3,6.5-18.6,9.6c-12.5,6.3-25.3,12.3-38.5,18c-13.3,5.6-26.7,11.1-41.1,15.7
		L3583.3,926.8z"/>
</g>
<g class="st2">
	<path class="st3" d="M4144.3,1294.6c-4.5-14.3-7.6-27.1-10.1-39.5c-2.7-12.5-4.5-24.3-6-35.8c-0.8-5.8-1.3-11.3-1.9-16.9l-0.7-8.2
		l-0.3-4.1l-0.2-4l-0.4-8c-0.1-2.6-0.1-5.2-0.2-7.8l-0.1-3.9c0-1.3-0.1-2.6-0.1-3.8l0-7.6l0-3.8c0-1.2,0.1-2.4,0.1-3.7l0.2-7.3
		c0.1-2.5,0.2-4.9,0.3-7.2c0.1-2.4,0.3-4.8,0.5-7.1c0.7-9.4,1.8-18.6,3.1-27.4s2.9-17.5,4.7-25.9c1.9-8.4,4-16.5,6.4-24.4
		c2.4-7.9,5-15.6,7.9-23.1c2.9-7.5,5.9-14.7,9.3-21.8c6.7-14.1,14.2-27.3,22.6-39.7c2.1-3.1,4.3-6.2,6.5-9.2c2.2-3,4.5-6,6.8-8.9
		c4.8-5.7,10-11,15.9-15.7c11.6-9.5,25.5-16.9,41.5-22.4c8-2.8,16.5-5,25.4-6.9l6.8-1.3l3.4-0.7l3.5-0.6l7-1.1l7.2-1l3.6-0.5
		l3.7-0.4l7.3-0.8l14.9-1.5l29.9-2.9c9.9-1,19.6-2.2,29.1-3.6c9.4-1.5,18.6-3.1,27.2-5.3c8.6-2.2,16.9-4.6,24.6-7.7
		c7.7-3,14.9-6.5,21.6-10.4c6.7-4,12.8-8.4,18.5-13.3c5.6-4.9,10.7-10.3,15.4-16.1c9.5-11.5,17.4-24.3,23.8-38.7
		c6.3-14.4,11-30.2,14.3-47.4c1.7-8.5,3-17.4,4.1-26.5l0.8-6.8c0.2-2.3,0.5-4.6,0.7-6.9l1.3-13.9c3.1-37.5,5.1-76,12.8-109.3
		c3.8-16.7,8.7-32.4,14.9-46.8c1.5-3.6,3.2-7.2,4.9-10.7l5-10.6c3.3-7,6.6-14.1,9.9-21.2l9.8-21.3c3.3-7,6.6-14.1,10-21.1
		c3.4-7,6.8-13.9,10.3-20.8c3.6-6.8,7.2-13.5,11.1-20.1c7.7-13.1,16-25.6,25.5-37.2c9.4-11.6,19.8-22.2,31.1-32
		c22.7-19.5,49.2-35.5,77.9-49.5c28.7-14,59.9-25.8,93.9-34.9c34.1-9.1,70.7-15.8,111.3-18.9l7.6-0.6c2.5-0.2,5.2-0.3,7.8-0.4
		c2.6-0.1,5.2-0.3,7.8-0.4l8-0.3l4-0.1l4.1-0.1l8.1-0.1c5.5,0,11,0,16.6,0.1l4.2,0.1c1.4,0,2.9,0.1,4.3,0.2l8.7,0.4l4.3,0.2
		c1.5,0.1,2.9,0.1,4.4,0.2l9,0.7c12,0.9,24.4,2.2,37.8,4.4l36.9,33.8c3.4,13.2,5.7,25.4,7.6,37.3l1.4,8.9c0.3,1.5,0.4,2.9,0.6,4.4
		l0.6,4.3l1.1,8.6c0.2,1.4,0.4,2.9,0.5,4.3l0.5,4.2c0.6,5.6,1.1,11.1,1.6,16.6l0.6,8.1l0.3,4l0.2,4l0.4,8c0.1,2.6,0.2,5.2,0.3,7.8
		c0.1,2.6,0.2,5.2,0.2,7.8l0.1,7.6c0.4,40.7-3.2,77.8-9.3,112.5c-6.2,34.6-15.3,66.7-26.7,96.5c-11.5,29.8-25.1,57.6-42.6,81.9
		c-8.7,12.2-18.5,23.4-29.2,33.7c-10.7,10.4-22.4,19.8-34.8,28.5c-6.2,4.4-12.6,8.6-19.1,12.8c-6.5,4.1-13.1,8.2-19.8,12.1
		c-6.7,4-13.5,7.8-20.2,11.7l-20.3,11.6c-6.8,3.9-13.6,7.7-20.3,11.6l-10.1,5.9c-3.4,2-6.7,3.9-10.2,5.8
		c-13.9,7.4-29,13.7-45.4,18.9c-32.6,10.5-70.7,15.8-107.8,22.1l-13.8,2.5c-2.3,0.4-4.6,0.8-6.9,1.3l-6.7,1.4
		c-8.9,1.9-17.7,4-26,6.4c-16.8,4.7-32.2,10.8-46,18.3c-13.8,7.5-25.9,16.6-36.5,27c-5.3,5.2-10.3,10.7-14.7,16.8
		c-4.4,6-8.3,12.5-11.7,19.5c-3.4,7-6.2,14.5-8.5,22.4c-2.4,7.9-4.1,16.4-5.5,25.2c-1.4,8.8-2.2,18.1-2.9,27.6
		c-0.6,9.6-0.9,19.3-1.1,29.3l-0.3,30l-0.2,15l-0.2,7.4l-0.1,3.7l-0.2,3.6l-0.4,7.2l-0.5,7.1l-0.3,3.5l-0.4,3.4l-0.7,6.9
		c-1.1,9-2.6,17.8-4.7,25.9c-4.1,16.4-10.3,30.9-18.8,43.3c-4.2,6.2-9,11.9-14.3,17.2c-2.6,2.6-5.4,5.1-8.2,7.6
		c-2.8,2.5-5.7,4.9-8.6,7.2c-11.7,9.5-24.2,18.1-37.6,26c-6.7,3.9-13.7,7.6-20.9,11.1c-7.2,3.5-14.6,6.8-22.3,9.8
		c-7.7,3-15.6,5.9-23.8,8.4c-8.2,2.6-16.7,4.9-25.4,7c-8.7,2.1-17.8,3.9-27.1,5.4c-2.3,0.4-4.7,0.8-7,1.1c-2.4,0.3-4.7,0.7-7.2,1
		l-7.3,0.9c-1.2,0.1-2.4,0.3-3.7,0.4l-3.8,0.3l-7.5,0.7c-1.2,0.1-2.5,0.2-3.8,0.3l-3.9,0.2c-2.6,0.1-5.1,0.3-7.8,0.4l-8,0.2l-4,0.1
		l-4.1,0l-8.2,0c-5.6-0.1-11.2-0.2-17-0.5c-11.5-0.5-23.5-1.3-36.2-2.9c-12.6-1.4-25.6-3.4-40.2-6.7L4144.3,1294.6z"/>
</g>
<g id="Layer_1_copy_3" class="st4">
	<path class="st5" d="M3369.8,270.3c-1,6.2-1.9,12.4-3.1,18.6c-2.8,14.8-5.9,29.6-8.5,44.4c-3,17.1-5.6,34.4-8.6,51.5
		c-1,5.7-3.1,11.2-3.8,17c-1.9,15.5-3.1,31-5,46.5c-1.2,10.2-3.6,20.3-4.6,30.5c-0.8,7.9,0,16-0.5,23.9c-0.3,5.4-1.3,10.9-2.8,16.1
		c-0.6,2.2-3.2,5.4-5,5.4c-4.3,0-5.2,3.2-6.6,5.6c-3.4,5.6-8.8,6.7-14.2,2.9c-2-1.4-4.7-1.7-6.6-3.2c-8.6-6.8-18.3-13.3-18.9-25.5
		c-0.4-8.7,0.8-17.5,2-26.2c2.1-15.2,4.7-30.4,7-45.6c3.5-22.6,6.7-45.2,10.4-67.8c2.6-16.1,5.7-32,8.7-48c2.5-13.7,5.1-27.4,7.8-41
		c2.4-12.2,5.3-24.3,7.2-36.6c1.4-9.4,3.7-18.4,6.9-27.3c2.3-6.4,6.8-7.6,12.3-8.9c2.9-0.6,5.4-2.8,8.2-3.6
		c4.2-1.3,8.5-2.8,12.7-2.8c7.1,0,14.2,1.1,21.2,2.1c1.5,0.2,3.2,1.9,3.9,3.4c5.5,11.1,10.5,22.3,16.1,33.3
		c2.7,5.2,6.4,9.9,9.2,15.1c7.2,12.8,14.6,25.5,21.1,38.6c7.3,14.7,13.9,29.7,20.4,44.7c3.9,9.1,7,18.5,10.9,27.7
		c3.1,7.2,6.8,14.1,10.1,21.2c3,6.6,5.9,13.3,8.8,19.9c5.4,12.5,10.7,25.1,16.1,37.6c1.3,3,3.2,5.8,4.8,8.7c0.7-0.1,1.3-0.3,2-0.4
		c0.5-2.8,1.1-5.6,1.4-8.4c1.7-14.8,3.3-29.5,4.8-44.3c0.9-8.8,1.2-17.6,2.6-26.3c3.3-20.6,7.1-41.1,10.7-61.7
		c2.5-14.5,4.8-29.1,7.3-43.7c1.4-8.3,3.3-16.6,4.5-25c1.4-10.4,2.8-20.8,3.2-31.2c0.5-12.3,6.6-17.8,18.9-16
		c2.7,0.4,5.5-0.2,8.3-0.1c1.2,0,2.4,0.4,3.6,0.8c3.2,1,6.5,1.7,9.5,3.2c1.6,0.8,3,2.6,3.9,4.3c1.6,3.1,2.8,6.4,4.2,9.7
		c0.2,0.6,0.8,1.2,0.8,1.8c-0.2,8.8,3.5,17.6,0,26.6c-1.5,3.9-1.1,8.5-1.8,12.8c-2.6,16.5-5.3,32.9-8.1,49.4
		c-3,17.6-6.5,35.2-9.1,52.9c-1.8,11.8-2.3,23.8-3.6,35.7c-1.6,15.5-3.5,30.9-4.9,46.4c-1.8,20.3-2.8,40.7-5.2,61
		c-0.8,6.6-4.6,13-7.5,19.2c-0.5,1.1-3.6,0.8-5,1.8c-3.1,2.5-2.3,6.3-2.2,9.6c0.2,8.3-4.4,14.6-8,21.8c-2-1.1-3.3-1.8-5-2.8
		c-2.1,2.3-3.7,5.2-6.2,6.8c-6.1,3.7-13.1,2-19.6-3.1c-11-8.8-18-20.3-23.3-33.1c-3.6-8.6-7.6-17.1-12.2-25.4
		c-8.9-16.2-16.7-32.9-24.2-49.9c-8.1-18.4-16.3-36.6-24.1-55.1c-5.4-12.7-9.9-25.8-15.3-38.5c-2.8-6.7-6.9-12.8-9.8-19.5
		c-2.8-6.5-4.4-13.5-7.4-20c-3.6-7.7-8.1-15-12-22.5c-1.8-3.5-3.1-7.3-4.8-10.9c-0.7-1.5-1.8-2.9-2.7-4.4
		C3370.8,270.1,3370.3,270.2,3369.8,270.3z"/>
	<path class="st5" d="M981.5,257.7c-1.3,2-2.3,2.9-2.6,4c-5.3,17.7-10.6,35.4-15.7,53.1c-3.3,11.4-5.8,23-9.5,34.3
		c-6.5,20.4-13.7,40.5-20.3,60.8c-3.7,11.4-6.7,22.9-10,34.4c-2.3,8.3-4.6,16.5-6.7,24.9c-2.4,9.9-4.8,19.9-6.8,29.9
		c-1,5.4-2.5,10.2-6.8,14c-1.4,1.2-2.5,3-3.2,4.7c-1.4,3.2-3.1,5.6-7.1,5.4c-1.4-0.1-2.8,1.1-4.2,1c-3.6-0.2-7.1-0.8-10.6-1.4
		c-0.6-0.1-1.4-1.7-1.6-1.6c-6.7,2.7-9-3.9-12.5-6.7c-5.2-4.2-8.6-10.1-6.4-17.9c5.9-20.3,11.3-40.8,17.1-61.1
		c4.2-14.8,8.7-29.6,13.4-44.3c3.3-10.4,7.6-20.5,11-30.9c2.9-9,5-18.2,7.7-27.2c4.8-16.1,9.7-32.2,14.6-48.3
		c5-16.4,10.3-32.6,15.1-49.1c3-10.3,5-20.9,7.9-31.2c2.2-7.8,4.9-15.5,8.1-22.9c1-2.1,4.5-3.5,7.2-4.5c3.5-1.3,7.2-2.3,11-2.8
		c2.4-0.3,5,0.6,7.4,1.1c1.4,0.3,2.8,0.8,4.2,1.3c2.2,0.7,4.5,1.3,6.5,2.3c3.4,1.6,6.7,3.4,9.9,5.2c5.8,3.2,9.3,7.6,10.2,14.8
		c0.8,6.4,3.6,12.6,5.8,18.7c2.4,6.5,5.3,12.9,7.9,19.3c4.7,11.7,9.3,23.3,13.8,35.1c5.3,13.7,10.3,27.6,15.9,41.3
		c3.8,9.3,8.8,18.1,12.6,27.4c5.9,14.4,11.1,29,16.8,43.5c5.7,14.3,11.7,28.4,17.4,42.6c1.4,3.5,2.3,7.1,3.7,10.7
		c0.6,1.6,1.7,3.1,3.9,4.8c0.7-2,1.5-4,1.9-6c3.4-16.8,6.8-33.5,10.1-50.3c1.4-7.6,2.1-15.4,3.6-23c2.4-12,5.1-23.9,7.8-35.9
		c3.4-15.2,7-30.4,10.3-45.6c3.2-14.8,6.2-29.7,9.1-44.6c1.8-9.2,2.9-18.6,4.8-27.8c1.7-8.2,3.9-16.4,6.3-24.5
		c1.3-4.3,4.6-6.7,9.2-5.4c3.9,1.1,7.3,0.4,11-1c1.7-0.6,4.8-0.5,5.7,0.6c2.4,3,5.3,3.5,8.7,3.6c1.3,0.1,3.5,1.3,3.8,2.3
		c1.9,7.7,5.2,15.1,3.2,23.7c-1.9,8.6-1.5,17.7-2.8,26.5c-1.8,12.3-3.9,24.6-6.3,36.8c-2.8,14.1-6.6,28-9.3,42.1
		c-2.1,11.1-3.1,22.4-5,33.5c-1.9,11.3-4.5,22.4-6.6,33.7c-2.2,11.8-3.9,23.6-6.3,35.3c-4.4,20.8-9.6,41.4-13.5,62.2
		c-1.6,8.6-5.2,16.9-4.5,26.1c0.4,4.9-1.4,9.9-2.5,14.8c-0.4,1.5-1.8,3.1-3.1,4.1c-3,2.3-6.6,3.8-6.9,8.4c-0.1,0.9-1.6,2.2-2.7,2.4
		c-5.8,0.9-11.7,2.1-17.6,2c-5.8-0.1-12.4-0.1-17.1-2.8c-6.5-3.7-13-9.1-16.8-15.4c-5.5-9.1-8.8-19.6-12.7-29.6
		c-3.8-9.7-7.2-19.5-10.7-29.2c-4-11.2-7.7-22.5-11.9-33.7c-4.6-12.3-9.9-24.3-14.4-36.6c-5.1-13.8-9.5-27.9-14.7-41.6
		c-2.8-7.4-7-14.2-10.1-21.5c-3.7-8.6-7-17.4-10.3-26.2c-3-8-6-16-8.8-24C985.5,270.4,983.8,264.7,981.5,257.7z"/>
	<path class="st5" d="M310.7,135.9c6.3,4.6,13.1,5.7,20.6,5.6c5.7-0.1,11.4,1.9,17.1,2.8c9.2,1.4,18.6,1.6,27.5,4
		c11.2,3.1,22.7,4.5,33.6,9.8c13.9,6.7,24,17.7,35.9,26.6c8.2,6.1,16.3,12.5,23.6,19.6c2.8,2.8,5,8,4.7,11.9
		c-0.9,10.9-2.9,21.6-5.2,32.3c-0.7,3.5-3.7,6.5-5.4,9.8c-2.3,4.4-4.4,9-6.6,13.4c-4,8-9.6,14.7-16.4,20.5
		c-3.7,3.1-6.7,7.1-10.5,9.9c-4.6,3.5-9.6,6.4-14.6,9.1c-11,6-21.9,12.1-33.2,17.4c-6.9,3.2-14.6,4.6-21.6,7.5
		c-7,2.9-13.5,6.7-21.4,10.7c2.6,1.6,4.2,2.7,6,3.6c14.8,7.8,30.1,14.9,44.4,23.5c19,11.5,32.9,28.3,45,46.7
		c9.8,14.8,20,29.3,28.9,44.6c6,10.4,10.4,21.8,14.7,33c3.1,8,4.2,16.7,7.5,24.5c3.6,8.6,4.2,17.6,5.9,26.5c0.1,0.6,0,1.3,0,2.2
		c-5.9,0.8-10.7,2.4-10.2,9.9c0.2,2.6-8.3,7.5-11.3,6.4c-6.5-2.4-13.1-4.9-19.2-8.2c-4.3-2.3-8-5.7-11.6-9.1c-1.2-1.1-1-3.5-1.5-5.4
		c-2.7-11.1-5.2-22.2-8.3-33.2c-3.6-13.3-9.5-25.6-16.5-37.4c-7-11.6-14-23.2-21.3-34.6c-8.4-13-18.8-24.2-32-32.7
		c-8.5-5.4-16.4-11.9-25.4-16.5c-9.4-4.8-19.6-8.3-29.7-11.7c-7-2.4-14.4-3.7-21.7-5.5c-0.6-0.2-1.3-0.6-1.9-0.5
		c-11.6,1.8-18.9-6.6-27.5-11.9c-1.9-1.1-2.1-4.9-3.4-7.2c-0.9-1.5-2.3-2.8-3.5-4.1c-1.3,1.4-3.1,2.5-3.8,4.1
		c-3.1,6.9-4.9,14.7-9.2,20.7c-5.3,7.4-6.2,16.2-10.4,23.7c-4.9,8.9-7.8,18.6-10.9,28.3c-3.4,10.8-8.4,21.1-12.5,31.6
		c-3.6,9.1-7.1,18.3-10.4,27.5c-3.9,10.7-7.1,21.6-11.4,32.1c-2.9,7-7.2,13.5-11.2,20c-1.4,2.3-10.5,1.6-14.4-0.2
		c-3-1.3-6.4-1.7-9.4-3c-1.9-0.8-3.8-2.2-5.2-3.7c-3.1-3.7-6.3-7.4-8.7-11.6c-0.9-1.5-0.6-5.2,0.5-6.2c7.8-6.3,5.2-16.7,10.5-24.2
		c3.8-5.5,3.9-13.5,6.6-20c4.1-10,9.1-19.7,13.3-29.7c5-11.7,9.5-23.6,14.3-35.3c4.2-10.2,8.4-20.5,12.7-30.6
		c3.4-7.9,5.9-16.4,10.6-23.4c6.6-9.8,8-21.5,14.1-31.4c3.4-5.6,4.4-12.8,6.9-19.1c3.1-7.9,6.6-15.7,9.7-23.6
		c4-10.3,7.6-20.8,11.9-31.1c2.3-5.6,5.8-10.8,8.6-16.2c1.4-2.6,3.7-5.3,3.5-7.9c-0.2-5,4.9-7.5,4.3-13c-0.4-3.8,4.2-8,6.2-12.2
		c5.3-10.9,10.4-21.9,15.4-33c1.3-2.8,1.2-6.3,2.6-8.9c3-5.5,6.3-10.8,10.1-15.8c0.9-1.2,4.4-1.5,6-0.7
		C302.8,140.5,305.2,140.5,310.7,135.9z M251.2,334.1c3.9-0.5,6.7-0.5,9.2-1.4c9.5-3.4,18.8-7.1,28.3-10.5
		c8.5-3.1,17.1-5.9,25.6-9.1c10.3-3.9,20.6-8,30.7-12.4c11.5-5.1,23.2-10,34-16.4c6.5-3.9,13.3-7.7,19.1-13.2
		c7.5-7,14.5-14.2,20.2-22.8c3.5-5.2,6-10.8,8.5-16.6c5.3-12.4,2.9-15.5-7.6-22c-4.7-2.9-10-4.8-15.1-7.1
		c-15.4-7-31.8-10.5-48.5-11.4c-15.6-0.9-31.2-0.2-46.1,5.4c-2.1,0.8-4.7,2-5.6,3.8c-4.1,8-7.9,16.2-11.2,24.6
		c-5.9,15-11.1,30.3-17,45.3c-5.4,13.7-11.2,27.3-16.7,40.9c-1.2,3-1.5,6.3-2.5,9.4C255,324.7,253.3,328.7,251.2,334.1z"/>
	<path class="st5" d="M1890.1,196.3c0.6,7.9,1.3,15.9,1.7,23.8c1,21.4,2.4,42.7-0.2,64.2c-1.7,14-1.7,28.2-2.4,42.4
		c-1.2,28.1-4.2,56.1-2.9,84.3c0.6,12.4-1.6,24.9-0.9,37.2c1.2,19.9-3.4,38.9-6.2,58.2c-0.9,6.2-1.2,12.6-1.8,18.8
		c-0.2,1.7,0.2,3.7-0.6,4.9c-3.6,5.5-7.2,11.2-11.7,16c-1.7,1.8-5.8,1.5-8.9,1.6c-13.5,0.7-24.3-5-31.4-16
		c-2.3-3.5-1.3-9.7-0.7-14.4c2.6-18.1,6.7-36,8.4-54.2c1.9-19.8,1.8-39.8,2.4-59.8c0.1-3.2-4.3-5.1-9.3-4.4
		c-12.6,1.9-25.3,3.4-37.9,5.5c-17.1,2.8-34.1,6.1-51.2,8.8c-7.1,1.1-14.3,1-21.5,1.9c-1.8,0.2-3.9,1.9-4.8,3.5
		c-6.2,10.7-12,21.7-18.3,32.3c-4.6,7.6-9.9,14.7-14.8,22.1c-4.8,7.1-9.3,14.4-14.2,21.5c-6.9,9.9-14,19.6-21.1,29.4
		c-3,4.2-5.8,8.5-9.1,12.4c-3.1,3.7-6.6,7.1-10.3,10.2c-2.5,2.1-10.2,0.3-13.5-2.3c-1.2-1-3.1-1.7-4.6-1.6
		c-8.6,0.4-12-2.2-13.4-10.6c-0.1-0.3,0-0.8-0.2-1c-6.4-7-0.5-11.6,3-16.8c6.1-9,12-18.1,18.1-27.1c6-8.8,12.6-17.3,18.3-26.3
		c9-14.2,18.2-28.3,25.9-43.2c8-15.5,17.5-30,27.6-44.1c6.9-9.7,14.4-18.8,21.4-28.4c4.8-6.6,9.1-13.7,13.9-20.4
		c8.5-11.6,17.2-23,25.7-34.5c3.6-4.9,6.7-10.1,10.2-15.1c2.5-3.5,5.4-6.7,8.1-10.1c13.1-16,26.6-31.6,37.5-49.3
		c8.4-13.6,18.7-25.7,29.7-37.1c1.3-1.3,2.5-2.8,3.2-4.4c4.8-9.6,13-13.8,23.1-16.1c6.2-1.4,11.7-0.8,17.5,1
		c7.5,2.4,12,7.6,13.5,15.1c1.5,7.2,2.1,14.7,3.1,22C1890.5,196.2,1890.3,196.2,1890.1,196.3z M1843.5,239.2
		c-31.9,42.3-62.9,83.3-93.9,124.4c0.4,0.4,0.8,0.9,1.2,1.3c5-0.9,9.9-1.9,14.9-2.6c13.5-2.1,27-4,40.5-6.1
		c4.3-0.7,8.6-1.3,12.9-2.1c5-0.9,9.9-1.9,14.8-3.2c1.1-0.3,2.3-2.1,2.4-3.3c1.5-12.2,3-24.4,4-36.7c1.3-15.2,2.3-30.4,3.1-45.6
		C1843.9,257.1,1843.5,248.9,1843.5,239.2z"/>
	<path class="st5" d="M2991.9,417.7c0-18.1-0.5-36.2,0.2-54.3c0.4-10.5,2.8-20.9,4.6-31.3c1.4-7.8,2.7-15.8,5.2-23.2
		c4.8-14,10.7-27.5,15.6-41.5c4.2-12.2,12-22,20.3-31.4c9.8-11.1,21-20.9,36-24.7c10.6-2.7,21.2-2.8,31.9-0.5
		c3.6,0.8,6.7,0.8,9.5,3.8c1.3,1.3,5.1,0.1,7.7,0.2c4.7,0.3,9.7,0,14.1,1.4c9.3,2.8,18.4,6.4,27.6,9.9c4.4,1.6,8.8,3.5,13,5.5
		c1.8,0.8,3.6,1.9,4.9,3.4c5.5,6.3,11.3,12.5,16,19.4c3.5,5.1,5.6,11.2,8.3,16.8c0.4,0.7,0.5,1.7,1.1,2.1c5.5,3.9,5.6,10.4,7.9,15.8
		c1.3,3.1,3.9,5.7,5.7,8.7c1.3,2.2,2.6,4.6,3.2,7.1c3.2,12.8,6.4,25.6,5.9,38.9c-0.4,10.6-1.1,21.2-2.5,31.7
		c-1.9,14.2-4.5,28.4-7.1,42.5c-1.2,6.3-2.7,12.6-4.7,18.8c-1.4,4.3-4.2,8.2-6,12.4c-5.5,13.2-14.6,23.4-24.9,32.9
		c-5.7,5.3-10.7,11.3-16.7,16.3c-5.8,4.8-12.3,8.9-18.7,13c-5.7,3.7-11.4,7.8-17.7,10.2c-10.5,3.9-21.4,6.7-32.2,9.7
		c-5.5,1.5-11.2,3.1-16.9,3.4c-8.8,0.5-17.4,0.5-25.2-5.9c-7.2-5.8-16.3-9.1-24.1-14.3c-4.9-3.3-9-7.9-13.4-12
		c-9.1-8.7-13.8-20.3-19.7-31c-3.1-5.5-3.3-12.8-4.4-19.3c-2.1-11.4-3.9-22.8-5.8-34.2C2991.1,417.8,2991.5,417.8,2991.9,417.7z
		 M3080.8,490.4c7.3-1.8,14.7-3.6,21.9-5.6c2.4-0.6,4.9-1.4,6.7-2.9c7.8-6,15-12.8,23.1-18.1c9.1-6,15.5-14.3,21.2-22.9
		c10.2-15.4,15.8-32.9,20-50.7c2.7-11.4,4.8-23.1,5.4-34.8c0.7-12.9,1.1-26.1-1.4-38.6c-2.7-13.5-8.2-26.6-13.7-39.4
		c-3.5-8.2-8.5-15.3-18.7-18.1c-8.4-2.3-16.1-7.4-23.9-11.5c-2.7-1.4-4.9-4.7-7.5-4.8c-5.3-0.2-11,0.2-16.1,1.9
		c-25.8,8.5-37.3,29.2-43.9,53.5c-3.4,12.4-6.5,25-9.1,37.6c-2.3,11-5,22.1-5.3,33.3c-0.5,17.9-0.5,35.9,3,53.6
		c1.8,9.3,2.5,18.9,5.1,27.9c2.4,8.3,6.2,16.4,10.4,23.9C3062.8,483.1,3068.9,490.6,3080.8,490.4z"/>
	<path class="st5" d="M663.7,200c-1.5,7.6-3.1,16.5-5.3,25.3c-1.2,4.8-3.5,9.3-4.8,14.1c-1,3.7-1,7.7-1.8,11.5
		c-2.8,13-5.4,26-8.5,38.8c-5.3,21.4-10.9,42.8-16.4,64.1c-2.9,11-6.7,21.9-8.6,33.1c-1.9,11.2-2.2,22.7-2.8,34.1
		c-0.3,5.4,0.3,10.8,0.6,16.3c0.4,9.1,3,17,8.8,24.7c5.8,7.7,12,14.4,20.1,19.2c5,2.9,10.6,5.1,16.1,6.5c8.1,2.1,15.5-1.8,21.6-6.2
		c18.1-13,34.2-28,44.5-48.4c4.3-8.6,10.4-16.2,15.3-24.5c5.9-9.9,11.4-20,17-30.1c2.4-4.3,5.3-8.5,7-13.1c2.3-6,3.8-12.4,5.5-18.6
		c3.7-13.5,7.3-27.1,10.9-40.6c3.9-14.7,8.1-29.3,11.5-44.1c2.3-10,3.4-20.2,4.8-30.3c1.3-8.9,9-14.4,17.9-13.5
		c6.3,0.6,12.7-0.1,19.1,0.1c2,0.1,4.6,1,5.8,2.4c2.3,2.6,4.2,5.7,5.5,9c1,2.5,1.4,5.6,0.9,8.3c-1.8,10.4-4,20.8-6.3,31.1
		c-4.2,19-8.7,38-13.1,57c-2.7,11.8-4.9,23.8-8.6,35.2c-3.4,10.5-8.2,20.6-13.2,30.5c-5.2,10.1-11.2,19.8-17.1,29.6
		c-7.2,12-14.7,23.8-21.7,36c-6.5,11.2-14,21.5-24.1,29.9c-9.6,7.9-19.1,16-29.1,23.5c-5.4,4.1-11.3,7.9-17.6,10.4
		c-8.1,3.2-16.7,6-25.3,6.8c-7.2,0.7-14.8-1.7-22.2-2.8c-3.9-0.6-7.9-1.1-11.7-2.1c-16.2-4.1-29.7-12.7-42.5-23.4
		c-10.2-8.5-17.1-19.3-22.5-30.6c-4.5-9.5-6.5-20.6-7.3-31.2c-1.1-14.3-1.1-28.9,0.6-43.1c1.6-14.1,5.8-27.8,9-41.7
		c2-8.4,4-16.8,6.4-25c3.2-11,7.1-21.8,10.2-32.8c3-10.5,5.3-21.2,8-31.9c2.7-11,5.3-22.1,8-33.1c3.3-13.2,6.8-26.4,10.3-39.6
		c0.5-1.8,0.9-3.6,1.6-5.2c1.6-3.3,3.8-5.6,8-5.6c3.6,0.1,7.2-1,10.8-0.8c8.5,0.6,16.8,2.5,22,10C662.9,191.4,662.7,195.2,663.7,200
		z"/>
	<path class="st5" d="M4809.2,257.7c-1.3,2-2.3,2.9-2.6,4c-5.3,17.7-10.6,35.4-15.7,53.1c-3.3,11.4-5.8,23-9.5,34.3
		c-6.5,20.4-13.7,40.5-20.3,60.8c-3.7,11.4-6.7,22.9-10,34.4c-2.3,8.3-4.6,16.5-6.7,24.9c-2.4,9.9-4.8,19.9-6.8,29.9
		c-1,5.4-2.5,10.2-6.8,14c-1.4,1.2-2.5,3-3.2,4.7c-1.4,3.2-3.1,5.6-7.1,5.4c-1.4-0.1-2.9,1.1-4.2,1c-3.6-0.2-7.1-0.8-10.6-1.4
		c-0.6-0.1-1.4-1.7-1.6-1.6c-6.7,2.7-9-3.9-12.5-6.7c-5.2-4.2-8.6-10.1-6.4-17.9c5.9-20.3,11.3-40.8,17.1-61.1
		c4.2-14.8,8.7-29.6,13.4-44.3c3.4-10.4,7.6-20.5,11-30.9c2.9-9,5-18.2,7.7-27.2c4.8-16.1,9.7-32.2,14.6-48.3
		c5-16.4,10.3-32.6,15.1-49.1c3-10.3,5-20.9,7.9-31.2c2.2-7.8,4.9-15.5,8.1-22.9c1-2.1,4.5-3.5,7.1-4.5c3.5-1.3,7.2-2.3,11-2.8
		c2.4-0.3,5,0.6,7.4,1.1c1.4,0.3,2.8,0.8,4.2,1.3c2.2,0.7,4.5,1.3,6.5,2.3c3.4,1.6,6.6,3.4,9.9,5.2c5.8,3.2,9.3,7.6,10.2,14.8
		c0.8,6.4,3.6,12.6,5.9,18.7c2.4,6.5,5.3,12.9,7.9,19.3c4.6,11.7,9.3,23.3,13.8,35.1c5.3,13.7,10.3,27.6,15.9,41.3
		c3.8,9.3,8.8,18.1,12.6,27.4c5.9,14.4,11,29,16.8,43.5c5.6,14.3,11.6,28.4,17.4,42.6c1.4,3.5,2.3,7.1,3.7,10.7
		c0.6,1.6,1.6,3.1,3.9,4.8c0.6-2,1.5-4,1.9-6c3.4-16.8,6.9-33.5,10.1-50.3c1.5-7.6,2.1-15.4,3.6-23c2.4-12,5.1-23.9,7.8-35.9
		c3.4-15.2,7-30.4,10.3-45.6c3.2-14.8,6.2-29.7,9.1-44.6c1.8-9.2,2.9-18.6,4.8-27.8c1.7-8.2,3.9-16.4,6.3-24.5
		c1.3-4.3,4.6-6.7,9.2-5.4c3.9,1.1,7.3,0.4,11-1c1.7-0.6,4.9-0.5,5.7,0.6c2.4,3,5.3,3.5,8.7,3.6c1.3,0.1,3.5,1.3,3.8,2.3
		c1.9,7.7,5.2,15.1,3.2,23.7c-1.9,8.6-1.5,17.7-2.8,26.5c-1.8,12.3-3.9,24.6-6.3,36.8c-2.8,14.1-6.5,28-9.3,42.1
		c-2.1,11.1-3.1,22.4-5,33.5c-1.9,11.3-4.5,22.4-6.6,33.7c-2.2,11.8-3.9,23.6-6.4,35.3c-4.4,20.8-9.6,41.4-13.5,62.2
		c-1.6,8.6-5.2,16.9-4.5,26.1c0.4,4.9-1.4,9.9-2.5,14.8c-0.4,1.5-1.8,3.1-3.1,4.1c-3,2.3-6.6,3.8-6.9,8.4c0,0.9-1.6,2.2-2.7,2.4
		c-5.8,0.9-11.7,2.1-17.6,2c-5.8-0.1-12.4-0.1-17.1-2.8c-6.5-3.7-13-9.1-16.9-15.4c-5.5-9.1-8.8-19.6-12.7-29.6
		c-3.8-9.7-7.2-19.5-10.7-29.2c-4-11.2-7.7-22.5-11.9-33.7c-4.6-12.3-9.9-24.3-14.4-36.6c-5.1-13.8-9.5-27.9-14.7-41.6
		c-2.8-7.4-6.9-14.2-10.1-21.5c-3.7-8.6-7-17.4-10.3-26.2c-3-8-6-16-8.8-24C4813.3,270.4,4811.5,264.7,4809.2,257.7z"/>
	<path class="st5" d="M4138.4,135.9c6.3,4.6,13.1,5.7,20.6,5.6c5.7-0.1,11.4,1.9,17.1,2.8c9.2,1.4,18.6,1.6,27.5,4
		c11.2,3.1,22.7,4.5,33.6,9.8c13.9,6.7,24,17.7,35.9,26.6c8.2,6.1,16.3,12.5,23.6,19.6c2.8,2.8,5,8,4.7,11.9
		c-0.9,10.9-2.9,21.6-5.2,32.3c-0.7,3.5-3.7,6.5-5.4,9.8c-2.3,4.4-4.4,9-6.6,13.4c-4,8-9.6,14.7-16.4,20.5
		c-3.7,3.1-6.7,7.1-10.5,9.9c-4.6,3.5-9.6,6.4-14.6,9.1c-11,6-21.9,12.1-33.2,17.4c-6.9,3.2-14.6,4.6-21.6,7.5
		c-7,2.9-13.5,6.7-21.4,10.7c2.6,1.6,4.2,2.7,6,3.6c14.8,7.8,30.1,14.9,44.4,23.5c19,11.5,32.9,28.3,45,46.7
		c9.8,14.8,20,29.3,28.9,44.6c6,10.4,10.4,21.8,14.7,33c3.1,8,4.2,16.7,7.5,24.5c3.6,8.6,4.2,17.6,5.9,26.5c0.1,0.6,0,1.3,0,2.2
		c-5.9,0.8-10.7,2.4-10.2,9.9c0.2,2.6-8.3,7.5-11.3,6.4c-6.5-2.4-13.1-4.9-19.2-8.2c-4.3-2.3-8-5.7-11.6-9.1c-1.2-1.1-1-3.5-1.5-5.4
		c-2.7-11.1-5.2-22.2-8.3-33.2c-3.6-13.3-9.5-25.6-16.5-37.4c-7-11.6-14-23.2-21.3-34.6c-8.4-13-18.8-24.2-32-32.7
		c-8.5-5.4-16.4-11.9-25.4-16.5c-9.4-4.8-19.6-8.3-29.7-11.7c-7-2.4-14.4-3.7-21.7-5.5c-0.6-0.2-1.3-0.6-1.9-0.5
		c-11.6,1.8-18.9-6.6-27.5-11.9c-1.9-1.1-2.1-4.9-3.4-7.2c-0.9-1.5-2.3-2.8-3.5-4.1c-1.3,1.4-3.1,2.5-3.8,4.1
		c-3.1,6.9-4.9,14.7-9.2,20.7c-5.3,7.4-6.2,16.2-10.4,23.7c-4.9,8.9-7.8,18.6-10.9,28.3c-3.4,10.8-8.4,21.1-12.5,31.6
		c-3.6,9.1-7.1,18.3-10.4,27.5c-3.9,10.7-7.1,21.6-11.4,32.1c-2.9,7-7.2,13.5-11.2,20c-1.4,2.3-10.5,1.6-14.4-0.2
		c-3-1.3-6.4-1.7-9.4-3c-1.9-0.8-3.8-2.2-5.2-3.7c-3.1-3.7-6.3-7.4-8.7-11.6c-0.9-1.5-0.6-5.2,0.5-6.2c7.8-6.3,5.2-16.7,10.5-24.2
		c3.8-5.5,3.9-13.5,6.6-20c4.1-10,9.1-19.7,13.3-29.7c5-11.7,9.5-23.6,14.3-35.3c4.2-10.2,8.4-20.5,12.7-30.6
		c3.4-7.9,5.9-16.4,10.6-23.4c6.6-9.8,8-21.5,14.1-31.4c3.4-5.6,4.4-12.8,6.9-19.1c3.1-7.9,6.6-15.7,9.7-23.6
		c4-10.3,7.6-20.8,11.9-31.1c2.3-5.6,5.8-10.8,8.6-16.2c1.4-2.6,3.7-5.3,3.5-7.9c-0.2-5,4.9-7.5,4.3-13c-0.4-3.8,4.2-8,6.2-12.2
		c5.3-10.9,10.4-21.9,15.4-33c1.3-2.8,1.2-6.3,2.6-8.9c3-5.5,6.3-10.8,10.1-15.8c0.9-1.2,4.4-1.5,6-0.7
		C4130.5,140.5,4133,140.5,4138.4,135.9z M4078.9,334.1c3.9-0.5,6.7-0.5,9.2-1.4c9.5-3.4,18.8-7.1,28.3-10.5
		c8.5-3.1,17.1-5.9,25.6-9.1c10.3-3.9,20.6-8,30.7-12.4c11.5-5.1,23.2-10,34-16.4c6.5-3.9,13.3-7.7,19.1-13.2
		c7.5-7,14.5-14.2,20.2-22.8c3.5-5.2,6-10.8,8.5-16.6c5.3-12.4,2.9-15.5-7.6-22c-4.7-2.9-10-4.8-15.1-7.1
		c-15.4-7-31.8-10.5-48.5-11.4c-15.6-0.9-31.2-0.2-46.1,5.4c-2.1,0.8-4.7,2-5.6,3.8c-4.1,8-7.9,16.2-11.2,24.6
		c-5.9,15-11.1,30.3-17,45.3c-5.4,13.7-11.2,27.3-16.7,40.9c-1.2,3-1.5,6.3-2.5,9.4C4082.7,324.7,4081,328.7,4078.9,334.1z"/>
	<path class="st5" d="M4491.4,200c-1.5,7.6-3.1,16.5-5.3,25.3c-1.1,4.8-3.5,9.3-4.8,14.1c-1,3.7-1,7.7-1.9,11.5
		c-2.8,13-5.4,26-8.5,38.8c-5.3,21.4-10.9,42.8-16.4,64.1c-2.9,11-6.7,21.9-8.6,33.1c-1.9,11.2-2.2,22.7-2.8,34.1
		c-0.3,5.4,0.3,10.8,0.6,16.3c0.4,9.1,3,17,8.8,24.7c5.8,7.7,12,14.4,20.1,19.2c5,2.9,10.6,5.1,16.1,6.5c8.1,2.1,15.5-1.8,21.6-6.2
		c18.1-13,34.2-28,44.5-48.4c4.3-8.6,10.4-16.2,15.4-24.5c5.9-9.9,11.4-20,17-30.1c2.4-4.3,5.3-8.5,7-13.1c2.3-6,3.8-12.4,5.5-18.6
		c3.7-13.5,7.3-27.1,10.9-40.6c3.9-14.7,8.1-29.3,11.5-44.1c2.3-10,3.4-20.2,4.8-30.3c1.3-8.9,9-14.4,17.9-13.5
		c6.3,0.6,12.7-0.1,19.1,0.1c2,0.1,4.6,1,5.8,2.4c2.3,2.6,4.2,5.7,5.5,9c1,2.5,1.4,5.6,0.9,8.3c-1.9,10.4-4,20.8-6.3,31.1
		c-4.2,19-8.7,38-13.1,57c-2.7,11.8-4.9,23.8-8.6,35.2c-3.4,10.5-8.2,20.6-13.2,30.5c-5.1,10.1-11.2,19.8-17.1,29.6
		c-7.2,12-14.7,23.8-21.6,36c-6.5,11.2-14,21.5-24.1,29.9c-9.6,7.9-19.1,16-29.1,23.5c-5.4,4.1-11.3,7.9-17.6,10.4
		c-8.1,3.2-16.7,6-25.3,6.8c-7.2,0.7-14.8-1.7-22.2-2.8c-3.9-0.6-7.9-1.1-11.7-2.1c-16.2-4.1-29.7-12.7-42.5-23.4
		c-10.2-8.5-17.1-19.3-22.5-30.6c-4.5-9.5-6.5-20.6-7.3-31.2c-1.1-14.3-1.1-28.9,0.6-43.1c1.6-14.1,5.8-27.8,9-41.7
		c2-8.4,4-16.8,6.4-25c3.2-11,7.1-21.8,10.2-32.8c3-10.5,5.4-21.2,8-31.9c2.7-11,5.3-22.1,8-33.1c3.3-13.2,6.8-26.4,10.3-39.6
		c0.5-1.8,0.9-3.6,1.6-5.2c1.6-3.3,3.8-5.6,8-5.6c3.6,0.1,7.2-1,10.8-0.8c8.5,0.6,16.8,2.5,22,10
		C4490.7,191.4,4490.4,195.2,4491.4,200z"/>
	<path class="st5" d="M2928.1,276.2c-3.5,1.8-6.1,3.1-8.7,4.5c-2.9,1.6-6.2,3-8.2-0.6c-2.4-4.3-6.9-4.6-10.2-7
		c-3.2-2.3-6.9-5.4-8-8.9c-1.5-4.7-1-10.1-0.8-15.1c0.3-7.4,1.5-14.8-1.8-21.9c-1.8-3.9-4.3-6.3-8.6-7.2c-16.1-3.3-31.6-1-46,6.3
		c-6.2,3.2-11.3,9.1-16.1,14.5c-4.5,5.1-8,11.2-11.9,16.9c-3,4.5-4.1,9.3-2.9,14.6c0,0.2,0.2,0.3,0.1,0.5c-1.6,16,9.7,23,21,30
		c6.5,4.1,12.9,8.3,19.4,12.3c5.5,3.4,11,7,16.8,10c16.3,8.3,28.8,20.9,40.1,34.8c13.7,16.8,21.4,36.4,24.1,57.7
		c1.7,13.8,1.5,27.7-3.1,41.4c-3.5,10.2-6.9,20.4-13,29.3c-3.4,5-7.7,9.4-11.6,14.1c-8.2,9.8-18.9,16.2-29.7,22.5
		c-5.1,2.9-11,4.2-16.5,6.4c-5,2-10,4-14.9,6.3c-8.8,4.1-18.3,3.4-27.3,2.4c-9.5-1.1-18.8-4.8-28-7.8c-7.4-2.4-14.5-5.7-21.8-8.2
		c-10.6-3.7-20.3-9-29.1-15.9c-2.3-1.8-5-3.1-7.4-4.8c-12.6-8.7-20.8-20.4-24.3-35.4c-1-4.3-2.8-8.5-4.3-12.7
		c-3.7-10.2-4.4-20.9-3.9-31.6c0.4-7.8,3.5-14.5,9.9-19.3c0.6-0.5,1.5-0.7,2.3-0.9c5.1-1,10.1-2.1,15.3-2.7c1.7-0.2,3.7,1,5.4,1.8
		c1.5,0.7,2.9,2.7,4.3,2.7c3.9-0.2,4.8,2,5.1,5.1c1.9,14.9,4.5,29.5,10.1,43.5c5.8,14.5,15,25,29.2,32.1c11.5,5.8,24,8.1,35.9,12.2
		c6.9,2.4,13.9-0.6,20-4.8c7.3-5,14.9-9.8,22-15c2.4-1.7,3.9-4.7,5.8-7c7.3-8.9,10.2-19.7,14.2-30.1c5.6-14.5,1.4-27.8-2.3-41.9
		c-3.6-13.5-12.3-22.9-21.2-32.2c-6.9-7.1-15.4-12.4-24.3-17c-6.3-3.3-11.9-7.7-17.8-11.7c-0.6-0.4-0.9-1-1.5-1.2
		c-11.2-4.9-20.5-12.7-28.3-21.7c-13-15.1-19.5-33.2-15.5-52.9c3.1-15.1,10.3-29.2,19.7-41.7c6-7.9,12.3-15.6,19.2-22.7
		c3.5-3.6,8.4-6.4,13.1-8.1c9.7-3.5,19.6-6.7,29.7-8.6c7.5-1.4,15.4-0.7,23.1-0.3c6.1,0.3,12.1,1.2,18.1,2.2
		c17.5,2.9,31.6,10.6,41.7,26.1c6.2,9.6,12.1,19,13.6,30.3c0.9,7.1-0.1,14.5-0.6,21.7c-0.1,1.4-1.4,3.5-2.7,3.9
		C2929.8,267.6,2929.8,272.9,2928.1,276.2z"/>
	<path class="st5" d="M2017.4,497c13.8-0.7,26.3-1,38.7-2c10.4-0.9,20.8-2.6,31.1-3.9c2.3-0.3,4.6-0.3,6.9-0.5
		c9.5-1,19-1.9,28.5-3.1c11-1.4,22-2.9,33-4.4c0.2,0,0.4-0.2,0.5-0.1c5.6,3,11.3,5.9,16.6,9.3c1.2,0.7,1.2,3.5,1.4,5.4
		c0.4,3.4,1.2,6.9,0.6,10.1c-0.5,3-2.2,5.9-4.1,8.4c-2.3,2.9-5,5.6-8,7.8c-2.3,1.7-5.1,3.5-7.8,3.7c-16.9,1.4-33.8,2.3-50.6,3.7
		c-9.6,0.7-19.1,1.6-28.6,3c-6.8,1-13.4,3.7-20.2,4.3c-11.6,1.1-23.2,4.2-35,1.8c-2.3-0.5-5.1-0.3-7.4,0.3
		c-8.3,2.3-15.1-1.6-22.3-4.4c-8.3-3.2-14.7-8.6-20.3-15.3c-6.7-8-9.8-16.1-6.4-26.7c2.7-8.5,3.5-17.5,4.9-26.3
		c3.3-21,9.3-41.2,15.3-61.5c3.7-12.6,6.3-25.5,9.3-38.2c3.7-15.6,5.9-31.5,12.4-46.4c3.6-8.3,5.1-17.5,7.7-26.2
		c1.5-5.1,3.2-10.1,4.7-15.2c5.5-18,8.3-36.5,10.7-55.1c0.9-7,3.3-13.9,4.6-20.9c1.4-7.6,2.2-15.4,3.6-23.1c1.3-7.2,4.7-9.6,12-9.2
		c0.7,0,1.5,0.4,2,0.1c7.8-4,15.1-0.1,22.6,1.2c5.3,0.9,9.1,5.1,8.8,10.4c-0.8,13.9-0.8,27.9-2.9,41.7c-3.4,22.1-7.7,44.1-12.6,66
		c-2.8,12.6-8,24.6-11.3,37.2c-4.5,17.5-8.1,35.2-12.4,52.8c-3.6,14.8-7.3,29.6-11.7,44.2c-5.8,19.3-9.9,39-12.5,58.9
		C2018.7,488.6,2018.1,492.4,2017.4,497z"/>
	<path class="st5" d="M2329.5,477.6c3.6-0.7,7.1-1.4,10.7-2.1c12-2.1,24-4.2,35.9-6.4c7.5-1.4,14.9-3.1,22.3-4.6
		c7.6-1.5,15.2-2.7,22.8-4.3c5-1,9.9-2.5,14.9-3.8c1.1-0.3,2.2-0.7,3.3-0.8c5.1-0.1,10.3-0.5,15.4-0.1c2.2,0.1,4.2,1.7,6.3,2.7
		c1.3,0.6,2.5,1.5,3.8,1.8c6.7,1.2,9.9,4.7,10,11.4c0,3.5,0.1,7-0.3,10.4c-0.5,5.3-2.3,9.4-7.9,11.9c-3.7,1.7-5.2,7.1-10.1,7.8
		c-1.6,0.2-3.1,0.3-4.7,0.3c-7.2-0.1-14.5-0.8-21.6-0.1c-6.2,0.6-12.2,3-18.4,4c-8.3,1.4-16.7,1.9-25,3.3
		c-13.8,2.4-27.6,5.3-41.4,7.8c-6.4,1.2-12.8,1.8-19.2,2.8c-3.1,0.5-6.2,1.1-9.3,1.5c-1.1,0.2-2.4,0.4-3.4,0
		c-6.4-2.1-12.6-4.6-19.1-6.5c-12.1-3.6-19.8-12.9-25.7-22.6c-3.7-6.2-7.4-14.1-3.3-23c2.6-5.8,3.1-12.6,4-19
		c1.3-9.7,1.4-19.6,3.1-29.2c1.9-10.9,5.2-21.6,7.5-32.5c3.6-17.1,7.1-34.1,10-51.3c1.9-11.1,2.4-22.4,3.9-33.6
		c2.4-17.4,5.3-34.7,7.9-52.1c2.3-15.6,4.4-31.2,6.7-46.7c0.8-5.4,2.1-10.8,3.5-16.1c1.2-4.7,5.6-5.2,9.4-6.2
		c3.3-0.9,6.6-1.9,9.9-2.5c2.2-0.4,4.6-0.2,6.9,0c3.3,0.4,7,0.4,9.7,1.9c3,1.6,5.4,4.6,7.5,7.4c3.7,5,3.8,10.5,2.4,16.5
		c-1.1,4.6-0.8,9.6-1.4,14.4c-1.8,15.2-3.4,30.3-5.5,45.5c-3.1,22.3-6.6,44.6-9.8,66.9c-1.3,8.9-1.8,17.9-3.3,26.6
		c-2.7,15.3-6.3,30.5-9,45.8c-2.9,17.2-5.3,34.5-7.8,51.7c-0.6,4.4-0.9,8.9-1.7,13.3c-1,5.9,0.6,7.8,6.8,7.4c1,0,2,0,3,0
		C2329.5,477.3,2329.5,477.4,2329.5,477.6z"/>
	<path class="st5" d="M2556.3,414.2c3.1-19.1,6.2-38.3,9.4-57.4c2.4-14.5,5.2-29,7.3-43.6c2.4-16.2,3.9-32.5,6.5-48.7
		c1.4-8.9,4.4-17.6,6.5-26.5c2.8-11.8,6.2-23.4,6.5-35.6c0.3-11.4,5.7-16.3,17.1-16.6c5.7-0.1,11.4-0.5,17,2.4c2.5,1.3,7.2-1,9,2.8
		c2.6,5.5,6.5,10.6,5.6,17.4c-2.1,14.6-3.8,29.3-6,43.8c-2.9,18.8-6.3,37.5-9.5,56.2c-1.1,6.7-2.4,13.3-3.5,20
		c-2.1,12.6-4.2,25.2-6.2,37.8c-1.2,7.8-2.1,15.7-3.1,23.6c-0.8,5.6-2,11.1-2.4,16.7c-1.4,20.4-2.3,40.8-3.8,61.2
		c-0.6,8-2.2,16-3.1,24c-0.4,3.4-2.1,5.1-5,6.8c-2.7,1.6-4.4,4.7-7.1,6.5c-3.9,2.6-8.1,4.7-12.2,6.9c-0.4,0.2-1.5-0.8-2.3-1.2
		c-3.9-2-8-3.8-11.8-6c-2.6-1.5-5.1-3.4-7.1-5.7c-2.4-2.8-4.9-6-6.1-9.5c-1.2-3.4-1.4-7.3-1.1-10.9c1.8-17.2,4-34.3,5.8-51.5
		c0.4-4.3,0.1-8.6,0.1-12.9C2556.7,414.2,2556.5,414.2,2556.3,414.2z"/>
	<path class="st5" d="M1443.3,512.9c-0.5,11.2-3.1,21.8-8,31.7c-4.4,9-8.4,18.5-14.5,26.2c-5.3,6.7-10.5,14.7-19.9,17.4
		c-4.8,1.4-8.7,0.2-12.7-2.2c-3.1-1.8-6.3-3.6-9.6-4.9c-5.7-2.2-14.2-14.3-13.4-20.4c0.4-2.6,2.1-5.3,4-7.4
		c5.7-6.4,11.6-12.6,13.9-21.2c0.5-2,2.3-3.6,2.9-5.6c4-12.8,4.6-25.8-0.4-38.5c-1.4-3.6-4.6-6.6-5.6-10.3c-1.3-5-3.2-11.1-1.3-15.2
		c2.4-5.4,7.6-9.7,15.3-8.6c3.5,0.5,7.3-1.2,10.9-1.8c1.4-0.2,2.9-0.3,4.3,0c3.1,0.7,6.7,1.1,9.2,2.9c3.5,2.5,7,5.6,9.1,9.2
		c6.2,10.5,11.1,21.8,13.5,33.9C1441.8,503,1442.5,508,1443.3,512.9z"/>
	<path class="st5" d="M3802.3,512.9c-0.5,11.2-3.1,21.8-8,31.7c-4.4,9-8.4,18.5-14.5,26.2c-5.4,6.7-10.5,14.7-19.9,17.4
		c-4.8,1.4-8.7,0.2-12.7-2.2c-3.1-1.8-6.3-3.6-9.6-4.9c-5.7-2.2-14.2-14.3-13.4-20.4c0.4-2.6,2.1-5.3,4-7.4
		c5.7-6.4,11.6-12.6,13.9-21.2c0.5-2,2.3-3.6,2.9-5.6c4-12.8,4.6-25.8-0.4-38.5c-1.4-3.6-4.6-6.6-5.6-10.3c-1.3-5-3.2-11.1-1.3-15.2
		c2.4-5.4,7.6-9.7,15.3-8.6c3.5,0.5,7.3-1.2,10.9-1.8c1.4-0.2,2.9-0.3,4.3,0c3.1,0.7,6.7,1.1,9.2,2.9c3.5,2.5,7,5.6,9.1,9.2
		c6.2,10.5,11.1,21.8,13.5,33.9C3800.9,503,3801.5,508,3802.3,512.9z"/>
</g>
<g id="Layer_1_copy_2">
	<path class="st6" d="M3360.8,256.3c-1,6.2-1.9,12.4-3.1,18.6c-2.8,14.8-5.9,29.6-8.5,44.4c-3,17.1-5.6,34.4-8.6,51.5
		c-1,5.7-3.1,11.2-3.8,17c-1.9,15.5-3.1,31-5,46.5c-1.2,10.2-3.6,20.3-4.6,30.5c-0.8,7.9,0,16-0.5,23.9c-0.3,5.4-1.3,10.9-2.8,16.1
		c-0.6,2.2-3.2,5.4-5,5.4c-4.3,0-5.2,3.2-6.6,5.6c-3.4,5.6-8.8,6.7-14.2,2.9c-2-1.4-4.7-1.7-6.6-3.2c-8.6-6.8-18.3-13.3-18.9-25.5
		c-0.4-8.7,0.8-17.5,2-26.2c2.1-15.2,4.7-30.4,7-45.6c3.5-22.6,6.7-45.2,10.4-67.8c2.6-16.1,5.7-32,8.7-48c2.5-13.7,5.1-27.4,7.8-41
		c2.4-12.2,5.3-24.3,7.2-36.6c1.4-9.4,3.7-18.4,6.9-27.3c2.3-6.4,6.8-7.6,12.3-8.9c2.9-0.6,5.4-2.8,8.2-3.6
		c4.2-1.3,8.5-2.8,12.7-2.8c7.1,0,14.2,1.1,21.2,2.1c1.5,0.2,3.2,1.9,3.9,3.4c5.5,11.1,10.5,22.3,16.1,33.3
		c2.7,5.2,6.4,9.9,9.2,15.1c7.2,12.8,14.6,25.5,21.1,38.6c7.3,14.7,13.9,29.7,20.4,44.7c3.9,9.1,7,18.5,10.9,27.7
		c3.1,7.2,6.8,14.1,10.1,21.2c3,6.6,5.9,13.3,8.8,19.9c5.4,12.5,10.7,25.1,16.1,37.6c1.3,3,3.2,5.8,4.8,8.7c0.7-0.1,1.3-0.3,2-0.4
		c0.5-2.8,1.1-5.6,1.4-8.4c1.7-14.8,3.3-29.5,4.8-44.3c0.9-8.8,1.2-17.6,2.6-26.3c3.3-20.6,7.1-41.1,10.7-61.7
		c2.5-14.5,4.8-29.1,7.3-43.7c1.4-8.3,3.3-16.6,4.5-25c1.4-10.4,2.8-20.8,3.2-31.2c0.5-12.3,6.6-17.8,18.9-16
		c2.7,0.4,5.5-0.2,8.3-0.1c1.2,0,2.4,0.4,3.6,0.8c3.2,1,6.5,1.7,9.5,3.2c1.6,0.8,3,2.6,3.9,4.3c1.6,3.1,2.8,6.4,4.2,9.7
		c0.2,0.6,0.8,1.2,0.8,1.8c-0.2,8.8,3.5,17.6,0,26.6c-1.5,3.9-1.1,8.5-1.8,12.8c-2.6,16.5-5.3,32.9-8.1,49.4
		c-3,17.6-6.5,35.2-9.1,52.9c-1.8,11.8-2.3,23.8-3.6,35.7c-1.6,15.5-3.5,30.9-4.9,46.4c-1.8,20.3-2.8,40.7-5.2,61
		c-0.8,6.6-4.6,13-7.5,19.2c-0.5,1.1-3.6,0.8-5,1.8c-3.1,2.5-2.3,6.3-2.2,9.6c0.2,8.3-4.4,14.6-8,21.8c-2-1.1-3.3-1.8-5-2.8
		c-2.1,2.3-3.7,5.2-6.2,6.8c-6.1,3.7-13.1,2-19.6-3.1c-11-8.8-18-20.3-23.3-33.1c-3.6-8.6-7.6-17.1-12.2-25.4
		c-8.9-16.2-16.7-32.9-24.2-49.9c-8.1-18.4-16.3-36.6-24.1-55.1c-5.4-12.7-9.9-25.8-15.3-38.5c-2.8-6.7-6.9-12.8-9.8-19.5
		c-2.8-6.5-4.4-13.5-7.4-20c-3.6-7.7-8.1-15-12-22.5c-1.8-3.5-3.1-7.3-4.8-10.9c-0.7-1.5-1.8-2.9-2.7-4.4
		C3361.8,256.1,3361.3,256.2,3360.8,256.3z"/>
	<path class="st6" d="M972.5,243.7c-1.3,2-2.3,2.9-2.6,4c-5.3,17.7-10.6,35.3-15.7,53.1c-3.3,11.4-5.8,23-9.5,34.3
		c-6.5,20.4-13.7,40.5-20.3,60.8c-3.7,11.4-6.7,22.9-10,34.4c-2.3,8.3-4.6,16.5-6.7,24.9c-2.4,9.9-4.8,19.9-6.8,29.9
		c-1,5.4-2.5,10.2-6.8,14c-1.4,1.2-2.5,3-3.2,4.6c-1.4,3.2-3.1,5.6-7.1,5.4c-1.4-0.1-2.8,1.1-4.2,1c-3.6-0.2-7.1-0.8-10.6-1.4
		c-0.6-0.1-1.4-1.7-1.6-1.6c-6.7,2.7-9-3.9-12.5-6.7c-5.2-4.2-8.6-10.1-6.4-17.9c5.9-20.3,11.3-40.8,17.1-61.1
		c4.2-14.8,8.7-29.6,13.4-44.3c3.3-10.4,7.6-20.5,11-30.9c2.9-9,5-18.2,7.7-27.2c4.8-16.1,9.7-32.2,14.6-48.3
		c5-16.4,10.3-32.6,15.1-49.1c3-10.3,5-20.9,7.9-31.2c2.2-7.8,4.9-15.5,8.1-22.9c1-2.1,4.5-3.5,7.2-4.5c3.5-1.3,7.2-2.3,11-2.8
		c2.4-0.3,5,0.6,7.4,1.1c1.4,0.3,2.8,0.8,4.2,1.3c2.2,0.7,4.5,1.3,6.5,2.3c3.4,1.6,6.7,3.4,9.9,5.2c5.8,3.2,9.3,7.6,10.2,14.8
		c0.8,6.4,3.6,12.6,5.8,18.7c2.4,6.5,5.3,12.9,7.9,19.3c4.7,11.7,9.3,23.4,13.8,35.1c5.3,13.7,10.3,27.6,15.9,41.3
		c3.8,9.3,8.8,18.1,12.6,27.4c5.9,14.4,11.1,29,16.8,43.5c5.7,14.3,11.7,28.4,17.4,42.6c1.4,3.5,2.3,7.1,3.7,10.7
		c0.6,1.6,1.7,3.1,3.9,4.8c0.7-2,1.5-4,1.9-6c3.4-16.8,6.8-33.5,10.1-50.3c1.4-7.6,2.1-15.4,3.6-23c2.4-12,5.1-23.9,7.8-35.9
		c3.4-15.2,7-30.4,10.3-45.6c3.2-14.8,6.2-29.7,9.1-44.6c1.8-9.2,2.9-18.6,4.8-27.8c1.7-8.2,3.9-16.4,6.3-24.5
		c1.3-4.3,4.6-6.7,9.2-5.4c3.9,1.1,7.3,0.4,11-1c1.7-0.6,4.8-0.5,5.7,0.6c2.4,3,5.3,3.5,8.7,3.6c1.3,0.1,3.5,1.3,3.8,2.3
		c1.9,7.7,5.2,15.1,3.2,23.7c-1.9,8.6-1.5,17.7-2.8,26.5c-1.8,12.3-3.9,24.6-6.3,36.8c-2.8,14.1-6.6,28-9.3,42.1
		c-2.1,11.1-3.1,22.4-5,33.5c-1.9,11.3-4.5,22.4-6.6,33.7c-2.2,11.8-3.9,23.6-6.3,35.3c-4.4,20.8-9.6,41.4-13.5,62.2
		c-1.6,8.6-5.2,16.9-4.5,26.1c0.4,4.9-1.4,9.9-2.5,14.8c-0.4,1.5-1.8,3.1-3.1,4.1c-3,2.3-6.6,3.8-6.9,8.4c-0.1,0.9-1.6,2.2-2.7,2.4
		c-5.8,0.9-11.7,2.1-17.6,2c-5.8-0.1-12.4-0.1-17.1-2.8c-6.5-3.7-13-9.1-16.8-15.4c-5.5-9.1-8.8-19.6-12.7-29.6
		c-3.8-9.7-7.2-19.5-10.7-29.2c-4-11.2-7.7-22.5-11.9-33.7c-4.6-12.3-9.9-24.3-14.4-36.6c-5.1-13.8-9.5-27.9-14.7-41.6
		c-2.8-7.4-7-14.2-10.1-21.5c-3.7-8.6-7-17.4-10.3-26.2c-3-8-6-16-8.8-24C976.5,256.4,974.8,250.7,972.5,243.7z"/>
	<path class="st6" d="M301.7,121.9c6.3,4.6,13.1,5.7,20.6,5.6c5.7-0.1,11.4,1.9,17.1,2.8c9.2,1.4,18.6,1.6,27.5,4
		c11.2,3.1,22.7,4.5,33.6,9.8c13.9,6.7,24,17.7,35.9,26.6c8.2,6.1,16.3,12.5,23.6,19.6c2.8,2.8,5,8,4.7,11.9
		c-0.9,10.9-2.9,21.6-5.2,32.3c-0.7,3.5-3.7,6.5-5.4,9.8c-2.3,4.4-4.4,9-6.6,13.4c-4,8-9.6,14.7-16.4,20.5
		c-3.7,3.1-6.7,7.1-10.5,9.9c-4.6,3.5-9.6,6.4-14.6,9.1c-11,6-21.9,12.1-33.2,17.4c-6.9,3.2-14.6,4.6-21.6,7.5
		c-7,2.9-13.5,6.7-21.4,10.7c2.6,1.6,4.2,2.7,6,3.6c14.8,7.8,30.1,14.9,44.4,23.5c19,11.5,32.9,28.3,45,46.7
		c9.8,14.8,20,29.3,28.9,44.6c6,10.4,10.4,21.8,14.7,33c3.1,8,4.2,16.7,7.5,24.5c3.6,8.6,4.2,17.6,5.9,26.5c0.1,0.6,0,1.3,0,2.2
		c-5.9,0.8-10.7,2.4-10.2,9.9c0.2,2.6-8.3,7.5-11.3,6.4c-6.5-2.4-13.1-4.9-19.2-8.2c-4.3-2.3-8-5.7-11.6-9.1c-1.2-1.1-1-3.5-1.5-5.4
		c-2.7-11.1-5.2-22.2-8.3-33.2c-3.6-13.3-9.5-25.6-16.5-37.4c-7-11.6-14-23.2-21.3-34.6c-8.4-13-18.8-24.2-32-32.7
		c-8.5-5.4-16.4-11.9-25.4-16.5c-9.4-4.8-19.6-8.3-29.7-11.7c-7-2.4-14.4-3.7-21.7-5.5c-0.6-0.2-1.3-0.6-1.9-0.5
		c-11.6,1.8-18.9-6.6-27.5-11.9c-1.9-1.1-2.1-4.9-3.4-7.2c-0.9-1.5-2.3-2.8-3.5-4.1c-1.3,1.4-3.1,2.5-3.8,4.1
		c-3.1,6.9-4.9,14.7-9.2,20.7c-5.3,7.4-6.2,16.2-10.4,23.7c-4.9,8.9-7.8,18.6-10.9,28.3c-3.4,10.8-8.4,21.1-12.5,31.6
		c-3.6,9.1-7.1,18.3-10.4,27.5c-3.9,10.7-7.1,21.6-11.4,32c-2.9,7-7.2,13.5-11.2,20c-1.4,2.3-10.5,1.6-14.4-0.2
		c-3-1.3-6.4-1.7-9.4-3c-1.9-0.8-3.8-2.2-5.2-3.7c-3.1-3.7-6.3-7.4-8.7-11.6c-0.9-1.5-0.6-5.2,0.5-6.1c7.7-6.3,5.2-16.7,10.5-24.2
		c3.8-5.5,3.9-13.5,6.6-20c4.1-10,9.1-19.7,13.3-29.7c5-11.7,9.5-23.6,14.3-35.3c4.2-10.2,8.4-20.5,12.7-30.6
		c3.4-7.9,5.9-16.4,10.6-23.4c6.6-9.8,8-21.5,14.1-31.4c3.4-5.6,4.4-12.8,6.9-19.1c3.1-7.9,6.6-15.7,9.7-23.6
		c4-10.3,7.6-20.8,11.9-31.1c2.3-5.6,5.8-10.8,8.6-16.2c1.4-2.6,3.7-5.3,3.5-7.9c-0.2-5,4.9-7.5,4.3-13c-0.4-3.8,4.2-8,6.2-12.2
		c5.3-10.9,10.4-21.9,15.4-33c1.3-2.8,1.2-6.3,2.6-8.9c3-5.5,6.3-10.8,10.1-15.8c0.9-1.2,4.4-1.5,6-0.7
		C293.8,126.5,296.2,126.5,301.7,121.9z M242.2,320.1c3.9-0.5,6.7-0.5,9.2-1.4c9.5-3.4,18.8-7.1,28.3-10.5
		c8.5-3.1,17.1-5.9,25.6-9.1c10.3-3.9,20.6-8,30.7-12.4c11.5-5.1,23.2-10,34-16.4c6.5-3.9,13.3-7.7,19.1-13.2
		c7.5-7.1,14.5-14.2,20.2-22.8c3.5-5.2,6-10.8,8.5-16.6c5.3-12.4,2.9-15.5-7.6-22c-4.7-2.9-10-4.8-15.1-7.1
		c-15.4-7-31.8-10.5-48.5-11.4c-15.6-0.9-31.2-0.2-46.1,5.4c-2.1,0.8-4.7,2-5.6,3.8c-4.1,8-7.9,16.2-11.2,24.6
		c-5.9,15-11.1,30.3-17,45.3c-5.4,13.7-11.2,27.3-16.7,40.9c-1.2,3-1.5,6.3-2.5,9.4C246,310.7,244.3,314.7,242.2,320.1z"/>
	<path class="st6" d="M1881.1,182.3c0.6,7.9,1.3,15.9,1.7,23.8c1,21.4,2.4,42.7-0.2,64.2c-1.7,14-1.7,28.2-2.4,42.4
		c-1.2,28.1-4.2,56.1-2.9,84.3c0.6,12.4-1.6,24.9-0.9,37.2c1.2,19.9-3.4,38.9-6.2,58.2c-0.9,6.2-1.2,12.6-1.8,18.9
		c-0.2,1.7,0.2,3.7-0.6,4.9c-3.6,5.5-7.2,11.2-11.7,16c-1.7,1.8-5.8,1.5-8.9,1.6c-13.5,0.7-24.3-5-31.4-16
		c-2.3-3.5-1.3-9.6-0.7-14.4c2.6-18.1,6.7-36,8.4-54.2c1.9-19.8,1.8-39.8,2.4-59.8c0.1-3.2-4.3-5.1-9.3-4.4
		c-12.6,1.9-25.3,3.4-37.9,5.5c-17.1,2.8-34.1,6.1-51.2,8.8c-7.1,1.1-14.3,1-21.5,1.9c-1.8,0.2-3.9,1.9-4.8,3.5
		c-6.2,10.7-12,21.7-18.3,32.3c-4.6,7.6-9.9,14.7-14.8,22.1c-4.8,7.1-9.3,14.4-14.2,21.5c-6.9,9.9-14,19.6-21.1,29.4
		c-3,4.2-5.8,8.5-9.1,12.4c-3.1,3.7-6.6,7.1-10.3,10.2c-2.5,2.1-10.2,0.3-13.5-2.3c-1.2-1-3.1-1.7-4.6-1.6
		c-8.6,0.4-12-2.2-13.4-10.6c-0.1-0.3,0-0.8-0.2-1c-6.4-7-0.5-11.6,3-16.8c6.1-9,12-18.1,18.1-27.1c6-8.8,12.6-17.3,18.3-26.3
		c9-14.2,18.2-28.3,25.9-43.2c8-15.5,17.5-30,27.6-44.1c6.9-9.7,14.4-18.8,21.4-28.4c4.8-6.6,9.1-13.7,13.9-20.4
		c8.5-11.6,17.2-23,25.7-34.5c3.6-4.9,6.7-10.1,10.2-15.1c2.5-3.5,5.4-6.7,8.1-10.1c13.1-16,26.6-31.6,37.5-49.3
		c8.4-13.6,18.7-25.7,29.7-37.1c1.3-1.3,2.5-2.8,3.2-4.4c4.8-9.6,13-13.8,23.1-16.1c6.2-1.4,11.7-0.8,17.5,1
		c7.5,2.4,12,7.6,13.5,15.1c1.5,7.2,2.1,14.7,3.1,22C1881.5,182.2,1881.3,182.2,1881.1,182.3z M1834.5,225.2
		c-31.9,42.3-62.9,83.3-93.9,124.4c0.4,0.4,0.8,0.9,1.2,1.3c5-0.9,9.9-1.9,14.9-2.6c13.5-2.1,27-4,40.5-6.1
		c4.3-0.7,8.6-1.3,12.9-2.1c5-0.9,9.9-1.9,14.8-3.2c1.1-0.3,2.3-2.1,2.4-3.3c1.5-12.2,3-24.4,4-36.7c1.3-15.2,2.3-30.4,3.1-45.6
		C1834.9,243.1,1834.5,234.9,1834.5,225.2z"/>
	<path class="st6" d="M2982.9,403.7c0-18.1-0.5-36.2,0.2-54.3c0.4-10.5,2.8-20.9,4.6-31.3c1.4-7.8,2.7-15.8,5.2-23.2
		c4.8-14,10.7-27.5,15.6-41.5c4.2-12.2,12-22,20.3-31.4c9.8-11.1,21-20.9,36-24.7c10.6-2.7,21.2-2.8,31.9-0.5
		c3.6,0.8,6.7,0.8,9.5,3.8c1.3,1.3,5.1,0.1,7.7,0.2c4.7,0.3,9.7,0,14.1,1.4c9.3,2.8,18.4,6.4,27.6,9.9c4.4,1.6,8.8,3.5,13,5.5
		c1.8,0.8,3.6,1.9,4.9,3.4c5.5,6.3,11.3,12.5,16,19.4c3.5,5.1,5.6,11.2,8.3,16.8c0.4,0.7,0.5,1.7,1.1,2.1c5.5,3.9,5.6,10.4,7.9,15.8
		c1.3,3.1,3.9,5.7,5.7,8.7c1.3,2.2,2.6,4.6,3.2,7.1c3.2,12.8,6.4,25.6,5.9,38.9c-0.4,10.6-1.1,21.2-2.5,31.7
		c-1.9,14.2-4.5,28.4-7.1,42.5c-1.2,6.3-2.7,12.6-4.7,18.8c-1.4,4.3-4.2,8.2-6,12.4c-5.5,13.2-14.6,23.4-24.9,32.9
		c-5.7,5.3-10.7,11.3-16.7,16.3c-5.8,4.8-12.3,8.9-18.7,13c-5.7,3.7-11.4,7.8-17.7,10.2c-10.5,3.9-21.4,6.7-32.2,9.7
		c-5.5,1.5-11.2,3.1-16.9,3.4c-8.8,0.5-17.4,0.5-25.2-5.9c-7.2-5.8-16.3-9.1-24.1-14.3c-4.9-3.3-9-7.9-13.4-12
		c-9.1-8.7-13.8-20.3-19.7-31c-3.1-5.5-3.3-12.8-4.4-19.3c-2.1-11.4-3.9-22.8-5.8-34.2C2982.1,403.8,2982.5,403.8,2982.9,403.7z
		 M3071.8,476.4c7.3-1.8,14.7-3.6,21.9-5.6c2.4-0.6,4.9-1.4,6.7-2.9c7.8-6,15-12.8,23.1-18.1c9.1-6,15.5-14.3,21.2-22.9
		c10.2-15.4,15.8-32.9,20-50.7c2.7-11.4,4.8-23.1,5.4-34.8c0.7-12.9,1.1-26.1-1.4-38.6c-2.7-13.5-8.2-26.6-13.7-39.4
		c-3.5-8.2-8.5-15.3-18.7-18.1c-8.4-2.3-16.1-7.4-23.9-11.5c-2.7-1.4-4.9-4.7-7.5-4.8c-5.3-0.2-11,0.2-16.1,1.9
		c-25.8,8.5-37.3,29.2-43.9,53.5c-3.4,12.4-6.5,25-9.1,37.6c-2.3,11-5,22.1-5.3,33.3c-0.5,17.9-0.5,35.9,3,53.6
		c1.8,9.3,2.5,18.9,5.1,27.9c2.4,8.3,6.2,16.4,10.4,23.9C3053.8,469.1,3059.9,476.6,3071.8,476.4z"/>
	<path class="st6" d="M654.7,186c-1.5,7.6-3.1,16.5-5.3,25.3c-1.2,4.8-3.5,9.3-4.8,14.1c-1,3.7-1,7.7-1.8,11.5
		c-2.8,13-5.4,26-8.5,38.8c-5.3,21.4-10.9,42.8-16.4,64.1c-2.9,11-6.7,21.9-8.6,33.1c-1.9,11.2-2.2,22.7-2.8,34.1
		c-0.3,5.4,0.3,10.8,0.6,16.3c0.4,9.1,3,17,8.8,24.7c5.8,7.7,12,14.4,20.1,19.2c5,2.9,10.6,5.1,16.1,6.5c8.1,2.1,15.5-1.8,21.6-6.2
		c18.1-13,34.2-28,44.5-48.4c4.3-8.6,10.4-16.2,15.3-24.5c5.9-9.9,11.4-20,17-30.1c2.4-4.3,5.3-8.5,7-13.1c2.3-6,3.8-12.4,5.5-18.6
		c3.7-13.5,7.3-27.1,10.9-40.6c3.9-14.7,8.1-29.3,11.5-44.1c2.3-10,3.4-20.2,4.8-30.3c1.3-8.9,9-14.4,17.9-13.5
		c6.3,0.6,12.7-0.1,19.1,0.1c2,0.1,4.6,1,5.8,2.4c2.3,2.6,4.2,5.7,5.5,9c1,2.5,1.4,5.6,0.9,8.3c-1.8,10.4-4,20.8-6.3,31.1
		c-4.2,19-8.7,38-13.1,57c-2.7,11.8-4.9,23.8-8.6,35.2c-3.4,10.5-8.2,20.6-13.2,30.5c-5.2,10.1-11.2,19.8-17.1,29.6
		c-7.2,12-14.7,23.8-21.7,36c-6.5,11.2-14,21.5-24.1,29.9c-9.6,7.9-19.1,16-29.1,23.5c-5.4,4.1-11.3,7.9-17.6,10.4
		c-8.1,3.2-16.7,6-25.3,6.8c-7.2,0.7-14.8-1.7-22.2-2.8c-3.9-0.6-7.9-1.1-11.7-2.1c-16.2-4.1-29.7-12.7-42.5-23.4
		c-10.2-8.5-17.1-19.3-22.5-30.6c-4.5-9.5-6.5-20.6-7.3-31.2c-1.1-14.3-1.1-28.9,0.6-43.1c1.6-14.1,5.8-27.8,9-41.7
		c2-8.4,4-16.8,6.4-25c3.2-11,7.1-21.8,10.2-32.8c3-10.5,5.3-21.2,8-31.9c2.7-11,5.3-22.1,8-33.1c3.3-13.2,6.8-26.4,10.3-39.7
		c0.5-1.8,0.9-3.6,1.6-5.2c1.6-3.3,3.8-5.6,8-5.6c3.6,0.1,7.2-1,10.8-0.8c8.5,0.6,16.8,2.5,22,10C653.9,177.4,653.7,181.2,654.7,186
		z"/>
	<path class="st6" d="M4800.2,243.7c-1.3,2-2.3,2.9-2.6,4c-5.3,17.7-10.6,35.3-15.7,53.1c-3.3,11.4-5.8,23-9.5,34.3
		c-6.5,20.4-13.7,40.5-20.3,60.8c-3.7,11.4-6.7,22.9-10,34.4c-2.3,8.3-4.6,16.5-6.7,24.9c-2.4,9.9-4.8,19.9-6.8,29.9
		c-1,5.4-2.5,10.2-6.8,14c-1.4,1.2-2.5,3-3.2,4.6c-1.4,3.2-3.1,5.6-7.1,5.4c-1.4-0.1-2.9,1.1-4.2,1c-3.6-0.2-7.1-0.8-10.6-1.4
		c-0.6-0.1-1.4-1.7-1.6-1.6c-6.7,2.7-9-3.9-12.5-6.7c-5.2-4.2-8.6-10.1-6.4-17.9c5.9-20.3,11.3-40.8,17.1-61.1
		c4.2-14.8,8.7-29.6,13.4-44.3c3.4-10.4,7.6-20.5,11-30.9c2.9-9,5-18.2,7.7-27.2c4.8-16.1,9.7-32.2,14.6-48.3
		c5-16.4,10.3-32.6,15.1-49.1c3-10.3,5-20.9,7.9-31.2c2.2-7.8,4.9-15.5,8.1-22.9c1-2.1,4.5-3.5,7.1-4.5c3.5-1.3,7.2-2.3,11-2.8
		c2.4-0.3,5,0.6,7.4,1.1c1.4,0.3,2.8,0.8,4.2,1.3c2.2,0.7,4.5,1.3,6.5,2.3c3.4,1.6,6.6,3.4,9.9,5.2c5.8,3.2,9.3,7.6,10.2,14.8
		c0.8,6.4,3.6,12.6,5.9,18.7c2.4,6.5,5.3,12.9,7.9,19.3c4.6,11.7,9.3,23.4,13.8,35.1c5.3,13.7,10.3,27.6,15.9,41.3
		c3.8,9.3,8.8,18.1,12.6,27.4c5.9,14.4,11,29,16.8,43.5c5.6,14.3,11.6,28.4,17.4,42.6c1.4,3.5,2.3,7.1,3.7,10.7
		c0.6,1.6,1.6,3.1,3.9,4.8c0.6-2,1.5-4,1.9-6c3.4-16.8,6.9-33.5,10.1-50.3c1.5-7.6,2.1-15.4,3.6-23c2.4-12,5.1-23.9,7.8-35.9
		c3.4-15.2,7-30.4,10.3-45.6c3.2-14.8,6.2-29.7,9.1-44.6c1.8-9.2,2.9-18.6,4.8-27.8c1.7-8.2,3.9-16.4,6.3-24.5
		c1.3-4.3,4.6-6.7,9.2-5.4c3.9,1.1,7.3,0.4,11-1c1.7-0.6,4.9-0.5,5.7,0.6c2.4,3,5.3,3.5,8.7,3.6c1.3,0.1,3.5,1.3,3.8,2.3
		c1.9,7.7,5.2,15.1,3.2,23.7c-1.9,8.6-1.5,17.7-2.8,26.5c-1.8,12.3-3.9,24.6-6.3,36.8c-2.8,14.1-6.5,28-9.3,42.1
		c-2.1,11.1-3.1,22.4-5,33.5c-1.9,11.3-4.5,22.4-6.6,33.7c-2.2,11.8-3.9,23.6-6.4,35.3c-4.4,20.8-9.6,41.4-13.5,62.2
		c-1.6,8.6-5.2,16.9-4.5,26.1c0.4,4.9-1.4,9.9-2.5,14.8c-0.4,1.5-1.8,3.1-3.1,4.1c-3,2.3-6.6,3.8-6.9,8.4c0,0.9-1.6,2.2-2.7,2.4
		c-5.8,0.9-11.7,2.1-17.6,2c-5.8-0.1-12.4-0.1-17.1-2.8c-6.5-3.7-13-9.1-16.9-15.4c-5.5-9.1-8.8-19.6-12.7-29.6
		c-3.8-9.7-7.2-19.5-10.7-29.2c-4-11.2-7.7-22.5-11.9-33.7c-4.6-12.3-9.9-24.3-14.4-36.6c-5.1-13.8-9.5-27.9-14.7-41.6
		c-2.8-7.4-6.9-14.2-10.1-21.5c-3.7-8.6-7-17.4-10.3-26.2c-3-8-6-16-8.8-24C4804.3,256.4,4802.5,250.7,4800.2,243.7z"/>
	<path class="st6" d="M4129.4,121.9c6.3,4.6,13.1,5.7,20.6,5.6c5.7-0.1,11.4,1.9,17.1,2.8c9.2,1.4,18.6,1.6,27.5,4
		c11.2,3.1,22.7,4.5,33.6,9.8c13.9,6.7,24,17.7,35.9,26.6c8.2,6.1,16.3,12.5,23.6,19.6c2.8,2.8,5,8,4.7,11.9
		c-0.9,10.9-2.9,21.6-5.2,32.3c-0.7,3.5-3.7,6.5-5.4,9.8c-2.3,4.4-4.4,9-6.6,13.4c-4,8-9.6,14.7-16.4,20.5
		c-3.7,3.1-6.7,7.1-10.5,9.9c-4.6,3.5-9.6,6.4-14.6,9.1c-11,6-21.9,12.1-33.2,17.4c-6.9,3.2-14.6,4.6-21.6,7.5
		c-7,2.9-13.5,6.7-21.4,10.7c2.6,1.6,4.2,2.7,6,3.6c14.8,7.8,30.1,14.9,44.4,23.5c19,11.5,32.9,28.3,45,46.7
		c9.8,14.8,20,29.3,28.9,44.6c6,10.4,10.4,21.8,14.7,33c3.1,8,4.2,16.7,7.5,24.5c3.6,8.6,4.2,17.6,5.9,26.5c0.1,0.6,0,1.3,0,2.2
		c-5.9,0.8-10.7,2.4-10.2,9.9c0.2,2.6-8.3,7.5-11.3,6.4c-6.5-2.4-13.1-4.9-19.2-8.2c-4.3-2.3-8-5.7-11.6-9.1c-1.2-1.1-1-3.5-1.5-5.4
		c-2.7-11.1-5.2-22.2-8.3-33.2c-3.6-13.3-9.5-25.6-16.5-37.4c-7-11.6-14-23.2-21.3-34.6c-8.4-13-18.8-24.2-32-32.7
		c-8.5-5.4-16.4-11.9-25.4-16.5c-9.4-4.8-19.6-8.3-29.7-11.7c-7-2.4-14.4-3.7-21.7-5.5c-0.6-0.2-1.3-0.6-1.9-0.5
		c-11.6,1.8-18.9-6.6-27.5-11.9c-1.9-1.1-2.1-4.9-3.4-7.2c-0.9-1.5-2.3-2.8-3.5-4.1c-1.3,1.4-3.1,2.5-3.8,4.1
		c-3.1,6.9-4.9,14.7-9.2,20.7c-5.3,7.4-6.2,16.2-10.4,23.7c-4.9,8.9-7.8,18.6-10.9,28.3c-3.4,10.8-8.4,21.1-12.5,31.6
		c-3.6,9.1-7.1,18.3-10.4,27.5c-3.9,10.7-7.1,21.6-11.4,32c-2.9,7-7.2,13.5-11.2,20c-1.4,2.3-10.5,1.6-14.4-0.2
		c-3-1.3-6.4-1.7-9.4-3c-1.9-0.8-3.8-2.2-5.2-3.7c-3.1-3.7-6.3-7.4-8.7-11.6c-0.9-1.5-0.6-5.2,0.5-6.1c7.8-6.3,5.2-16.7,10.5-24.2
		c3.8-5.5,3.9-13.5,6.6-20c4.1-10,9.1-19.7,13.3-29.7c5-11.7,9.5-23.6,14.3-35.3c4.2-10.2,8.4-20.5,12.7-30.6
		c3.4-7.9,5.9-16.4,10.6-23.4c6.6-9.8,8-21.5,14.1-31.4c3.4-5.6,4.4-12.8,6.9-19.1c3.1-7.9,6.6-15.7,9.7-23.6
		c4-10.3,7.6-20.8,11.9-31.1c2.3-5.6,5.8-10.8,8.6-16.2c1.4-2.6,3.7-5.3,3.5-7.9c-0.2-5,4.9-7.5,4.3-13c-0.4-3.8,4.2-8,6.2-12.2
		c5.3-10.9,10.4-21.9,15.4-33c1.3-2.8,1.2-6.3,2.6-8.9c3-5.5,6.3-10.8,10.1-15.8c0.9-1.2,4.4-1.5,6-0.7
		C4121.5,126.5,4124,126.5,4129.4,121.9z M4069.9,320.1c3.9-0.5,6.7-0.5,9.2-1.4c9.5-3.4,18.8-7.1,28.3-10.5
		c8.5-3.1,17.1-5.9,25.6-9.1c10.3-3.9,20.6-8,30.7-12.4c11.5-5.1,23.2-10,34-16.4c6.5-3.9,13.3-7.7,19.1-13.2
		c7.5-7.1,14.5-14.2,20.2-22.8c3.5-5.2,6-10.8,8.5-16.6c5.3-12.4,2.9-15.5-7.6-22c-4.7-2.9-10-4.8-15.1-7.1
		c-15.4-7-31.8-10.5-48.5-11.4c-15.6-0.9-31.2-0.2-46.1,5.4c-2.1,0.8-4.7,2-5.6,3.8c-4.1,8-7.9,16.2-11.2,24.6
		c-5.9,15-11.1,30.3-17,45.3c-5.4,13.7-11.2,27.3-16.7,40.9c-1.2,3-1.5,6.3-2.5,9.4C4073.7,310.7,4072,314.7,4069.9,320.1z"/>
	<path class="st6" d="M4482.4,186c-1.5,7.6-3.1,16.5-5.3,25.3c-1.1,4.8-3.5,9.3-4.8,14.1c-1,3.7-1,7.7-1.9,11.5
		c-2.8,13-5.4,26-8.5,38.8c-5.3,21.4-10.9,42.8-16.4,64.1c-2.9,11-6.7,21.9-8.6,33.1c-1.9,11.2-2.2,22.7-2.8,34.1
		c-0.3,5.4,0.3,10.8,0.6,16.3c0.4,9.1,3,17,8.8,24.7c5.8,7.7,12,14.4,20.1,19.2c5,2.9,10.6,5.1,16.1,6.5c8.1,2.1,15.5-1.8,21.6-6.2
		c18.1-13,34.2-28,44.5-48.4c4.3-8.6,10.4-16.2,15.4-24.5c5.9-9.9,11.4-20,17-30.1c2.4-4.3,5.3-8.5,7-13.1c2.3-6,3.8-12.4,5.5-18.6
		c3.7-13.5,7.3-27.1,10.9-40.6c3.9-14.7,8.1-29.3,11.5-44.1c2.3-10,3.4-20.2,4.8-30.3c1.3-8.9,9-14.4,17.9-13.5
		c6.3,0.6,12.7-0.1,19.1,0.1c2,0.1,4.6,1,5.8,2.4c2.3,2.6,4.2,5.7,5.5,9c1,2.5,1.4,5.6,0.9,8.3c-1.9,10.4-4,20.8-6.3,31.1
		c-4.2,19-8.7,38-13.1,57c-2.7,11.8-4.9,23.8-8.6,35.2c-3.4,10.5-8.2,20.6-13.2,30.5c-5.1,10.1-11.2,19.8-17.1,29.6
		c-7.2,12-14.7,23.8-21.6,36c-6.5,11.2-14,21.5-24.1,29.9c-9.6,7.9-19.1,16-29.1,23.5c-5.4,4.1-11.3,7.9-17.6,10.4
		c-8.1,3.2-16.7,6-25.3,6.8c-7.2,0.7-14.8-1.7-22.2-2.8c-3.9-0.6-7.9-1.1-11.7-2.1c-16.2-4.1-29.7-12.7-42.5-23.4
		c-10.2-8.5-17.1-19.3-22.5-30.6c-4.5-9.5-6.5-20.6-7.3-31.2c-1.1-14.3-1.1-28.9,0.6-43.1c1.6-14.1,5.8-27.8,9-41.7
		c2-8.4,4-16.8,6.4-25c3.2-11,7.1-21.8,10.2-32.8c3-10.5,5.4-21.2,8-31.9c2.7-11,5.3-22.1,8-33.1c3.3-13.2,6.8-26.4,10.3-39.7
		c0.5-1.8,0.9-3.6,1.6-5.2c1.6-3.3,3.8-5.6,8-5.6c3.6,0.1,7.2-1,10.8-0.8c8.5,0.6,16.8,2.5,22,10
		C4481.7,177.4,4481.4,181.2,4482.4,186z"/>
	<path class="st6" d="M2919.1,262.2c-3.5,1.8-6.1,3.1-8.7,4.5c-2.9,1.6-6.2,3-8.2-0.6c-2.4-4.3-6.9-4.6-10.2-7
		c-3.2-2.3-6.9-5.4-8-8.9c-1.5-4.7-1-10.1-0.8-15.1c0.3-7.4,1.5-14.8-1.8-21.9c-1.8-3.9-4.3-6.3-8.6-7.2c-16.1-3.3-31.6-1-46,6.3
		c-6.2,3.2-11.3,9.1-16.1,14.5c-4.5,5.1-8,11.2-11.9,16.9c-3,4.4-4.1,9.3-2.9,14.6c0,0.2,0.2,0.3,0.1,0.5c-1.6,16,9.7,23,21,30
		c6.5,4.1,12.9,8.3,19.4,12.3c5.5,3.4,11,7,16.8,10c16.3,8.3,28.8,20.9,40.1,34.8c13.7,16.8,21.4,36.4,24.1,57.7
		c1.7,13.8,1.5,27.7-3.1,41.4c-3.5,10.2-6.9,20.4-13,29.3c-3.4,5-7.7,9.4-11.6,14.1c-8.2,9.8-18.9,16.2-29.7,22.5
		c-5.1,2.9-11,4.2-16.5,6.4c-5,2-10,4-14.9,6.3c-8.8,4.1-18.3,3.4-27.3,2.4c-9.5-1.1-18.8-4.8-28-7.8c-7.4-2.4-14.5-5.7-21.8-8.2
		c-10.6-3.7-20.3-9-29.1-15.9c-2.3-1.8-5-3.1-7.4-4.8c-12.6-8.7-20.8-20.4-24.3-35.4c-1-4.3-2.8-8.5-4.3-12.7
		c-3.7-10.2-4.4-20.9-3.9-31.6c0.4-7.8,3.5-14.5,9.9-19.3c0.6-0.5,1.5-0.7,2.3-0.9c5.1-1,10.1-2.1,15.3-2.7c1.7-0.2,3.7,1,5.4,1.8
		c1.5,0.7,2.9,2.7,4.3,2.7c3.9-0.2,4.8,2,5.1,5.1c1.9,14.9,4.5,29.5,10.1,43.5c5.8,14.5,15,25,29.2,32.1c11.5,5.8,24,8.1,35.9,12.2
		c6.9,2.4,13.9-0.6,20-4.8c7.3-5,14.9-9.8,22-15c2.4-1.7,3.9-4.7,5.8-7c7.3-8.9,10.2-19.7,14.2-30.1c5.6-14.5,1.4-27.8-2.3-41.9
		c-3.6-13.5-12.3-22.9-21.2-32.2c-6.9-7.1-15.4-12.4-24.3-17c-6.3-3.3-11.9-7.7-17.8-11.7c-0.6-0.4-0.9-1-1.5-1.2
		c-11.2-4.9-20.5-12.7-28.3-21.7c-13-15.1-19.5-33.2-15.5-52.9c3.1-15.1,10.3-29.2,19.7-41.7c6-7.9,12.3-15.6,19.2-22.7
		c3.5-3.6,8.4-6.4,13.1-8.1c9.7-3.5,19.6-6.7,29.7-8.6c7.5-1.4,15.4-0.7,23.1-0.3c6.1,0.3,12.1,1.2,18.1,2.2
		c17.5,2.9,31.6,10.6,41.7,26.1c6.2,9.6,12.1,19,13.6,30.3c0.9,7.1-0.1,14.5-0.6,21.7c-0.1,1.4-1.4,3.4-2.7,3.9
		C2920.8,253.6,2920.8,258.9,2919.1,262.2z"/>
	<path class="st6" d="M2008.4,483c13.8-0.7,26.3-1,38.7-2c10.4-0.9,20.8-2.6,31.1-3.9c2.3-0.3,4.6-0.3,6.9-0.5
		c9.5-1,19-1.9,28.5-3.1c11-1.4,22-2.9,33-4.4c0.2,0,0.4-0.2,0.5-0.1c5.6,3,11.3,5.9,16.6,9.3c1.2,0.7,1.2,3.5,1.4,5.4
		c0.4,3.4,1.2,6.9,0.6,10.1c-0.5,3-2.2,5.9-4.1,8.4c-2.3,2.9-5,5.6-8,7.8c-2.3,1.7-5.1,3.5-7.8,3.7c-16.9,1.4-33.8,2.3-50.6,3.7
		c-9.6,0.7-19.1,1.6-28.6,3c-6.8,1-13.4,3.7-20.2,4.3c-11.6,1.1-23.2,4.2-35,1.8c-2.3-0.5-5.1-0.3-7.4,0.3
		c-8.3,2.3-15.1-1.6-22.3-4.4c-8.3-3.2-14.7-8.6-20.3-15.3c-6.7-8-9.8-16.1-6.4-26.7c2.7-8.5,3.5-17.5,4.9-26.3
		c3.3-21,9.3-41.2,15.3-61.5c3.7-12.6,6.3-25.5,9.3-38.2c3.7-15.6,5.9-31.5,12.4-46.4c3.6-8.3,5.1-17.5,7.7-26.2
		c1.5-5.1,3.2-10.1,4.7-15.2c5.5-18,8.3-36.5,10.7-55.1c0.9-7,3.3-13.9,4.6-20.9c1.4-7.6,2.2-15.4,3.6-23.1c1.3-7.2,4.7-9.6,12-9.2
		c0.7,0,1.5,0.4,2,0.1c7.8-4,15.1-0.1,22.6,1.2c5.3,0.9,9.1,5.1,8.8,10.4c-0.8,13.9-0.8,27.9-2.9,41.7c-3.4,22.1-7.7,44.1-12.6,66
		c-2.8,12.6-8,24.6-11.3,37.2c-4.5,17.5-8.1,35.2-12.4,52.8c-3.6,14.8-7.3,29.6-11.7,44.2c-5.8,19.3-9.9,39-12.5,58.9
		C2009.7,474.6,2009.1,478.4,2008.4,483z"/>
	<path class="st6" d="M2320.5,463.6c3.6-0.7,7.1-1.4,10.7-2.1c12-2.1,24-4.2,35.9-6.4c7.5-1.4,14.9-3.1,22.3-4.6
		c7.6-1.5,15.2-2.7,22.8-4.3c5-1,9.9-2.5,14.9-3.8c1.1-0.3,2.2-0.7,3.3-0.8c5.1-0.1,10.3-0.5,15.4-0.1c2.2,0.1,4.2,1.7,6.3,2.7
		c1.3,0.6,2.5,1.5,3.8,1.8c6.7,1.2,9.9,4.7,10,11.4c0,3.5,0.1,7-0.3,10.4c-0.5,5.3-2.3,9.4-7.9,11.9c-3.7,1.7-5.2,7.1-10.1,7.8
		c-1.6,0.2-3.1,0.3-4.7,0.3c-7.2-0.1-14.5-0.8-21.6-0.1c-6.2,0.6-12.2,3-18.4,4c-8.3,1.4-16.7,1.9-25,3.3
		c-13.8,2.4-27.6,5.3-41.4,7.8c-6.4,1.1-12.8,1.8-19.2,2.8c-3.1,0.5-6.2,1.1-9.3,1.5c-1.1,0.2-2.4,0.4-3.4,0
		c-6.4-2.1-12.6-4.6-19.1-6.5c-12.1-3.6-19.8-12.9-25.7-22.6c-3.7-6.2-7.4-14.1-3.3-23c2.6-5.8,3.1-12.6,4-19
		c1.3-9.7,1.4-19.6,3.1-29.2c1.9-10.9,5.2-21.6,7.5-32.5c3.6-17.1,7.1-34.1,10-51.3c1.9-11.1,2.4-22.4,3.9-33.6
		c2.4-17.4,5.3-34.7,7.9-52.1c2.3-15.6,4.4-31.2,6.7-46.7c0.8-5.4,2.1-10.8,3.5-16.1c1.2-4.7,5.6-5.2,9.4-6.2
		c3.3-0.9,6.6-1.9,9.9-2.5c2.2-0.4,4.6-0.2,6.9,0c3.3,0.4,7,0.4,9.7,1.9c3,1.6,5.4,4.6,7.5,7.4c3.7,5,3.8,10.5,2.4,16.5
		c-1.1,4.6-0.8,9.6-1.4,14.4c-1.8,15.2-3.4,30.3-5.5,45.5c-3.1,22.3-6.6,44.6-9.8,66.9c-1.3,8.9-1.8,17.9-3.3,26.6
		c-2.7,15.3-6.3,30.5-9,45.8c-2.9,17.2-5.3,34.5-7.8,51.7c-0.6,4.4-0.9,8.9-1.7,13.3c-1,5.9,0.6,7.8,6.8,7.4c1,0,2,0,3,0
		C2320.5,463.3,2320.5,463.4,2320.5,463.6z"/>
	<path class="st6" d="M2547.3,400.2c3.1-19.1,6.2-38.3,9.4-57.4c2.4-14.5,5.2-29,7.3-43.6c2.4-16.2,3.9-32.5,6.5-48.7
		c1.4-8.9,4.4-17.6,6.5-26.5c2.8-11.8,6.2-23.4,6.5-35.6c0.3-11.4,5.7-16.3,17.1-16.6c5.7-0.1,11.4-0.5,17,2.4c2.5,1.3,7.2-1,9,2.8
		c2.6,5.5,6.5,10.6,5.6,17.4c-2.1,14.6-3.8,29.3-6,43.8c-2.9,18.8-6.3,37.5-9.5,56.2c-1.1,6.7-2.4,13.3-3.5,20
		c-2.1,12.6-4.2,25.2-6.2,37.8c-1.2,7.8-2.1,15.7-3.1,23.6c-0.8,5.6-2,11.1-2.4,16.7c-1.4,20.4-2.3,40.8-3.8,61.2
		c-0.6,8-2.2,16-3.1,24c-0.4,3.4-2.1,5.1-5,6.8c-2.7,1.6-4.4,4.7-7.1,6.5c-3.9,2.6-8.1,4.7-12.2,6.9c-0.4,0.2-1.5-0.8-2.3-1.2
		c-3.9-2-8-3.8-11.8-6c-2.6-1.5-5.1-3.4-7.1-5.7c-2.4-2.8-4.9-6-6.1-9.5c-1.2-3.4-1.4-7.3-1.1-10.9c1.8-17.2,4-34.3,5.8-51.5
		c0.4-4.3,0.1-8.6,0.1-12.9C2547.7,400.2,2547.5,400.2,2547.3,400.2z"/>
	<path class="st6" d="M1434.3,498.9c-0.5,11.2-3.1,21.8-8,31.7c-4.4,9-8.4,18.5-14.5,26.2c-5.3,6.7-10.5,14.7-19.9,17.4
		c-4.8,1.4-8.7,0.2-12.7-2.2c-3.1-1.8-6.3-3.6-9.6-4.9c-5.7-2.2-14.2-14.3-13.4-20.4c0.4-2.6,2.1-5.3,4-7.4
		c5.7-6.4,11.6-12.6,13.9-21.2c0.5-2,2.3-3.6,2.9-5.6c4-12.9,4.6-25.8-0.4-38.5c-1.4-3.6-4.6-6.6-5.6-10.3c-1.3-5-3.2-11.1-1.3-15.2
		c2.4-5.4,7.6-9.7,15.3-8.6c3.5,0.5,7.3-1.2,10.9-1.8c1.4-0.2,2.9-0.3,4.3,0c3.1,0.7,6.7,1.1,9.2,2.9c3.5,2.5,7,5.6,9.1,9.2
		c6.2,10.5,11.1,21.8,13.5,33.9C1432.8,489,1433.5,494,1434.3,498.9z"/>
	<path class="st6" d="M3793.3,498.9c-0.5,11.2-3.1,21.8-8,31.7c-4.4,9-8.4,18.5-14.5,26.2c-5.4,6.7-10.5,14.7-19.9,17.4
		c-4.8,1.4-8.7,0.2-12.7-2.2c-3.1-1.8-6.3-3.6-9.6-4.9c-5.7-2.2-14.2-14.3-13.4-20.4c0.4-2.6,2.1-5.3,4-7.4
		c5.7-6.4,11.6-12.6,13.9-21.2c0.5-2,2.3-3.6,2.9-5.6c4-12.9,4.6-25.8-0.4-38.5c-1.4-3.6-4.6-6.6-5.6-10.3c-1.3-5-3.2-11.1-1.3-15.2
		c2.4-5.4,7.6-9.7,15.3-8.6c3.5,0.5,7.3-1.2,10.9-1.8c1.4-0.2,2.9-0.3,4.3,0c3.1,0.7,6.7,1.1,9.2,2.9c3.5,2.5,7,5.6,9.1,9.2
		c6.2,10.5,11.1,21.8,13.5,33.9C3791.9,489,3792.5,494,3793.3,498.9z"/>
</g>
<g id="Layer_1_copy" class="st0">
	<path class="st7" d="M3350.8,246.3c-1,6.2-1.9,12.4-3.1,18.6c-2.8,14.8-5.9,29.6-8.5,44.4c-3,17.1-5.6,34.4-8.6,51.5
		c-1,5.7-3.1,11.2-3.8,17c-1.9,15.5-3.1,31-5,46.5c-1.2,10.2-3.6,20.3-4.6,30.5c-0.8,7.9,0,16-0.5,23.9c-0.3,5.4-1.3,10.9-2.8,16.1
		c-0.6,2.2-3.2,5.4-5,5.4c-4.3,0-5.2,3.1-6.6,5.6c-3.4,5.6-8.8,6.7-14.2,2.9c-2-1.4-4.7-1.7-6.6-3.2c-8.6-6.8-18.3-13.3-18.9-25.5
		c-0.4-8.7,0.8-17.5,2-26.2c2.1-15.2,4.7-30.4,7-45.6c3.5-22.6,6.7-45.2,10.4-67.8c2.6-16.1,5.7-32,8.7-48c2.5-13.7,5.1-27.4,7.8-41
		c2.4-12.2,5.3-24.3,7.2-36.6c1.4-9.4,3.7-18.4,6.9-27.3c2.3-6.4,6.8-7.6,12.3-8.9c2.9-0.6,5.4-2.8,8.2-3.6
		c4.2-1.3,8.5-2.8,12.7-2.8c7.1,0,14.2,1.1,21.2,2.1c1.5,0.2,3.2,1.9,3.9,3.4c5.5,11.1,10.5,22.3,16.1,33.3
		c2.7,5.2,6.4,9.9,9.2,15.1c7.2,12.8,14.6,25.4,21.1,38.6c7.3,14.7,13.9,29.7,20.4,44.7c3.9,9.1,7,18.5,10.9,27.7
		c3.1,7.2,6.8,14.1,10.1,21.2c3,6.6,5.9,13.3,8.8,19.9c5.4,12.5,10.7,25.1,16.1,37.6c1.3,3,3.2,5.8,4.8,8.7c0.7-0.1,1.3-0.3,2-0.4
		c0.5-2.8,1.1-5.6,1.4-8.4c1.7-14.8,3.3-29.5,4.8-44.3c0.9-8.8,1.2-17.6,2.6-26.3c3.3-20.6,7.1-41.1,10.7-61.7
		c2.5-14.5,4.8-29.1,7.3-43.7c1.4-8.3,3.3-16.6,4.5-25c1.4-10.4,2.8-20.8,3.2-31.2c0.5-12.3,6.6-17.8,18.9-16
		c2.7,0.4,5.5-0.2,8.3-0.1c1.2,0,2.4,0.4,3.6,0.8c3.2,1,6.5,1.7,9.5,3.2c1.6,0.8,3,2.6,3.9,4.3c1.6,3.1,2.8,6.4,4.2,9.7
		c0.2,0.6,0.8,1.2,0.8,1.8c-0.2,8.8,3.5,17.6,0,26.6c-1.5,3.9-1.1,8.5-1.8,12.8c-2.6,16.5-5.3,32.9-8.1,49.4
		c-3,17.6-6.5,35.2-9.1,52.9c-1.8,11.8-2.3,23.8-3.6,35.7c-1.6,15.5-3.5,30.9-4.9,46.4c-1.8,20.3-2.8,40.7-5.2,61
		c-0.8,6.6-4.6,13-7.5,19.2c-0.5,1.1-3.6,0.8-5,1.8c-3.1,2.5-2.3,6.3-2.2,9.6c0.2,8.3-4.4,14.6-8,21.8c-2-1.1-3.3-1.8-5-2.8
		c-2.1,2.3-3.7,5.2-6.2,6.8c-6.1,3.7-13.1,2-19.6-3.1c-11-8.8-18-20.3-23.3-33.1c-3.6-8.6-7.6-17.1-12.2-25.4
		c-8.9-16.2-16.7-32.9-24.2-49.9c-8.1-18.4-16.3-36.6-24.1-55.1c-5.4-12.7-9.9-25.8-15.3-38.5c-2.8-6.7-6.9-12.8-9.8-19.5
		c-2.8-6.5-4.4-13.5-7.4-20c-3.6-7.7-8.1-15-12-22.5c-1.8-3.5-3.1-7.3-4.8-10.9c-0.7-1.6-1.8-2.9-2.7-4.4
		C3351.8,246.1,3351.3,246.2,3350.8,246.3z"/>
	<path class="st7" d="M962.5,233.7c-1.3,2-2.3,2.9-2.6,4c-5.3,17.7-10.6,35.3-15.7,53.1c-3.3,11.4-5.8,23-9.5,34.3
		c-6.5,20.4-13.7,40.5-20.3,60.8c-3.7,11.4-6.7,22.9-10,34.4c-2.3,8.3-4.6,16.5-6.7,24.9c-2.4,9.9-4.8,19.9-6.8,29.9
		c-1,5.4-2.5,10.2-6.8,14c-1.4,1.2-2.5,3-3.2,4.6c-1.4,3.2-3.1,5.6-7.1,5.4c-1.4-0.1-2.8,1.1-4.2,1c-3.6-0.2-7.1-0.8-10.6-1.4
		c-0.6-0.1-1.4-1.7-1.6-1.6c-6.7,2.7-9-3.9-12.5-6.7c-5.2-4.2-8.6-10.1-6.4-17.9c5.9-20.3,11.3-40.8,17.1-61.1
		c4.2-14.8,8.7-29.6,13.4-44.3c3.3-10.4,7.6-20.5,11-30.9c2.9-9,5-18.2,7.7-27.2c4.8-16.1,9.7-32.2,14.6-48.3
		c5-16.4,10.3-32.6,15.1-49.1c3-10.3,5-20.9,7.9-31.2c2.2-7.8,4.9-15.5,8.1-22.9c1-2.1,4.5-3.5,7.2-4.5c3.5-1.3,7.2-2.3,11-2.8
		c2.4-0.3,5,0.6,7.4,1.1c1.4,0.3,2.8,0.8,4.2,1.3c2.2,0.7,4.5,1.3,6.5,2.3c3.4,1.6,6.7,3.4,9.9,5.2c5.8,3.2,9.3,7.6,10.2,14.8
		c0.8,6.4,3.6,12.6,5.8,18.7c2.4,6.5,5.3,12.9,7.9,19.3c4.7,11.7,9.3,23.4,13.8,35.1c5.3,13.7,10.3,27.6,15.9,41.3
		c3.8,9.3,8.8,18.1,12.6,27.4c5.9,14.4,11.1,29,16.8,43.5c5.7,14.3,11.7,28.4,17.4,42.6c1.4,3.5,2.3,7.1,3.7,10.7
		c0.6,1.6,1.7,3.1,3.9,4.8c0.7-2,1.5-4,1.9-6c3.4-16.8,6.8-33.5,10.1-50.3c1.4-7.6,2.1-15.4,3.6-23c2.4-12,5.1-23.9,7.8-35.9
		c3.4-15.2,7-30.4,10.3-45.6c3.2-14.8,6.2-29.7,9.1-44.6c1.8-9.2,2.9-18.6,4.8-27.8c1.7-8.2,3.9-16.4,6.3-24.5
		c1.3-4.3,4.6-6.7,9.2-5.4c3.9,1.1,7.3,0.4,11-1c1.7-0.6,4.8-0.5,5.7,0.6c2.4,3,5.3,3.5,8.7,3.6c1.3,0.1,3.5,1.3,3.8,2.3
		c1.9,7.7,5.2,15.1,3.2,23.7c-1.9,8.6-1.5,17.7-2.8,26.5c-1.8,12.3-3.9,24.6-6.3,36.8c-2.8,14.1-6.6,28-9.3,42.1
		c-2.1,11.1-3.1,22.4-5,33.5c-1.9,11.3-4.5,22.4-6.6,33.7c-2.2,11.8-3.9,23.6-6.3,35.3c-4.4,20.8-9.6,41.4-13.5,62.2
		c-1.6,8.6-5.2,16.9-4.5,26.1c0.4,4.9-1.4,9.9-2.5,14.8c-0.4,1.5-1.8,3.1-3.1,4.1c-3,2.3-6.6,3.8-6.9,8.4c-0.1,0.9-1.6,2.2-2.7,2.4
		c-5.8,0.9-11.7,2.1-17.6,2c-5.8-0.1-12.4-0.1-17.1-2.8c-6.5-3.7-13-9.1-16.8-15.4c-5.5-9.1-8.8-19.6-12.7-29.6
		c-3.8-9.7-7.2-19.5-10.7-29.2c-4-11.2-7.7-22.5-11.9-33.7c-4.6-12.3-9.9-24.3-14.4-36.6c-5.1-13.8-9.5-27.9-14.7-41.6
		c-2.8-7.4-7-14.2-10.1-21.5c-3.7-8.6-7-17.4-10.3-26.2c-3-8-6-16-8.8-24C966.5,246.4,964.8,240.7,962.5,233.7z"/>
	<path class="st7" d="M291.7,111.9c6.3,4.6,13.1,5.7,20.6,5.6c5.7-0.1,11.4,1.9,17.1,2.8c9.2,1.3,18.6,1.6,27.5,4
		c11.2,3.1,22.7,4.5,33.6,9.8c13.9,6.7,24,17.7,35.9,26.6c8.2,6.1,16.3,12.5,23.6,19.6c2.8,2.8,5,8,4.7,11.9
		c-0.9,10.9-2.9,21.6-5.2,32.3c-0.7,3.5-3.7,6.5-5.4,9.8c-2.3,4.4-4.4,9-6.6,13.4c-4,8-9.6,14.7-16.4,20.5
		c-3.7,3.1-6.7,7.1-10.5,9.9c-4.6,3.5-9.6,6.4-14.6,9.1c-11,6-21.9,12.1-33.2,17.4c-6.9,3.2-14.6,4.6-21.6,7.5
		c-7,2.9-13.5,6.7-21.4,10.7c2.6,1.6,4.2,2.7,6,3.6c14.8,7.8,30.1,14.9,44.4,23.5c19,11.5,32.9,28.3,45,46.7
		c9.8,14.8,20,29.3,28.9,44.6c6,10.4,10.4,21.8,14.7,33c3.1,8,4.2,16.7,7.5,24.5c3.6,8.6,4.2,17.6,5.9,26.5c0.1,0.6,0,1.3,0,2.2
		c-5.9,0.8-10.7,2.4-10.2,9.9c0.2,2.6-8.3,7.5-11.3,6.4c-6.5-2.4-13.1-4.9-19.2-8.2c-4.3-2.3-8-5.7-11.6-9.1c-1.2-1.1-1-3.5-1.5-5.4
		c-2.7-11.1-5.2-22.2-8.3-33.2c-3.6-13.3-9.5-25.6-16.5-37.4c-7-11.6-14-23.2-21.3-34.6c-8.4-13-18.8-24.2-32-32.7
		c-8.5-5.4-16.4-11.9-25.4-16.5c-9.4-4.8-19.6-8.3-29.7-11.7c-7-2.4-14.4-3.7-21.7-5.5c-0.6-0.2-1.3-0.6-1.9-0.5
		c-11.6,1.8-18.9-6.6-27.5-11.9c-1.9-1.1-2.1-4.9-3.4-7.2c-0.9-1.5-2.3-2.8-3.5-4.1c-1.3,1.4-3.1,2.5-3.8,4.1
		c-3.1,6.9-4.9,14.7-9.2,20.7c-5.3,7.4-6.2,16.2-10.4,23.7c-4.9,8.9-7.8,18.6-10.9,28.3c-3.4,10.8-8.4,21.1-12.5,31.6
		c-3.6,9.1-7.1,18.3-10.4,27.5c-3.9,10.7-7.1,21.6-11.4,32c-2.9,7-7.2,13.5-11.2,20c-1.4,2.3-10.5,1.6-14.4-0.2
		c-3-1.3-6.4-1.7-9.4-3c-1.9-0.8-3.8-2.1-5.2-3.7c-3.1-3.7-6.3-7.4-8.7-11.6c-0.9-1.5-0.6-5.2,0.5-6.1c7.8-6.3,5.2-16.7,10.5-24.2
		c3.8-5.5,3.9-13.5,6.6-20c4.1-10,9.1-19.7,13.3-29.7c5-11.7,9.5-23.6,14.3-35.3c4.2-10.2,8.4-20.5,12.7-30.6
		c3.4-7.9,5.9-16.4,10.6-23.4c6.6-9.8,8-21.5,14.1-31.4c3.4-5.6,4.4-12.8,6.9-19.1c3.1-7.9,6.6-15.7,9.7-23.6
		c4-10.3,7.6-20.8,11.9-31.1c2.3-5.6,5.8-10.8,8.6-16.2c1.4-2.6,3.7-5.3,3.5-7.9c-0.2-5,4.9-7.5,4.3-13c-0.4-3.8,4.2-8,6.2-12.2
		c5.3-10.9,10.4-21.9,15.4-33c1.3-2.8,1.2-6.3,2.6-8.9c3-5.5,6.3-10.8,10.1-15.8c0.9-1.2,4.4-1.5,6-0.7
		C283.8,116.5,286.2,116.5,291.7,111.9z M232.2,310.1c3.9-0.5,6.7-0.5,9.2-1.4c9.5-3.4,18.8-7.1,28.3-10.5
		c8.5-3.1,17.1-5.9,25.6-9.1c10.3-3.9,20.6-8,30.7-12.4c11.5-5.1,23.2-10,34-16.4c6.5-3.9,13.3-7.7,19.1-13.2
		c7.5-7.1,14.5-14.2,20.2-22.8c3.5-5.2,6-10.8,8.5-16.6c5.3-12.4,2.9-15.5-7.6-22c-4.7-2.9-10-4.8-15.1-7.1
		c-15.4-7-31.8-10.5-48.5-11.4c-15.6-0.9-31.2-0.2-46.1,5.4c-2.1,0.8-4.7,2-5.6,3.8c-4.1,8-7.9,16.2-11.2,24.6
		c-5.9,15-11.1,30.3-17,45.3c-5.4,13.7-11.2,27.3-16.7,40.9c-1.2,3-1.5,6.3-2.5,9.4C236,300.7,234.3,304.7,232.2,310.1z"/>
	<path class="st7" d="M1871.1,172.3c0.6,7.9,1.3,15.9,1.7,23.8c1,21.4,2.4,42.7-0.2,64.2c-1.7,14-1.7,28.2-2.4,42.4
		c-1.2,28.1-4.2,56.1-2.9,84.3c0.6,12.4-1.6,24.9-0.9,37.2c1.2,19.9-3.4,38.9-6.2,58.2c-0.9,6.2-1.2,12.6-1.8,18.9
		c-0.2,1.7,0.2,3.7-0.6,4.9c-3.6,5.5-7.2,11.2-11.7,16c-1.7,1.8-5.8,1.5-8.9,1.6c-13.5,0.7-24.3-5-31.4-16
		c-2.3-3.5-1.3-9.6-0.7-14.4c2.6-18.1,6.7-36,8.4-54.2c1.9-19.8,1.8-39.8,2.4-59.8c0.1-3.2-4.3-5.1-9.3-4.4
		c-12.6,1.9-25.3,3.4-37.9,5.5c-17.1,2.8-34.1,6.1-51.2,8.8c-7.1,1.1-14.3,1-21.5,1.9c-1.8,0.2-3.9,1.9-4.8,3.5
		c-6.2,10.7-12,21.7-18.3,32.3c-4.6,7.6-9.9,14.7-14.8,22.1c-4.8,7.1-9.3,14.4-14.2,21.5c-6.9,9.9-14,19.6-21.1,29.4
		c-3,4.2-5.8,8.5-9.1,12.4c-3.1,3.7-6.6,7.1-10.3,10.2c-2.5,2.1-10.2,0.3-13.5-2.3c-1.2-1-3.1-1.7-4.6-1.6
		c-8.6,0.4-12-2.2-13.4-10.6c-0.1-0.3,0-0.8-0.2-1c-6.4-7-0.5-11.6,3-16.8c6.1-9,12-18.1,18.1-27.1c6-8.8,12.6-17.3,18.3-26.3
		c9-14.2,18.2-28.3,25.9-43.2c8-15.5,17.5-30,27.6-44.1c6.9-9.7,14.4-18.8,21.4-28.4c4.8-6.6,9.1-13.7,13.9-20.4
		c8.5-11.6,17.2-23,25.7-34.5c3.6-4.9,6.7-10.1,10.2-15.1c2.5-3.5,5.4-6.7,8.1-10.1c13.1-16,26.6-31.6,37.5-49.3
		c8.4-13.6,18.7-25.7,29.7-37.1c1.3-1.3,2.5-2.8,3.2-4.4c4.8-9.6,13-13.8,23.1-16.1c6.2-1.4,11.7-0.8,17.5,1
		c7.5,2.4,12,7.6,13.5,15.1c1.5,7.2,2.1,14.7,3.1,22C1871.5,172.2,1871.3,172.2,1871.1,172.3z M1824.5,215.2
		c-31.9,42.3-62.9,83.3-93.9,124.4c0.4,0.4,0.8,0.9,1.2,1.3c5-0.9,9.9-1.9,14.9-2.6c13.5-2.1,27-4,40.5-6.1
		c4.3-0.7,8.6-1.3,12.9-2.1c5-0.9,9.9-1.9,14.8-3.2c1.1-0.3,2.3-2.1,2.4-3.3c1.5-12.2,3-24.4,4-36.7c1.3-15.2,2.3-30.4,3.1-45.6
		C1824.9,233.1,1824.5,224.9,1824.5,215.2z"/>
	<path class="st7" d="M2972.9,393.7c0-18.1-0.5-36.2,0.2-54.3c0.4-10.5,2.8-20.9,4.6-31.3c1.4-7.8,2.7-15.8,5.2-23.2
		c4.8-14,10.7-27.5,15.6-41.5c4.2-12.2,12-22,20.3-31.4c9.8-11.1,21-20.9,36-24.7c10.6-2.7,21.2-2.8,31.9-0.5
		c3.6,0.8,6.7,0.8,9.5,3.8c1.3,1.3,5.1,0.1,7.7,0.2c4.7,0.3,9.7,0,14.1,1.4c9.3,2.8,18.4,6.4,27.6,9.9c4.4,1.6,8.8,3.5,13,5.5
		c1.8,0.8,3.6,1.9,4.9,3.4c5.5,6.3,11.3,12.5,16,19.4c3.5,5.1,5.6,11.2,8.3,16.8c0.4,0.7,0.5,1.7,1.1,2.1c5.5,3.9,5.6,10.4,7.9,15.8
		c1.3,3.1,3.9,5.7,5.7,8.7c1.3,2.2,2.6,4.6,3.2,7.1c3.2,12.8,6.4,25.6,5.9,38.9c-0.4,10.6-1.1,21.2-2.5,31.7
		c-1.9,14.2-4.5,28.4-7.1,42.5c-1.2,6.3-2.7,12.6-4.7,18.8c-1.4,4.3-4.2,8.2-6,12.4c-5.5,13.2-14.6,23.4-24.9,32.9
		c-5.7,5.3-10.7,11.3-16.7,16.3c-5.8,4.8-12.3,8.9-18.7,13c-5.7,3.7-11.4,7.8-17.7,10.2c-10.5,3.9-21.4,6.7-32.2,9.7
		c-5.5,1.5-11.2,3.1-16.9,3.4c-8.8,0.5-17.4,0.5-25.2-5.9c-7.2-5.8-16.3-9.1-24.1-14.3c-4.9-3.3-9-7.9-13.4-12
		c-9.1-8.7-13.8-20.3-19.7-31c-3.1-5.5-3.3-12.8-4.4-19.3c-2.1-11.4-3.9-22.8-5.8-34.2C2972.1,393.8,2972.5,393.8,2972.9,393.7z
		 M3061.8,466.4c7.3-1.8,14.7-3.6,21.9-5.6c2.4-0.6,4.9-1.4,6.7-2.9c7.8-6,15-12.8,23.1-18.1c9.1-6,15.5-14.3,21.2-22.9
		c10.2-15.4,15.8-32.9,20-50.7c2.7-11.4,4.8-23.1,5.4-34.8c0.7-12.9,1.1-26.1-1.4-38.6c-2.7-13.5-8.2-26.6-13.7-39.4
		c-3.5-8.2-8.5-15.3-18.7-18.1c-8.4-2.3-16.1-7.4-23.9-11.5c-2.7-1.4-4.9-4.7-7.5-4.8c-5.3-0.2-11,0.2-16.1,1.9
		c-25.8,8.5-37.3,29.1-43.9,53.5c-3.4,12.4-6.5,25-9.1,37.6c-2.3,11-5,22.1-5.3,33.3c-0.5,17.9-0.5,35.9,3,53.6
		c1.8,9.3,2.5,18.9,5.1,27.9c2.4,8.3,6.2,16.4,10.4,23.9C3043.8,459.1,3049.9,466.6,3061.8,466.4z"/>
	<path class="st7" d="M644.7,176c-1.5,7.6-3.1,16.5-5.3,25.3c-1.2,4.8-3.5,9.3-4.8,14.1c-1,3.7-1,7.7-1.8,11.5
		c-2.8,13-5.4,26-8.5,38.8c-5.3,21.4-10.9,42.8-16.4,64.1c-2.9,11-6.7,21.9-8.6,33.1c-1.9,11.2-2.2,22.7-2.8,34.1
		c-0.3,5.4,0.3,10.8,0.6,16.3c0.4,9.1,3,17,8.8,24.7c5.8,7.7,12,14.4,20.1,19.2c5,2.9,10.6,5.1,16.1,6.5c8.1,2.1,15.5-1.8,21.6-6.2
		c18.1-13,34.2-28,44.5-48.4c4.3-8.6,10.4-16.2,15.3-24.5c5.9-9.9,11.4-20,17-30.1c2.4-4.3,5.3-8.5,7-13.1c2.3-6,3.8-12.4,5.5-18.6
		c3.7-13.5,7.3-27.1,10.9-40.6c3.9-14.7,8.1-29.3,11.5-44.1c2.3-10,3.4-20.2,4.8-30.3c1.3-8.9,9-14.4,17.9-13.5
		c6.3,0.6,12.7-0.1,19.1,0.1c2,0.1,4.6,1,5.8,2.4c2.3,2.6,4.2,5.7,5.5,9c1,2.5,1.4,5.6,0.9,8.3c-1.8,10.4-4,20.8-6.3,31.1
		c-4.2,19-8.7,38-13.1,57c-2.7,11.8-4.9,23.8-8.6,35.2c-3.4,10.5-8.2,20.6-13.2,30.5c-5.2,10.1-11.2,19.8-17.1,29.6
		c-7.2,12-14.7,23.8-21.7,36c-6.5,11.2-14,21.5-24.1,29.9c-9.6,7.9-19.1,16-29.1,23.5c-5.4,4.1-11.3,7.9-17.6,10.4
		c-8.1,3.2-16.7,6-25.3,6.8c-7.2,0.7-14.8-1.7-22.2-2.8c-3.9-0.6-7.9-1.1-11.7-2.1c-16.2-4.1-29.7-12.7-42.5-23.4
		c-10.2-8.5-17.1-19.3-22.5-30.6c-4.5-9.5-6.5-20.6-7.3-31.2c-1.1-14.3-1.1-28.9,0.6-43.1c1.6-14.1,5.8-27.8,9-41.7
		c2-8.4,4-16.8,6.4-25c3.2-11,7.1-21.8,10.2-32.8c3-10.5,5.3-21.2,8-31.9c2.7-11,5.3-22.1,8-33.1c3.3-13.2,6.8-26.4,10.3-39.7
		c0.5-1.8,0.9-3.6,1.6-5.2c1.6-3.3,3.8-5.6,8-5.6c3.6,0.1,7.2-1,10.8-0.8c8.5,0.6,16.8,2.5,22,10C643.9,167.4,643.7,171.2,644.7,176
		z"/>
	<path class="st7" d="M4790.2,233.7c-1.3,2-2.3,2.9-2.6,4c-5.3,17.7-10.6,35.3-15.7,53.1c-3.3,11.4-5.8,23-9.5,34.3
		c-6.5,20.4-13.7,40.5-20.3,60.8c-3.7,11.4-6.7,22.9-10,34.4c-2.3,8.3-4.6,16.5-6.7,24.9c-2.4,9.9-4.8,19.9-6.8,29.9
		c-1,5.4-2.5,10.2-6.8,14c-1.4,1.2-2.5,3-3.2,4.6c-1.4,3.2-3.1,5.6-7.1,5.4c-1.4-0.1-2.9,1.1-4.2,1c-3.6-0.2-7.1-0.8-10.6-1.4
		c-0.6-0.1-1.4-1.7-1.6-1.6c-6.7,2.7-9-3.9-12.5-6.7c-5.2-4.2-8.6-10.1-6.4-17.9c5.9-20.3,11.3-40.8,17.1-61.1
		c4.2-14.8,8.7-29.6,13.4-44.3c3.4-10.4,7.6-20.5,11-30.9c2.9-9,5-18.2,7.7-27.2c4.8-16.1,9.7-32.2,14.6-48.3
		c5-16.4,10.3-32.6,15.1-49.1c3-10.3,5-20.9,7.9-31.2c2.2-7.8,4.9-15.5,8.1-22.9c1-2.1,4.5-3.5,7.1-4.5c3.5-1.3,7.2-2.3,11-2.8
		c2.4-0.3,5,0.6,7.4,1.1c1.4,0.3,2.8,0.8,4.2,1.3c2.2,0.7,4.5,1.3,6.5,2.3c3.4,1.6,6.6,3.4,9.9,5.2c5.8,3.2,9.3,7.6,10.2,14.8
		c0.8,6.4,3.6,12.6,5.9,18.7c2.4,6.5,5.3,12.9,7.9,19.3c4.6,11.7,9.3,23.4,13.8,35.1c5.3,13.7,10.3,27.6,15.9,41.3
		c3.8,9.3,8.8,18.1,12.6,27.4c5.9,14.4,11,29,16.8,43.5c5.6,14.3,11.6,28.4,17.4,42.6c1.4,3.5,2.3,7.1,3.7,10.7
		c0.6,1.6,1.6,3.1,3.9,4.8c0.6-2,1.5-4,1.9-6c3.4-16.8,6.9-33.5,10.1-50.3c1.5-7.6,2.1-15.4,3.6-23c2.4-12,5.1-23.9,7.8-35.9
		c3.4-15.2,7-30.4,10.3-45.6c3.2-14.8,6.2-29.7,9.1-44.6c1.8-9.2,2.9-18.6,4.8-27.8c1.7-8.2,3.9-16.4,6.3-24.5
		c1.3-4.3,4.6-6.7,9.2-5.4c3.9,1.1,7.3,0.4,11-1c1.7-0.6,4.9-0.5,5.7,0.6c2.4,3,5.3,3.5,8.7,3.6c1.3,0.1,3.5,1.3,3.8,2.3
		c1.9,7.7,5.2,15.1,3.2,23.7c-1.9,8.6-1.5,17.7-2.8,26.5c-1.8,12.3-3.9,24.6-6.3,36.8c-2.8,14.1-6.5,28-9.3,42.1
		c-2.1,11.1-3.1,22.4-5,33.5c-1.9,11.3-4.5,22.4-6.6,33.7c-2.2,11.8-3.9,23.6-6.4,35.3c-4.4,20.8-9.6,41.4-13.5,62.2
		c-1.6,8.6-5.2,16.9-4.5,26.1c0.4,4.9-1.4,9.9-2.5,14.8c-0.4,1.5-1.8,3.1-3.1,4.1c-3,2.3-6.6,3.8-6.9,8.4c0,0.9-1.6,2.2-2.7,2.4
		c-5.8,0.9-11.7,2.1-17.6,2c-5.8-0.1-12.4-0.1-17.1-2.8c-6.5-3.7-13-9.1-16.9-15.4c-5.5-9.1-8.8-19.6-12.7-29.6
		c-3.8-9.7-7.2-19.5-10.7-29.2c-4-11.2-7.7-22.5-11.9-33.7c-4.6-12.3-9.9-24.3-14.4-36.6c-5.1-13.8-9.5-27.9-14.7-41.6
		c-2.8-7.4-6.9-14.2-10.1-21.5c-3.7-8.6-7-17.4-10.3-26.2c-3-8-6-16-8.8-24C4794.3,246.4,4792.5,240.7,4790.2,233.7z"/>
	<path class="st7" d="M4119.4,111.9c6.3,4.6,13.1,5.7,20.6,5.6c5.7-0.1,11.4,1.9,17.1,2.8c9.2,1.3,18.6,1.6,27.5,4
		c11.2,3.1,22.7,4.5,33.6,9.8c13.9,6.7,24,17.7,35.9,26.6c8.2,6.1,16.3,12.5,23.6,19.6c2.8,2.8,5,8,4.7,11.9
		c-0.9,10.9-2.9,21.6-5.2,32.3c-0.7,3.5-3.7,6.5-5.4,9.8c-2.3,4.4-4.4,9-6.6,13.4c-4,8-9.6,14.7-16.4,20.5
		c-3.7,3.1-6.7,7.1-10.5,9.9c-4.6,3.5-9.6,6.4-14.6,9.1c-11,6-21.9,12.1-33.2,17.4c-6.9,3.2-14.6,4.6-21.6,7.5
		c-7,2.9-13.5,6.7-21.4,10.7c2.6,1.6,4.2,2.7,6,3.6c14.8,7.8,30.1,14.9,44.4,23.5c19,11.5,32.9,28.3,45,46.7
		c9.8,14.8,20,29.3,28.9,44.6c6,10.4,10.4,21.8,14.7,33c3.1,8,4.2,16.7,7.5,24.5c3.6,8.6,4.2,17.6,5.9,26.5c0.1,0.6,0,1.3,0,2.2
		c-5.9,0.8-10.7,2.4-10.2,9.9c0.2,2.6-8.3,7.5-11.3,6.4c-6.5-2.4-13.1-4.9-19.2-8.2c-4.3-2.3-8-5.7-11.6-9.1c-1.2-1.1-1-3.5-1.5-5.4
		c-2.7-11.1-5.2-22.2-8.3-33.2c-3.6-13.3-9.5-25.6-16.5-37.4c-7-11.6-14-23.2-21.3-34.6c-8.4-13-18.8-24.2-32-32.7
		c-8.5-5.4-16.4-11.9-25.4-16.5c-9.4-4.8-19.6-8.3-29.7-11.7c-7-2.4-14.4-3.7-21.7-5.5c-0.6-0.2-1.3-0.6-1.9-0.5
		c-11.6,1.8-18.9-6.6-27.5-11.9c-1.9-1.1-2.1-4.9-3.4-7.2c-0.9-1.5-2.3-2.8-3.5-4.1c-1.3,1.4-3.1,2.5-3.8,4.1
		c-3.1,6.9-4.9,14.7-9.2,20.7c-5.3,7.4-6.2,16.2-10.4,23.7c-4.9,8.9-7.8,18.6-10.9,28.3c-3.4,10.8-8.4,21.1-12.5,31.6
		c-3.6,9.1-7.1,18.3-10.4,27.5c-3.9,10.7-7.1,21.6-11.4,32c-2.9,7-7.2,13.5-11.2,20c-1.4,2.3-10.5,1.6-14.4-0.2
		c-3-1.3-6.4-1.7-9.4-3c-1.9-0.8-3.8-2.1-5.2-3.7c-3.1-3.7-6.3-7.4-8.7-11.6c-0.9-1.5-0.6-5.2,0.5-6.1c7.8-6.3,5.2-16.7,10.5-24.2
		c3.8-5.5,3.9-13.5,6.6-20c4.1-10,9.1-19.7,13.3-29.7c5-11.7,9.5-23.6,14.3-35.3c4.2-10.2,8.4-20.5,12.7-30.6
		c3.4-7.9,5.9-16.4,10.6-23.4c6.6-9.8,8-21.5,14.1-31.4c3.4-5.6,4.4-12.8,6.9-19.1c3.1-7.9,6.6-15.7,9.7-23.6
		c4-10.3,7.6-20.8,11.9-31.1c2.3-5.6,5.8-10.8,8.6-16.2c1.4-2.6,3.7-5.3,3.5-7.9c-0.2-5,4.9-7.5,4.3-13c-0.4-3.8,4.2-8,6.2-12.2
		c5.3-10.9,10.4-21.9,15.4-33c1.3-2.8,1.2-6.3,2.6-8.9c3-5.5,6.3-10.8,10.1-15.8c0.9-1.2,4.4-1.5,6-0.7
		C4111.5,116.5,4114,116.5,4119.4,111.9z M4059.9,310.1c3.9-0.5,6.7-0.5,9.2-1.4c9.5-3.4,18.8-7.1,28.3-10.5
		c8.5-3.1,17.1-5.9,25.6-9.1c10.3-3.9,20.6-8,30.7-12.4c11.5-5.1,23.2-10,34-16.4c6.5-3.9,13.3-7.7,19.1-13.2
		c7.5-7.1,14.5-14.2,20.2-22.8c3.5-5.2,6-10.8,8.5-16.6c5.3-12.4,2.9-15.5-7.6-22c-4.7-2.9-10-4.8-15.1-7.1
		c-15.4-7-31.8-10.5-48.5-11.4c-15.6-0.9-31.2-0.2-46.1,5.4c-2.1,0.8-4.7,2-5.6,3.8c-4.1,8-7.9,16.2-11.2,24.6
		c-5.9,15-11.1,30.3-17,45.3c-5.4,13.7-11.2,27.3-16.7,40.9c-1.2,3-1.5,6.3-2.5,9.4C4063.7,300.7,4062,304.7,4059.9,310.1z"/>
	<path class="st7" d="M4472.4,176c-1.5,7.6-3.1,16.5-5.3,25.3c-1.1,4.8-3.5,9.3-4.8,14.1c-1,3.7-1,7.7-1.9,11.5
		c-2.8,13-5.4,26-8.5,38.8c-5.3,21.4-10.9,42.8-16.4,64.1c-2.9,11-6.7,21.9-8.6,33.1c-1.9,11.2-2.2,22.7-2.8,34.1
		c-0.3,5.4,0.3,10.8,0.6,16.3c0.4,9.1,3,17,8.8,24.7c5.8,7.7,12,14.4,20.1,19.2c5,2.9,10.6,5.1,16.1,6.5c8.1,2.1,15.5-1.8,21.6-6.2
		c18.1-13,34.2-28,44.5-48.4c4.3-8.6,10.4-16.2,15.4-24.5c5.9-9.9,11.4-20,17-30.1c2.4-4.3,5.3-8.5,7-13.1c2.3-6,3.8-12.4,5.5-18.6
		c3.7-13.5,7.3-27.1,10.9-40.6c3.9-14.7,8.1-29.3,11.5-44.1c2.3-10,3.4-20.2,4.8-30.3c1.3-8.9,9-14.4,17.9-13.5
		c6.3,0.6,12.7-0.1,19.1,0.1c2,0.1,4.6,1,5.8,2.4c2.3,2.6,4.2,5.7,5.5,9c1,2.5,1.4,5.6,0.9,8.3c-1.9,10.4-4,20.8-6.3,31.1
		c-4.2,19-8.7,38-13.1,57c-2.7,11.8-4.9,23.8-8.6,35.2c-3.4,10.5-8.2,20.6-13.2,30.5c-5.1,10.1-11.2,19.8-17.1,29.6
		c-7.2,12-14.7,23.8-21.6,36c-6.5,11.2-14,21.5-24.1,29.9c-9.6,7.9-19.1,16-29.1,23.5c-5.4,4.1-11.3,7.9-17.6,10.4
		c-8.1,3.2-16.7,6-25.3,6.8c-7.2,0.7-14.8-1.7-22.2-2.8c-3.9-0.6-7.9-1.1-11.7-2.1c-16.2-4.1-29.7-12.7-42.5-23.4
		c-10.2-8.5-17.1-19.3-22.5-30.6c-4.5-9.5-6.5-20.6-7.3-31.2c-1.1-14.3-1.1-28.9,0.6-43.1c1.6-14.1,5.8-27.8,9-41.7
		c2-8.4,4-16.8,6.4-25c3.2-11,7.1-21.8,10.2-32.8c3-10.5,5.4-21.2,8-31.9c2.7-11,5.3-22.1,8-33.1c3.3-13.2,6.8-26.4,10.3-39.7
		c0.5-1.8,0.9-3.6,1.6-5.2c1.6-3.3,3.8-5.6,8-5.6c3.6,0.1,7.2-1,10.8-0.8c8.5,0.6,16.8,2.5,22,10
		C4471.7,167.4,4471.4,171.2,4472.4,176z"/>
	<path class="st7" d="M2909.1,252.2c-3.5,1.8-6.1,3.1-8.7,4.5c-2.9,1.6-6.2,3-8.2-0.6c-2.4-4.3-6.9-4.6-10.2-7
		c-3.2-2.3-6.9-5.4-8-8.9c-1.5-4.7-1-10.1-0.8-15.1c0.3-7.4,1.5-14.8-1.8-21.9c-1.8-3.9-4.3-6.3-8.6-7.2c-16.1-3.3-31.6-1-46,6.3
		c-6.2,3.2-11.3,9.1-16.1,14.5c-4.5,5.1-8,11.2-11.9,16.9c-3,4.4-4.1,9.3-2.9,14.6c0,0.2,0.2,0.3,0.1,0.5c-1.6,16,9.7,23,21,30
		c6.5,4.1,12.9,8.3,19.4,12.3c5.5,3.4,11,7,16.8,10c16.3,8.3,28.8,20.9,40.1,34.8c13.7,16.8,21.4,36.4,24.1,57.7
		c1.7,13.8,1.5,27.7-3.1,41.4c-3.5,10.2-6.9,20.4-13,29.3c-3.4,5-7.7,9.4-11.6,14.1c-8.2,9.8-18.9,16.2-29.7,22.5
		c-5.1,2.9-11,4.2-16.5,6.4c-5,2-10,4-14.9,6.3c-8.8,4.1-18.3,3.4-27.3,2.4c-9.5-1.1-18.8-4.8-28-7.8c-7.4-2.4-14.5-5.7-21.8-8.2
		c-10.6-3.7-20.3-9-29.1-15.9c-2.3-1.8-5-3.1-7.4-4.8c-12.6-8.7-20.8-20.4-24.3-35.4c-1-4.3-2.8-8.5-4.3-12.7
		c-3.7-10.2-4.4-20.9-3.9-31.6c0.4-7.8,3.5-14.5,9.9-19.3c0.6-0.5,1.5-0.7,2.3-0.9c5.1-1,10.1-2.1,15.3-2.7c1.7-0.2,3.7,1,5.4,1.8
		c1.5,0.7,2.9,2.7,4.3,2.7c3.9-0.2,4.8,2,5.1,5.1c1.9,14.9,4.5,29.5,10.1,43.5c5.8,14.5,15,25,29.2,32.1c11.5,5.8,24,8.1,35.9,12.2
		c6.9,2.4,13.9-0.6,20-4.8c7.3-5,14.9-9.8,22-15c2.4-1.7,3.9-4.7,5.8-7c7.3-8.9,10.2-19.7,14.2-30.1c5.6-14.5,1.4-27.8-2.3-41.9
		c-3.6-13.5-12.3-22.9-21.2-32.2c-6.9-7.1-15.4-12.4-24.3-17c-6.3-3.3-11.9-7.7-17.8-11.7c-0.6-0.4-0.9-1-1.5-1.2
		c-11.2-4.9-20.5-12.7-28.3-21.7c-13-15.1-19.5-33.2-15.5-52.9c3.1-15.1,10.3-29.2,19.7-41.7c6-7.9,12.3-15.6,19.2-22.7
		c3.5-3.6,8.4-6.4,13.1-8.1c9.7-3.5,19.6-6.7,29.7-8.6c7.5-1.4,15.4-0.7,23.1-0.3c6.1,0.3,12.1,1.2,18.1,2.2
		c17.5,2.9,31.6,10.6,41.7,26.1c6.2,9.6,12.1,19,13.6,30.3c0.9,7.1-0.1,14.5-0.6,21.7c-0.1,1.4-1.4,3.4-2.7,3.9
		C2910.8,243.6,2910.8,248.9,2909.1,252.2z"/>
	<path class="st7" d="M1998.4,473c13.8-0.7,26.3-1,38.7-2c10.4-0.9,20.8-2.6,31.1-3.9c2.3-0.3,4.6-0.3,6.9-0.5
		c9.5-1,19-1.9,28.5-3.1c11-1.4,22-2.9,33-4.4c0.2,0,0.4-0.2,0.5-0.1c5.6,3,11.3,5.9,16.6,9.3c1.2,0.7,1.2,3.5,1.4,5.4
		c0.4,3.4,1.2,6.9,0.6,10.1c-0.5,3-2.2,5.9-4.1,8.4c-2.3,2.9-5,5.6-8,7.8c-2.3,1.7-5.1,3.5-7.8,3.7c-16.9,1.4-33.8,2.3-50.6,3.6
		c-9.6,0.7-19.1,1.6-28.6,3c-6.8,1-13.4,3.7-20.2,4.3c-11.6,1.1-23.2,4.2-35,1.8c-2.3-0.5-5.1-0.3-7.4,0.3
		c-8.3,2.3-15.1-1.6-22.3-4.4c-8.3-3.2-14.7-8.6-20.3-15.3c-6.7-8-9.8-16.1-6.4-26.7c2.7-8.5,3.5-17.5,4.9-26.3
		c3.3-21,9.3-41.2,15.3-61.5c3.7-12.6,6.3-25.5,9.3-38.2c3.7-15.6,5.9-31.5,12.4-46.4c3.6-8.3,5.1-17.5,7.7-26.2
		c1.5-5.1,3.2-10.1,4.7-15.2c5.5-18,8.3-36.5,10.7-55.1c0.9-7,3.3-13.9,4.6-20.9c1.4-7.6,2.2-15.4,3.6-23.1c1.3-7.2,4.7-9.6,12-9.2
		c0.7,0,1.5,0.4,2,0.1c7.8-4,15.1-0.1,22.6,1.2c5.3,0.9,9.1,5.1,8.8,10.4c-0.8,13.9-0.8,27.9-2.9,41.7c-3.4,22.1-7.7,44.1-12.6,66
		c-2.8,12.6-8,24.6-11.3,37.2c-4.5,17.5-8.1,35.2-12.4,52.8c-3.6,14.8-7.3,29.6-11.7,44.2c-5.8,19.3-9.9,39-12.5,58.9
		C1999.7,464.6,1999.1,468.4,1998.4,473z"/>
	<path class="st7" d="M2310.5,453.6c3.6-0.7,7.1-1.4,10.7-2.1c12-2.1,24-4.2,35.9-6.4c7.5-1.4,14.9-3.1,22.3-4.6
		c7.6-1.5,15.2-2.7,22.8-4.3c5-1,9.9-2.5,14.9-3.8c1.1-0.3,2.2-0.7,3.3-0.8c5.1-0.1,10.3-0.5,15.4-0.1c2.2,0.1,4.2,1.7,6.3,2.7
		c1.3,0.6,2.5,1.5,3.8,1.8c6.7,1.2,9.9,4.7,10,11.4c0,3.5,0.1,7-0.3,10.4c-0.5,5.3-2.3,9.4-7.9,11.9c-3.7,1.7-5.2,7.1-10.1,7.8
		c-1.6,0.2-3.1,0.3-4.7,0.3c-7.2-0.1-14.5-0.8-21.6-0.1c-6.2,0.6-12.2,3-18.4,4c-8.3,1.4-16.7,1.9-25,3.3
		c-13.8,2.4-27.6,5.3-41.4,7.8c-6.4,1.1-12.8,1.8-19.2,2.8c-3.1,0.5-6.2,1.1-9.3,1.5c-1.1,0.2-2.4,0.4-3.4,0
		c-6.4-2.1-12.6-4.6-19.1-6.5c-12.1-3.6-19.8-12.9-25.7-22.6c-3.7-6.2-7.4-14.1-3.3-23c2.6-5.8,3.1-12.6,4-19
		c1.3-9.7,1.4-19.6,3.1-29.2c1.9-10.9,5.2-21.6,7.5-32.5c3.6-17.1,7.1-34.1,10-51.3c1.9-11.1,2.4-22.4,3.9-33.6
		c2.4-17.4,5.3-34.7,7.9-52.1c2.3-15.6,4.4-31.2,6.7-46.7c0.8-5.4,2.1-10.8,3.5-16.1c1.2-4.7,5.6-5.2,9.4-6.2
		c3.3-0.9,6.6-1.9,9.9-2.5c2.2-0.4,4.6-0.2,6.9,0c3.3,0.4,7,0.4,9.7,1.9c3,1.6,5.4,4.6,7.5,7.4c3.7,5,3.8,10.5,2.4,16.5
		c-1.1,4.6-0.8,9.6-1.4,14.4c-1.8,15.2-3.4,30.3-5.5,45.5c-3.1,22.3-6.6,44.6-9.8,66.9c-1.3,8.9-1.8,17.9-3.3,26.6
		c-2.7,15.3-6.3,30.5-9,45.8c-2.9,17.2-5.3,34.5-7.8,51.7c-0.6,4.4-0.9,8.9-1.7,13.3c-1,5.9,0.6,7.8,6.8,7.4c1,0,2,0,3,0
		C2310.5,453.3,2310.5,453.4,2310.5,453.6z"/>
	<path class="st7" d="M2537.3,390.2c3.1-19.1,6.2-38.3,9.4-57.4c2.4-14.5,5.2-29,7.3-43.6c2.4-16.2,3.9-32.5,6.5-48.7
		c1.4-8.9,4.4-17.6,6.5-26.5c2.8-11.8,6.2-23.4,6.5-35.6c0.3-11.4,5.7-16.3,17.1-16.6c5.7-0.1,11.4-0.5,17,2.4c2.5,1.3,7.2-1,9,2.8
		c2.6,5.5,6.5,10.6,5.6,17.4c-2.1,14.6-3.8,29.3-6,43.8c-2.9,18.8-6.3,37.5-9.5,56.2c-1.1,6.7-2.4,13.3-3.5,20
		c-2.1,12.6-4.2,25.2-6.2,37.8c-1.2,7.8-2.1,15.7-3.1,23.6c-0.8,5.6-2,11.1-2.4,16.7c-1.4,20.4-2.3,40.8-3.8,61.2
		c-0.6,8-2.2,16-3.1,24c-0.4,3.4-2.1,5.1-5,6.8c-2.7,1.6-4.4,4.7-7.1,6.5c-3.9,2.6-8.1,4.7-12.2,6.9c-0.4,0.2-1.5-0.8-2.3-1.2
		c-3.9-2-8-3.8-11.8-6c-2.6-1.5-5.1-3.4-7.1-5.7c-2.4-2.8-4.9-6-6.1-9.5c-1.2-3.4-1.4-7.3-1.1-10.9c1.8-17.2,4-34.3,5.8-51.5
		c0.4-4.3,0.1-8.6,0.1-12.9C2537.7,390.2,2537.5,390.2,2537.3,390.2z"/>
	<path class="st7" d="M1424.3,488.9c-0.5,11.2-3.1,21.8-8,31.7c-4.4,9-8.4,18.5-14.5,26.2c-5.3,6.7-10.5,14.7-19.9,17.4
		c-4.8,1.4-8.7,0.2-12.7-2.2c-3.1-1.8-6.3-3.6-9.6-4.9c-5.7-2.2-14.2-14.3-13.4-20.4c0.4-2.6,2.1-5.3,4-7.4
		c5.7-6.4,11.6-12.6,13.9-21.2c0.5-2,2.3-3.6,2.9-5.6c4-12.9,4.6-25.8-0.4-38.5c-1.4-3.6-4.6-6.6-5.6-10.3c-1.3-5-3.2-11.1-1.3-15.2
		c2.4-5.4,7.6-9.7,15.3-8.6c3.5,0.5,7.3-1.2,10.9-1.8c1.4-0.2,2.9-0.3,4.3,0c3.1,0.7,6.7,1.1,9.2,2.9c3.5,2.5,7,5.6,9.1,9.2
		c6.2,10.5,11.1,21.8,13.5,33.9C1422.8,479,1423.5,484,1424.3,488.9z"/>
	<path class="st7" d="M3783.3,488.9c-0.5,11.2-3.1,21.8-8,31.7c-4.4,9-8.4,18.5-14.5,26.2c-5.4,6.7-10.5,14.7-19.9,17.4
		c-4.8,1.4-8.7,0.2-12.7-2.2c-3.1-1.8-6.3-3.6-9.6-4.9c-5.7-2.2-14.2-14.3-13.4-20.4c0.4-2.6,2.1-5.3,4-7.4
		c5.7-6.4,11.6-12.6,13.9-21.2c0.5-2,2.3-3.6,2.9-5.6c4-12.9,4.6-25.8-0.4-38.5c-1.4-3.6-4.6-6.6-5.6-10.3c-1.3-5-3.2-11.1-1.3-15.2
		c2.4-5.4,7.6-9.7,15.3-8.6c3.5,0.5,7.3-1.2,10.9-1.8c1.4-0.2,2.9-0.3,4.3,0c3.1,0.7,6.7,1.1,9.2,2.9c3.5,2.5,7,5.6,9.1,9.2
		c6.2,10.5,11.1,21.8,13.5,33.9C3781.9,479,3782.5,484,3783.3,488.9z"/>
</g>
</svg>
